G75*
%MOIN*%
%OFA0B0*%
%FSLAX25Y25*%
%IPPOS*%
%LPD*%
%AMOC8*
5,1,8,0,0,1.08239X$1,22.5*
%
%ADD10R,0.06416X0.06416*%
%ADD11C,0.06416*%
%ADD12C,0.06200*%
%ADD13R,0.06731X0.06731*%
%ADD14C,0.07600*%
%ADD15C,0.13843*%
%ADD16OC8,0.07200*%
%ADD17C,0.06337*%
%ADD18C,0.06400*%
%ADD19C,0.07400*%
%ADD20C,0.06140*%
%ADD21C,0.13055*%
%ADD22R,0.04724X0.03150*%
%ADD23C,0.02000*%
%ADD24OC8,0.04362*%
%ADD25OC8,0.05937*%
%ADD26R,0.04362X0.04362*%
%ADD27C,0.06000*%
%ADD28R,0.06496X0.06496*%
D10*
X0048008Y0073094D03*
X0048008Y0116094D03*
X0048008Y0159094D03*
X0184906Y0057008D03*
X0310992Y0084906D03*
X0310992Y0127906D03*
D11*
X0299181Y0127906D03*
X0299181Y0116094D03*
X0310992Y0116094D03*
X0299181Y0084906D03*
X0299181Y0073094D03*
X0310992Y0073094D03*
X0184906Y0068819D03*
X0173094Y0068819D03*
X0173094Y0057008D03*
X0059819Y0073094D03*
X0059819Y0084906D03*
X0048008Y0084906D03*
X0059819Y0116094D03*
X0059819Y0127906D03*
X0048008Y0127906D03*
X0059819Y0159094D03*
X0059819Y0170906D03*
X0048008Y0170906D03*
D12*
X0045000Y0206000D03*
X0035000Y0206000D03*
X0025000Y0206000D03*
X0055000Y0206000D03*
X0065000Y0206000D03*
X0075000Y0206000D03*
X0085000Y0206000D03*
X0095000Y0206000D03*
X0105000Y0206000D03*
X0115000Y0206000D03*
X0125000Y0206000D03*
X0135000Y0206000D03*
X0145000Y0206000D03*
X0155000Y0206000D03*
X0165000Y0206000D03*
X0175000Y0206000D03*
X0185000Y0206000D03*
X0195000Y0206000D03*
X0205000Y0206000D03*
X0215000Y0206000D03*
X0225000Y0206000D03*
X0235000Y0206000D03*
X0245000Y0206000D03*
X0255000Y0206000D03*
X0255000Y0266000D03*
X0245000Y0266000D03*
X0235000Y0266000D03*
X0225000Y0266000D03*
X0215000Y0266000D03*
X0205000Y0266000D03*
X0195000Y0266000D03*
X0185000Y0266000D03*
X0175000Y0266000D03*
X0165000Y0266000D03*
X0155000Y0266000D03*
X0145000Y0266000D03*
X0135000Y0266000D03*
X0125000Y0266000D03*
X0115000Y0266000D03*
X0105000Y0266000D03*
X0095000Y0266000D03*
X0085000Y0266000D03*
X0075000Y0266000D03*
X0065000Y0266000D03*
X0055000Y0266000D03*
X0045000Y0266000D03*
X0035000Y0266000D03*
X0025000Y0266000D03*
D13*
X0224000Y0046000D03*
X0234000Y0046000D03*
X0244000Y0046000D03*
X0294000Y0046000D03*
X0304000Y0046000D03*
D14*
X0299000Y0261000D03*
X0289000Y0261000D03*
X0279000Y0261000D03*
X0269000Y0261000D03*
X0309000Y0261000D03*
X0319000Y0261000D03*
X0329000Y0261000D03*
X0339000Y0261000D03*
D15*
X0336000Y0156000D03*
X0272000Y0156000D03*
D16*
X0161000Y0279000D03*
X0161000Y0289000D03*
X0151000Y0289000D03*
X0141000Y0289000D03*
X0141000Y0279000D03*
X0151000Y0279000D03*
D17*
X0142000Y0062169D02*
X0142000Y0055831D01*
X0132000Y0055831D02*
X0132000Y0062169D01*
X0122000Y0062169D02*
X0122000Y0055831D01*
X0112000Y0055831D02*
X0112000Y0062169D01*
D18*
X0120800Y0086000D02*
X0127200Y0086000D01*
X0127200Y0096000D02*
X0120800Y0096000D01*
X0120800Y0106000D02*
X0127200Y0106000D01*
X0127200Y0116000D02*
X0120800Y0116000D01*
X0120800Y0126000D02*
X0127200Y0126000D01*
X0127200Y0136000D02*
X0120800Y0136000D01*
X0120800Y0146000D02*
X0127200Y0146000D01*
X0127200Y0156000D02*
X0120800Y0156000D01*
X0120800Y0166000D02*
X0127200Y0166000D01*
X0127200Y0176000D02*
X0120800Y0176000D01*
D19*
X0090000Y0218500D03*
X0080000Y0218500D03*
X0070000Y0218500D03*
X0060000Y0218500D03*
X0050000Y0218500D03*
X0075000Y0292000D03*
X0085000Y0292000D03*
X0193000Y0289000D03*
X0193000Y0279000D03*
D20*
X0292261Y0214780D02*
X0298401Y0214780D01*
X0298401Y0204937D02*
X0292261Y0204937D01*
X0292261Y0197063D02*
X0298401Y0197063D01*
X0298401Y0187220D02*
X0292261Y0187220D01*
D21*
X0306000Y0175134D03*
X0306000Y0226866D03*
D22*
X0085000Y0251457D03*
X0085000Y0258543D03*
X0075000Y0258543D03*
X0075000Y0251457D03*
X0075000Y0273457D03*
X0075000Y0280543D03*
X0085000Y0280543D03*
X0085000Y0273457D03*
D23*
X0085000Y0266000D01*
X0085000Y0258543D01*
X0085000Y0255031D02*
X0082374Y0255031D01*
X0081866Y0254895D01*
X0081410Y0254632D01*
X0081037Y0254260D01*
X0080774Y0253803D01*
X0080638Y0253295D01*
X0080638Y0251457D01*
X0085000Y0251457D01*
X0085000Y0251457D01*
X0085000Y0255031D01*
X0085000Y0251457D01*
X0089362Y0251457D01*
X0089362Y0253295D01*
X0089226Y0253803D01*
X0088963Y0254260D01*
X0088590Y0254632D01*
X0088134Y0254895D01*
X0087626Y0255031D01*
X0085000Y0255031D01*
X0085000Y0254826D02*
X0085000Y0254826D01*
X0085000Y0252827D02*
X0085000Y0252827D01*
X0085000Y0251457D02*
X0085000Y0251457D01*
X0085000Y0251457D01*
X0089362Y0251457D01*
X0089362Y0249619D01*
X0089226Y0249110D01*
X0088963Y0248654D01*
X0088590Y0248281D01*
X0088134Y0248018D01*
X0087626Y0247882D01*
X0085000Y0247882D01*
X0085000Y0251457D01*
X0080638Y0251457D01*
X0080638Y0249619D01*
X0080774Y0249110D01*
X0081037Y0248654D01*
X0081410Y0248281D01*
X0081866Y0248018D01*
X0082374Y0247882D01*
X0085000Y0247882D01*
X0085000Y0251457D01*
X0085000Y0251457D01*
X0085000Y0250829D02*
X0085000Y0250829D01*
X0085000Y0248830D02*
X0085000Y0248830D01*
X0089064Y0248830D02*
X0094000Y0248830D01*
X0094000Y0246908D02*
X0093019Y0245927D01*
X0093019Y0240073D01*
X0093092Y0240000D01*
X0050243Y0240000D01*
X0048000Y0242243D01*
X0048000Y0262070D01*
X0049154Y0263224D01*
X0049900Y0265025D01*
X0049900Y0266975D01*
X0049154Y0268776D01*
X0047776Y0270154D01*
X0045975Y0270900D01*
X0044025Y0270900D01*
X0042224Y0270154D01*
X0040846Y0268776D01*
X0040100Y0266975D01*
X0040100Y0265025D01*
X0040846Y0263224D01*
X0042000Y0262070D01*
X0042000Y0240403D01*
X0042457Y0239301D01*
X0046457Y0235301D01*
X0047301Y0234457D01*
X0048403Y0234000D01*
X0059757Y0234000D01*
X0059457Y0233699D01*
X0057457Y0231699D01*
X0057000Y0230597D01*
X0057000Y0229981D01*
X0052073Y0229981D01*
X0051092Y0229000D01*
X0041908Y0229000D01*
X0040927Y0229981D01*
X0035073Y0229981D01*
X0034019Y0228927D01*
X0034019Y0223500D01*
X0023000Y0223500D01*
X0023000Y0256929D01*
X0029239Y0263168D01*
X0029996Y0264995D01*
X0030026Y0264806D01*
X0030274Y0264042D01*
X0030638Y0263327D01*
X0031110Y0262678D01*
X0031678Y0262110D01*
X0032327Y0261638D01*
X0033042Y0261274D01*
X0033806Y0261026D01*
X0034599Y0260900D01*
X0035000Y0260900D01*
X0035401Y0260900D01*
X0036194Y0261026D01*
X0036958Y0261274D01*
X0037673Y0261638D01*
X0038322Y0262110D01*
X0038890Y0262678D01*
X0039362Y0263327D01*
X0039726Y0264042D01*
X0039974Y0264806D01*
X0040100Y0265599D01*
X0040100Y0266000D01*
X0040100Y0266401D01*
X0039974Y0267194D01*
X0039726Y0267958D01*
X0039362Y0268673D01*
X0038890Y0269322D01*
X0038322Y0269890D01*
X0037673Y0270362D01*
X0036958Y0270726D01*
X0036194Y0270974D01*
X0035401Y0271100D01*
X0035000Y0271100D01*
X0035000Y0266000D01*
X0035000Y0266000D01*
X0040100Y0266000D01*
X0035000Y0266000D01*
X0035000Y0266000D01*
X0035000Y0271100D01*
X0034599Y0271100D01*
X0034294Y0271052D01*
X0059243Y0296000D01*
X0071222Y0296000D01*
X0070337Y0295115D01*
X0069500Y0293094D01*
X0069500Y0290906D01*
X0070337Y0288884D01*
X0071884Y0287337D01*
X0073906Y0286500D01*
X0076094Y0286500D01*
X0078115Y0287337D01*
X0079663Y0288884D01*
X0080000Y0289699D01*
X0080337Y0288884D01*
X0081884Y0287337D01*
X0083906Y0286500D01*
X0086094Y0286500D01*
X0088115Y0287337D01*
X0089663Y0288884D01*
X0090500Y0290906D01*
X0090500Y0293094D01*
X0089663Y0295115D01*
X0088778Y0296000D01*
X0129757Y0296000D01*
X0135600Y0290157D01*
X0135600Y0288981D01*
X0131073Y0288981D01*
X0130092Y0288000D01*
X0122403Y0288000D01*
X0121301Y0287543D01*
X0120457Y0286699D01*
X0117457Y0283699D01*
X0117000Y0282597D01*
X0117000Y0270475D01*
X0115975Y0270900D01*
X0114025Y0270900D01*
X0112224Y0270154D01*
X0110846Y0268776D01*
X0110100Y0266975D01*
X0110100Y0265025D01*
X0110846Y0263224D01*
X0112000Y0262070D01*
X0112000Y0248403D01*
X0112457Y0247301D01*
X0113301Y0246457D01*
X0119301Y0240457D01*
X0120403Y0240000D01*
X0159092Y0240000D01*
X0108908Y0240000D01*
X0108981Y0240073D01*
X0108981Y0245927D01*
X0108000Y0246908D01*
X0108000Y0262070D01*
X0109154Y0263224D01*
X0109900Y0265025D01*
X0109900Y0266975D01*
X0109154Y0268776D01*
X0107776Y0270154D01*
X0105975Y0270900D01*
X0104025Y0270900D01*
X0102224Y0270154D01*
X0100846Y0268776D01*
X0100100Y0266975D01*
X0100100Y0265025D01*
X0100846Y0263224D01*
X0102000Y0262070D01*
X0102000Y0246908D01*
X0101019Y0245927D01*
X0101019Y0240073D01*
X0101092Y0240000D01*
X0100908Y0240000D01*
X0100981Y0240073D01*
X0100981Y0245927D01*
X0100000Y0246908D01*
X0100000Y0264597D01*
X0099861Y0264932D01*
X0099900Y0265025D01*
X0099900Y0266975D01*
X0099154Y0268776D01*
X0097776Y0270154D01*
X0095975Y0270900D01*
X0094025Y0270900D01*
X0092224Y0270154D01*
X0090846Y0268776D01*
X0090100Y0266975D01*
X0090100Y0265025D01*
X0090846Y0263224D01*
X0092224Y0261846D01*
X0094000Y0261110D01*
X0094000Y0246908D01*
X0093924Y0246832D02*
X0048000Y0246832D01*
X0048000Y0248830D02*
X0070936Y0248830D01*
X0071037Y0248654D02*
X0071410Y0248281D01*
X0071866Y0248018D01*
X0072374Y0247882D01*
X0075000Y0247882D01*
X0077626Y0247882D01*
X0078134Y0248018D01*
X0078590Y0248281D01*
X0078963Y0248654D01*
X0079226Y0249110D01*
X0079362Y0249619D01*
X0079362Y0251457D01*
X0079362Y0253295D01*
X0079226Y0253803D01*
X0078963Y0254260D01*
X0078590Y0254632D01*
X0078134Y0254895D01*
X0077626Y0255031D01*
X0075000Y0255031D01*
X0072374Y0255031D01*
X0071866Y0254895D01*
X0071410Y0254632D01*
X0071037Y0254260D01*
X0070774Y0253803D01*
X0070638Y0253295D01*
X0070638Y0251457D01*
X0075000Y0251457D01*
X0075000Y0251457D01*
X0075000Y0255031D01*
X0075000Y0251457D01*
X0079362Y0251457D01*
X0075000Y0251457D01*
X0075000Y0251457D01*
X0075000Y0251457D01*
X0070638Y0251457D01*
X0070638Y0249619D01*
X0070774Y0249110D01*
X0071037Y0248654D01*
X0070638Y0250829D02*
X0048000Y0250829D01*
X0048000Y0252827D02*
X0070638Y0252827D01*
X0071746Y0254826D02*
X0048000Y0254826D01*
X0048000Y0256824D02*
X0070838Y0256824D01*
X0070838Y0256223D02*
X0071892Y0255169D01*
X0078108Y0255169D01*
X0079162Y0256223D01*
X0079162Y0260864D01*
X0078108Y0261918D01*
X0078000Y0261918D01*
X0078000Y0262070D01*
X0079154Y0263224D01*
X0079900Y0265025D01*
X0079900Y0266975D01*
X0079154Y0268776D01*
X0078000Y0269930D01*
X0078000Y0270082D01*
X0078108Y0270082D01*
X0079162Y0271136D01*
X0079162Y0275777D01*
X0078108Y0276831D01*
X0071892Y0276831D01*
X0070838Y0275777D01*
X0070838Y0271136D01*
X0071892Y0270082D01*
X0072000Y0270082D01*
X0072000Y0269930D01*
X0070846Y0268776D01*
X0070100Y0266975D01*
X0070100Y0265025D01*
X0070846Y0263224D01*
X0072000Y0262070D01*
X0072000Y0261918D01*
X0071892Y0261918D01*
X0070838Y0260864D01*
X0070838Y0256223D01*
X0070838Y0258823D02*
X0048000Y0258823D01*
X0048000Y0260821D02*
X0070838Y0260821D01*
X0071250Y0262820D02*
X0068750Y0262820D01*
X0069154Y0263224D02*
X0069900Y0265025D01*
X0069900Y0266975D01*
X0069154Y0268776D01*
X0067776Y0270154D01*
X0065975Y0270900D01*
X0064025Y0270900D01*
X0062224Y0270154D01*
X0060846Y0268776D01*
X0060100Y0266975D01*
X0060100Y0265025D01*
X0060846Y0263224D01*
X0062224Y0261846D01*
X0064025Y0261100D01*
X0065975Y0261100D01*
X0067776Y0261846D01*
X0069154Y0263224D01*
X0069814Y0264818D02*
X0070186Y0264818D01*
X0070100Y0266817D02*
X0069900Y0266817D01*
X0069114Y0268815D02*
X0070886Y0268815D01*
X0071160Y0270814D02*
X0066182Y0270814D01*
X0063818Y0270814D02*
X0056182Y0270814D01*
X0055975Y0270900D02*
X0054025Y0270900D01*
X0052224Y0270154D01*
X0050846Y0268776D01*
X0050100Y0266975D01*
X0050100Y0265025D01*
X0050846Y0263224D01*
X0052224Y0261846D01*
X0054025Y0261100D01*
X0055975Y0261100D01*
X0057776Y0261846D01*
X0059154Y0263224D01*
X0059900Y0265025D01*
X0059900Y0266975D01*
X0059154Y0268776D01*
X0057776Y0270154D01*
X0055975Y0270900D01*
X0053818Y0270814D02*
X0046182Y0270814D01*
X0043818Y0270814D02*
X0036688Y0270814D01*
X0035000Y0270814D02*
X0035000Y0270814D01*
X0035000Y0268815D02*
X0035000Y0268815D01*
X0035000Y0266817D02*
X0035000Y0266817D01*
X0035000Y0266000D02*
X0035000Y0260900D01*
X0035000Y0266000D01*
X0035000Y0266000D01*
X0035000Y0264818D02*
X0035000Y0264818D01*
X0035000Y0262820D02*
X0035000Y0262820D01*
X0038993Y0262820D02*
X0041250Y0262820D01*
X0042000Y0260821D02*
X0026892Y0260821D01*
X0024894Y0258823D02*
X0042000Y0258823D01*
X0042000Y0256824D02*
X0023000Y0256824D01*
X0023000Y0254826D02*
X0042000Y0254826D01*
X0042000Y0252827D02*
X0023000Y0252827D01*
X0023000Y0250829D02*
X0042000Y0250829D01*
X0042000Y0248830D02*
X0023000Y0248830D01*
X0023000Y0246832D02*
X0042000Y0246832D01*
X0042000Y0244833D02*
X0023000Y0244833D01*
X0023000Y0242835D02*
X0042000Y0242835D01*
X0042000Y0240836D02*
X0023000Y0240836D01*
X0023000Y0238838D02*
X0042920Y0238838D01*
X0044918Y0236839D02*
X0023000Y0236839D01*
X0023000Y0234841D02*
X0046917Y0234841D01*
X0049000Y0237000D02*
X0163000Y0237000D01*
X0159092Y0240000D02*
X0159092Y0240000D01*
X0153000Y0248000D02*
X0148000Y0253000D01*
X0129000Y0253000D01*
X0125000Y0257000D01*
X0125000Y0266000D01*
X0123000Y0270475D02*
X0123000Y0280757D01*
X0124243Y0282000D01*
X0130092Y0282000D01*
X0131073Y0281019D01*
X0135600Y0281019D01*
X0135600Y0276763D01*
X0138763Y0273600D01*
X0143237Y0273600D01*
X0146000Y0276363D01*
X0148000Y0274363D01*
X0148000Y0269930D01*
X0147776Y0270154D01*
X0145975Y0270900D01*
X0144025Y0270900D01*
X0142224Y0270154D01*
X0140846Y0268776D01*
X0140100Y0266975D01*
X0140100Y0265025D01*
X0140846Y0263224D01*
X0142224Y0261846D01*
X0144025Y0261100D01*
X0145975Y0261100D01*
X0147776Y0261846D01*
X0149154Y0263224D01*
X0149900Y0265025D01*
X0149900Y0266857D01*
X0150100Y0266657D01*
X0150100Y0265025D01*
X0150846Y0263224D01*
X0152224Y0261846D01*
X0154025Y0261100D01*
X0155975Y0261100D01*
X0157776Y0261846D01*
X0159154Y0263224D01*
X0159900Y0265025D01*
X0159900Y0266975D01*
X0159154Y0268776D01*
X0157776Y0270154D01*
X0155975Y0270900D01*
X0154343Y0270900D01*
X0154000Y0271243D01*
X0154000Y0274363D01*
X0156000Y0276363D01*
X0158763Y0273600D01*
X0163237Y0273600D01*
X0166400Y0276763D01*
X0166400Y0281237D01*
X0163778Y0283859D01*
X0166600Y0286680D01*
X0166600Y0288819D01*
X0161181Y0288819D01*
X0161181Y0289181D01*
X0160819Y0289181D01*
X0160819Y0294600D01*
X0158680Y0294600D01*
X0155859Y0291778D01*
X0153237Y0294400D01*
X0148763Y0294400D01*
X0146000Y0291637D01*
X0143237Y0294400D01*
X0139843Y0294400D01*
X0133778Y0300465D01*
X0342646Y0300465D01*
X0342646Y0265274D01*
X0342172Y0265747D01*
X0340114Y0266600D01*
X0337886Y0266600D01*
X0335828Y0265747D01*
X0334253Y0264172D01*
X0334000Y0263562D01*
X0333747Y0264172D01*
X0332172Y0265747D01*
X0330114Y0266600D01*
X0327886Y0266600D01*
X0325828Y0265747D01*
X0324253Y0264172D01*
X0324000Y0263562D01*
X0323747Y0264172D01*
X0322172Y0265747D01*
X0320114Y0266600D01*
X0317886Y0266600D01*
X0315828Y0265747D01*
X0314253Y0264172D01*
X0314000Y0263562D01*
X0313747Y0264172D01*
X0312172Y0265747D01*
X0310114Y0266600D01*
X0307886Y0266600D01*
X0305828Y0265747D01*
X0304253Y0264172D01*
X0304000Y0263562D01*
X0303747Y0264172D01*
X0302172Y0265747D01*
X0300114Y0266600D01*
X0297886Y0266600D01*
X0295828Y0265747D01*
X0294253Y0264172D01*
X0294000Y0263562D01*
X0293747Y0264172D01*
X0292172Y0265747D01*
X0290114Y0266600D01*
X0287886Y0266600D01*
X0285828Y0265747D01*
X0284253Y0264172D01*
X0284091Y0263783D01*
X0283961Y0264040D01*
X0283424Y0264778D01*
X0282778Y0265424D01*
X0282040Y0265961D01*
X0281226Y0266375D01*
X0280358Y0266657D01*
X0279456Y0266800D01*
X0279000Y0266800D01*
X0279000Y0261000D01*
X0279000Y0261000D01*
X0279000Y0266800D01*
X0278544Y0266800D01*
X0277642Y0266657D01*
X0276774Y0266375D01*
X0275960Y0265961D01*
X0275222Y0265424D01*
X0274576Y0264778D01*
X0274039Y0264040D01*
X0273909Y0263783D01*
X0273747Y0264172D01*
X0272172Y0265747D01*
X0270114Y0266600D01*
X0267886Y0266600D01*
X0265828Y0265747D01*
X0264253Y0264172D01*
X0263400Y0262114D01*
X0263400Y0259886D01*
X0264253Y0257828D01*
X0265828Y0256253D01*
X0266438Y0256000D01*
X0243981Y0256000D01*
X0243981Y0260927D01*
X0243654Y0261254D01*
X0244025Y0261100D01*
X0245975Y0261100D01*
X0247776Y0261846D01*
X0249154Y0263224D01*
X0249900Y0265025D01*
X0249900Y0266975D01*
X0249154Y0268776D01*
X0247776Y0270154D01*
X0245975Y0270900D01*
X0244025Y0270900D01*
X0242224Y0270154D01*
X0240846Y0268776D01*
X0240100Y0266975D01*
X0240100Y0265025D01*
X0240846Y0263224D01*
X0242089Y0261981D01*
X0237911Y0261981D01*
X0239154Y0263224D01*
X0239900Y0265025D01*
X0239900Y0266975D01*
X0239154Y0268776D01*
X0237776Y0270154D01*
X0235975Y0270900D01*
X0234025Y0270900D01*
X0232224Y0270154D01*
X0230846Y0268776D01*
X0230100Y0266975D01*
X0230100Y0265025D01*
X0230846Y0263224D01*
X0232224Y0261846D01*
X0234025Y0261100D01*
X0235975Y0261100D01*
X0236346Y0261254D01*
X0236092Y0261000D01*
X0166033Y0261000D01*
X0166194Y0261026D01*
X0166958Y0261274D01*
X0167673Y0261638D01*
X0168322Y0262110D01*
X0168890Y0262678D01*
X0169362Y0263327D01*
X0169726Y0264042D01*
X0169974Y0264806D01*
X0170100Y0265599D01*
X0170100Y0266000D01*
X0170100Y0266401D01*
X0169974Y0267194D01*
X0169726Y0267958D01*
X0169362Y0268673D01*
X0168890Y0269322D01*
X0168322Y0269890D01*
X0167673Y0270362D01*
X0166958Y0270726D01*
X0166194Y0270974D01*
X0165401Y0271100D01*
X0165000Y0271100D01*
X0165000Y0266000D01*
X0165000Y0266000D01*
X0170100Y0266000D01*
X0165000Y0266000D01*
X0165000Y0266000D01*
X0165000Y0266000D01*
X0159900Y0266000D01*
X0159900Y0266401D01*
X0160026Y0267194D01*
X0160274Y0267958D01*
X0160638Y0268673D01*
X0161110Y0269322D01*
X0161678Y0269890D01*
X0162327Y0270362D01*
X0163042Y0270726D01*
X0163806Y0270974D01*
X0164599Y0271100D01*
X0165000Y0271100D01*
X0165000Y0266000D01*
X0159900Y0266000D01*
X0159900Y0265599D01*
X0160026Y0264806D01*
X0160274Y0264042D01*
X0160638Y0263327D01*
X0161110Y0262678D01*
X0161678Y0262110D01*
X0162327Y0261638D01*
X0163042Y0261274D01*
X0163806Y0261026D01*
X0163967Y0261000D01*
X0138000Y0261000D01*
X0138000Y0262070D01*
X0139154Y0263224D01*
X0139900Y0265025D01*
X0139900Y0266975D01*
X0139154Y0268776D01*
X0137776Y0270154D01*
X0135975Y0270900D01*
X0134025Y0270900D01*
X0132224Y0270154D01*
X0130846Y0268776D01*
X0130100Y0266975D01*
X0130100Y0265025D01*
X0130846Y0263224D01*
X0132000Y0262070D01*
X0132000Y0258403D01*
X0132457Y0257301D01*
X0133457Y0256301D01*
X0133757Y0256000D01*
X0130243Y0256000D01*
X0128000Y0258243D01*
X0128000Y0262070D01*
X0129154Y0263224D01*
X0129900Y0265025D01*
X0129900Y0266975D01*
X0129154Y0268776D01*
X0127776Y0270154D01*
X0125975Y0270900D01*
X0124025Y0270900D01*
X0123000Y0270475D01*
X0123000Y0270814D02*
X0123818Y0270814D01*
X0123000Y0272812D02*
X0148000Y0272812D01*
X0148000Y0270814D02*
X0146182Y0270814D01*
X0143818Y0270814D02*
X0136182Y0270814D01*
X0133818Y0270814D02*
X0126182Y0270814D01*
X0129114Y0268815D02*
X0130886Y0268815D01*
X0130100Y0266817D02*
X0129900Y0266817D01*
X0129814Y0264818D02*
X0130186Y0264818D01*
X0131250Y0262820D02*
X0128750Y0262820D01*
X0128000Y0260821D02*
X0132000Y0260821D01*
X0132000Y0258823D02*
X0128000Y0258823D01*
X0129418Y0256824D02*
X0132933Y0256824D01*
X0135000Y0259000D02*
X0136000Y0258000D01*
X0240000Y0258000D01*
X0243981Y0258823D02*
X0263840Y0258823D01*
X0263400Y0260821D02*
X0243981Y0260821D01*
X0241250Y0262820D02*
X0238749Y0262820D01*
X0239814Y0264818D02*
X0240186Y0264818D01*
X0240100Y0266817D02*
X0239900Y0266817D01*
X0239114Y0268815D02*
X0240886Y0268815D01*
X0243818Y0270814D02*
X0236182Y0270814D01*
X0233818Y0270814D02*
X0226182Y0270814D01*
X0225975Y0270900D02*
X0224025Y0270900D01*
X0222224Y0270154D01*
X0220846Y0268776D01*
X0220100Y0266975D01*
X0220100Y0265025D01*
X0220846Y0263224D01*
X0222224Y0261846D01*
X0224025Y0261100D01*
X0225975Y0261100D01*
X0227776Y0261846D01*
X0229154Y0263224D01*
X0229900Y0265025D01*
X0229900Y0266975D01*
X0229154Y0268776D01*
X0227776Y0270154D01*
X0225975Y0270900D01*
X0223818Y0270814D02*
X0216182Y0270814D01*
X0215975Y0270900D02*
X0214025Y0270900D01*
X0212224Y0270154D01*
X0210846Y0268776D01*
X0210100Y0266975D01*
X0210100Y0265025D01*
X0210846Y0263224D01*
X0212224Y0261846D01*
X0214025Y0261100D01*
X0215975Y0261100D01*
X0217776Y0261846D01*
X0219154Y0263224D01*
X0219900Y0265025D01*
X0219900Y0266975D01*
X0219154Y0268776D01*
X0217776Y0270154D01*
X0215975Y0270900D01*
X0213818Y0270814D02*
X0206182Y0270814D01*
X0205975Y0270900D02*
X0204025Y0270900D01*
X0202224Y0270154D01*
X0200846Y0268776D01*
X0200100Y0266975D01*
X0200100Y0265025D01*
X0200846Y0263224D01*
X0202224Y0261846D01*
X0204025Y0261100D01*
X0205975Y0261100D01*
X0207776Y0261846D01*
X0209154Y0263224D01*
X0209900Y0265025D01*
X0209900Y0266975D01*
X0209154Y0268776D01*
X0207776Y0270154D01*
X0205975Y0270900D01*
X0203818Y0270814D02*
X0196182Y0270814D01*
X0195975Y0270900D02*
X0194025Y0270900D01*
X0192224Y0270154D01*
X0190846Y0268776D01*
X0190100Y0266975D01*
X0190100Y0265025D01*
X0190846Y0263224D01*
X0192224Y0261846D01*
X0194025Y0261100D01*
X0195975Y0261100D01*
X0197776Y0261846D01*
X0199154Y0263224D01*
X0199900Y0265025D01*
X0199900Y0266975D01*
X0199154Y0268776D01*
X0197776Y0270154D01*
X0195975Y0270900D01*
X0193818Y0270814D02*
X0186182Y0270814D01*
X0185975Y0270900D02*
X0187776Y0270154D01*
X0189154Y0268776D01*
X0189900Y0266975D01*
X0189900Y0265025D01*
X0189154Y0263224D01*
X0187776Y0261846D01*
X0185975Y0261100D01*
X0184025Y0261100D01*
X0182224Y0261846D01*
X0180846Y0263224D01*
X0180100Y0265025D01*
X0180100Y0266975D01*
X0180846Y0268776D01*
X0182224Y0270154D01*
X0184025Y0270900D01*
X0185975Y0270900D01*
X0183818Y0270814D02*
X0176182Y0270814D01*
X0175975Y0270900D02*
X0174025Y0270900D01*
X0172224Y0270154D01*
X0170846Y0268776D01*
X0170100Y0266975D01*
X0170100Y0265025D01*
X0170846Y0263224D01*
X0172224Y0261846D01*
X0174025Y0261100D01*
X0175975Y0261100D01*
X0177776Y0261846D01*
X0179154Y0263224D01*
X0179900Y0265025D01*
X0179900Y0266975D01*
X0179154Y0268776D01*
X0177776Y0270154D01*
X0175975Y0270900D01*
X0173818Y0270814D02*
X0166688Y0270814D01*
X0165000Y0270814D02*
X0165000Y0270814D01*
X0163312Y0270814D02*
X0156182Y0270814D01*
X0154000Y0272812D02*
X0342646Y0272812D01*
X0342646Y0270814D02*
X0256182Y0270814D01*
X0255975Y0270900D02*
X0254025Y0270900D01*
X0252224Y0270154D01*
X0250846Y0268776D01*
X0250100Y0266975D01*
X0250100Y0265025D01*
X0250846Y0263224D01*
X0252224Y0261846D01*
X0254025Y0261100D01*
X0255975Y0261100D01*
X0257776Y0261846D01*
X0259154Y0263224D01*
X0259900Y0265025D01*
X0259900Y0266975D01*
X0259154Y0268776D01*
X0257776Y0270154D01*
X0255975Y0270900D01*
X0253818Y0270814D02*
X0246182Y0270814D01*
X0249114Y0268815D02*
X0250886Y0268815D01*
X0250100Y0266817D02*
X0249900Y0266817D01*
X0249814Y0264818D02*
X0250186Y0264818D01*
X0251250Y0262820D02*
X0248750Y0262820D01*
X0243981Y0256824D02*
X0265256Y0256824D01*
X0263692Y0262820D02*
X0258750Y0262820D01*
X0259814Y0264818D02*
X0264899Y0264818D01*
X0259900Y0266817D02*
X0342646Y0266817D01*
X0342646Y0268815D02*
X0259114Y0268815D01*
X0273101Y0264818D02*
X0274616Y0264818D01*
X0279000Y0264818D02*
X0279000Y0264818D01*
X0279000Y0262820D02*
X0279000Y0262820D01*
X0283384Y0264818D02*
X0284899Y0264818D01*
X0293101Y0264818D02*
X0294899Y0264818D01*
X0303101Y0264818D02*
X0304899Y0264818D01*
X0304000Y0258438D02*
X0304253Y0257828D01*
X0305828Y0256253D01*
X0307886Y0255400D01*
X0310114Y0255400D01*
X0312172Y0256253D01*
X0313747Y0257828D01*
X0314000Y0258438D01*
X0314253Y0257828D01*
X0315828Y0256253D01*
X0317886Y0255400D01*
X0320114Y0255400D01*
X0322172Y0256253D01*
X0323747Y0257828D01*
X0324000Y0258438D01*
X0324253Y0257828D01*
X0325828Y0256253D01*
X0327886Y0255400D01*
X0330114Y0255400D01*
X0332172Y0256253D01*
X0333747Y0257828D01*
X0334000Y0258438D01*
X0334253Y0257828D01*
X0335828Y0256253D01*
X0337886Y0255400D01*
X0340114Y0255400D01*
X0342172Y0256253D01*
X0342646Y0256726D01*
X0342646Y0161831D01*
X0342319Y0162319D01*
X0341400Y0162934D01*
X0340940Y0163394D01*
X0340340Y0163642D01*
X0339420Y0164257D01*
X0338335Y0164472D01*
X0337735Y0164721D01*
X0337085Y0164721D01*
X0336000Y0164937D01*
X0334915Y0164721D01*
X0334265Y0164721D01*
X0333665Y0164472D01*
X0332580Y0164257D01*
X0331660Y0163642D01*
X0331060Y0163394D01*
X0330600Y0162934D01*
X0329681Y0162319D01*
X0329066Y0161400D01*
X0328606Y0160940D01*
X0328358Y0160340D01*
X0327743Y0159420D01*
X0327528Y0158335D01*
X0327279Y0157735D01*
X0327279Y0157085D01*
X0327063Y0156000D01*
X0327279Y0154915D01*
X0327279Y0154265D01*
X0327528Y0153665D01*
X0327743Y0152580D01*
X0328358Y0151660D01*
X0328606Y0151060D01*
X0329066Y0150600D01*
X0329681Y0149681D01*
X0330600Y0149066D01*
X0331060Y0148606D01*
X0331660Y0148358D01*
X0332580Y0147743D01*
X0333665Y0147528D01*
X0334265Y0147279D01*
X0334915Y0147279D01*
X0336000Y0147063D01*
X0337085Y0147279D01*
X0337735Y0147279D01*
X0338335Y0147528D01*
X0339420Y0147743D01*
X0340340Y0148358D01*
X0340940Y0148606D01*
X0341400Y0149066D01*
X0342319Y0149681D01*
X0342646Y0150169D01*
X0342646Y0025000D01*
X0237981Y0025000D01*
X0237981Y0029927D01*
X0237000Y0030908D01*
X0237000Y0040835D01*
X0238111Y0040835D01*
X0238906Y0041629D01*
X0239034Y0041407D01*
X0239407Y0041034D01*
X0239863Y0040771D01*
X0240371Y0040635D01*
X0243917Y0040635D01*
X0243917Y0045917D01*
X0244083Y0045917D01*
X0244083Y0046083D01*
X0243917Y0046083D01*
X0243917Y0051365D01*
X0240371Y0051365D01*
X0239863Y0051229D01*
X0239407Y0050966D01*
X0239034Y0050593D01*
X0238906Y0050371D01*
X0238111Y0051165D01*
X0229889Y0051165D01*
X0229000Y0050276D01*
X0228111Y0051165D01*
X0219889Y0051165D01*
X0218835Y0050111D01*
X0218835Y0041889D01*
X0219000Y0041724D01*
X0219000Y0032071D01*
X0218929Y0032000D01*
X0185008Y0032000D01*
X0187397Y0034389D01*
X0188905Y0038030D01*
X0188905Y0041970D01*
X0187397Y0045611D01*
X0184611Y0048397D01*
X0180970Y0049905D01*
X0177030Y0049905D01*
X0173389Y0048397D01*
X0170603Y0045611D01*
X0169094Y0041970D01*
X0169094Y0038030D01*
X0170603Y0034389D01*
X0172992Y0032000D01*
X0147000Y0032000D01*
X0147000Y0059995D01*
X0146968Y0060071D01*
X0146968Y0063157D01*
X0146212Y0064983D01*
X0144814Y0066381D01*
X0142988Y0067137D01*
X0141012Y0067137D01*
X0139186Y0066381D01*
X0137788Y0064983D01*
X0137064Y0063235D01*
X0137041Y0063379D01*
X0136790Y0064153D01*
X0136420Y0064877D01*
X0135942Y0065536D01*
X0135367Y0066111D01*
X0134709Y0066589D01*
X0133984Y0066958D01*
X0133210Y0067210D01*
X0132407Y0067337D01*
X0132000Y0067337D01*
X0132000Y0059000D01*
X0132000Y0059000D01*
X0132000Y0050663D01*
X0132407Y0050663D01*
X0133210Y0050790D01*
X0133984Y0051042D01*
X0134709Y0051411D01*
X0135367Y0051889D01*
X0135942Y0052464D01*
X0136420Y0053123D01*
X0136790Y0053847D01*
X0137000Y0054494D01*
X0137000Y0032000D01*
X0097071Y0032000D01*
X0094000Y0035071D01*
X0094000Y0074929D01*
X0100071Y0081000D01*
X0128195Y0081000D01*
X0130032Y0081761D01*
X0131271Y0083000D01*
X0157597Y0083000D01*
X0158699Y0083457D01*
X0163699Y0088457D01*
X0164543Y0089301D01*
X0165000Y0090403D01*
X0165000Y0103092D01*
X0165981Y0104073D01*
X0165981Y0109927D01*
X0164927Y0110981D01*
X0159073Y0110981D01*
X0158019Y0109927D01*
X0158019Y0104073D01*
X0159000Y0103092D01*
X0159000Y0092243D01*
X0155757Y0089000D01*
X0131271Y0089000D01*
X0130032Y0090239D01*
X0128382Y0090922D01*
X0128418Y0090928D01*
X0129196Y0091181D01*
X0129925Y0091553D01*
X0130588Y0092034D01*
X0131166Y0092612D01*
X0131647Y0093275D01*
X0132019Y0094004D01*
X0132272Y0094782D01*
X0132400Y0095591D01*
X0132400Y0096000D01*
X0132400Y0096409D01*
X0132272Y0097218D01*
X0132019Y0097996D01*
X0131647Y0098725D01*
X0131166Y0099388D01*
X0130588Y0099966D01*
X0129925Y0100447D01*
X0129196Y0100819D01*
X0128418Y0101072D01*
X0128382Y0101078D01*
X0130032Y0101761D01*
X0131439Y0103168D01*
X0132200Y0105005D01*
X0132200Y0106995D01*
X0131439Y0108832D01*
X0130032Y0110239D01*
X0128195Y0111000D01*
X0130032Y0111761D01*
X0131439Y0113168D01*
X0132200Y0115005D01*
X0132200Y0116995D01*
X0131784Y0118000D01*
X0196597Y0118000D01*
X0197699Y0118457D01*
X0198543Y0119301D01*
X0205699Y0126457D01*
X0206543Y0127301D01*
X0207000Y0128403D01*
X0207000Y0182757D01*
X0207019Y0182776D01*
X0207019Y0179073D01*
X0208073Y0178019D01*
X0213927Y0178019D01*
X0214981Y0179073D01*
X0214981Y0181738D01*
X0232000Y0198757D01*
X0232000Y0189243D01*
X0225301Y0182543D01*
X0224457Y0181699D01*
X0224000Y0180597D01*
X0224000Y0147243D01*
X0223757Y0147000D01*
X0218908Y0147000D01*
X0217927Y0147981D01*
X0212073Y0147981D01*
X0211019Y0146927D01*
X0211019Y0141073D01*
X0212073Y0140019D01*
X0217927Y0140019D01*
X0218908Y0141000D01*
X0225597Y0141000D01*
X0226699Y0141457D01*
X0229543Y0144301D01*
X0230000Y0145403D01*
X0230000Y0178757D01*
X0237000Y0185757D01*
X0237000Y0183403D01*
X0237019Y0183358D01*
X0237019Y0180073D01*
X0238073Y0179019D01*
X0243927Y0179019D01*
X0244981Y0180073D01*
X0244981Y0185927D01*
X0243927Y0186981D01*
X0243000Y0186981D01*
X0243000Y0201525D01*
X0244025Y0201100D01*
X0245975Y0201100D01*
X0247776Y0201846D01*
X0249154Y0203224D01*
X0249900Y0205025D01*
X0249900Y0206975D01*
X0249154Y0208776D01*
X0247776Y0210154D01*
X0245975Y0210900D01*
X0244025Y0210900D01*
X0243000Y0210475D01*
X0243000Y0225092D01*
X0243981Y0226073D01*
X0243981Y0231000D01*
X0246757Y0231000D01*
X0247000Y0230757D01*
X0247000Y0214403D01*
X0247457Y0213301D01*
X0250457Y0210301D01*
X0251301Y0209457D01*
X0251461Y0209390D01*
X0250846Y0208776D01*
X0250100Y0206975D01*
X0250100Y0205025D01*
X0250846Y0203224D01*
X0252224Y0201846D01*
X0254025Y0201100D01*
X0255975Y0201100D01*
X0257776Y0201846D01*
X0259154Y0203224D01*
X0259900Y0205025D01*
X0259900Y0206975D01*
X0259154Y0208776D01*
X0258930Y0209000D01*
X0263019Y0209000D01*
X0263019Y0204073D01*
X0264000Y0203092D01*
X0264000Y0185981D01*
X0259073Y0185981D01*
X0258019Y0184927D01*
X0258019Y0182262D01*
X0257457Y0181699D01*
X0257000Y0180597D01*
X0257000Y0149403D01*
X0257457Y0148301D01*
X0258301Y0147457D01*
X0267776Y0137981D01*
X0265262Y0137981D01*
X0238000Y0165243D01*
X0238000Y0170092D01*
X0238981Y0171073D01*
X0238981Y0176927D01*
X0237927Y0177981D01*
X0232073Y0177981D01*
X0231019Y0176927D01*
X0231019Y0171073D01*
X0232000Y0170092D01*
X0232000Y0163403D01*
X0232457Y0162301D01*
X0233301Y0161457D01*
X0237776Y0156981D01*
X0233073Y0156981D01*
X0232019Y0155927D01*
X0232019Y0150073D01*
X0233073Y0149019D01*
X0235738Y0149019D01*
X0246457Y0138301D01*
X0246519Y0138238D01*
X0246519Y0135573D01*
X0247573Y0134519D01*
X0250238Y0134519D01*
X0261000Y0123757D01*
X0261000Y0121908D01*
X0260019Y0120927D01*
X0260019Y0115073D01*
X0261073Y0114019D01*
X0266927Y0114019D01*
X0267981Y0115073D01*
X0267981Y0120927D01*
X0267000Y0121908D01*
X0267000Y0125597D01*
X0266543Y0126699D01*
X0263224Y0130019D01*
X0264738Y0130019D01*
X0268000Y0126757D01*
X0268000Y0092403D01*
X0268167Y0092000D01*
X0267005Y0092000D01*
X0265168Y0091239D01*
X0263761Y0089832D01*
X0263000Y0087995D01*
X0263000Y0054005D01*
X0263761Y0052168D01*
X0272761Y0043168D01*
X0274168Y0041761D01*
X0276005Y0041000D01*
X0289724Y0041000D01*
X0289889Y0040835D01*
X0298111Y0040835D01*
X0298906Y0041629D01*
X0299034Y0041407D01*
X0299407Y0041034D01*
X0299863Y0040771D01*
X0300371Y0040635D01*
X0303917Y0040635D01*
X0303917Y0045917D01*
X0304083Y0045917D01*
X0304083Y0046083D01*
X0303917Y0046083D01*
X0303917Y0050876D01*
X0304048Y0051006D01*
X0304048Y0058994D01*
X0302994Y0060048D01*
X0297291Y0060048D01*
X0301724Y0064482D01*
X0302181Y0065584D01*
X0302181Y0069012D01*
X0303427Y0070258D01*
X0304189Y0072098D01*
X0304189Y0074091D01*
X0303427Y0075931D01*
X0302018Y0077340D01*
X0300177Y0078102D01*
X0298185Y0078102D01*
X0296344Y0077340D01*
X0294936Y0075931D01*
X0294173Y0074091D01*
X0294173Y0072098D01*
X0294936Y0070258D01*
X0296181Y0069012D01*
X0296181Y0067424D01*
X0292000Y0063243D01*
X0292000Y0079906D01*
X0298166Y0079906D01*
X0298185Y0079898D01*
X0300177Y0079898D01*
X0302018Y0080660D01*
X0303427Y0082069D01*
X0304189Y0083909D01*
X0304189Y0085902D01*
X0303427Y0087742D01*
X0302018Y0089151D01*
X0300177Y0089913D01*
X0298185Y0089913D01*
X0298166Y0089905D01*
X0292000Y0089905D01*
X0292000Y0120929D01*
X0293332Y0122261D01*
X0294071Y0123000D01*
X0297938Y0123000D01*
X0298185Y0122898D01*
X0300177Y0122898D01*
X0302018Y0123660D01*
X0303427Y0125069D01*
X0304189Y0126909D01*
X0304189Y0128902D01*
X0303427Y0130742D01*
X0302620Y0131549D01*
X0322832Y0151761D01*
X0324239Y0153168D01*
X0325000Y0155005D01*
X0325000Y0238995D01*
X0324239Y0240832D01*
X0317239Y0247832D01*
X0316981Y0248090D01*
X0316981Y0253927D01*
X0315927Y0254981D01*
X0310073Y0254981D01*
X0309019Y0253927D01*
X0309019Y0250000D01*
X0308071Y0250000D01*
X0304000Y0254071D01*
X0304000Y0258438D01*
X0304000Y0258438D01*
X0304000Y0256824D02*
X0305256Y0256824D01*
X0304000Y0254826D02*
X0309918Y0254826D01*
X0309019Y0252827D02*
X0305244Y0252827D01*
X0307242Y0250829D02*
X0309019Y0250829D01*
X0313000Y0251000D02*
X0313000Y0245000D01*
X0316981Y0248830D02*
X0342646Y0248830D01*
X0342646Y0246832D02*
X0318239Y0246832D01*
X0320238Y0244833D02*
X0342646Y0244833D01*
X0342646Y0242835D02*
X0322236Y0242835D01*
X0324235Y0240836D02*
X0342646Y0240836D01*
X0342646Y0238838D02*
X0325000Y0238838D01*
X0325000Y0236839D02*
X0342646Y0236839D01*
X0342646Y0234841D02*
X0325000Y0234841D01*
X0325000Y0232842D02*
X0342646Y0232842D01*
X0342646Y0230844D02*
X0325000Y0230844D01*
X0325000Y0228845D02*
X0342646Y0228845D01*
X0342646Y0226847D02*
X0325000Y0226847D01*
X0325000Y0224848D02*
X0342646Y0224848D01*
X0342646Y0222850D02*
X0325000Y0222850D01*
X0325000Y0220851D02*
X0342646Y0220851D01*
X0342646Y0218853D02*
X0325000Y0218853D01*
X0325000Y0216854D02*
X0342646Y0216854D01*
X0342646Y0214856D02*
X0325000Y0214856D01*
X0325000Y0212857D02*
X0342646Y0212857D01*
X0342646Y0210859D02*
X0325000Y0210859D01*
X0325000Y0208860D02*
X0342646Y0208860D01*
X0342646Y0206862D02*
X0325000Y0206862D01*
X0325000Y0204863D02*
X0342646Y0204863D01*
X0342646Y0202865D02*
X0325000Y0202865D01*
X0325000Y0200866D02*
X0342646Y0200866D01*
X0342646Y0198868D02*
X0325000Y0198868D01*
X0325000Y0196869D02*
X0342646Y0196869D01*
X0342646Y0194870D02*
X0325000Y0194870D01*
X0325000Y0192872D02*
X0342646Y0192872D01*
X0342646Y0190873D02*
X0325000Y0190873D01*
X0325000Y0188875D02*
X0342646Y0188875D01*
X0342646Y0186876D02*
X0325000Y0186876D01*
X0325000Y0184878D02*
X0342646Y0184878D01*
X0342646Y0182879D02*
X0325000Y0182879D01*
X0325000Y0180881D02*
X0342646Y0180881D01*
X0342646Y0178882D02*
X0325000Y0178882D01*
X0325000Y0176884D02*
X0342646Y0176884D01*
X0342646Y0174885D02*
X0325000Y0174885D01*
X0325000Y0172887D02*
X0342646Y0172887D01*
X0342646Y0170888D02*
X0325000Y0170888D01*
X0325000Y0168890D02*
X0342646Y0168890D01*
X0342646Y0166891D02*
X0325000Y0166891D01*
X0325000Y0164893D02*
X0335778Y0164893D01*
X0336222Y0164893D02*
X0342646Y0164893D01*
X0342646Y0162894D02*
X0341459Y0162894D01*
X0330541Y0162894D02*
X0325000Y0162894D01*
X0325000Y0160896D02*
X0328588Y0160896D01*
X0327639Y0158897D02*
X0325000Y0158897D01*
X0325000Y0156899D02*
X0327242Y0156899D01*
X0327279Y0154900D02*
X0324956Y0154900D01*
X0323973Y0152902D02*
X0327679Y0152902D01*
X0328763Y0150903D02*
X0321974Y0150903D01*
X0319976Y0148905D02*
X0330762Y0148905D01*
X0341238Y0148905D02*
X0342646Y0148905D01*
X0342646Y0146906D02*
X0317977Y0146906D01*
X0315979Y0144908D02*
X0342646Y0144908D01*
X0342646Y0142909D02*
X0313980Y0142909D01*
X0311982Y0140911D02*
X0342646Y0140911D01*
X0342646Y0138912D02*
X0309983Y0138912D01*
X0307985Y0136914D02*
X0342646Y0136914D01*
X0342646Y0134915D02*
X0305986Y0134915D01*
X0307039Y0132913D02*
X0305984Y0131859D01*
X0305984Y0123952D01*
X0307039Y0122898D01*
X0314946Y0122898D01*
X0316000Y0123952D01*
X0316000Y0131859D01*
X0314946Y0132913D01*
X0307039Y0132913D01*
X0305984Y0130918D02*
X0303251Y0130918D01*
X0303988Y0132917D02*
X0342646Y0132917D01*
X0342646Y0130918D02*
X0332354Y0130918D01*
X0333611Y0130397D02*
X0329970Y0131905D01*
X0326030Y0131905D01*
X0322389Y0130397D01*
X0319603Y0127611D01*
X0318094Y0123970D01*
X0318094Y0120030D01*
X0319603Y0116389D01*
X0322389Y0113603D01*
X0326030Y0112094D01*
X0329970Y0112094D01*
X0333611Y0113603D01*
X0336397Y0116389D01*
X0337905Y0120030D01*
X0337905Y0123970D01*
X0336397Y0127611D01*
X0333611Y0130397D01*
X0335089Y0128920D02*
X0342646Y0128920D01*
X0342646Y0126921D02*
X0336683Y0126921D01*
X0337511Y0124923D02*
X0342646Y0124923D01*
X0342646Y0122924D02*
X0337905Y0122924D01*
X0337905Y0120926D02*
X0342646Y0120926D01*
X0342646Y0118927D02*
X0337449Y0118927D01*
X0336621Y0116929D02*
X0342646Y0116929D01*
X0342646Y0114930D02*
X0334939Y0114930D01*
X0331991Y0112932D02*
X0342646Y0112932D01*
X0342646Y0110933D02*
X0311695Y0110933D01*
X0311402Y0110887D02*
X0312212Y0111015D01*
X0312991Y0111268D01*
X0313722Y0111640D01*
X0314385Y0112122D01*
X0314964Y0112702D01*
X0315446Y0113365D01*
X0315818Y0114095D01*
X0316072Y0114875D01*
X0316200Y0115685D01*
X0316200Y0116091D01*
X0310996Y0116091D01*
X0310996Y0116098D01*
X0316200Y0116098D01*
X0316200Y0116504D01*
X0316072Y0117314D01*
X0315818Y0118094D01*
X0315446Y0118824D01*
X0314964Y0119487D01*
X0314385Y0120067D01*
X0313722Y0120549D01*
X0312991Y0120921D01*
X0312212Y0121174D01*
X0311402Y0121302D01*
X0310996Y0121302D01*
X0310996Y0116098D01*
X0310988Y0116098D01*
X0310988Y0116091D01*
X0305784Y0116091D01*
X0305784Y0115685D01*
X0305912Y0114875D01*
X0306166Y0114095D01*
X0306538Y0113365D01*
X0307020Y0112702D01*
X0307599Y0112122D01*
X0308263Y0111640D01*
X0308993Y0111268D01*
X0309773Y0111015D01*
X0310582Y0110887D01*
X0310988Y0110887D01*
X0310988Y0116090D01*
X0310996Y0116090D01*
X0310996Y0110887D01*
X0311402Y0110887D01*
X0310996Y0110933D02*
X0310988Y0110933D01*
X0310289Y0110933D02*
X0292000Y0110933D01*
X0292000Y0108934D02*
X0342646Y0108934D01*
X0342646Y0106936D02*
X0292000Y0106936D01*
X0292000Y0104937D02*
X0342646Y0104937D01*
X0342646Y0102939D02*
X0292000Y0102939D01*
X0292000Y0100940D02*
X0342646Y0100940D01*
X0342646Y0098942D02*
X0292000Y0098942D01*
X0292000Y0096943D02*
X0342646Y0096943D01*
X0342646Y0094945D02*
X0292000Y0094945D01*
X0292000Y0092946D02*
X0342646Y0092946D01*
X0342646Y0090948D02*
X0292000Y0090948D01*
X0282000Y0090948D02*
X0277295Y0090948D01*
X0276224Y0092019D02*
X0279927Y0092019D01*
X0280981Y0093073D01*
X0280981Y0098927D01*
X0280000Y0099908D01*
X0280000Y0133597D01*
X0279543Y0134699D01*
X0275981Y0138262D01*
X0275981Y0140927D01*
X0274927Y0141981D01*
X0272262Y0141981D01*
X0263000Y0151243D01*
X0263000Y0178019D01*
X0264159Y0178019D01*
X0264457Y0177301D01*
X0265301Y0176457D01*
X0291925Y0149833D01*
X0291019Y0148927D01*
X0291019Y0143073D01*
X0292073Y0142019D01*
X0297927Y0142019D01*
X0298981Y0143073D01*
X0298981Y0148927D01*
X0298000Y0149908D01*
X0298000Y0151597D01*
X0297543Y0152699D01*
X0270000Y0180243D01*
X0270000Y0203092D01*
X0270981Y0204073D01*
X0270981Y0209000D01*
X0274019Y0209000D01*
X0274019Y0207073D01*
X0275073Y0206019D01*
X0280000Y0206019D01*
X0280000Y0199466D01*
X0280457Y0198364D01*
X0283457Y0195364D01*
X0284301Y0194520D01*
X0285403Y0194063D01*
X0288373Y0194063D01*
X0289502Y0192934D01*
X0291292Y0192193D01*
X0294270Y0192193D01*
X0294022Y0192091D01*
X0291292Y0192091D01*
X0289502Y0191349D01*
X0288132Y0189979D01*
X0287391Y0188189D01*
X0287391Y0186252D01*
X0288132Y0184462D01*
X0289502Y0183092D01*
X0291292Y0182350D01*
X0294022Y0182350D01*
X0294336Y0182220D01*
X0301348Y0182220D01*
X0301283Y0182194D01*
X0298940Y0179851D01*
X0297672Y0176790D01*
X0297672Y0173477D01*
X0298940Y0170417D01*
X0301283Y0168074D01*
X0304344Y0166806D01*
X0307656Y0166806D01*
X0310717Y0168074D01*
X0313060Y0170417D01*
X0314328Y0173477D01*
X0314328Y0176790D01*
X0313060Y0179851D01*
X0310717Y0182194D01*
X0310652Y0182220D01*
X0315000Y0182220D01*
X0315000Y0158071D01*
X0287761Y0130832D01*
X0286261Y0129332D01*
X0282761Y0125832D01*
X0282000Y0123995D01*
X0282000Y0061005D01*
X0282761Y0059168D01*
X0284168Y0057761D01*
X0285830Y0057073D01*
X0285757Y0057000D01*
X0284243Y0057000D01*
X0281000Y0060243D01*
X0281000Y0086597D01*
X0280543Y0087699D01*
X0276224Y0092019D01*
X0277000Y0096000D02*
X0277000Y0133000D01*
X0272000Y0138000D01*
X0260000Y0150000D01*
X0260000Y0180000D01*
X0262000Y0182000D01*
X0258019Y0182879D02*
X0244981Y0182879D01*
X0244981Y0180881D02*
X0257118Y0180881D01*
X0257000Y0178882D02*
X0230125Y0178882D01*
X0230000Y0176884D02*
X0231019Y0176884D01*
X0231019Y0174885D02*
X0230000Y0174885D01*
X0230000Y0172887D02*
X0231019Y0172887D01*
X0231204Y0170888D02*
X0230000Y0170888D01*
X0230000Y0168890D02*
X0232000Y0168890D01*
X0232000Y0166891D02*
X0230000Y0166891D01*
X0230000Y0164893D02*
X0232000Y0164893D01*
X0232211Y0162894D02*
X0230000Y0162894D01*
X0230000Y0160896D02*
X0233862Y0160896D01*
X0233301Y0161457D02*
X0233301Y0161457D01*
X0235000Y0164000D02*
X0235000Y0174000D01*
X0238981Y0174885D02*
X0257000Y0174885D01*
X0257000Y0172887D02*
X0238981Y0172887D01*
X0238796Y0170888D02*
X0257000Y0170888D01*
X0257000Y0168890D02*
X0238000Y0168890D01*
X0238000Y0166891D02*
X0257000Y0166891D01*
X0257000Y0164893D02*
X0238350Y0164893D01*
X0240348Y0162894D02*
X0257000Y0162894D01*
X0257000Y0160896D02*
X0242347Y0160896D01*
X0244345Y0158897D02*
X0257000Y0158897D01*
X0257000Y0156899D02*
X0246344Y0156899D01*
X0248342Y0154900D02*
X0257000Y0154900D01*
X0257000Y0152902D02*
X0250341Y0152902D01*
X0252339Y0150903D02*
X0257000Y0150903D01*
X0257206Y0148905D02*
X0254338Y0148905D01*
X0256336Y0146906D02*
X0258851Y0146906D01*
X0258335Y0144908D02*
X0260850Y0144908D01*
X0260333Y0142909D02*
X0262848Y0142909D01*
X0262332Y0140911D02*
X0264847Y0140911D01*
X0264330Y0138912D02*
X0266845Y0138912D01*
X0271333Y0142909D02*
X0291183Y0142909D01*
X0291019Y0144908D02*
X0269335Y0144908D01*
X0270265Y0147279D02*
X0269665Y0147528D01*
X0268580Y0147743D01*
X0267660Y0148358D01*
X0267060Y0148606D01*
X0266600Y0149066D01*
X0265681Y0149681D01*
X0265066Y0150600D01*
X0264606Y0151060D01*
X0264358Y0151660D01*
X0263743Y0152580D01*
X0263528Y0153665D01*
X0263279Y0154265D01*
X0263279Y0154915D01*
X0263063Y0156000D01*
X0263279Y0157085D01*
X0263279Y0157735D01*
X0263528Y0158335D01*
X0263743Y0159420D01*
X0264358Y0160340D01*
X0264606Y0160940D01*
X0265066Y0161400D01*
X0265681Y0162319D01*
X0266600Y0162934D01*
X0267060Y0163394D01*
X0267660Y0163642D01*
X0268580Y0164257D01*
X0269665Y0164472D01*
X0270265Y0164721D01*
X0270915Y0164721D01*
X0272000Y0164937D01*
X0273085Y0164721D01*
X0273735Y0164721D01*
X0274335Y0164472D01*
X0275420Y0164257D01*
X0276340Y0163642D01*
X0276940Y0163394D01*
X0277400Y0162934D01*
X0278319Y0162319D01*
X0278934Y0161400D01*
X0279394Y0160940D01*
X0279642Y0160340D01*
X0280257Y0159420D01*
X0280472Y0158335D01*
X0280721Y0157735D01*
X0280721Y0157085D01*
X0280937Y0156000D01*
X0280721Y0154915D01*
X0280721Y0154265D01*
X0280472Y0153665D01*
X0280257Y0152580D01*
X0279642Y0151660D01*
X0279394Y0151060D01*
X0278934Y0150600D01*
X0278319Y0149681D01*
X0277400Y0149066D01*
X0276940Y0148606D01*
X0276340Y0148358D01*
X0275420Y0147743D01*
X0274335Y0147528D01*
X0273735Y0147279D01*
X0273085Y0147279D01*
X0272000Y0147063D01*
X0270915Y0147279D01*
X0270265Y0147279D01*
X0267336Y0146906D02*
X0291019Y0146906D01*
X0291019Y0148905D02*
X0277238Y0148905D01*
X0279237Y0150903D02*
X0290854Y0150903D01*
X0288856Y0152902D02*
X0280321Y0152902D01*
X0280721Y0154900D02*
X0286857Y0154900D01*
X0284859Y0156899D02*
X0280758Y0156899D01*
X0280361Y0158897D02*
X0282860Y0158897D01*
X0280862Y0160896D02*
X0279412Y0160896D01*
X0278863Y0162894D02*
X0277459Y0162894D01*
X0276865Y0164893D02*
X0272222Y0164893D01*
X0271778Y0164893D02*
X0263000Y0164893D01*
X0263000Y0166891D02*
X0274866Y0166891D01*
X0272868Y0168890D02*
X0263000Y0168890D01*
X0263000Y0170888D02*
X0270869Y0170888D01*
X0268870Y0172887D02*
X0263000Y0172887D01*
X0263000Y0174885D02*
X0266872Y0174885D01*
X0264873Y0176884D02*
X0263000Y0176884D01*
X0267000Y0179000D02*
X0267000Y0207000D01*
X0270981Y0206862D02*
X0274231Y0206862D01*
X0274019Y0208860D02*
X0270981Y0208860D01*
X0270981Y0204863D02*
X0280000Y0204863D01*
X0280000Y0202865D02*
X0270000Y0202865D01*
X0270000Y0200866D02*
X0280000Y0200866D01*
X0280248Y0198868D02*
X0270000Y0198868D01*
X0270000Y0196869D02*
X0281951Y0196869D01*
X0283950Y0194870D02*
X0270000Y0194870D01*
X0270000Y0192872D02*
X0289652Y0192872D01*
X0289026Y0190873D02*
X0270000Y0190873D01*
X0270000Y0188875D02*
X0287675Y0188875D01*
X0287391Y0186876D02*
X0270000Y0186876D01*
X0270000Y0184878D02*
X0287960Y0184878D01*
X0290015Y0182879D02*
X0270000Y0182879D01*
X0270000Y0180881D02*
X0299970Y0180881D01*
X0298539Y0178882D02*
X0271360Y0178882D01*
X0273359Y0176884D02*
X0297711Y0176884D01*
X0297672Y0174885D02*
X0275357Y0174885D01*
X0277356Y0172887D02*
X0297917Y0172887D01*
X0298745Y0170888D02*
X0279354Y0170888D01*
X0281353Y0168890D02*
X0300467Y0168890D01*
X0304138Y0166891D02*
X0283351Y0166891D01*
X0285350Y0164893D02*
X0315000Y0164893D01*
X0315000Y0166891D02*
X0307862Y0166891D01*
X0311533Y0168890D02*
X0315000Y0168890D01*
X0315000Y0170888D02*
X0313255Y0170888D01*
X0314083Y0172887D02*
X0315000Y0172887D01*
X0315000Y0174885D02*
X0314328Y0174885D01*
X0314289Y0176884D02*
X0315000Y0176884D01*
X0315000Y0178882D02*
X0313461Y0178882D01*
X0312030Y0180881D02*
X0315000Y0180881D01*
X0306000Y0198000D02*
X0306000Y0226866D01*
X0297672Y0226847D02*
X0259000Y0226847D01*
X0259000Y0228845D02*
X0297806Y0228845D01*
X0297672Y0228523D02*
X0297672Y0225210D01*
X0298940Y0222149D01*
X0301283Y0219806D01*
X0303000Y0219095D01*
X0303000Y0216921D01*
X0302737Y0217437D01*
X0302268Y0218082D01*
X0301704Y0218647D01*
X0301058Y0219116D01*
X0300347Y0219478D01*
X0299588Y0219725D01*
X0298800Y0219850D01*
X0295331Y0219850D01*
X0295331Y0214780D01*
X0295331Y0214780D01*
X0295331Y0219850D01*
X0291862Y0219850D01*
X0291073Y0219725D01*
X0290314Y0219478D01*
X0289603Y0219116D01*
X0288958Y0218647D01*
X0288393Y0218082D01*
X0287924Y0217437D01*
X0287562Y0216726D01*
X0287315Y0215967D01*
X0287191Y0215179D01*
X0287191Y0214780D01*
X0295331Y0214780D01*
X0295331Y0214779D01*
X0287191Y0214779D01*
X0287191Y0214380D01*
X0287315Y0213592D01*
X0287562Y0212833D01*
X0287924Y0212122D01*
X0288393Y0211477D01*
X0288958Y0210912D01*
X0289603Y0210443D01*
X0290314Y0210081D01*
X0291073Y0209834D01*
X0291279Y0209802D01*
X0289502Y0209066D01*
X0288132Y0207696D01*
X0287391Y0205906D01*
X0287391Y0203968D01*
X0288132Y0202178D01*
X0289310Y0201000D01*
X0288373Y0200063D01*
X0287243Y0200063D01*
X0286000Y0201306D01*
X0286000Y0213597D01*
X0285543Y0214699D01*
X0284699Y0215543D01*
X0281699Y0218543D01*
X0280597Y0219000D01*
X0270981Y0219000D01*
X0270981Y0223927D01*
X0269927Y0224981D01*
X0264073Y0224981D01*
X0263019Y0223927D01*
X0263019Y0219000D01*
X0260243Y0219000D01*
X0259000Y0220243D01*
X0259000Y0234597D01*
X0258543Y0235699D01*
X0257699Y0236543D01*
X0254243Y0240000D01*
X0257092Y0240000D01*
X0258073Y0239019D01*
X0263927Y0239019D01*
X0264981Y0240073D01*
X0264981Y0245927D01*
X0264908Y0246000D01*
X0280757Y0246000D01*
X0291301Y0235457D01*
X0292403Y0235000D01*
X0296092Y0235000D01*
X0297073Y0234019D01*
X0301507Y0234019D01*
X0301283Y0233926D01*
X0298940Y0231583D01*
X0297672Y0228523D01*
X0298634Y0230844D02*
X0259000Y0230844D01*
X0259000Y0232842D02*
X0300199Y0232842D01*
X0300000Y0238000D02*
X0293000Y0238000D01*
X0282000Y0249000D01*
X0228000Y0249000D01*
X0227000Y0248000D01*
X0220000Y0248000D02*
X0220000Y0247000D01*
X0218750Y0262820D02*
X0221250Y0262820D01*
X0220186Y0264818D02*
X0219814Y0264818D01*
X0219900Y0266817D02*
X0220100Y0266817D01*
X0220886Y0268815D02*
X0219114Y0268815D01*
X0210886Y0268815D02*
X0209114Y0268815D01*
X0209900Y0266817D02*
X0210100Y0266817D01*
X0210186Y0264818D02*
X0209814Y0264818D01*
X0208750Y0262820D02*
X0211250Y0262820D01*
X0201250Y0262820D02*
X0198750Y0262820D01*
X0199814Y0264818D02*
X0200186Y0264818D01*
X0200100Y0266817D02*
X0199900Y0266817D01*
X0199114Y0268815D02*
X0200886Y0268815D01*
X0196115Y0274337D02*
X0197663Y0275884D01*
X0198500Y0277906D01*
X0198500Y0280094D01*
X0197663Y0282115D01*
X0196115Y0283663D01*
X0195544Y0283899D01*
X0195987Y0284125D01*
X0196713Y0284652D01*
X0197348Y0285287D01*
X0197875Y0286013D01*
X0198282Y0286812D01*
X0198560Y0287665D01*
X0198700Y0288551D01*
X0198700Y0289000D01*
X0198700Y0289449D01*
X0198560Y0290335D01*
X0198282Y0291188D01*
X0197875Y0291987D01*
X0197348Y0292713D01*
X0196713Y0293348D01*
X0195987Y0293875D01*
X0195188Y0294282D01*
X0194335Y0294560D01*
X0193449Y0294700D01*
X0193000Y0294700D01*
X0193000Y0289000D01*
X0198700Y0289000D01*
X0193000Y0289000D01*
X0193000Y0289000D01*
X0193000Y0289000D01*
X0193000Y0289000D01*
X0187300Y0289000D01*
X0187300Y0289449D01*
X0187440Y0290335D01*
X0187718Y0291188D01*
X0188125Y0291987D01*
X0188652Y0292713D01*
X0189287Y0293348D01*
X0190013Y0293875D01*
X0190812Y0294282D01*
X0191665Y0294560D01*
X0192551Y0294700D01*
X0193000Y0294700D01*
X0193000Y0289000D01*
X0187300Y0289000D01*
X0187300Y0288551D01*
X0187440Y0287665D01*
X0187718Y0286812D01*
X0188125Y0286013D01*
X0188652Y0285287D01*
X0189287Y0284652D01*
X0190013Y0284125D01*
X0190456Y0283899D01*
X0189884Y0283663D01*
X0188337Y0282115D01*
X0187500Y0280094D01*
X0187500Y0277906D01*
X0188337Y0275884D01*
X0189884Y0274337D01*
X0191906Y0273500D01*
X0194094Y0273500D01*
X0196115Y0274337D01*
X0196589Y0274811D02*
X0342646Y0274811D01*
X0342646Y0276809D02*
X0198046Y0276809D01*
X0198500Y0278808D02*
X0327429Y0278808D01*
X0328030Y0278559D02*
X0331970Y0278559D01*
X0335611Y0280067D01*
X0338398Y0282854D01*
X0339906Y0286495D01*
X0339906Y0290435D01*
X0338398Y0294076D01*
X0335611Y0296863D01*
X0331970Y0298371D01*
X0328030Y0298371D01*
X0324389Y0296863D01*
X0321602Y0294076D01*
X0320094Y0290435D01*
X0320094Y0286495D01*
X0321602Y0282854D01*
X0324389Y0280067D01*
X0328030Y0278559D01*
X0332571Y0278808D02*
X0342646Y0278808D01*
X0342646Y0280806D02*
X0336351Y0280806D01*
X0338349Y0282805D02*
X0342646Y0282805D01*
X0342646Y0284803D02*
X0339206Y0284803D01*
X0339906Y0286802D02*
X0342646Y0286802D01*
X0342646Y0288801D02*
X0339906Y0288801D01*
X0339755Y0290799D02*
X0342646Y0290799D01*
X0342646Y0292798D02*
X0338928Y0292798D01*
X0337678Y0294796D02*
X0342646Y0294796D01*
X0342646Y0296795D02*
X0335680Y0296795D01*
X0342646Y0298793D02*
X0135450Y0298793D01*
X0137448Y0296795D02*
X0324320Y0296795D01*
X0322322Y0294796D02*
X0139447Y0294796D01*
X0141000Y0289000D02*
X0131000Y0299000D01*
X0058000Y0299000D01*
X0025000Y0266000D01*
X0028891Y0262820D02*
X0031007Y0262820D01*
X0030024Y0264818D02*
X0029923Y0264818D01*
X0039976Y0264818D02*
X0040186Y0264818D01*
X0040100Y0266817D02*
X0040034Y0266817D01*
X0039258Y0268815D02*
X0040886Y0268815D01*
X0045000Y0266000D02*
X0045000Y0241000D01*
X0049000Y0237000D01*
X0049406Y0240836D02*
X0093019Y0240836D01*
X0093019Y0242835D02*
X0048000Y0242835D01*
X0048000Y0244833D02*
X0093019Y0244833D01*
X0097000Y0243000D02*
X0097000Y0264000D01*
X0095000Y0266000D01*
X0091250Y0262820D02*
X0088750Y0262820D01*
X0089154Y0263224D02*
X0089900Y0265025D01*
X0089900Y0266975D01*
X0089154Y0268776D01*
X0088000Y0269930D01*
X0088000Y0270082D01*
X0088108Y0270082D01*
X0089162Y0271136D01*
X0089162Y0275777D01*
X0088108Y0276831D01*
X0081892Y0276831D01*
X0080838Y0275777D01*
X0080838Y0271136D01*
X0081892Y0270082D01*
X0082000Y0270082D01*
X0082000Y0269930D01*
X0080846Y0268776D01*
X0080100Y0266975D01*
X0080100Y0265025D01*
X0080846Y0263224D01*
X0082000Y0262070D01*
X0082000Y0261918D01*
X0081892Y0261918D01*
X0080838Y0260864D01*
X0080838Y0256223D01*
X0081892Y0255169D01*
X0088108Y0255169D01*
X0089162Y0256223D01*
X0089162Y0260864D01*
X0088108Y0261918D01*
X0088000Y0261918D01*
X0088000Y0262070D01*
X0089154Y0263224D01*
X0089814Y0264818D02*
X0090186Y0264818D01*
X0090100Y0266817D02*
X0089900Y0266817D01*
X0089114Y0268815D02*
X0090886Y0268815D01*
X0088840Y0270814D02*
X0093818Y0270814D01*
X0096182Y0270814D02*
X0103818Y0270814D01*
X0106182Y0270814D02*
X0113818Y0270814D01*
X0116182Y0270814D02*
X0117000Y0270814D01*
X0117000Y0272812D02*
X0089162Y0272812D01*
X0089162Y0274811D02*
X0117000Y0274811D01*
X0117000Y0276809D02*
X0088130Y0276809D01*
X0088134Y0277105D02*
X0088590Y0277368D01*
X0088963Y0277740D01*
X0089226Y0278197D01*
X0089362Y0278705D01*
X0089362Y0280543D01*
X0085000Y0280543D01*
X0085000Y0276969D01*
X0087626Y0276969D01*
X0088134Y0277105D01*
X0089362Y0278808D02*
X0117000Y0278808D01*
X0117000Y0280806D02*
X0089362Y0280806D01*
X0089362Y0280543D02*
X0089362Y0282381D01*
X0089226Y0282890D01*
X0088963Y0283346D01*
X0088590Y0283719D01*
X0088134Y0283982D01*
X0087626Y0284118D01*
X0085000Y0284118D01*
X0085000Y0280543D01*
X0085000Y0280543D01*
X0085000Y0276968D01*
X0082374Y0276969D01*
X0081866Y0277105D01*
X0081410Y0277368D01*
X0081037Y0277740D01*
X0080774Y0278197D01*
X0080638Y0278705D01*
X0080638Y0280543D01*
X0085000Y0280543D01*
X0085000Y0280543D01*
X0085000Y0280543D01*
X0089362Y0280543D01*
X0089249Y0282805D02*
X0117086Y0282805D01*
X0118561Y0284803D02*
X0048046Y0284803D01*
X0046048Y0282805D02*
X0070751Y0282805D01*
X0070774Y0282890D02*
X0070638Y0282381D01*
X0070638Y0280543D01*
X0070638Y0278705D01*
X0070774Y0278197D01*
X0071037Y0277740D01*
X0071410Y0277368D01*
X0071866Y0277105D01*
X0072374Y0276969D01*
X0075000Y0276968D01*
X0075000Y0280543D01*
X0075000Y0276969D01*
X0077626Y0276969D01*
X0078134Y0277105D01*
X0078590Y0277368D01*
X0078963Y0277740D01*
X0079226Y0278197D01*
X0079362Y0278705D01*
X0079362Y0280543D01*
X0075000Y0280543D01*
X0075000Y0280543D01*
X0075000Y0280543D01*
X0070638Y0280543D01*
X0075000Y0280543D01*
X0075000Y0280543D01*
X0079362Y0280543D01*
X0079362Y0282381D01*
X0079226Y0282890D01*
X0078963Y0283346D01*
X0078590Y0283719D01*
X0078134Y0283982D01*
X0077626Y0284118D01*
X0075000Y0284118D01*
X0075000Y0280543D01*
X0075000Y0284118D01*
X0072374Y0284118D01*
X0071866Y0283982D01*
X0071410Y0283719D01*
X0071037Y0283346D01*
X0070774Y0282890D01*
X0070638Y0280806D02*
X0044049Y0280806D01*
X0042051Y0278808D02*
X0070638Y0278808D01*
X0071870Y0276809D02*
X0040052Y0276809D01*
X0038054Y0274811D02*
X0070838Y0274811D01*
X0070838Y0272812D02*
X0036055Y0272812D01*
X0049114Y0268815D02*
X0050886Y0268815D01*
X0050100Y0266817D02*
X0049900Y0266817D01*
X0049814Y0264818D02*
X0050186Y0264818D01*
X0051250Y0262820D02*
X0048750Y0262820D01*
X0058750Y0262820D02*
X0061250Y0262820D01*
X0060186Y0264818D02*
X0059814Y0264818D01*
X0059900Y0266817D02*
X0060100Y0266817D01*
X0060886Y0268815D02*
X0059114Y0268815D01*
X0075000Y0266000D02*
X0075000Y0258543D01*
X0075000Y0254826D02*
X0075000Y0254826D01*
X0075000Y0252827D02*
X0075000Y0252827D01*
X0075000Y0251457D02*
X0075000Y0247882D01*
X0075000Y0251457D01*
X0075000Y0251457D01*
X0075000Y0250829D02*
X0075000Y0250829D01*
X0075000Y0248830D02*
X0075000Y0248830D01*
X0079064Y0248830D02*
X0080936Y0248830D01*
X0080638Y0250829D02*
X0079362Y0250829D01*
X0079362Y0252827D02*
X0080638Y0252827D01*
X0081746Y0254826D02*
X0078254Y0254826D01*
X0079162Y0256824D02*
X0080838Y0256824D01*
X0080838Y0258823D02*
X0079162Y0258823D01*
X0079162Y0260821D02*
X0080838Y0260821D01*
X0081250Y0262820D02*
X0078750Y0262820D01*
X0079814Y0264818D02*
X0080186Y0264818D01*
X0080100Y0266817D02*
X0079900Y0266817D01*
X0079114Y0268815D02*
X0080886Y0268815D01*
X0081160Y0270814D02*
X0078840Y0270814D01*
X0079162Y0272812D02*
X0080838Y0272812D01*
X0080838Y0274811D02*
X0079162Y0274811D01*
X0078130Y0276809D02*
X0081870Y0276809D01*
X0080638Y0278808D02*
X0079362Y0278808D01*
X0079362Y0280806D02*
X0080638Y0280806D01*
X0080638Y0280543D02*
X0080638Y0282381D01*
X0080774Y0282890D01*
X0081037Y0283346D01*
X0081410Y0283719D01*
X0081866Y0283982D01*
X0082374Y0284118D01*
X0085000Y0284118D01*
X0085000Y0280543D01*
X0080638Y0280543D01*
X0080751Y0282805D02*
X0079249Y0282805D01*
X0075000Y0282805D02*
X0075000Y0282805D01*
X0075000Y0280806D02*
X0075000Y0280806D01*
X0075000Y0280543D02*
X0075000Y0280543D01*
X0075000Y0278808D02*
X0075000Y0278808D01*
X0075000Y0273457D02*
X0075000Y0266000D01*
X0089162Y0260821D02*
X0094000Y0260821D01*
X0094000Y0258823D02*
X0089162Y0258823D01*
X0089162Y0256824D02*
X0094000Y0256824D01*
X0094000Y0254826D02*
X0088254Y0254826D01*
X0089362Y0252827D02*
X0094000Y0252827D01*
X0094000Y0250829D02*
X0089362Y0250829D01*
X0100000Y0250829D02*
X0102000Y0250829D01*
X0102000Y0252827D02*
X0100000Y0252827D01*
X0100000Y0254826D02*
X0102000Y0254826D01*
X0102000Y0256824D02*
X0100000Y0256824D01*
X0100000Y0258823D02*
X0102000Y0258823D01*
X0102000Y0260821D02*
X0100000Y0260821D01*
X0100000Y0262820D02*
X0101250Y0262820D01*
X0100186Y0264818D02*
X0099908Y0264818D01*
X0099900Y0266817D02*
X0100100Y0266817D01*
X0100886Y0268815D02*
X0099114Y0268815D01*
X0105000Y0266000D02*
X0105000Y0243000D01*
X0108981Y0242835D02*
X0116923Y0242835D01*
X0118921Y0240836D02*
X0108981Y0240836D01*
X0108981Y0244833D02*
X0114924Y0244833D01*
X0112926Y0246832D02*
X0108076Y0246832D01*
X0108000Y0248830D02*
X0112000Y0248830D01*
X0112000Y0250829D02*
X0108000Y0250829D01*
X0108000Y0252827D02*
X0112000Y0252827D01*
X0112000Y0254826D02*
X0108000Y0254826D01*
X0108000Y0256824D02*
X0112000Y0256824D01*
X0112000Y0258823D02*
X0108000Y0258823D01*
X0108000Y0260821D02*
X0112000Y0260821D01*
X0111250Y0262820D02*
X0108749Y0262820D01*
X0109814Y0264818D02*
X0110186Y0264818D01*
X0110100Y0266817D02*
X0109900Y0266817D01*
X0109114Y0268815D02*
X0110886Y0268815D01*
X0115000Y0266000D02*
X0115000Y0249000D01*
X0121000Y0243000D01*
X0261000Y0243000D01*
X0264981Y0242835D02*
X0283923Y0242835D01*
X0285921Y0240836D02*
X0264981Y0240836D01*
X0264981Y0244833D02*
X0281924Y0244833D01*
X0287920Y0238838D02*
X0255405Y0238838D01*
X0257403Y0236839D02*
X0289918Y0236839D01*
X0296251Y0234841D02*
X0258899Y0234841D01*
X0256000Y0234000D02*
X0256000Y0219000D01*
X0259000Y0216000D01*
X0280000Y0216000D01*
X0283000Y0213000D01*
X0283000Y0200063D01*
X0286000Y0197063D01*
X0295331Y0197063D01*
X0289176Y0200866D02*
X0286440Y0200866D01*
X0286000Y0202865D02*
X0287848Y0202865D01*
X0287391Y0204863D02*
X0286000Y0204863D01*
X0286000Y0206862D02*
X0287786Y0206862D01*
X0289296Y0208860D02*
X0286000Y0208860D01*
X0286000Y0210859D02*
X0289032Y0210859D01*
X0287554Y0212857D02*
X0286000Y0212857D01*
X0285387Y0214856D02*
X0287191Y0214856D01*
X0287627Y0216854D02*
X0283389Y0216854D01*
X0280953Y0218853D02*
X0289241Y0218853D01*
X0295331Y0218853D02*
X0295331Y0218853D01*
X0295331Y0216854D02*
X0295331Y0216854D01*
X0295331Y0214856D02*
X0295331Y0214856D01*
X0301420Y0218853D02*
X0303000Y0218853D01*
X0300238Y0220851D02*
X0270981Y0220851D01*
X0270981Y0222850D02*
X0298650Y0222850D01*
X0297822Y0224848D02*
X0270060Y0224848D01*
X0263940Y0224848D02*
X0259000Y0224848D01*
X0259000Y0222850D02*
X0263019Y0222850D01*
X0263019Y0220851D02*
X0259000Y0220851D01*
X0253000Y0212000D02*
X0276000Y0212000D01*
X0278000Y0210000D01*
X0263019Y0208860D02*
X0259070Y0208860D01*
X0259900Y0206862D02*
X0263019Y0206862D01*
X0263019Y0204863D02*
X0259833Y0204863D01*
X0258794Y0202865D02*
X0264000Y0202865D01*
X0264000Y0200866D02*
X0243000Y0200866D01*
X0243000Y0198868D02*
X0264000Y0198868D01*
X0264000Y0196869D02*
X0243000Y0196869D01*
X0243000Y0194870D02*
X0264000Y0194870D01*
X0264000Y0192872D02*
X0243000Y0192872D01*
X0243000Y0190873D02*
X0264000Y0190873D01*
X0264000Y0188875D02*
X0243000Y0188875D01*
X0244031Y0186876D02*
X0264000Y0186876D01*
X0258019Y0184878D02*
X0244981Y0184878D01*
X0241000Y0183000D02*
X0240000Y0184000D01*
X0240000Y0229000D01*
X0243981Y0228845D02*
X0247000Y0228845D01*
X0247000Y0226847D02*
X0243981Y0226847D01*
X0243000Y0224848D02*
X0247000Y0224848D01*
X0247000Y0222850D02*
X0243000Y0222850D01*
X0243000Y0220851D02*
X0247000Y0220851D01*
X0247000Y0218853D02*
X0243000Y0218853D01*
X0243000Y0216854D02*
X0247000Y0216854D01*
X0247000Y0214856D02*
X0243000Y0214856D01*
X0243000Y0212857D02*
X0247900Y0212857D01*
X0246075Y0210859D02*
X0249899Y0210859D01*
X0249070Y0208860D02*
X0250930Y0208860D01*
X0250100Y0206862D02*
X0249900Y0206862D01*
X0249833Y0204863D02*
X0250167Y0204863D01*
X0251206Y0202865D02*
X0248794Y0202865D01*
X0243925Y0210859D02*
X0243000Y0210859D01*
X0250000Y0215000D02*
X0253000Y0212000D01*
X0250000Y0215000D02*
X0250000Y0232000D01*
X0248000Y0234000D01*
X0190000Y0234000D01*
X0183000Y0227000D01*
X0071000Y0227000D01*
X0070000Y0226000D01*
X0070000Y0218500D01*
X0065000Y0216199D02*
X0065337Y0215384D01*
X0066884Y0213837D01*
X0068906Y0213000D01*
X0071094Y0213000D01*
X0073115Y0213837D01*
X0074663Y0215384D01*
X0074899Y0215956D01*
X0075125Y0215513D01*
X0075652Y0214787D01*
X0076287Y0214152D01*
X0077013Y0213625D01*
X0077812Y0213218D01*
X0078665Y0212940D01*
X0079551Y0212800D01*
X0080000Y0212800D01*
X0080449Y0212800D01*
X0081335Y0212940D01*
X0082188Y0213218D01*
X0082987Y0213625D01*
X0083713Y0214152D01*
X0084348Y0214787D01*
X0084875Y0215513D01*
X0085000Y0215758D01*
X0085125Y0215513D01*
X0085652Y0214787D01*
X0086287Y0214152D01*
X0087013Y0213625D01*
X0087812Y0213218D01*
X0088665Y0212940D01*
X0089551Y0212800D01*
X0090000Y0212800D01*
X0090449Y0212800D01*
X0091335Y0212940D01*
X0092188Y0213218D01*
X0092987Y0213625D01*
X0093713Y0214152D01*
X0094348Y0214787D01*
X0094875Y0215513D01*
X0095282Y0216312D01*
X0095560Y0217165D01*
X0095700Y0218051D01*
X0095700Y0218500D01*
X0095700Y0218949D01*
X0095560Y0219835D01*
X0095282Y0220688D01*
X0094875Y0221487D01*
X0094348Y0222213D01*
X0093713Y0222848D01*
X0092987Y0223375D01*
X0092188Y0223782D01*
X0091518Y0224000D01*
X0183597Y0224000D01*
X0184699Y0224457D01*
X0191243Y0231000D01*
X0196019Y0231000D01*
X0196019Y0226073D01*
X0197000Y0225092D01*
X0197000Y0210475D01*
X0195975Y0210900D01*
X0194025Y0210900D01*
X0192224Y0210154D01*
X0190846Y0208776D01*
X0190100Y0206975D01*
X0190100Y0205025D01*
X0190846Y0203224D01*
X0192224Y0201846D01*
X0194025Y0201100D01*
X0195975Y0201100D01*
X0197000Y0201525D01*
X0197000Y0199908D01*
X0196019Y0198927D01*
X0196019Y0193073D01*
X0197073Y0192019D01*
X0199776Y0192019D01*
X0198301Y0190543D01*
X0197457Y0189699D01*
X0197000Y0188597D01*
X0197000Y0185908D01*
X0196927Y0185981D01*
X0191073Y0185981D01*
X0190019Y0184927D01*
X0190019Y0182262D01*
X0186457Y0178699D01*
X0186000Y0177597D01*
X0186000Y0171243D01*
X0184757Y0170000D01*
X0183908Y0170000D01*
X0182927Y0170981D01*
X0177073Y0170981D01*
X0176019Y0169927D01*
X0176019Y0164073D01*
X0176092Y0164000D01*
X0168000Y0164000D01*
X0168000Y0166019D01*
X0172927Y0166019D01*
X0173981Y0167073D01*
X0173981Y0172000D01*
X0176092Y0172000D01*
X0177073Y0171019D01*
X0182927Y0171019D01*
X0183981Y0172073D01*
X0183981Y0177927D01*
X0182927Y0178981D01*
X0180889Y0178981D01*
X0180981Y0179073D01*
X0180981Y0184927D01*
X0180000Y0185908D01*
X0180000Y0192597D01*
X0179543Y0193699D01*
X0178699Y0194543D01*
X0173000Y0200243D01*
X0173000Y0201525D01*
X0174025Y0201100D01*
X0175975Y0201100D01*
X0177776Y0201846D01*
X0179154Y0203224D01*
X0179900Y0205025D01*
X0179900Y0206975D01*
X0179154Y0208776D01*
X0177776Y0210154D01*
X0175975Y0210900D01*
X0174025Y0210900D01*
X0173000Y0210475D01*
X0173000Y0215092D01*
X0173981Y0216073D01*
X0173981Y0221927D01*
X0172927Y0222981D01*
X0167073Y0222981D01*
X0166500Y0222408D01*
X0165927Y0222981D01*
X0160073Y0222981D01*
X0159019Y0221927D01*
X0159019Y0216073D01*
X0160073Y0215019D01*
X0160738Y0215019D01*
X0162000Y0213757D01*
X0162000Y0209930D01*
X0160846Y0208776D01*
X0160100Y0206975D01*
X0160100Y0205025D01*
X0160846Y0203224D01*
X0162224Y0201846D01*
X0164025Y0201100D01*
X0165975Y0201100D01*
X0167000Y0201525D01*
X0167000Y0199243D01*
X0165699Y0200543D01*
X0164597Y0201000D01*
X0071243Y0201000D01*
X0069086Y0203156D01*
X0069154Y0203224D01*
X0069900Y0205025D01*
X0069900Y0206975D01*
X0069154Y0208776D01*
X0067776Y0210154D01*
X0065975Y0210900D01*
X0064025Y0210900D01*
X0062224Y0210154D01*
X0060846Y0208776D01*
X0060100Y0206975D01*
X0060100Y0205025D01*
X0060846Y0203224D01*
X0062224Y0201846D01*
X0062232Y0201843D01*
X0062457Y0201301D01*
X0066757Y0197000D01*
X0055243Y0197000D01*
X0049086Y0203156D01*
X0049154Y0203224D01*
X0049900Y0205025D01*
X0049900Y0206975D01*
X0049154Y0208776D01*
X0047776Y0210154D01*
X0045975Y0210900D01*
X0044025Y0210900D01*
X0042224Y0210154D01*
X0040846Y0208776D01*
X0040100Y0206975D01*
X0040100Y0205025D01*
X0040846Y0203224D01*
X0042224Y0201846D01*
X0042232Y0201843D01*
X0042457Y0201301D01*
X0043301Y0200457D01*
X0052301Y0191457D01*
X0053403Y0191000D01*
X0071019Y0191000D01*
X0071019Y0188224D01*
X0070699Y0188543D01*
X0069597Y0189000D01*
X0042243Y0189000D01*
X0038000Y0193243D01*
X0038000Y0202070D01*
X0039154Y0203224D01*
X0039900Y0205025D01*
X0039900Y0206975D01*
X0039154Y0208776D01*
X0037776Y0210154D01*
X0035975Y0210900D01*
X0034025Y0210900D01*
X0032224Y0210154D01*
X0030846Y0208776D01*
X0030100Y0206975D01*
X0030100Y0205025D01*
X0030846Y0203224D01*
X0032000Y0202070D01*
X0032000Y0191403D01*
X0032457Y0190301D01*
X0038457Y0184301D01*
X0039301Y0183457D01*
X0040403Y0183000D01*
X0067757Y0183000D01*
X0068457Y0182301D01*
X0069301Y0181457D01*
X0070403Y0181000D01*
X0079597Y0181000D01*
X0080699Y0181457D01*
X0082243Y0183000D01*
X0122519Y0183000D01*
X0122519Y0182573D01*
X0123573Y0181519D01*
X0129427Y0181519D01*
X0130481Y0182573D01*
X0130481Y0187000D01*
X0131757Y0187000D01*
X0134000Y0184757D01*
X0134000Y0169908D01*
X0133019Y0168927D01*
X0133019Y0163073D01*
X0134073Y0162019D01*
X0139927Y0162019D01*
X0140500Y0162592D01*
X0141073Y0162019D01*
X0146927Y0162019D01*
X0147981Y0163073D01*
X0147981Y0168927D01*
X0147000Y0169908D01*
X0147000Y0170019D01*
X0151927Y0170019D01*
X0152981Y0171073D01*
X0152981Y0176927D01*
X0152000Y0177908D01*
X0152000Y0189597D01*
X0151543Y0190699D01*
X0147243Y0195000D01*
X0162757Y0195000D01*
X0164776Y0192981D01*
X0161073Y0192981D01*
X0160019Y0191927D01*
X0160019Y0186073D01*
X0161000Y0185092D01*
X0161000Y0170403D01*
X0161457Y0169301D01*
X0162000Y0168757D01*
X0162000Y0155243D01*
X0160757Y0154000D01*
X0131784Y0154000D01*
X0132200Y0155005D01*
X0132200Y0156995D01*
X0131439Y0158832D01*
X0130032Y0160239D01*
X0128195Y0161000D01*
X0130032Y0161761D01*
X0131439Y0163168D01*
X0132200Y0165005D01*
X0132200Y0166995D01*
X0131439Y0168832D01*
X0130032Y0170239D01*
X0128195Y0171000D01*
X0130032Y0171761D01*
X0131439Y0173168D01*
X0132200Y0175005D01*
X0132200Y0176995D01*
X0131439Y0178832D01*
X0130032Y0180239D01*
X0128195Y0181000D01*
X0119805Y0181000D01*
X0117968Y0180239D01*
X0116561Y0178832D01*
X0115800Y0176995D01*
X0115800Y0175005D01*
X0116561Y0173168D01*
X0117968Y0171761D01*
X0119805Y0171000D01*
X0128195Y0171000D01*
X0119805Y0171000D01*
X0117968Y0170239D01*
X0117818Y0170089D01*
X0116927Y0170981D01*
X0111073Y0170981D01*
X0110019Y0169927D01*
X0110019Y0164073D01*
X0111000Y0163092D01*
X0111000Y0154000D01*
X0107403Y0154000D01*
X0106301Y0153543D01*
X0105457Y0152699D01*
X0104738Y0151981D01*
X0102073Y0151981D01*
X0101019Y0150927D01*
X0101019Y0149000D01*
X0085908Y0149000D01*
X0084927Y0149981D01*
X0079073Y0149981D01*
X0078019Y0148927D01*
X0078019Y0143073D01*
X0079073Y0142019D01*
X0084927Y0142019D01*
X0085908Y0143000D01*
X0103597Y0143000D01*
X0104699Y0143457D01*
X0105262Y0144019D01*
X0107927Y0144019D01*
X0108981Y0145073D01*
X0108981Y0147738D01*
X0109243Y0148000D01*
X0116216Y0148000D01*
X0115800Y0146995D01*
X0115800Y0145005D01*
X0116561Y0143168D01*
X0117968Y0141761D01*
X0119805Y0141000D01*
X0117968Y0140239D01*
X0116561Y0138832D01*
X0115800Y0136995D01*
X0115800Y0135005D01*
X0116216Y0134000D01*
X0074243Y0134000D01*
X0070981Y0137262D01*
X0070981Y0139927D01*
X0069927Y0140981D01*
X0064073Y0140981D01*
X0063019Y0139927D01*
X0063019Y0134073D01*
X0064073Y0133019D01*
X0066738Y0133019D01*
X0070457Y0129301D01*
X0071301Y0128457D01*
X0072403Y0128000D01*
X0116216Y0128000D01*
X0115800Y0126995D01*
X0115800Y0125005D01*
X0116216Y0124000D01*
X0098403Y0124000D01*
X0097301Y0123543D01*
X0096457Y0122699D01*
X0095833Y0122075D01*
X0094927Y0122981D01*
X0089073Y0122981D01*
X0089000Y0122908D01*
X0088927Y0122981D01*
X0083073Y0122981D01*
X0082019Y0121927D01*
X0082019Y0116073D01*
X0083000Y0115092D01*
X0083000Y0114243D01*
X0078757Y0110000D01*
X0072908Y0110000D01*
X0071927Y0110981D01*
X0066073Y0110981D01*
X0065019Y0109927D01*
X0065019Y0104073D01*
X0066073Y0103019D01*
X0071927Y0103019D01*
X0072908Y0104000D01*
X0080597Y0104000D01*
X0081699Y0104457D01*
X0087699Y0110457D01*
X0088543Y0111301D01*
X0089000Y0112403D01*
X0089000Y0115092D01*
X0089000Y0115092D01*
X0089073Y0115019D01*
X0094927Y0115019D01*
X0095908Y0116000D01*
X0097597Y0116000D01*
X0098699Y0116457D01*
X0100243Y0118000D01*
X0111757Y0118000D01*
X0103301Y0109543D01*
X0102457Y0108699D01*
X0102000Y0107597D01*
X0102000Y0101908D01*
X0101019Y0100927D01*
X0101019Y0095073D01*
X0102073Y0094019D01*
X0107927Y0094019D01*
X0108500Y0094592D01*
X0109073Y0094019D01*
X0114927Y0094019D01*
X0115723Y0094815D01*
X0115728Y0094782D01*
X0115981Y0094004D01*
X0116353Y0093275D01*
X0116834Y0092612D01*
X0117412Y0092034D01*
X0118075Y0091553D01*
X0118804Y0091181D01*
X0119361Y0091000D01*
X0097005Y0091000D01*
X0095168Y0090239D01*
X0093761Y0088832D01*
X0084761Y0079832D01*
X0084041Y0078094D01*
X0060834Y0078094D01*
X0060815Y0078102D01*
X0058823Y0078102D01*
X0056982Y0077340D01*
X0055573Y0075931D01*
X0054811Y0074091D01*
X0054811Y0072098D01*
X0055573Y0070258D01*
X0056982Y0068849D01*
X0058823Y0068087D01*
X0060815Y0068087D01*
X0060834Y0068094D01*
X0084000Y0068094D01*
X0084000Y0065000D01*
X0025071Y0065000D01*
X0023000Y0067071D01*
X0023000Y0072992D01*
X0025389Y0070603D01*
X0029030Y0069094D01*
X0032970Y0069094D01*
X0036611Y0070603D01*
X0039397Y0073389D01*
X0040905Y0077030D01*
X0040905Y0080970D01*
X0039397Y0084611D01*
X0036611Y0087397D01*
X0032970Y0088905D01*
X0029030Y0088905D01*
X0025389Y0087397D01*
X0023000Y0085008D01*
X0023000Y0096000D01*
X0057995Y0096000D01*
X0059832Y0096761D01*
X0064058Y0100987D01*
X0064819Y0102824D01*
X0064819Y0115079D01*
X0064827Y0115098D01*
X0064827Y0117091D01*
X0064064Y0118931D01*
X0062656Y0120340D01*
X0060815Y0121102D01*
X0058823Y0121102D01*
X0056982Y0120340D01*
X0055573Y0118931D01*
X0054811Y0117091D01*
X0054811Y0115098D01*
X0054819Y0115079D01*
X0054819Y0106000D01*
X0023000Y0106000D01*
X0023000Y0115992D01*
X0025389Y0113603D01*
X0029030Y0112094D01*
X0032970Y0112094D01*
X0036611Y0113603D01*
X0039397Y0116389D01*
X0040905Y0120030D01*
X0040905Y0123970D01*
X0039397Y0127611D01*
X0036611Y0130397D01*
X0032970Y0131905D01*
X0029030Y0131905D01*
X0025389Y0130397D01*
X0023000Y0128008D01*
X0023000Y0139000D01*
X0057995Y0139000D01*
X0059832Y0139761D01*
X0061239Y0141168D01*
X0064058Y0143987D01*
X0064819Y0145824D01*
X0064819Y0158079D01*
X0064827Y0158098D01*
X0064827Y0160091D01*
X0064064Y0161931D01*
X0062656Y0163340D01*
X0060815Y0164102D01*
X0058823Y0164102D01*
X0056982Y0163340D01*
X0055573Y0161931D01*
X0054811Y0160091D01*
X0054811Y0158098D01*
X0054819Y0158079D01*
X0054819Y0149000D01*
X0023000Y0149000D01*
X0023000Y0158992D01*
X0025389Y0156603D01*
X0029030Y0155094D01*
X0032970Y0155094D01*
X0036611Y0156603D01*
X0039397Y0159389D01*
X0040905Y0163030D01*
X0040905Y0166970D01*
X0039397Y0170611D01*
X0036611Y0173397D01*
X0032970Y0174905D01*
X0029030Y0174905D01*
X0025389Y0173397D01*
X0023000Y0171008D01*
X0023000Y0201295D01*
X0023042Y0201274D01*
X0023806Y0201026D01*
X0024599Y0200900D01*
X0025000Y0200900D01*
X0025401Y0200900D01*
X0026194Y0201026D01*
X0026958Y0201274D01*
X0027673Y0201638D01*
X0028322Y0202110D01*
X0028890Y0202678D01*
X0029362Y0203327D01*
X0029726Y0204042D01*
X0029974Y0204806D01*
X0030100Y0205599D01*
X0030100Y0206000D01*
X0030100Y0206401D01*
X0029974Y0207194D01*
X0029726Y0207958D01*
X0029362Y0208673D01*
X0028890Y0209322D01*
X0028322Y0209890D01*
X0027673Y0210362D01*
X0026958Y0210726D01*
X0026194Y0210974D01*
X0025401Y0211100D01*
X0025000Y0211100D01*
X0025000Y0206000D01*
X0025000Y0206000D01*
X0030100Y0206000D01*
X0025000Y0206000D01*
X0025000Y0206000D01*
X0025000Y0211100D01*
X0024599Y0211100D01*
X0023806Y0210974D01*
X0023042Y0210726D01*
X0023000Y0210705D01*
X0023000Y0213500D01*
X0047699Y0213500D01*
X0048906Y0213000D01*
X0051094Y0213000D01*
X0053115Y0213837D01*
X0054663Y0215384D01*
X0055000Y0216199D01*
X0055337Y0215384D01*
X0056884Y0213837D01*
X0058906Y0213000D01*
X0061094Y0213000D01*
X0063115Y0213837D01*
X0064663Y0215384D01*
X0065000Y0216199D01*
X0064134Y0214856D02*
X0065866Y0214856D01*
X0066075Y0210859D02*
X0073925Y0210859D01*
X0074025Y0210900D02*
X0072224Y0210154D01*
X0070846Y0208776D01*
X0070100Y0206975D01*
X0070100Y0205025D01*
X0070846Y0203224D01*
X0072224Y0201846D01*
X0074025Y0201100D01*
X0075975Y0201100D01*
X0077776Y0201846D01*
X0079154Y0203224D01*
X0079900Y0205025D01*
X0079900Y0206975D01*
X0079154Y0208776D01*
X0077776Y0210154D01*
X0075975Y0210900D01*
X0074025Y0210900D01*
X0076075Y0210859D02*
X0083925Y0210859D01*
X0084025Y0210900D02*
X0082224Y0210154D01*
X0080846Y0208776D01*
X0080100Y0206975D01*
X0080100Y0205025D01*
X0080846Y0203224D01*
X0082224Y0201846D01*
X0084025Y0201100D01*
X0085975Y0201100D01*
X0087776Y0201846D01*
X0089154Y0203224D01*
X0089900Y0205025D01*
X0089900Y0206975D01*
X0089154Y0208776D01*
X0087776Y0210154D01*
X0085975Y0210900D01*
X0084025Y0210900D01*
X0086075Y0210859D02*
X0093925Y0210859D01*
X0094025Y0210900D02*
X0092224Y0210154D01*
X0090846Y0208776D01*
X0090100Y0206975D01*
X0090100Y0205025D01*
X0090846Y0203224D01*
X0092224Y0201846D01*
X0094025Y0201100D01*
X0095975Y0201100D01*
X0097776Y0201846D01*
X0099154Y0203224D01*
X0099900Y0205025D01*
X0099900Y0206975D01*
X0099154Y0208776D01*
X0097776Y0210154D01*
X0095975Y0210900D01*
X0094025Y0210900D01*
X0096075Y0210859D02*
X0103925Y0210859D01*
X0104025Y0210900D02*
X0102224Y0210154D01*
X0100846Y0208776D01*
X0100100Y0206975D01*
X0100100Y0205025D01*
X0100846Y0203224D01*
X0102224Y0201846D01*
X0104025Y0201100D01*
X0105975Y0201100D01*
X0107776Y0201846D01*
X0109154Y0203224D01*
X0109900Y0205025D01*
X0109900Y0206975D01*
X0109154Y0208776D01*
X0107776Y0210154D01*
X0105975Y0210900D01*
X0104025Y0210900D01*
X0106075Y0210859D02*
X0113925Y0210859D01*
X0114025Y0210900D02*
X0112224Y0210154D01*
X0110846Y0208776D01*
X0110100Y0206975D01*
X0110100Y0205025D01*
X0110846Y0203224D01*
X0112224Y0201846D01*
X0114025Y0201100D01*
X0115975Y0201100D01*
X0117776Y0201846D01*
X0119154Y0203224D01*
X0119900Y0205025D01*
X0119900Y0206975D01*
X0119154Y0208776D01*
X0117776Y0210154D01*
X0115975Y0210900D01*
X0114025Y0210900D01*
X0116075Y0210859D02*
X0123925Y0210859D01*
X0124025Y0210900D02*
X0122224Y0210154D01*
X0120846Y0208776D01*
X0120100Y0206975D01*
X0120100Y0205025D01*
X0120846Y0203224D01*
X0122224Y0201846D01*
X0124025Y0201100D01*
X0125975Y0201100D01*
X0127776Y0201846D01*
X0129154Y0203224D01*
X0129900Y0205025D01*
X0129900Y0206975D01*
X0129154Y0208776D01*
X0127776Y0210154D01*
X0125975Y0210900D01*
X0124025Y0210900D01*
X0126075Y0210859D02*
X0133925Y0210859D01*
X0134025Y0210900D02*
X0132224Y0210154D01*
X0130846Y0208776D01*
X0130100Y0206975D01*
X0130100Y0205025D01*
X0130846Y0203224D01*
X0132224Y0201846D01*
X0134025Y0201100D01*
X0135975Y0201100D01*
X0137776Y0201846D01*
X0139154Y0203224D01*
X0139900Y0205025D01*
X0139900Y0206975D01*
X0139154Y0208776D01*
X0137776Y0210154D01*
X0135975Y0210900D01*
X0134025Y0210900D01*
X0136075Y0210859D02*
X0143925Y0210859D01*
X0144025Y0210900D02*
X0142224Y0210154D01*
X0140846Y0208776D01*
X0140100Y0206975D01*
X0140100Y0205025D01*
X0140846Y0203224D01*
X0142224Y0201846D01*
X0144025Y0201100D01*
X0145975Y0201100D01*
X0147776Y0201846D01*
X0149154Y0203224D01*
X0149900Y0205025D01*
X0149900Y0206975D01*
X0149154Y0208776D01*
X0147776Y0210154D01*
X0145975Y0210900D01*
X0144025Y0210900D01*
X0146075Y0210859D02*
X0153925Y0210859D01*
X0154025Y0210900D02*
X0152224Y0210154D01*
X0150846Y0208776D01*
X0150100Y0206975D01*
X0150100Y0205025D01*
X0150846Y0203224D01*
X0152224Y0201846D01*
X0154025Y0201100D01*
X0155975Y0201100D01*
X0157776Y0201846D01*
X0159154Y0203224D01*
X0159900Y0205025D01*
X0159900Y0206975D01*
X0159154Y0208776D01*
X0157776Y0210154D01*
X0155975Y0210900D01*
X0154025Y0210900D01*
X0156075Y0210859D02*
X0162000Y0210859D01*
X0162000Y0212857D02*
X0090809Y0212857D01*
X0090000Y0212857D02*
X0090000Y0212857D01*
X0090000Y0212800D02*
X0090000Y0218500D01*
X0095700Y0218500D01*
X0090000Y0218500D01*
X0090000Y0218500D01*
X0090000Y0218500D01*
X0090000Y0218500D01*
X0080000Y0218500D01*
X0080000Y0218500D01*
X0080000Y0212800D01*
X0080000Y0218500D01*
X0080000Y0218500D01*
X0084300Y0218500D01*
X0090000Y0218500D01*
X0090000Y0212800D01*
X0089191Y0212857D02*
X0080809Y0212857D01*
X0080000Y0212857D02*
X0080000Y0212857D01*
X0079191Y0212857D02*
X0023000Y0212857D01*
X0023000Y0210859D02*
X0023449Y0210859D01*
X0025000Y0210859D02*
X0025000Y0210859D01*
X0026551Y0210859D02*
X0033925Y0210859D01*
X0036075Y0210859D02*
X0043925Y0210859D01*
X0046075Y0210859D02*
X0053925Y0210859D01*
X0054025Y0210900D02*
X0052224Y0210154D01*
X0050846Y0208776D01*
X0050100Y0206975D01*
X0050100Y0205025D01*
X0050846Y0203224D01*
X0052224Y0201846D01*
X0054025Y0201100D01*
X0055975Y0201100D01*
X0057776Y0201846D01*
X0059154Y0203224D01*
X0059900Y0205025D01*
X0059900Y0206975D01*
X0059154Y0208776D01*
X0057776Y0210154D01*
X0055975Y0210900D01*
X0054025Y0210900D01*
X0056075Y0210859D02*
X0063925Y0210859D01*
X0060930Y0208860D02*
X0059070Y0208860D01*
X0059900Y0206862D02*
X0060100Y0206862D01*
X0060167Y0204863D02*
X0059833Y0204863D01*
X0058794Y0202865D02*
X0061206Y0202865D01*
X0062891Y0200866D02*
X0051377Y0200866D01*
X0051206Y0202865D02*
X0049378Y0202865D01*
X0049833Y0204863D02*
X0050167Y0204863D01*
X0050100Y0206862D02*
X0049900Y0206862D01*
X0049070Y0208860D02*
X0050930Y0208860D01*
X0045000Y0206000D02*
X0045000Y0203000D01*
X0054000Y0194000D01*
X0144000Y0194000D01*
X0149000Y0189000D01*
X0149000Y0174000D01*
X0152981Y0174885D02*
X0161000Y0174885D01*
X0161000Y0172887D02*
X0152981Y0172887D01*
X0152796Y0170888D02*
X0161000Y0170888D01*
X0161868Y0168890D02*
X0147981Y0168890D01*
X0147981Y0166891D02*
X0162000Y0166891D01*
X0162000Y0164893D02*
X0147981Y0164893D01*
X0147802Y0162894D02*
X0162000Y0162894D01*
X0162000Y0160896D02*
X0128446Y0160896D01*
X0128195Y0161000D02*
X0119805Y0161000D01*
X0128195Y0161000D01*
X0131165Y0162894D02*
X0133198Y0162894D01*
X0133019Y0164893D02*
X0132153Y0164893D01*
X0132200Y0166891D02*
X0133019Y0166891D01*
X0133019Y0168890D02*
X0131381Y0168890D01*
X0134000Y0170888D02*
X0128464Y0170888D01*
X0131158Y0172887D02*
X0134000Y0172887D01*
X0134000Y0174885D02*
X0132150Y0174885D01*
X0132200Y0176884D02*
X0134000Y0176884D01*
X0134000Y0178882D02*
X0131389Y0178882D01*
X0134000Y0180881D02*
X0128482Y0180881D01*
X0130481Y0182879D02*
X0134000Y0182879D01*
X0133879Y0184878D02*
X0130481Y0184878D01*
X0130481Y0186876D02*
X0131881Y0186876D01*
X0133000Y0190000D02*
X0137000Y0186000D01*
X0137000Y0166000D01*
X0144000Y0166000D02*
X0144000Y0186000D01*
X0149371Y0192872D02*
X0160964Y0192872D01*
X0160019Y0190873D02*
X0151369Y0190873D01*
X0152000Y0188875D02*
X0160019Y0188875D01*
X0160019Y0186876D02*
X0152000Y0186876D01*
X0152000Y0184878D02*
X0161000Y0184878D01*
X0161000Y0182879D02*
X0152000Y0182879D01*
X0152000Y0180881D02*
X0161000Y0180881D01*
X0161000Y0178882D02*
X0152000Y0178882D01*
X0152981Y0176884D02*
X0161000Y0176884D01*
X0164000Y0171000D02*
X0165000Y0170000D01*
X0170000Y0170000D01*
X0173981Y0170888D02*
X0176981Y0170888D01*
X0176019Y0168890D02*
X0173981Y0168890D01*
X0173799Y0166891D02*
X0176019Y0166891D01*
X0176019Y0164893D02*
X0168000Y0164893D01*
X0165000Y0161000D02*
X0165000Y0154000D01*
X0162000Y0151000D01*
X0114000Y0151000D01*
X0114000Y0167000D01*
X0111000Y0162894D02*
X0085693Y0162894D01*
X0085203Y0162404D02*
X0087084Y0164285D01*
X0088414Y0166589D01*
X0089102Y0169158D01*
X0089102Y0171818D01*
X0088414Y0174388D01*
X0087084Y0176691D01*
X0085203Y0178572D01*
X0082899Y0179902D01*
X0080330Y0180591D01*
X0077670Y0180591D01*
X0075101Y0179902D01*
X0072797Y0178572D01*
X0070916Y0176691D01*
X0069586Y0174388D01*
X0068898Y0171818D01*
X0068898Y0169158D01*
X0069586Y0166589D01*
X0070916Y0164285D01*
X0072797Y0162404D01*
X0075101Y0161074D01*
X0077670Y0160386D01*
X0080330Y0160386D01*
X0082899Y0161074D01*
X0085203Y0162404D01*
X0082233Y0160896D02*
X0111000Y0160896D01*
X0111000Y0158897D02*
X0064827Y0158897D01*
X0064819Y0156899D02*
X0111000Y0156899D01*
X0111000Y0154900D02*
X0064819Y0154900D01*
X0064819Y0152902D02*
X0105659Y0152902D01*
X0105457Y0152699D02*
X0105457Y0152699D01*
X0108000Y0151000D02*
X0105000Y0148000D01*
X0103000Y0146000D01*
X0082000Y0146000D01*
X0078019Y0146906D02*
X0064819Y0146906D01*
X0064819Y0148905D02*
X0078019Y0148905D01*
X0078019Y0144908D02*
X0064439Y0144908D01*
X0062980Y0142909D02*
X0078183Y0142909D01*
X0085817Y0142909D02*
X0116820Y0142909D01*
X0115840Y0144908D02*
X0108815Y0144908D01*
X0108981Y0146906D02*
X0115800Y0146906D01*
X0114000Y0151000D02*
X0108000Y0151000D01*
X0101019Y0150903D02*
X0064819Y0150903D01*
X0064493Y0160896D02*
X0075767Y0160896D01*
X0072307Y0162894D02*
X0063101Y0162894D01*
X0060815Y0165898D02*
X0058823Y0165898D01*
X0056982Y0166660D01*
X0055573Y0168069D01*
X0054811Y0169909D01*
X0054811Y0171902D01*
X0055573Y0173742D01*
X0056982Y0175151D01*
X0058823Y0175913D01*
X0060815Y0175913D01*
X0062656Y0175151D01*
X0064064Y0173742D01*
X0064827Y0171902D01*
X0064827Y0169909D01*
X0064064Y0168069D01*
X0062656Y0166660D01*
X0060815Y0165898D01*
X0062887Y0166891D02*
X0069505Y0166891D01*
X0068970Y0168890D02*
X0064404Y0168890D01*
X0064827Y0170888D02*
X0068898Y0170888D01*
X0069184Y0172887D02*
X0064419Y0172887D01*
X0062921Y0174885D02*
X0069874Y0174885D01*
X0071109Y0176884D02*
X0023000Y0176884D01*
X0023000Y0178882D02*
X0073334Y0178882D01*
X0068457Y0182301D02*
X0068457Y0182301D01*
X0067878Y0182879D02*
X0023000Y0182879D01*
X0023000Y0180881D02*
X0119518Y0180881D01*
X0116611Y0178882D02*
X0084666Y0178882D01*
X0086891Y0176884D02*
X0115800Y0176884D01*
X0115850Y0174885D02*
X0088126Y0174885D01*
X0088816Y0172887D02*
X0116842Y0172887D01*
X0117019Y0170888D02*
X0119536Y0170888D01*
X0110981Y0170888D02*
X0089102Y0170888D01*
X0089030Y0168890D02*
X0110019Y0168890D01*
X0110019Y0166891D02*
X0088495Y0166891D01*
X0087435Y0164893D02*
X0110019Y0164893D01*
X0117000Y0162729D02*
X0117000Y0159271D01*
X0117968Y0160239D01*
X0119805Y0161000D01*
X0117968Y0161761D01*
X0117000Y0162729D01*
X0117000Y0160896D02*
X0119554Y0160896D01*
X0131374Y0158897D02*
X0162000Y0158897D01*
X0162000Y0156899D02*
X0132200Y0156899D01*
X0132156Y0154900D02*
X0161658Y0154900D01*
X0165000Y0154000D02*
X0169000Y0150000D01*
X0169262Y0153981D02*
X0168000Y0155243D01*
X0168000Y0158000D01*
X0186597Y0158000D01*
X0187699Y0158457D01*
X0195699Y0166457D01*
X0196543Y0167301D01*
X0197000Y0168403D01*
X0197000Y0170092D01*
X0197000Y0170092D01*
X0197000Y0139243D01*
X0191757Y0134000D01*
X0131784Y0134000D01*
X0132200Y0135005D01*
X0132200Y0136995D01*
X0131439Y0138832D01*
X0130032Y0140239D01*
X0128195Y0141000D01*
X0119805Y0141000D01*
X0128195Y0141000D01*
X0130032Y0141761D01*
X0131439Y0143168D01*
X0132200Y0145005D01*
X0132200Y0146995D01*
X0131784Y0148000D01*
X0162597Y0148000D01*
X0163699Y0148457D01*
X0165000Y0149757D01*
X0165019Y0149738D01*
X0165019Y0147073D01*
X0166073Y0146019D01*
X0171927Y0146019D01*
X0172981Y0147073D01*
X0172981Y0152927D01*
X0171927Y0153981D01*
X0169262Y0153981D01*
X0168342Y0154900D02*
X0197000Y0154900D01*
X0197000Y0152902D02*
X0172981Y0152902D01*
X0172981Y0150903D02*
X0197000Y0150903D01*
X0197000Y0148905D02*
X0172981Y0148905D01*
X0172814Y0146906D02*
X0197000Y0146906D01*
X0197000Y0144908D02*
X0132159Y0144908D01*
X0132200Y0146906D02*
X0165186Y0146906D01*
X0165019Y0148905D02*
X0164147Y0148905D01*
X0168000Y0156899D02*
X0197000Y0156899D01*
X0197000Y0158897D02*
X0188140Y0158897D01*
X0190138Y0160896D02*
X0197000Y0160896D01*
X0197000Y0162894D02*
X0192137Y0162894D01*
X0194135Y0164893D02*
X0197000Y0164893D01*
X0197000Y0166891D02*
X0196134Y0166891D01*
X0197000Y0168890D02*
X0197000Y0168890D01*
X0194000Y0169000D02*
X0194000Y0174000D01*
X0194000Y0169000D02*
X0186000Y0161000D01*
X0165000Y0161000D01*
X0165000Y0170000D01*
X0164000Y0171000D02*
X0164000Y0189000D01*
X0169000Y0193000D02*
X0169000Y0178000D01*
X0172000Y0175000D01*
X0180000Y0175000D01*
X0183981Y0174885D02*
X0186000Y0174885D01*
X0186000Y0172887D02*
X0183981Y0172887D01*
X0183019Y0170888D02*
X0185646Y0170888D01*
X0189000Y0170000D02*
X0189000Y0177000D01*
X0194000Y0182000D01*
X0190019Y0182879D02*
X0180981Y0182879D01*
X0180981Y0180881D02*
X0188638Y0180881D01*
X0186640Y0178882D02*
X0183025Y0178882D01*
X0183981Y0176884D02*
X0186000Y0176884D01*
X0189000Y0170000D02*
X0186000Y0167000D01*
X0180000Y0167000D01*
X0177000Y0182000D02*
X0177000Y0192000D01*
X0170000Y0199000D01*
X0170000Y0219000D01*
X0173981Y0218853D02*
X0197000Y0218853D01*
X0197000Y0220851D02*
X0173981Y0220851D01*
X0173058Y0222850D02*
X0197000Y0222850D01*
X0197000Y0224848D02*
X0185091Y0224848D01*
X0187089Y0226847D02*
X0196019Y0226847D01*
X0196019Y0228845D02*
X0189088Y0228845D01*
X0191086Y0230844D02*
X0196019Y0230844D01*
X0200000Y0229000D02*
X0200000Y0196000D01*
X0196019Y0196869D02*
X0176374Y0196869D01*
X0178372Y0194870D02*
X0196019Y0194870D01*
X0196220Y0192872D02*
X0179886Y0192872D01*
X0180000Y0190873D02*
X0198631Y0190873D01*
X0197115Y0188875D02*
X0180000Y0188875D01*
X0180000Y0186876D02*
X0197000Y0186876D01*
X0200000Y0188000D02*
X0200000Y0138000D01*
X0193000Y0131000D01*
X0073000Y0131000D01*
X0067000Y0137000D01*
X0063019Y0136914D02*
X0023000Y0136914D01*
X0023000Y0138912D02*
X0063019Y0138912D01*
X0064003Y0140911D02*
X0060982Y0140911D01*
X0063019Y0134915D02*
X0023000Y0134915D01*
X0023000Y0132917D02*
X0046578Y0132917D01*
X0046788Y0132985D02*
X0046009Y0132732D01*
X0045278Y0132360D01*
X0044615Y0131878D01*
X0044036Y0131298D01*
X0043554Y0130635D01*
X0043182Y0129905D01*
X0042928Y0129125D01*
X0042800Y0128315D01*
X0042800Y0127909D01*
X0048004Y0127909D01*
X0048004Y0127902D01*
X0042800Y0127902D01*
X0042800Y0127496D01*
X0042928Y0126686D01*
X0043182Y0125906D01*
X0043554Y0125176D01*
X0044036Y0124513D01*
X0044615Y0123933D01*
X0045278Y0123451D01*
X0046009Y0123079D01*
X0046788Y0122826D01*
X0047598Y0122698D01*
X0048004Y0122698D01*
X0048004Y0127901D01*
X0048012Y0127901D01*
X0048012Y0122698D01*
X0048418Y0122698D01*
X0049227Y0122826D01*
X0050007Y0123079D01*
X0050737Y0123451D01*
X0051401Y0123933D01*
X0051980Y0124513D01*
X0052462Y0125176D01*
X0052834Y0125906D01*
X0053087Y0126686D01*
X0053216Y0127496D01*
X0053216Y0127902D01*
X0048012Y0127902D01*
X0048012Y0127909D01*
X0053216Y0127909D01*
X0053216Y0128315D01*
X0053087Y0129125D01*
X0052834Y0129905D01*
X0052462Y0130635D01*
X0051980Y0131298D01*
X0051401Y0131878D01*
X0050737Y0132360D01*
X0050007Y0132732D01*
X0049227Y0132985D01*
X0048418Y0133113D01*
X0048012Y0133113D01*
X0048012Y0127910D01*
X0048004Y0127910D01*
X0048004Y0133113D01*
X0047598Y0133113D01*
X0046788Y0132985D01*
X0048004Y0132917D02*
X0048012Y0132917D01*
X0049438Y0132917D02*
X0066841Y0132917D01*
X0068839Y0130918D02*
X0063888Y0130918D01*
X0064064Y0130742D02*
X0062656Y0132151D01*
X0060815Y0132913D01*
X0058823Y0132913D01*
X0056982Y0132151D01*
X0055573Y0130742D01*
X0054811Y0128902D01*
X0054811Y0126909D01*
X0055573Y0125069D01*
X0056982Y0123660D01*
X0058823Y0122898D01*
X0060815Y0122898D01*
X0062656Y0123660D01*
X0064064Y0125069D01*
X0064827Y0126909D01*
X0064827Y0128902D01*
X0064064Y0130742D01*
X0064819Y0128920D02*
X0070838Y0128920D01*
X0070457Y0129301D02*
X0070457Y0129301D01*
X0064827Y0126921D02*
X0115800Y0126921D01*
X0115834Y0124923D02*
X0063918Y0124923D01*
X0060879Y0122924D02*
X0083016Y0122924D01*
X0082019Y0120926D02*
X0061242Y0120926D01*
X0058396Y0120926D02*
X0052138Y0120926D01*
X0051961Y0121102D02*
X0044054Y0121102D01*
X0043000Y0120048D01*
X0043000Y0112141D01*
X0044054Y0111087D01*
X0051961Y0111087D01*
X0053016Y0112141D01*
X0053016Y0120048D01*
X0051961Y0121102D01*
X0053016Y0118927D02*
X0055572Y0118927D01*
X0054811Y0116929D02*
X0053016Y0116929D01*
X0053016Y0114930D02*
X0054819Y0114930D01*
X0054819Y0112932D02*
X0053016Y0112932D01*
X0054819Y0110933D02*
X0023000Y0110933D01*
X0023000Y0108934D02*
X0054819Y0108934D01*
X0054819Y0106936D02*
X0023000Y0106936D01*
X0023000Y0112932D02*
X0027009Y0112932D01*
X0024061Y0114930D02*
X0023000Y0114930D01*
X0034991Y0112932D02*
X0043000Y0112932D01*
X0043000Y0114930D02*
X0037939Y0114930D01*
X0039621Y0116929D02*
X0043000Y0116929D01*
X0043000Y0118927D02*
X0040449Y0118927D01*
X0040905Y0120926D02*
X0043878Y0120926D01*
X0046486Y0122924D02*
X0040905Y0122924D01*
X0040511Y0124923D02*
X0043738Y0124923D01*
X0042891Y0126921D02*
X0039683Y0126921D01*
X0038089Y0128920D02*
X0042896Y0128920D01*
X0043759Y0130918D02*
X0035354Y0130918D01*
X0026646Y0130918D02*
X0023000Y0130918D01*
X0023000Y0128920D02*
X0023911Y0128920D01*
X0048004Y0128920D02*
X0048012Y0128920D01*
X0048004Y0130918D02*
X0048012Y0130918D01*
X0048004Y0126921D02*
X0048012Y0126921D01*
X0048004Y0124923D02*
X0048012Y0124923D01*
X0048004Y0122924D02*
X0048012Y0122924D01*
X0049530Y0122924D02*
X0058759Y0122924D01*
X0055720Y0124923D02*
X0052278Y0124923D01*
X0053125Y0126921D02*
X0054811Y0126921D01*
X0054818Y0128920D02*
X0053120Y0128920D01*
X0052256Y0130918D02*
X0055749Y0130918D01*
X0064066Y0118927D02*
X0082019Y0118927D01*
X0082019Y0116929D02*
X0064827Y0116929D01*
X0064819Y0114930D02*
X0083000Y0114930D01*
X0081689Y0112932D02*
X0064819Y0112932D01*
X0064819Y0110933D02*
X0066025Y0110933D01*
X0065019Y0108934D02*
X0064819Y0108934D01*
X0064819Y0106936D02*
X0065019Y0106936D01*
X0065019Y0104937D02*
X0064819Y0104937D01*
X0064819Y0102939D02*
X0102000Y0102939D01*
X0102000Y0104937D02*
X0082180Y0104937D01*
X0084179Y0106936D02*
X0102000Y0106936D01*
X0102692Y0108934D02*
X0086177Y0108934D01*
X0088176Y0110933D02*
X0104690Y0110933D01*
X0106689Y0112932D02*
X0089000Y0112932D01*
X0089000Y0114930D02*
X0108687Y0114930D01*
X0110686Y0116929D02*
X0099171Y0116929D01*
X0097000Y0119000D02*
X0099000Y0121000D01*
X0196000Y0121000D01*
X0204000Y0129000D01*
X0204000Y0184000D01*
X0220000Y0200000D01*
X0220000Y0229000D01*
X0227000Y0229000D02*
X0227000Y0215000D01*
X0230000Y0212000D01*
X0230000Y0201000D01*
X0211000Y0182000D01*
X0214981Y0180881D02*
X0224118Y0180881D01*
X0224000Y0178882D02*
X0214790Y0178882D01*
X0216122Y0182879D02*
X0225637Y0182879D01*
X0227635Y0184878D02*
X0218121Y0184878D01*
X0220119Y0186876D02*
X0229634Y0186876D01*
X0231632Y0188875D02*
X0222118Y0188875D01*
X0224116Y0190873D02*
X0232000Y0190873D01*
X0232000Y0192872D02*
X0226115Y0192872D01*
X0228113Y0194870D02*
X0232000Y0194870D01*
X0232000Y0196869D02*
X0230112Y0196869D01*
X0235000Y0188000D02*
X0235000Y0206000D01*
X0235000Y0188000D02*
X0227000Y0180000D01*
X0227000Y0146000D01*
X0225000Y0144000D01*
X0215000Y0144000D01*
X0211019Y0144908D02*
X0207000Y0144908D01*
X0207000Y0146906D02*
X0211019Y0146906D01*
X0211019Y0142909D02*
X0207000Y0142909D01*
X0207000Y0140911D02*
X0211182Y0140911D01*
X0207000Y0138912D02*
X0245845Y0138912D01*
X0246519Y0136914D02*
X0207000Y0136914D01*
X0207000Y0134915D02*
X0247177Y0134915D01*
X0250500Y0138500D02*
X0249000Y0140000D01*
X0236000Y0153000D01*
X0232019Y0152902D02*
X0230000Y0152902D01*
X0230000Y0154900D02*
X0232019Y0154900D01*
X0232991Y0156899D02*
X0230000Y0156899D01*
X0230000Y0158897D02*
X0235860Y0158897D01*
X0235000Y0164000D02*
X0265000Y0134000D01*
X0271000Y0128000D01*
X0271000Y0093000D01*
X0278000Y0086000D01*
X0278000Y0059000D01*
X0283000Y0054000D01*
X0287000Y0054000D01*
X0299181Y0066181D01*
X0299181Y0073094D01*
X0294533Y0074960D02*
X0292000Y0074960D01*
X0292000Y0076958D02*
X0295963Y0076958D01*
X0294173Y0072961D02*
X0292000Y0072961D01*
X0292000Y0070963D02*
X0294644Y0070963D01*
X0296181Y0068964D02*
X0292000Y0068964D01*
X0292000Y0066966D02*
X0295723Y0066966D01*
X0293725Y0064967D02*
X0292000Y0064967D01*
X0298213Y0060970D02*
X0342646Y0060970D01*
X0342646Y0058972D02*
X0304048Y0058972D01*
X0304048Y0056973D02*
X0342646Y0056973D01*
X0342646Y0054975D02*
X0304048Y0054975D01*
X0304048Y0052976D02*
X0342646Y0052976D01*
X0342646Y0050978D02*
X0308573Y0050978D01*
X0308593Y0050966D02*
X0308137Y0051229D01*
X0307629Y0051365D01*
X0304083Y0051365D01*
X0304083Y0046083D01*
X0309365Y0046083D01*
X0309365Y0049629D01*
X0309229Y0050137D01*
X0308966Y0050593D01*
X0308593Y0050966D01*
X0309365Y0048979D02*
X0342646Y0048979D01*
X0342646Y0046981D02*
X0309365Y0046981D01*
X0309365Y0045917D02*
X0304083Y0045917D01*
X0304083Y0040635D01*
X0307629Y0040635D01*
X0308137Y0040771D01*
X0308593Y0041034D01*
X0308966Y0041407D01*
X0309229Y0041863D01*
X0309365Y0042371D01*
X0309365Y0045917D01*
X0309365Y0044982D02*
X0323973Y0044982D01*
X0324389Y0045398D02*
X0321602Y0042611D01*
X0320094Y0038970D01*
X0320094Y0035030D01*
X0321602Y0031389D01*
X0324389Y0028602D01*
X0328030Y0027094D01*
X0331970Y0027094D01*
X0335611Y0028602D01*
X0338398Y0031389D01*
X0339906Y0035030D01*
X0339906Y0038970D01*
X0338398Y0042611D01*
X0335611Y0045398D01*
X0331970Y0046906D01*
X0328030Y0046906D01*
X0324389Y0045398D01*
X0321974Y0042984D02*
X0309365Y0042984D01*
X0308508Y0040985D02*
X0320929Y0040985D01*
X0320101Y0038987D02*
X0237000Y0038987D01*
X0237000Y0036988D02*
X0320094Y0036988D01*
X0320111Y0034990D02*
X0237000Y0034990D01*
X0237000Y0032991D02*
X0320938Y0032991D01*
X0321998Y0030993D02*
X0237000Y0030993D01*
X0237981Y0028994D02*
X0323997Y0028994D01*
X0336003Y0028994D02*
X0342646Y0028994D01*
X0342646Y0026996D02*
X0237981Y0026996D01*
X0234000Y0027000D02*
X0234000Y0046000D01*
X0229701Y0050978D02*
X0228299Y0050978D01*
X0238299Y0050978D02*
X0239427Y0050978D01*
X0243917Y0050978D02*
X0244083Y0050978D01*
X0244083Y0051365D02*
X0244083Y0046083D01*
X0249365Y0046083D01*
X0249365Y0049629D01*
X0249229Y0050137D01*
X0248966Y0050593D01*
X0248593Y0050966D01*
X0248137Y0051229D01*
X0247629Y0051365D01*
X0244083Y0051365D01*
X0244083Y0048979D02*
X0243917Y0048979D01*
X0243917Y0046981D02*
X0244083Y0046981D01*
X0244083Y0045917D02*
X0249365Y0045917D01*
X0249365Y0042371D01*
X0249229Y0041863D01*
X0248966Y0041407D01*
X0248593Y0041034D01*
X0248137Y0040771D01*
X0247629Y0040635D01*
X0244083Y0040635D01*
X0244083Y0045917D01*
X0244083Y0044982D02*
X0243917Y0044982D01*
X0243917Y0042984D02*
X0244083Y0042984D01*
X0244083Y0040985D02*
X0243917Y0040985D01*
X0239492Y0040985D02*
X0238261Y0040985D01*
X0248508Y0040985D02*
X0289739Y0040985D01*
X0298261Y0040985D02*
X0299492Y0040985D01*
X0303917Y0040985D02*
X0304083Y0040985D01*
X0304083Y0042984D02*
X0303917Y0042984D01*
X0303917Y0044982D02*
X0304083Y0044982D01*
X0304083Y0046981D02*
X0303917Y0046981D01*
X0303917Y0048979D02*
X0304083Y0048979D01*
X0304083Y0050978D02*
X0304019Y0050978D01*
X0300211Y0062969D02*
X0342646Y0062969D01*
X0342646Y0064967D02*
X0301925Y0064967D01*
X0302181Y0066966D02*
X0342646Y0066966D01*
X0342646Y0068964D02*
X0314168Y0068964D01*
X0314385Y0069122D02*
X0314964Y0069702D01*
X0315446Y0070365D01*
X0315818Y0071095D01*
X0316072Y0071875D01*
X0316200Y0072685D01*
X0316200Y0073091D01*
X0310996Y0073091D01*
X0310996Y0073098D01*
X0316200Y0073098D01*
X0316200Y0073504D01*
X0316072Y0074314D01*
X0315818Y0075094D01*
X0315446Y0075824D01*
X0314964Y0076487D01*
X0314385Y0077067D01*
X0313722Y0077549D01*
X0312991Y0077921D01*
X0312212Y0078174D01*
X0311402Y0078302D01*
X0310996Y0078302D01*
X0310996Y0073098D01*
X0310988Y0073098D01*
X0310988Y0073091D01*
X0305784Y0073091D01*
X0305784Y0072685D01*
X0305912Y0071875D01*
X0306166Y0071095D01*
X0306538Y0070365D01*
X0307020Y0069702D01*
X0307599Y0069122D01*
X0308263Y0068640D01*
X0308993Y0068268D01*
X0309773Y0068015D01*
X0310582Y0067887D01*
X0310988Y0067887D01*
X0310988Y0073090D01*
X0310996Y0073090D01*
X0310996Y0067887D01*
X0311402Y0067887D01*
X0312212Y0068015D01*
X0312991Y0068268D01*
X0313722Y0068640D01*
X0314385Y0069122D01*
X0315751Y0070963D02*
X0322029Y0070963D01*
X0322389Y0070603D02*
X0326030Y0069094D01*
X0329970Y0069094D01*
X0333611Y0070603D01*
X0336397Y0073389D01*
X0337905Y0077030D01*
X0337905Y0080970D01*
X0336397Y0084611D01*
X0333611Y0087397D01*
X0329970Y0088905D01*
X0326030Y0088905D01*
X0322389Y0087397D01*
X0319603Y0084611D01*
X0318094Y0080970D01*
X0318094Y0077030D01*
X0319603Y0073389D01*
X0322389Y0070603D01*
X0320030Y0072961D02*
X0316200Y0072961D01*
X0315862Y0074960D02*
X0318952Y0074960D01*
X0318124Y0076958D02*
X0314493Y0076958D01*
X0314946Y0079898D02*
X0316000Y0080952D01*
X0316000Y0088859D01*
X0314946Y0089913D01*
X0307039Y0089913D01*
X0305984Y0088859D01*
X0305984Y0080952D01*
X0307039Y0079898D01*
X0314946Y0079898D01*
X0316000Y0080955D02*
X0318094Y0080955D01*
X0318094Y0078957D02*
X0292000Y0078957D01*
X0282000Y0078957D02*
X0281000Y0078957D01*
X0281000Y0080955D02*
X0282000Y0080955D01*
X0282000Y0082954D02*
X0281000Y0082954D01*
X0281000Y0084952D02*
X0282000Y0084952D01*
X0282000Y0086951D02*
X0280853Y0086951D01*
X0282000Y0088949D02*
X0279293Y0088949D01*
X0280854Y0092946D02*
X0282000Y0092946D01*
X0282000Y0094945D02*
X0280981Y0094945D01*
X0280981Y0096943D02*
X0282000Y0096943D01*
X0282000Y0098942D02*
X0280966Y0098942D01*
X0280000Y0100940D02*
X0282000Y0100940D01*
X0282000Y0102939D02*
X0280000Y0102939D01*
X0280000Y0104937D02*
X0282000Y0104937D01*
X0282000Y0106936D02*
X0280000Y0106936D01*
X0280000Y0108934D02*
X0282000Y0108934D01*
X0282000Y0110933D02*
X0280000Y0110933D01*
X0280000Y0112932D02*
X0282000Y0112932D01*
X0282000Y0114930D02*
X0280000Y0114930D01*
X0280000Y0116929D02*
X0282000Y0116929D01*
X0282000Y0118927D02*
X0280000Y0118927D01*
X0280000Y0120926D02*
X0282000Y0120926D01*
X0282000Y0122924D02*
X0280000Y0122924D01*
X0280000Y0124923D02*
X0282384Y0124923D01*
X0283850Y0126921D02*
X0280000Y0126921D01*
X0280000Y0128920D02*
X0285849Y0128920D01*
X0287847Y0130918D02*
X0280000Y0130918D01*
X0280000Y0132917D02*
X0289846Y0132917D01*
X0291844Y0134915D02*
X0279327Y0134915D01*
X0277329Y0136914D02*
X0293843Y0136914D01*
X0295841Y0138912D02*
X0275981Y0138912D01*
X0275981Y0140911D02*
X0297840Y0140911D01*
X0298817Y0142909D02*
X0299838Y0142909D01*
X0298981Y0144908D02*
X0301837Y0144908D01*
X0303835Y0146906D02*
X0298981Y0146906D01*
X0298981Y0148905D02*
X0305834Y0148905D01*
X0307832Y0150903D02*
X0298000Y0150903D01*
X0297341Y0152902D02*
X0309831Y0152902D01*
X0311829Y0154900D02*
X0295342Y0154900D01*
X0293344Y0156899D02*
X0313828Y0156899D01*
X0315000Y0158897D02*
X0291345Y0158897D01*
X0289347Y0160896D02*
X0315000Y0160896D01*
X0315000Y0162894D02*
X0287348Y0162894D01*
X0295000Y0151000D02*
X0267000Y0179000D01*
X0257000Y0176884D02*
X0238981Y0176884D01*
X0237019Y0180881D02*
X0232124Y0180881D01*
X0234122Y0182879D02*
X0237019Y0182879D01*
X0237000Y0184878D02*
X0236121Y0184878D01*
X0224000Y0176884D02*
X0207000Y0176884D01*
X0207000Y0178882D02*
X0207210Y0178882D01*
X0207019Y0180881D02*
X0207000Y0180881D01*
X0207000Y0174885D02*
X0224000Y0174885D01*
X0224000Y0172887D02*
X0207000Y0172887D01*
X0207000Y0170888D02*
X0224000Y0170888D01*
X0224000Y0168890D02*
X0207000Y0168890D01*
X0207000Y0166891D02*
X0224000Y0166891D01*
X0224000Y0164893D02*
X0207000Y0164893D01*
X0207000Y0162894D02*
X0224000Y0162894D01*
X0224000Y0160896D02*
X0207000Y0160896D01*
X0207000Y0158897D02*
X0224000Y0158897D01*
X0224000Y0156899D02*
X0207000Y0156899D01*
X0207000Y0154900D02*
X0224000Y0154900D01*
X0224000Y0152902D02*
X0207000Y0152902D01*
X0207000Y0150903D02*
X0224000Y0150903D01*
X0224000Y0148905D02*
X0207000Y0148905D01*
X0197000Y0142909D02*
X0131180Y0142909D01*
X0128410Y0140911D02*
X0197000Y0140911D01*
X0196670Y0138912D02*
X0131359Y0138912D01*
X0132200Y0136914D02*
X0194671Y0136914D01*
X0192673Y0134915D02*
X0132163Y0134915D01*
X0119590Y0140911D02*
X0069997Y0140911D01*
X0070981Y0138912D02*
X0116641Y0138912D01*
X0115800Y0136914D02*
X0071329Y0136914D01*
X0073327Y0134915D02*
X0115837Y0134915D01*
X0096681Y0122924D02*
X0094984Y0122924D01*
X0097000Y0119000D02*
X0092000Y0119000D01*
X0089016Y0122924D02*
X0088984Y0122924D01*
X0086000Y0119000D02*
X0086000Y0113000D01*
X0080000Y0107000D01*
X0069000Y0107000D01*
X0071975Y0110933D02*
X0079690Y0110933D01*
X0080330Y0101850D02*
X0077670Y0101850D01*
X0075101Y0101162D01*
X0072797Y0099832D01*
X0070916Y0097951D01*
X0069586Y0095647D01*
X0068898Y0093078D01*
X0068898Y0090418D01*
X0069586Y0087849D01*
X0070916Y0085545D01*
X0072797Y0083664D01*
X0075101Y0082334D01*
X0077670Y0081646D01*
X0080330Y0081646D01*
X0082899Y0082334D01*
X0085203Y0083664D01*
X0087084Y0085545D01*
X0088414Y0087849D01*
X0089102Y0090418D01*
X0089102Y0093078D01*
X0088414Y0095647D01*
X0087084Y0097951D01*
X0085203Y0099832D01*
X0082899Y0101162D01*
X0080330Y0101850D01*
X0083283Y0100940D02*
X0101033Y0100940D01*
X0101019Y0098942D02*
X0086093Y0098942D01*
X0087666Y0096943D02*
X0101019Y0096943D01*
X0101147Y0094945D02*
X0088602Y0094945D01*
X0089102Y0092946D02*
X0116591Y0092946D01*
X0112000Y0098000D02*
X0112000Y0103000D01*
X0115000Y0106000D01*
X0124000Y0106000D01*
X0128195Y0111000D02*
X0119805Y0111000D01*
X0128195Y0111000D01*
X0128356Y0110933D02*
X0159025Y0110933D01*
X0158019Y0108934D02*
X0131337Y0108934D01*
X0132200Y0106936D02*
X0158019Y0106936D01*
X0158019Y0104937D02*
X0132172Y0104937D01*
X0131210Y0102939D02*
X0159000Y0102939D01*
X0159000Y0100940D02*
X0128822Y0100940D01*
X0131490Y0098942D02*
X0159000Y0098942D01*
X0159000Y0096943D02*
X0132315Y0096943D01*
X0132400Y0096000D02*
X0124000Y0096000D01*
X0124000Y0096000D01*
X0132400Y0096000D01*
X0132298Y0094945D02*
X0159000Y0094945D01*
X0159000Y0092946D02*
X0131409Y0092946D01*
X0128479Y0090948D02*
X0157705Y0090948D01*
X0162000Y0091000D02*
X0157000Y0086000D01*
X0124000Y0086000D01*
X0131225Y0082954D02*
X0263000Y0082954D01*
X0263000Y0084952D02*
X0160195Y0084952D01*
X0162194Y0086951D02*
X0263000Y0086951D01*
X0263396Y0088949D02*
X0164192Y0088949D01*
X0165000Y0090948D02*
X0264877Y0090948D01*
X0268000Y0092946D02*
X0165000Y0092946D01*
X0165000Y0094945D02*
X0268000Y0094945D01*
X0268000Y0096943D02*
X0165000Y0096943D01*
X0165000Y0098942D02*
X0268000Y0098942D01*
X0268000Y0100940D02*
X0165000Y0100940D01*
X0165000Y0102939D02*
X0268000Y0102939D01*
X0268000Y0104937D02*
X0165981Y0104937D01*
X0165981Y0106936D02*
X0268000Y0106936D01*
X0268000Y0108934D02*
X0165981Y0108934D01*
X0164975Y0110933D02*
X0268000Y0110933D01*
X0268000Y0112932D02*
X0131203Y0112932D01*
X0132169Y0114930D02*
X0260162Y0114930D01*
X0260019Y0116929D02*
X0132200Y0116929D01*
X0124000Y0116000D02*
X0114000Y0116000D01*
X0105000Y0107000D01*
X0105000Y0098000D01*
X0108500Y0101408D02*
X0108000Y0101908D01*
X0108000Y0105757D01*
X0115243Y0113000D01*
X0116729Y0113000D01*
X0117968Y0111761D01*
X0119805Y0111000D01*
X0117968Y0110239D01*
X0116729Y0109000D01*
X0114403Y0109000D01*
X0113301Y0108543D01*
X0110301Y0105543D01*
X0109457Y0104699D01*
X0109000Y0103597D01*
X0109000Y0101908D01*
X0108500Y0101408D01*
X0108000Y0102939D02*
X0109000Y0102939D01*
X0109695Y0104937D02*
X0108000Y0104937D01*
X0109179Y0106936D02*
X0111693Y0106936D01*
X0111177Y0108934D02*
X0114245Y0108934D01*
X0113176Y0110933D02*
X0119644Y0110933D01*
X0116797Y0112932D02*
X0115174Y0112932D01*
X0096880Y0090948D02*
X0089102Y0090948D01*
X0088709Y0088949D02*
X0093878Y0088949D01*
X0091880Y0086951D02*
X0087896Y0086951D01*
X0086491Y0084952D02*
X0089881Y0084952D01*
X0087883Y0082954D02*
X0083973Y0082954D01*
X0085884Y0080955D02*
X0062951Y0080955D01*
X0062656Y0080660D02*
X0064064Y0082069D01*
X0064827Y0083909D01*
X0064827Y0085902D01*
X0064064Y0087742D01*
X0062656Y0089151D01*
X0060815Y0089913D01*
X0058823Y0089913D01*
X0056982Y0089151D01*
X0055573Y0087742D01*
X0054811Y0085902D01*
X0054811Y0083909D01*
X0055573Y0082069D01*
X0056982Y0080660D01*
X0058823Y0079898D01*
X0060815Y0079898D01*
X0062656Y0080660D01*
X0064431Y0082954D02*
X0074027Y0082954D01*
X0071509Y0084952D02*
X0064827Y0084952D01*
X0064392Y0086951D02*
X0070104Y0086951D01*
X0069291Y0088949D02*
X0062857Y0088949D01*
X0056781Y0088949D02*
X0051302Y0088949D01*
X0051401Y0088878D02*
X0050737Y0089360D01*
X0050007Y0089732D01*
X0049227Y0089985D01*
X0048418Y0090113D01*
X0048012Y0090113D01*
X0048012Y0084910D01*
X0048004Y0084910D01*
X0048004Y0090113D01*
X0047598Y0090113D01*
X0046788Y0089985D01*
X0046009Y0089732D01*
X0045278Y0089360D01*
X0044615Y0088878D01*
X0044036Y0088298D01*
X0043554Y0087635D01*
X0043182Y0086905D01*
X0042928Y0086125D01*
X0042800Y0085315D01*
X0042800Y0084909D01*
X0048004Y0084909D01*
X0048004Y0084902D01*
X0042800Y0084902D01*
X0042800Y0084496D01*
X0042928Y0083686D01*
X0043182Y0082906D01*
X0043554Y0082176D01*
X0044036Y0081513D01*
X0044615Y0080933D01*
X0045278Y0080451D01*
X0046009Y0080079D01*
X0046788Y0079826D01*
X0047598Y0079698D01*
X0048004Y0079698D01*
X0048004Y0084901D01*
X0048012Y0084901D01*
X0048012Y0079698D01*
X0048418Y0079698D01*
X0049227Y0079826D01*
X0050007Y0080079D01*
X0050737Y0080451D01*
X0051401Y0080933D01*
X0051980Y0081513D01*
X0052462Y0082176D01*
X0052834Y0082906D01*
X0053087Y0083686D01*
X0053216Y0084496D01*
X0053216Y0084902D01*
X0048012Y0084902D01*
X0048012Y0084909D01*
X0053216Y0084909D01*
X0053216Y0085315D01*
X0053087Y0086125D01*
X0052834Y0086905D01*
X0052462Y0087635D01*
X0051980Y0088298D01*
X0051401Y0088878D01*
X0052811Y0086951D02*
X0055246Y0086951D01*
X0054811Y0084952D02*
X0053216Y0084952D01*
X0052850Y0082954D02*
X0055207Y0082954D01*
X0056687Y0080955D02*
X0051423Y0080955D01*
X0051961Y0078102D02*
X0044054Y0078102D01*
X0043000Y0077048D01*
X0043000Y0069141D01*
X0044054Y0068087D01*
X0051961Y0068087D01*
X0053016Y0069141D01*
X0053016Y0077048D01*
X0051961Y0078102D01*
X0053016Y0076958D02*
X0056601Y0076958D01*
X0055171Y0074960D02*
X0053016Y0074960D01*
X0053016Y0072961D02*
X0054811Y0072961D01*
X0055281Y0070963D02*
X0053016Y0070963D01*
X0052839Y0068964D02*
X0056867Y0068964D01*
X0043177Y0068964D02*
X0023000Y0068964D01*
X0023000Y0070963D02*
X0025029Y0070963D01*
X0023030Y0072961D02*
X0023000Y0072961D01*
X0023105Y0066966D02*
X0084000Y0066966D01*
X0094000Y0066966D02*
X0110598Y0066966D01*
X0111012Y0067137D02*
X0109186Y0066381D01*
X0107788Y0064983D01*
X0107031Y0063157D01*
X0107031Y0054843D01*
X0107788Y0053017D01*
X0109186Y0051619D01*
X0111012Y0050863D01*
X0112988Y0050863D01*
X0114814Y0051619D01*
X0116212Y0053017D01*
X0116968Y0054843D01*
X0116968Y0063157D01*
X0116212Y0064983D01*
X0114814Y0066381D01*
X0112988Y0067137D01*
X0111012Y0067137D01*
X0113402Y0066966D02*
X0118792Y0066966D01*
X0119000Y0066757D02*
X0119000Y0066195D01*
X0117788Y0064983D01*
X0117031Y0063157D01*
X0117031Y0054843D01*
X0117788Y0053017D01*
X0119186Y0051619D01*
X0121012Y0050863D01*
X0122988Y0050863D01*
X0124814Y0051619D01*
X0126212Y0053017D01*
X0126936Y0054765D01*
X0126959Y0054621D01*
X0127210Y0053847D01*
X0127580Y0053123D01*
X0128058Y0052464D01*
X0128633Y0051889D01*
X0129291Y0051411D01*
X0130016Y0051042D01*
X0130790Y0050790D01*
X0131593Y0050663D01*
X0132000Y0050663D01*
X0132000Y0059000D01*
X0132000Y0059000D01*
X0132000Y0067337D01*
X0131593Y0067337D01*
X0130790Y0067210D01*
X0130016Y0066958D01*
X0129291Y0066589D01*
X0128633Y0066111D01*
X0128058Y0065536D01*
X0127580Y0064877D01*
X0127210Y0064153D01*
X0126959Y0063379D01*
X0126936Y0063235D01*
X0126212Y0064983D01*
X0125000Y0066195D01*
X0125000Y0068597D01*
X0124543Y0069699D01*
X0123699Y0070543D01*
X0120699Y0073543D01*
X0119597Y0074000D01*
X0102908Y0074000D01*
X0101927Y0074981D01*
X0096073Y0074981D01*
X0095019Y0073927D01*
X0095019Y0068073D01*
X0096073Y0067019D01*
X0101927Y0067019D01*
X0102908Y0068000D01*
X0117757Y0068000D01*
X0119000Y0066757D01*
X0117781Y0064967D02*
X0116219Y0064967D01*
X0116968Y0062969D02*
X0117031Y0062969D01*
X0116968Y0060970D02*
X0117031Y0060970D01*
X0116968Y0058972D02*
X0117031Y0058972D01*
X0116968Y0056973D02*
X0117031Y0056973D01*
X0116968Y0054975D02*
X0117031Y0054975D01*
X0117829Y0052976D02*
X0116171Y0052976D01*
X0113265Y0050978D02*
X0120735Y0050978D01*
X0123265Y0050978D02*
X0130213Y0050978D01*
X0132000Y0050978D02*
X0132000Y0050978D01*
X0133787Y0050978D02*
X0137000Y0050978D01*
X0137000Y0052976D02*
X0136314Y0052976D01*
X0132000Y0052976D02*
X0132000Y0052976D01*
X0132000Y0054975D02*
X0132000Y0054975D01*
X0132000Y0056973D02*
X0132000Y0056973D01*
X0132000Y0058972D02*
X0132000Y0058972D01*
X0132000Y0060970D02*
X0132000Y0060970D01*
X0132000Y0062969D02*
X0132000Y0062969D01*
X0132000Y0064967D02*
X0132000Y0064967D01*
X0132000Y0066966D02*
X0132000Y0066966D01*
X0130039Y0066966D02*
X0125000Y0066966D01*
X0124848Y0068964D02*
X0168087Y0068964D01*
X0168087Y0069815D02*
X0168087Y0067823D01*
X0168849Y0065982D01*
X0170258Y0064573D01*
X0172098Y0063811D01*
X0174091Y0063811D01*
X0175931Y0064573D01*
X0177340Y0065982D01*
X0178102Y0067823D01*
X0178102Y0069815D01*
X0177340Y0071656D01*
X0175931Y0073064D01*
X0174091Y0073827D01*
X0172098Y0073827D01*
X0170258Y0073064D01*
X0168849Y0071656D01*
X0168087Y0069815D01*
X0168562Y0070963D02*
X0123280Y0070963D01*
X0121281Y0072961D02*
X0170155Y0072961D01*
X0176034Y0072961D02*
X0181966Y0072961D01*
X0182069Y0073064D02*
X0180660Y0071656D01*
X0179898Y0069815D01*
X0179898Y0067823D01*
X0180660Y0065982D01*
X0182069Y0064573D01*
X0183909Y0063811D01*
X0185902Y0063811D01*
X0187742Y0064573D01*
X0189151Y0065982D01*
X0189913Y0067823D01*
X0189913Y0069815D01*
X0189151Y0071656D01*
X0187742Y0073064D01*
X0185902Y0073827D01*
X0183909Y0073827D01*
X0182069Y0073064D01*
X0180373Y0070963D02*
X0177627Y0070963D01*
X0178102Y0068964D02*
X0179898Y0068964D01*
X0180253Y0066966D02*
X0177747Y0066966D01*
X0176325Y0064967D02*
X0181675Y0064967D01*
X0180952Y0062016D02*
X0179898Y0060961D01*
X0179898Y0053054D01*
X0180952Y0052000D01*
X0188859Y0052000D01*
X0189913Y0053054D01*
X0189913Y0060961D01*
X0188859Y0062016D01*
X0180952Y0062016D01*
X0179907Y0060970D02*
X0176497Y0060970D01*
X0176487Y0060980D02*
X0175824Y0061462D01*
X0175094Y0061834D01*
X0174314Y0062087D01*
X0173504Y0062216D01*
X0173098Y0062216D01*
X0173098Y0057012D01*
X0173091Y0057012D01*
X0173091Y0062216D01*
X0172685Y0062216D01*
X0171875Y0062087D01*
X0171095Y0061834D01*
X0170365Y0061462D01*
X0169702Y0060980D01*
X0169122Y0060401D01*
X0168640Y0059737D01*
X0168268Y0059007D01*
X0168015Y0058227D01*
X0167887Y0057418D01*
X0167887Y0057012D01*
X0173090Y0057012D01*
X0173090Y0057004D01*
X0167887Y0057004D01*
X0167887Y0056598D01*
X0168015Y0055788D01*
X0168268Y0055009D01*
X0168640Y0054278D01*
X0169122Y0053615D01*
X0169702Y0053036D01*
X0170365Y0052554D01*
X0171095Y0052182D01*
X0171875Y0051928D01*
X0172685Y0051800D01*
X0173091Y0051800D01*
X0173091Y0057004D01*
X0173098Y0057004D01*
X0173098Y0051800D01*
X0173504Y0051800D01*
X0174314Y0051928D01*
X0175094Y0052182D01*
X0175824Y0052554D01*
X0176487Y0053036D01*
X0177067Y0053615D01*
X0177549Y0054278D01*
X0177921Y0055009D01*
X0178174Y0055788D01*
X0178302Y0056598D01*
X0178302Y0057004D01*
X0173098Y0057004D01*
X0173098Y0057012D01*
X0178302Y0057012D01*
X0178302Y0057418D01*
X0178174Y0058227D01*
X0177921Y0059007D01*
X0177549Y0059737D01*
X0177067Y0060401D01*
X0176487Y0060980D01*
X0177932Y0058972D02*
X0179898Y0058972D01*
X0179898Y0056973D02*
X0178302Y0056973D01*
X0177903Y0054975D02*
X0179898Y0054975D01*
X0179976Y0052976D02*
X0176405Y0052976D01*
X0173098Y0052976D02*
X0173091Y0052976D01*
X0173091Y0054975D02*
X0173098Y0054975D01*
X0173091Y0056973D02*
X0173098Y0056973D01*
X0173091Y0058972D02*
X0173098Y0058972D01*
X0173091Y0060970D02*
X0173098Y0060970D01*
X0169692Y0060970D02*
X0146968Y0060970D01*
X0147000Y0058972D02*
X0168257Y0058972D01*
X0167887Y0056973D02*
X0147000Y0056973D01*
X0147000Y0054975D02*
X0168285Y0054975D01*
X0169783Y0052976D02*
X0147000Y0052976D01*
X0147000Y0050978D02*
X0219701Y0050978D01*
X0218835Y0048979D02*
X0183207Y0048979D01*
X0186028Y0046981D02*
X0218835Y0046981D01*
X0218835Y0044982D02*
X0187658Y0044982D01*
X0188486Y0042984D02*
X0218835Y0042984D01*
X0219000Y0040985D02*
X0188905Y0040985D01*
X0188905Y0038987D02*
X0219000Y0038987D01*
X0219000Y0036988D02*
X0188474Y0036988D01*
X0187646Y0034990D02*
X0219000Y0034990D01*
X0219000Y0032991D02*
X0186000Y0032991D01*
X0172000Y0032991D02*
X0147000Y0032991D01*
X0147000Y0034990D02*
X0170354Y0034990D01*
X0169526Y0036988D02*
X0147000Y0036988D01*
X0147000Y0038987D02*
X0169094Y0038987D01*
X0169094Y0040985D02*
X0147000Y0040985D01*
X0147000Y0042984D02*
X0169514Y0042984D01*
X0170342Y0044982D02*
X0147000Y0044982D01*
X0147000Y0046981D02*
X0171972Y0046981D01*
X0174793Y0048979D02*
X0147000Y0048979D01*
X0137000Y0048979D02*
X0094000Y0048979D01*
X0094000Y0046981D02*
X0137000Y0046981D01*
X0137000Y0044982D02*
X0094000Y0044982D01*
X0094000Y0042984D02*
X0137000Y0042984D01*
X0137000Y0040985D02*
X0094000Y0040985D01*
X0094000Y0038987D02*
X0137000Y0038987D01*
X0137000Y0036988D02*
X0094000Y0036988D01*
X0094081Y0034990D02*
X0137000Y0034990D01*
X0137000Y0032991D02*
X0096080Y0032991D01*
X0094000Y0050978D02*
X0110735Y0050978D01*
X0107829Y0052976D02*
X0094000Y0052976D01*
X0094000Y0054975D02*
X0107031Y0054975D01*
X0107031Y0056973D02*
X0094000Y0056973D01*
X0094000Y0058972D02*
X0107031Y0058972D01*
X0107031Y0060970D02*
X0094000Y0060970D01*
X0094000Y0062969D02*
X0107031Y0062969D01*
X0107781Y0064967D02*
X0094000Y0064967D01*
X0094000Y0068964D02*
X0095019Y0068964D01*
X0095019Y0070963D02*
X0094000Y0070963D01*
X0094000Y0072961D02*
X0095019Y0072961D01*
X0094031Y0074960D02*
X0096052Y0074960D01*
X0096029Y0076958D02*
X0263000Y0076958D01*
X0263000Y0074960D02*
X0101948Y0074960D01*
X0099000Y0071000D02*
X0119000Y0071000D01*
X0122000Y0068000D01*
X0122000Y0059000D01*
X0126171Y0052976D02*
X0127686Y0052976D01*
X0127645Y0064967D02*
X0126219Y0064967D01*
X0133961Y0066966D02*
X0140598Y0066966D01*
X0143402Y0066966D02*
X0168442Y0066966D01*
X0169864Y0064967D02*
X0146219Y0064967D01*
X0146968Y0062969D02*
X0263000Y0062969D01*
X0263000Y0064967D02*
X0188136Y0064967D01*
X0189558Y0066966D02*
X0263000Y0066966D01*
X0263000Y0068964D02*
X0189913Y0068964D01*
X0189438Y0070963D02*
X0263000Y0070963D01*
X0263000Y0072961D02*
X0187845Y0072961D01*
X0189904Y0060970D02*
X0263000Y0060970D01*
X0263000Y0058972D02*
X0189913Y0058972D01*
X0189913Y0056973D02*
X0263000Y0056973D01*
X0263000Y0054975D02*
X0189913Y0054975D01*
X0189835Y0052976D02*
X0263426Y0052976D01*
X0264951Y0050978D02*
X0248573Y0050978D01*
X0249365Y0048979D02*
X0266950Y0048979D01*
X0268948Y0046981D02*
X0249365Y0046981D01*
X0249365Y0044982D02*
X0270947Y0044982D01*
X0272945Y0042984D02*
X0249365Y0042984D01*
X0281000Y0060970D02*
X0282015Y0060970D01*
X0282000Y0062969D02*
X0281000Y0062969D01*
X0281000Y0064967D02*
X0282000Y0064967D01*
X0282000Y0066966D02*
X0281000Y0066966D01*
X0281000Y0068964D02*
X0282000Y0068964D01*
X0282000Y0070963D02*
X0281000Y0070963D01*
X0281000Y0072961D02*
X0282000Y0072961D01*
X0282000Y0074960D02*
X0281000Y0074960D01*
X0281000Y0076958D02*
X0282000Y0076958D01*
X0263000Y0078957D02*
X0098028Y0078957D01*
X0100026Y0080955D02*
X0263000Y0080955D01*
X0282271Y0058972D02*
X0282957Y0058972D01*
X0302181Y0068964D02*
X0307817Y0068964D01*
X0306233Y0070963D02*
X0303719Y0070963D01*
X0304189Y0072961D02*
X0305784Y0072961D01*
X0305784Y0073098D02*
X0310988Y0073098D01*
X0310988Y0078302D01*
X0310582Y0078302D01*
X0309773Y0078174D01*
X0308993Y0077921D01*
X0308263Y0077549D01*
X0307599Y0077067D01*
X0307020Y0076487D01*
X0306538Y0075824D01*
X0306166Y0075094D01*
X0305912Y0074314D01*
X0305784Y0073504D01*
X0305784Y0073098D01*
X0306122Y0074960D02*
X0303829Y0074960D01*
X0302399Y0076958D02*
X0307491Y0076958D01*
X0310988Y0076958D02*
X0310996Y0076958D01*
X0310988Y0074960D02*
X0310996Y0074960D01*
X0310988Y0072961D02*
X0310996Y0072961D01*
X0310988Y0070963D02*
X0310996Y0070963D01*
X0310988Y0068964D02*
X0310996Y0068964D01*
X0305984Y0080955D02*
X0302313Y0080955D01*
X0303793Y0082954D02*
X0305984Y0082954D01*
X0305984Y0084952D02*
X0304189Y0084952D01*
X0303754Y0086951D02*
X0305984Y0086951D01*
X0306075Y0088949D02*
X0302219Y0088949D01*
X0315910Y0088949D02*
X0342646Y0088949D01*
X0342646Y0086951D02*
X0334058Y0086951D01*
X0336056Y0084952D02*
X0342646Y0084952D01*
X0342646Y0082954D02*
X0337084Y0082954D01*
X0337905Y0080955D02*
X0342646Y0080955D01*
X0342646Y0078957D02*
X0337905Y0078957D01*
X0337876Y0076958D02*
X0342646Y0076958D01*
X0342646Y0074960D02*
X0337048Y0074960D01*
X0335970Y0072961D02*
X0342646Y0072961D01*
X0342646Y0070963D02*
X0333971Y0070963D01*
X0318916Y0082954D02*
X0316000Y0082954D01*
X0316000Y0084952D02*
X0319944Y0084952D01*
X0321942Y0086951D02*
X0316000Y0086951D01*
X0302018Y0111849D02*
X0300177Y0111087D01*
X0298185Y0111087D01*
X0296344Y0111849D01*
X0294936Y0113258D01*
X0294173Y0115098D01*
X0294173Y0117091D01*
X0294936Y0118931D01*
X0296344Y0120340D01*
X0298185Y0121102D01*
X0300177Y0121102D01*
X0302018Y0120340D01*
X0303427Y0118931D01*
X0304189Y0117091D01*
X0304189Y0115098D01*
X0303427Y0113258D01*
X0302018Y0111849D01*
X0303100Y0112932D02*
X0306853Y0112932D01*
X0305904Y0114930D02*
X0304119Y0114930D01*
X0304189Y0116929D02*
X0305851Y0116929D01*
X0305912Y0117314D02*
X0305784Y0116504D01*
X0305784Y0116098D01*
X0310988Y0116098D01*
X0310988Y0121302D01*
X0310582Y0121302D01*
X0309773Y0121174D01*
X0308993Y0120921D01*
X0308263Y0120549D01*
X0307599Y0120067D01*
X0307020Y0119487D01*
X0306538Y0118824D01*
X0306166Y0118094D01*
X0305912Y0117314D01*
X0306613Y0118927D02*
X0303428Y0118927D01*
X0300604Y0120926D02*
X0309008Y0120926D01*
X0310988Y0120926D02*
X0310996Y0120926D01*
X0312977Y0120926D02*
X0318094Y0120926D01*
X0318094Y0122924D02*
X0314972Y0122924D01*
X0316000Y0124923D02*
X0318489Y0124923D01*
X0319317Y0126921D02*
X0316000Y0126921D01*
X0316000Y0128920D02*
X0320911Y0128920D01*
X0323646Y0130918D02*
X0316000Y0130918D01*
X0305984Y0128920D02*
X0304182Y0128920D01*
X0304189Y0126921D02*
X0305984Y0126921D01*
X0305984Y0124923D02*
X0303280Y0124923D01*
X0300241Y0122924D02*
X0307012Y0122924D01*
X0310988Y0118927D02*
X0310996Y0118927D01*
X0310988Y0116929D02*
X0310996Y0116929D01*
X0310988Y0114930D02*
X0310996Y0114930D01*
X0310988Y0112932D02*
X0310996Y0112932D01*
X0315131Y0112932D02*
X0324009Y0112932D01*
X0321061Y0114930D02*
X0316080Y0114930D01*
X0316133Y0116929D02*
X0319379Y0116929D01*
X0318551Y0118927D02*
X0315371Y0118927D01*
X0298121Y0122924D02*
X0293995Y0122924D01*
X0292000Y0120926D02*
X0297758Y0120926D01*
X0294934Y0118927D02*
X0292000Y0118927D01*
X0292000Y0116929D02*
X0294173Y0116929D01*
X0294243Y0114930D02*
X0292000Y0114930D01*
X0292000Y0112932D02*
X0295262Y0112932D01*
X0268000Y0114930D02*
X0267838Y0114930D01*
X0267981Y0116929D02*
X0268000Y0116929D01*
X0267981Y0118927D02*
X0268000Y0118927D01*
X0267981Y0120926D02*
X0268000Y0120926D01*
X0268000Y0122924D02*
X0267000Y0122924D01*
X0267000Y0124923D02*
X0268000Y0124923D01*
X0267836Y0126921D02*
X0266322Y0126921D01*
X0265838Y0128920D02*
X0264323Y0128920D01*
X0264000Y0125000D02*
X0250500Y0138500D01*
X0243847Y0140911D02*
X0218818Y0140911D01*
X0228152Y0142909D02*
X0241848Y0142909D01*
X0239850Y0144908D02*
X0229795Y0144908D01*
X0230000Y0146906D02*
X0237851Y0146906D01*
X0235853Y0148905D02*
X0230000Y0148905D01*
X0230000Y0150903D02*
X0232019Y0150903D01*
X0251841Y0132917D02*
X0207000Y0132917D01*
X0207000Y0130918D02*
X0253839Y0130918D01*
X0255838Y0128920D02*
X0207000Y0128920D01*
X0206164Y0126921D02*
X0257836Y0126921D01*
X0259835Y0124923D02*
X0204165Y0124923D01*
X0202167Y0122924D02*
X0261000Y0122924D01*
X0260019Y0120926D02*
X0200168Y0120926D01*
X0198543Y0119301D02*
X0198543Y0119301D01*
X0198170Y0118927D02*
X0260019Y0118927D01*
X0264000Y0118000D02*
X0264000Y0125000D01*
X0265338Y0148905D02*
X0266762Y0148905D01*
X0264763Y0150903D02*
X0263339Y0150903D01*
X0263000Y0152902D02*
X0263679Y0152902D01*
X0263279Y0154900D02*
X0263000Y0154900D01*
X0263000Y0156899D02*
X0263242Y0156899D01*
X0263000Y0158897D02*
X0263639Y0158897D01*
X0263000Y0160896D02*
X0264588Y0160896D01*
X0263000Y0162894D02*
X0266541Y0162894D01*
X0295000Y0151000D02*
X0295000Y0146000D01*
X0210000Y0198000D02*
X0200000Y0188000D01*
X0190019Y0184878D02*
X0180981Y0184878D01*
X0169000Y0193000D02*
X0164000Y0198000D01*
X0070000Y0198000D01*
X0065000Y0203000D01*
X0065000Y0206000D01*
X0069833Y0204863D02*
X0070167Y0204863D01*
X0070100Y0206862D02*
X0069900Y0206862D01*
X0069070Y0208860D02*
X0070930Y0208860D01*
X0071206Y0202865D02*
X0069378Y0202865D01*
X0064890Y0198868D02*
X0053375Y0198868D01*
X0048887Y0194870D02*
X0038000Y0194870D01*
X0038000Y0196869D02*
X0046888Y0196869D01*
X0044890Y0198868D02*
X0038000Y0198868D01*
X0038000Y0200866D02*
X0042891Y0200866D01*
X0041206Y0202865D02*
X0038794Y0202865D01*
X0039833Y0204863D02*
X0040167Y0204863D01*
X0040100Y0206862D02*
X0039900Y0206862D01*
X0039070Y0208860D02*
X0040930Y0208860D01*
X0035000Y0206000D02*
X0035000Y0192000D01*
X0041000Y0186000D01*
X0069000Y0186000D01*
X0071000Y0184000D01*
X0079000Y0184000D01*
X0081000Y0186000D01*
X0126000Y0186000D01*
X0126500Y0185500D01*
X0122519Y0182879D02*
X0082122Y0182879D01*
X0075000Y0189000D02*
X0076000Y0190000D01*
X0133000Y0190000D01*
X0147372Y0194870D02*
X0162887Y0194870D01*
X0164920Y0200866D02*
X0167000Y0200866D01*
X0165000Y0206000D02*
X0165000Y0215000D01*
X0163000Y0217000D01*
X0163000Y0219000D01*
X0159019Y0218853D02*
X0095700Y0218853D01*
X0095459Y0216854D02*
X0159019Y0216854D01*
X0160902Y0214856D02*
X0094398Y0214856D01*
X0090000Y0214856D02*
X0090000Y0214856D01*
X0090000Y0216854D02*
X0090000Y0216854D01*
X0085602Y0214856D02*
X0084398Y0214856D01*
X0080000Y0214856D02*
X0080000Y0214856D01*
X0080000Y0216854D02*
X0080000Y0216854D01*
X0075602Y0214856D02*
X0074134Y0214856D01*
X0079070Y0208860D02*
X0080930Y0208860D01*
X0080100Y0206862D02*
X0079900Y0206862D01*
X0079833Y0204863D02*
X0080167Y0204863D01*
X0081206Y0202865D02*
X0078794Y0202865D01*
X0088794Y0202865D02*
X0091206Y0202865D01*
X0090167Y0204863D02*
X0089833Y0204863D01*
X0089900Y0206862D02*
X0090100Y0206862D01*
X0090930Y0208860D02*
X0089070Y0208860D01*
X0099070Y0208860D02*
X0100930Y0208860D01*
X0100100Y0206862D02*
X0099900Y0206862D01*
X0099833Y0204863D02*
X0100167Y0204863D01*
X0101206Y0202865D02*
X0098794Y0202865D01*
X0108794Y0202865D02*
X0111206Y0202865D01*
X0110167Y0204863D02*
X0109833Y0204863D01*
X0109900Y0206862D02*
X0110100Y0206862D01*
X0110930Y0208860D02*
X0109070Y0208860D01*
X0119070Y0208860D02*
X0120930Y0208860D01*
X0120100Y0206862D02*
X0119900Y0206862D01*
X0119833Y0204863D02*
X0120167Y0204863D01*
X0121206Y0202865D02*
X0118794Y0202865D01*
X0128794Y0202865D02*
X0131206Y0202865D01*
X0130167Y0204863D02*
X0129833Y0204863D01*
X0129900Y0206862D02*
X0130100Y0206862D01*
X0130930Y0208860D02*
X0129070Y0208860D01*
X0139070Y0208860D02*
X0140930Y0208860D01*
X0140100Y0206862D02*
X0139900Y0206862D01*
X0139833Y0204863D02*
X0140167Y0204863D01*
X0141206Y0202865D02*
X0138794Y0202865D01*
X0148794Y0202865D02*
X0151206Y0202865D01*
X0150167Y0204863D02*
X0149833Y0204863D01*
X0149900Y0206862D02*
X0150100Y0206862D01*
X0150930Y0208860D02*
X0149070Y0208860D01*
X0159070Y0208860D02*
X0160930Y0208860D01*
X0160100Y0206862D02*
X0159900Y0206862D01*
X0159833Y0204863D02*
X0160167Y0204863D01*
X0161206Y0202865D02*
X0158794Y0202865D01*
X0173000Y0200866D02*
X0197000Y0200866D01*
X0196019Y0198868D02*
X0174375Y0198868D01*
X0178794Y0202865D02*
X0181206Y0202865D01*
X0180846Y0203224D02*
X0182224Y0201846D01*
X0184025Y0201100D01*
X0185975Y0201100D01*
X0187776Y0201846D01*
X0189154Y0203224D01*
X0189900Y0205025D01*
X0189900Y0206975D01*
X0189154Y0208776D01*
X0187776Y0210154D01*
X0185975Y0210900D01*
X0184025Y0210900D01*
X0182224Y0210154D01*
X0180846Y0208776D01*
X0180100Y0206975D01*
X0180100Y0205025D01*
X0180846Y0203224D01*
X0180167Y0204863D02*
X0179833Y0204863D01*
X0179900Y0206862D02*
X0180100Y0206862D01*
X0180930Y0208860D02*
X0179070Y0208860D01*
X0176075Y0210859D02*
X0183925Y0210859D01*
X0186075Y0210859D02*
X0193925Y0210859D01*
X0196075Y0210859D02*
X0197000Y0210859D01*
X0197000Y0212857D02*
X0173000Y0212857D01*
X0173000Y0210859D02*
X0173925Y0210859D01*
X0173000Y0214856D02*
X0197000Y0214856D01*
X0197000Y0216854D02*
X0173981Y0216854D01*
X0166942Y0222850D02*
X0166058Y0222850D01*
X0159942Y0222850D02*
X0093711Y0222850D01*
X0095199Y0220851D02*
X0159019Y0220851D01*
X0181000Y0232000D02*
X0187000Y0238000D01*
X0252000Y0238000D01*
X0256000Y0234000D01*
X0246914Y0230844D02*
X0243981Y0230844D01*
X0210000Y0229000D02*
X0210000Y0198000D01*
X0191206Y0202865D02*
X0188794Y0202865D01*
X0189833Y0204863D02*
X0190167Y0204863D01*
X0190100Y0206862D02*
X0189900Y0206862D01*
X0189070Y0208860D02*
X0190930Y0208860D01*
X0181000Y0232000D02*
X0062000Y0232000D01*
X0060000Y0230000D01*
X0060000Y0218500D01*
X0055866Y0214856D02*
X0054134Y0214856D01*
X0055000Y0226000D02*
X0038000Y0226000D01*
X0034019Y0226847D02*
X0023000Y0226847D01*
X0023000Y0228845D02*
X0034019Y0228845D01*
X0034019Y0224848D02*
X0023000Y0224848D01*
X0023000Y0230844D02*
X0057102Y0230844D01*
X0058600Y0232842D02*
X0023000Y0232842D01*
X0025000Y0208860D02*
X0025000Y0208860D01*
X0025000Y0206862D02*
X0025000Y0206862D01*
X0025000Y0206000D02*
X0025000Y0200900D01*
X0025000Y0206000D01*
X0025000Y0206000D01*
X0025000Y0204863D02*
X0025000Y0204863D01*
X0025000Y0202865D02*
X0025000Y0202865D01*
X0023000Y0200866D02*
X0032000Y0200866D01*
X0032000Y0198868D02*
X0023000Y0198868D01*
X0023000Y0196869D02*
X0032000Y0196869D01*
X0032000Y0194870D02*
X0023000Y0194870D01*
X0023000Y0192872D02*
X0032000Y0192872D01*
X0032219Y0190873D02*
X0023000Y0190873D01*
X0023000Y0188875D02*
X0033882Y0188875D01*
X0035881Y0186876D02*
X0023000Y0186876D01*
X0023000Y0184878D02*
X0037879Y0184878D01*
X0040369Y0190873D02*
X0071019Y0190873D01*
X0071019Y0188875D02*
X0069899Y0188875D01*
X0056717Y0174885D02*
X0051390Y0174885D01*
X0051401Y0174878D02*
X0050737Y0175360D01*
X0050007Y0175732D01*
X0049227Y0175985D01*
X0048418Y0176113D01*
X0048012Y0176113D01*
X0048012Y0170910D01*
X0048004Y0170910D01*
X0048004Y0176113D01*
X0047598Y0176113D01*
X0046788Y0175985D01*
X0046009Y0175732D01*
X0045278Y0175360D01*
X0044615Y0174878D01*
X0044036Y0174298D01*
X0043554Y0173635D01*
X0043182Y0172905D01*
X0042928Y0172125D01*
X0042800Y0171315D01*
X0042800Y0170909D01*
X0048004Y0170909D01*
X0048004Y0170902D01*
X0042800Y0170902D01*
X0042800Y0170496D01*
X0042928Y0169686D01*
X0043182Y0168906D01*
X0043554Y0168176D01*
X0044036Y0167513D01*
X0044615Y0166933D01*
X0045278Y0166451D01*
X0046009Y0166079D01*
X0046788Y0165826D01*
X0047598Y0165698D01*
X0048004Y0165698D01*
X0048004Y0170901D01*
X0048012Y0170901D01*
X0048012Y0165698D01*
X0048418Y0165698D01*
X0049227Y0165826D01*
X0050007Y0166079D01*
X0050737Y0166451D01*
X0051401Y0166933D01*
X0051980Y0167513D01*
X0052462Y0168176D01*
X0052834Y0168906D01*
X0053087Y0169686D01*
X0053216Y0170496D01*
X0053216Y0170902D01*
X0048012Y0170902D01*
X0048012Y0170909D01*
X0053216Y0170909D01*
X0053216Y0171315D01*
X0053087Y0172125D01*
X0052834Y0172905D01*
X0052462Y0173635D01*
X0051980Y0174298D01*
X0051401Y0174878D01*
X0052840Y0172887D02*
X0055219Y0172887D01*
X0054811Y0170888D02*
X0053216Y0170888D01*
X0052826Y0168890D02*
X0055233Y0168890D01*
X0056751Y0166891D02*
X0051343Y0166891D01*
X0051961Y0164102D02*
X0044054Y0164102D01*
X0043000Y0163048D01*
X0043000Y0155141D01*
X0044054Y0154087D01*
X0051961Y0154087D01*
X0053016Y0155141D01*
X0053016Y0163048D01*
X0051961Y0164102D01*
X0053016Y0162894D02*
X0056537Y0162894D01*
X0055145Y0160896D02*
X0053016Y0160896D01*
X0053016Y0158897D02*
X0054811Y0158897D01*
X0054819Y0156899D02*
X0053016Y0156899D01*
X0052775Y0154900D02*
X0054819Y0154900D01*
X0054819Y0152902D02*
X0023000Y0152902D01*
X0023000Y0154900D02*
X0043241Y0154900D01*
X0043000Y0156899D02*
X0036907Y0156899D01*
X0038906Y0158897D02*
X0043000Y0158897D01*
X0043000Y0160896D02*
X0040022Y0160896D01*
X0040849Y0162894D02*
X0043000Y0162894D01*
X0040905Y0164893D02*
X0070565Y0164893D01*
X0054819Y0150903D02*
X0023000Y0150903D01*
X0023000Y0156899D02*
X0025093Y0156899D01*
X0023094Y0158897D02*
X0023000Y0158897D01*
X0023000Y0172887D02*
X0024878Y0172887D01*
X0023000Y0174885D02*
X0028981Y0174885D01*
X0033019Y0174885D02*
X0044626Y0174885D01*
X0043176Y0172887D02*
X0037122Y0172887D01*
X0039120Y0170888D02*
X0042800Y0170888D01*
X0043190Y0168890D02*
X0040110Y0168890D01*
X0040905Y0166891D02*
X0044673Y0166891D01*
X0048004Y0166891D02*
X0048012Y0166891D01*
X0048004Y0168890D02*
X0048012Y0168890D01*
X0048004Y0170888D02*
X0048012Y0170888D01*
X0048004Y0172887D02*
X0048012Y0172887D01*
X0048004Y0174885D02*
X0048012Y0174885D01*
X0050885Y0192872D02*
X0038371Y0192872D01*
X0031206Y0202865D02*
X0029026Y0202865D01*
X0029983Y0204863D02*
X0030167Y0204863D01*
X0030100Y0206862D02*
X0030027Y0206862D01*
X0029226Y0208860D02*
X0030930Y0208860D01*
X0100981Y0240836D02*
X0101019Y0240836D01*
X0100981Y0242835D02*
X0101019Y0242835D01*
X0100981Y0244833D02*
X0101019Y0244833D01*
X0101924Y0246832D02*
X0100076Y0246832D01*
X0100000Y0248830D02*
X0102000Y0248830D01*
X0120000Y0253000D02*
X0120000Y0282000D01*
X0123000Y0285000D01*
X0134000Y0285000D01*
X0135600Y0280806D02*
X0123049Y0280806D01*
X0123000Y0278808D02*
X0135600Y0278808D01*
X0135600Y0276809D02*
X0123000Y0276809D01*
X0123000Y0274811D02*
X0137552Y0274811D01*
X0139114Y0268815D02*
X0140886Y0268815D01*
X0140100Y0266817D02*
X0139900Y0266817D01*
X0139814Y0264818D02*
X0140186Y0264818D01*
X0141250Y0262820D02*
X0138750Y0262820D01*
X0135000Y0266000D02*
X0135000Y0259000D01*
X0125000Y0248000D02*
X0120000Y0253000D01*
X0125000Y0248000D02*
X0145000Y0248000D01*
X0153000Y0248000D02*
X0200000Y0248000D01*
X0191250Y0262820D02*
X0188750Y0262820D01*
X0189814Y0264818D02*
X0190186Y0264818D01*
X0190100Y0266817D02*
X0189900Y0266817D01*
X0189114Y0268815D02*
X0190886Y0268815D01*
X0189411Y0274811D02*
X0164448Y0274811D01*
X0166400Y0276809D02*
X0187954Y0276809D01*
X0187500Y0278808D02*
X0166400Y0278808D01*
X0166400Y0280806D02*
X0187795Y0280806D01*
X0189027Y0282805D02*
X0164832Y0282805D01*
X0164723Y0284803D02*
X0189135Y0284803D01*
X0187723Y0286802D02*
X0166600Y0286802D01*
X0166600Y0288801D02*
X0187300Y0288801D01*
X0187591Y0290799D02*
X0166600Y0290799D01*
X0166600Y0291320D02*
X0163320Y0294600D01*
X0161181Y0294600D01*
X0161181Y0289181D01*
X0166600Y0289181D01*
X0166600Y0291320D01*
X0165122Y0292798D02*
X0188737Y0292798D01*
X0193000Y0292798D02*
X0193000Y0292798D01*
X0193000Y0290799D02*
X0193000Y0290799D01*
X0197263Y0292798D02*
X0321072Y0292798D01*
X0320245Y0290799D02*
X0198409Y0290799D01*
X0198700Y0288801D02*
X0320094Y0288801D01*
X0320094Y0286802D02*
X0198277Y0286802D01*
X0196865Y0284803D02*
X0320794Y0284803D01*
X0321651Y0282805D02*
X0196973Y0282805D01*
X0198205Y0280806D02*
X0323649Y0280806D01*
X0323101Y0264818D02*
X0324899Y0264818D01*
X0325256Y0256824D02*
X0322744Y0256824D01*
X0316082Y0254826D02*
X0342646Y0254826D01*
X0342646Y0252827D02*
X0316981Y0252827D01*
X0316981Y0250829D02*
X0342646Y0250829D01*
X0335256Y0256824D02*
X0332744Y0256824D01*
X0333101Y0264818D02*
X0334899Y0264818D01*
X0314899Y0264818D02*
X0313101Y0264818D01*
X0312744Y0256824D02*
X0315256Y0256824D01*
X0294000Y0245000D02*
X0286000Y0253000D01*
X0170000Y0253000D01*
X0168993Y0262820D02*
X0171250Y0262820D01*
X0170186Y0264818D02*
X0169976Y0264818D01*
X0170034Y0266817D02*
X0170100Y0266817D01*
X0170886Y0268815D02*
X0169258Y0268815D01*
X0165000Y0268815D02*
X0165000Y0268815D01*
X0165000Y0266817D02*
X0165000Y0266817D01*
X0160742Y0268815D02*
X0159114Y0268815D01*
X0159900Y0266817D02*
X0159966Y0266817D01*
X0160024Y0264818D02*
X0159814Y0264818D01*
X0158750Y0262820D02*
X0161007Y0262820D01*
X0155000Y0266000D02*
X0151000Y0270000D01*
X0151000Y0279000D01*
X0154448Y0274811D02*
X0157552Y0274811D01*
X0149940Y0266817D02*
X0149900Y0266817D01*
X0149814Y0264818D02*
X0150186Y0264818D01*
X0151250Y0262820D02*
X0148750Y0262820D01*
X0147552Y0274811D02*
X0144448Y0274811D01*
X0134958Y0290799D02*
X0090456Y0290799D01*
X0090500Y0292798D02*
X0132960Y0292798D01*
X0130961Y0294796D02*
X0089795Y0294796D01*
X0089579Y0288801D02*
X0130893Y0288801D01*
X0120559Y0286802D02*
X0086823Y0286802D01*
X0083177Y0286802D02*
X0076823Y0286802D01*
X0079579Y0288801D02*
X0080421Y0288801D01*
X0073177Y0286802D02*
X0050045Y0286802D01*
X0052043Y0288801D02*
X0070421Y0288801D01*
X0069544Y0290799D02*
X0054042Y0290799D01*
X0056040Y0292798D02*
X0069500Y0292798D01*
X0070205Y0294796D02*
X0058039Y0294796D01*
X0085000Y0282805D02*
X0085000Y0282805D01*
X0085000Y0280806D02*
X0085000Y0280806D01*
X0085000Y0280543D02*
X0085000Y0280543D01*
X0085000Y0278808D02*
X0085000Y0278808D01*
X0120457Y0286699D02*
X0120457Y0286699D01*
X0144839Y0292798D02*
X0147161Y0292798D01*
X0154839Y0292798D02*
X0156878Y0292798D01*
X0160819Y0292798D02*
X0161181Y0292798D01*
X0161181Y0290799D02*
X0160819Y0290799D01*
X0179114Y0268815D02*
X0180886Y0268815D01*
X0180100Y0266817D02*
X0179900Y0266817D01*
X0179814Y0264818D02*
X0180186Y0264818D01*
X0181250Y0262820D02*
X0178750Y0262820D01*
X0228750Y0262820D02*
X0231250Y0262820D01*
X0230186Y0264818D02*
X0229814Y0264818D01*
X0229900Y0266817D02*
X0230100Y0266817D01*
X0230886Y0268815D02*
X0229114Y0268815D01*
X0162000Y0107000D02*
X0162000Y0091000D01*
X0137781Y0064967D02*
X0136355Y0064967D01*
X0084399Y0078957D02*
X0040905Y0078957D01*
X0040905Y0080955D02*
X0044593Y0080955D01*
X0043166Y0082954D02*
X0040084Y0082954D01*
X0039056Y0084952D02*
X0042800Y0084952D01*
X0043205Y0086951D02*
X0037058Y0086951D01*
X0044714Y0088949D02*
X0023000Y0088949D01*
X0023000Y0086951D02*
X0024942Y0086951D01*
X0023000Y0090948D02*
X0068898Y0090948D01*
X0068898Y0092946D02*
X0023000Y0092946D01*
X0023000Y0094945D02*
X0069398Y0094945D01*
X0070334Y0096943D02*
X0060014Y0096943D01*
X0062013Y0098942D02*
X0071907Y0098942D01*
X0074717Y0100940D02*
X0064012Y0100940D01*
X0048012Y0088949D02*
X0048004Y0088949D01*
X0048004Y0086951D02*
X0048012Y0086951D01*
X0048004Y0084952D02*
X0048012Y0084952D01*
X0048004Y0082954D02*
X0048012Y0082954D01*
X0048004Y0080955D02*
X0048012Y0080955D01*
X0043000Y0076958D02*
X0040876Y0076958D01*
X0040048Y0074960D02*
X0043000Y0074960D01*
X0043000Y0072961D02*
X0038970Y0072961D01*
X0036971Y0070963D02*
X0043000Y0070963D01*
X0336027Y0044982D02*
X0342646Y0044982D01*
X0342646Y0042984D02*
X0338026Y0042984D01*
X0339071Y0040985D02*
X0342646Y0040985D01*
X0342646Y0038987D02*
X0339899Y0038987D01*
X0339906Y0036988D02*
X0342646Y0036988D01*
X0342646Y0034990D02*
X0339889Y0034990D01*
X0339062Y0032991D02*
X0342646Y0032991D01*
X0342646Y0030993D02*
X0338002Y0030993D01*
D24*
X0262000Y0096000D03*
X0257000Y0074000D03*
X0210000Y0137000D03*
X0237000Y0142000D03*
X0253000Y0156000D03*
X0268000Y0169000D03*
X0279000Y0190000D03*
X0331000Y0235000D03*
X0212000Y0171000D03*
X0193000Y0190000D03*
X0178000Y0220000D03*
X0138000Y0220000D03*
X0114000Y0180500D03*
X0085000Y0181000D03*
X0083000Y0156000D03*
X0098000Y0154000D03*
X0145000Y0141000D03*
X0179000Y0152000D03*
X0173000Y0079000D03*
X0094000Y0096000D03*
X0110000Y0272000D03*
D25*
X0207000Y0093000D03*
D26*
X0162000Y0107000D03*
X0169000Y0150000D03*
X0180000Y0167000D03*
X0180000Y0175000D03*
X0177000Y0182000D03*
X0164000Y0189000D03*
X0149000Y0174000D03*
X0144000Y0166000D03*
X0137000Y0166000D03*
X0144000Y0186000D03*
X0126500Y0185500D03*
X0114000Y0167000D03*
X0105000Y0148000D03*
X0082000Y0146000D03*
X0067000Y0137000D03*
X0050000Y0144000D03*
X0086000Y0119000D03*
X0092000Y0119000D03*
X0069000Y0107000D03*
X0105000Y0098000D03*
X0112000Y0098000D03*
X0099000Y0071000D03*
X0199000Y0027000D03*
X0234000Y0027000D03*
X0287000Y0062000D03*
X0268000Y0087000D03*
X0277000Y0096000D03*
X0287000Y0112000D03*
X0290500Y0126500D03*
X0272000Y0138000D03*
X0265000Y0134000D03*
X0250500Y0138500D03*
X0236000Y0153000D03*
X0215000Y0144000D03*
X0235000Y0174000D03*
X0241000Y0183000D03*
X0262000Y0182000D03*
X0267000Y0207000D03*
X0278000Y0210000D03*
X0267000Y0221000D03*
X0261000Y0243000D03*
X0240000Y0229000D03*
X0227000Y0229000D03*
X0220000Y0229000D03*
X0210000Y0229000D03*
X0200000Y0229000D03*
X0200000Y0248000D03*
X0220000Y0248000D03*
X0227000Y0248000D03*
X0240000Y0258000D03*
X0294000Y0245000D03*
X0300000Y0238000D03*
X0313000Y0251000D03*
X0306000Y0198000D03*
X0295000Y0146000D03*
X0264000Y0118000D03*
X0194000Y0174000D03*
X0194000Y0182000D03*
X0200000Y0196000D03*
X0211000Y0182000D03*
X0170000Y0170000D03*
X0170000Y0219000D03*
X0163000Y0219000D03*
X0163000Y0237000D03*
X0145000Y0248000D03*
X0170000Y0253000D03*
X0134000Y0285000D03*
X0105000Y0243000D03*
X0097000Y0243000D03*
X0055000Y0226000D03*
X0038000Y0226000D03*
X0075000Y0189000D03*
D27*
X0087000Y0060000D02*
X0023000Y0060000D01*
X0018000Y0065000D01*
X0018000Y0101000D01*
X0057000Y0101000D01*
X0059819Y0103819D01*
X0059819Y0116094D01*
X0057000Y0144000D02*
X0050000Y0144000D01*
X0018000Y0144000D01*
X0018000Y0217000D01*
X0019500Y0218500D01*
X0050000Y0218500D01*
X0018000Y0217000D02*
X0018000Y0259000D01*
X0025000Y0266000D01*
X0059819Y0159094D02*
X0059819Y0146819D01*
X0057000Y0144000D01*
X0018000Y0144000D02*
X0018000Y0101000D01*
X0059819Y0073094D02*
X0087906Y0073094D01*
X0089000Y0072000D01*
X0089000Y0077000D01*
X0098000Y0086000D01*
X0124000Y0086000D01*
X0142000Y0059000D02*
X0142000Y0028000D01*
X0143000Y0027000D01*
X0199000Y0027000D01*
X0221000Y0027000D01*
X0224000Y0030000D01*
X0224000Y0046000D01*
X0268000Y0055000D02*
X0268000Y0087000D01*
X0287000Y0085000D02*
X0287094Y0084906D01*
X0299181Y0084906D01*
X0287000Y0085000D02*
X0287000Y0112000D01*
X0287000Y0123000D01*
X0290500Y0126500D01*
X0292000Y0128000D01*
X0320000Y0156000D01*
X0320000Y0188000D01*
X0319220Y0187220D01*
X0295331Y0187220D01*
X0320000Y0188000D02*
X0320000Y0238000D01*
X0313000Y0245000D01*
X0306000Y0245000D01*
X0299000Y0252000D01*
X0299000Y0261000D01*
X0299087Y0128000D02*
X0292000Y0128000D01*
X0299087Y0128000D02*
X0299181Y0127906D01*
X0287000Y0085000D02*
X0287000Y0062000D01*
X0294000Y0050000D02*
X0299000Y0055000D01*
X0294000Y0050000D02*
X0294000Y0046000D01*
X0277000Y0046000D01*
X0268000Y0055000D01*
X0143000Y0027000D02*
X0095000Y0027000D01*
X0089000Y0033000D01*
X0089000Y0058000D01*
X0087000Y0060000D01*
X0089000Y0058000D02*
X0089000Y0072000D01*
D28*
X0299000Y0055000D03*
M02*
