G75*
%MOIN*%
%OFA0B0*%
%FSLAX25Y25*%
%IPPOS*%
%LPD*%
%AMOC8*
5,1,8,0,0,1.08239X$1,22.5*
%
%ADD10C,0.00300*%
%ADD11C,0.00400*%
%ADD12C,0.00500*%
%ADD13R,0.00091X0.00091*%
%ADD14R,0.00543X0.00091*%
%ADD15R,0.00906X0.00091*%
%ADD16R,0.01358X0.00091*%
%ADD17R,0.01720X0.00091*%
%ADD18R,0.02173X0.00091*%
%ADD19R,0.02445X0.00091*%
%ADD20R,0.02898X0.00091*%
%ADD21R,0.03350X0.00091*%
%ADD22R,0.03713X0.00091*%
%ADD23R,0.04165X0.00091*%
%ADD24R,0.04618X0.00091*%
%ADD25R,0.05071X0.00091*%
%ADD26R,0.05433X0.00091*%
%ADD27R,0.05886X0.00091*%
%ADD28R,0.06339X0.00091*%
%ADD29R,0.06791X0.00091*%
%ADD30R,0.07154X0.00091*%
%ADD31R,0.07516X0.00091*%
%ADD32R,0.07969X0.00091*%
%ADD33R,0.08421X0.00091*%
%ADD34R,0.08965X0.00091*%
%ADD35R,0.09417X0.00091*%
%ADD36R,0.09870X0.00091*%
%ADD37R,0.10413X0.00091*%
%ADD38R,0.10957X0.00091*%
%ADD39R,0.11591X0.00091*%
%ADD40R,0.12134X0.00091*%
%ADD41R,0.12768X0.00091*%
%ADD42R,0.12858X0.00091*%
%ADD43R,0.13764X0.00091*%
%ADD44R,0.29610X0.00091*%
%ADD45R,0.29972X0.00091*%
%ADD46R,0.30335X0.00091*%
%ADD47R,0.30697X0.00091*%
%ADD48R,0.31059X0.00091*%
%ADD49R,0.31421X0.00091*%
%ADD50R,0.31783X0.00091*%
%ADD51R,0.32055X0.00091*%
%ADD52R,0.32327X0.00091*%
%ADD53R,0.32689X0.00091*%
%ADD54R,0.33051X0.00091*%
%ADD55R,0.33232X0.00091*%
%ADD56R,0.31965X0.00091*%
%ADD57R,0.31602X0.00091*%
%ADD58R,0.31240X0.00091*%
%ADD59R,0.30878X0.00091*%
%ADD60R,0.30516X0.00091*%
%ADD61R,0.30154X0.00091*%
%ADD62R,0.29791X0.00091*%
%ADD63R,0.29429X0.00091*%
%ADD64R,0.13220X0.00091*%
%ADD65R,0.13311X0.00091*%
%ADD66R,0.12496X0.00091*%
%ADD67R,0.11862X0.00091*%
%ADD68R,0.11319X0.00091*%
%ADD69R,0.11228X0.00091*%
%ADD70R,0.10776X0.00091*%
%ADD71R,0.10685X0.00091*%
%ADD72R,0.10232X0.00091*%
%ADD73R,0.09689X0.00091*%
%ADD74R,0.09236X0.00091*%
%ADD75R,0.08693X0.00091*%
%ADD76R,0.08240X0.00091*%
%ADD77R,0.07787X0.00091*%
%ADD78R,0.07335X0.00091*%
%ADD79R,0.06972X0.00091*%
%ADD80R,0.06520X0.00091*%
%ADD81R,0.06157X0.00091*%
%ADD82R,0.06067X0.00091*%
%ADD83R,0.05705X0.00091*%
%ADD84R,0.05252X0.00091*%
%ADD85R,0.04799X0.00091*%
%ADD86R,0.04437X0.00091*%
%ADD87R,0.03984X0.00091*%
%ADD88R,0.03531X0.00091*%
%ADD89R,0.03622X0.00091*%
%ADD90R,0.03260X0.00091*%
%ADD91R,0.02807X0.00091*%
%ADD92R,0.02354X0.00091*%
%ADD93R,0.01992X0.00091*%
%ADD94R,0.01539X0.00091*%
%ADD95R,0.01087X0.00091*%
%ADD96R,0.00724X0.00091*%
%ADD97R,0.00272X0.00091*%
%ADD98R,0.00453X0.00091*%
%ADD99R,0.01268X0.00091*%
%ADD100R,0.02083X0.00091*%
%ADD101R,0.06610X0.00091*%
%ADD102R,0.07063X0.00091*%
%ADD103R,0.08874X0.00091*%
%ADD104R,0.11500X0.00091*%
%ADD105R,0.12043X0.00091*%
%ADD106R,0.13673X0.00091*%
%ADD107R,0.32146X0.00091*%
%ADD108R,0.29520X0.00091*%
%ADD109R,0.12587X0.00091*%
%ADD110R,0.07425X0.00091*%
%ADD111R,0.04890X0.00091*%
%ADD112R,0.01177X0.00091*%
%ADD113R,0.00362X0.00091*%
%ADD114R,0.01630X0.00091*%
%ADD115R,0.04980X0.00091*%
%ADD116R,0.11409X0.00091*%
%ADD117R,0.12677X0.00091*%
%ADD118R,0.13583X0.00091*%
%ADD119R,0.29882X0.00091*%
%ADD120R,0.13402X0.00091*%
%ADD121R,0.11953X0.00091*%
%ADD122R,0.08783X0.00091*%
%ADD123R,0.07878X0.00091*%
%ADD124R,0.04075X0.00091*%
%ADD125R,0.02717X0.00091*%
%ADD126R,0.04256X0.00091*%
%ADD127R,0.06429X0.00091*%
%ADD128R,0.04709X0.00091*%
%ADD129R,0.02988X0.00091*%
%ADD130R,0.07244X0.00091*%
%ADD131R,0.05795X0.00091*%
%ADD132R,0.05976X0.00091*%
%ADD133R,0.06248X0.00091*%
%ADD134R,0.07697X0.00091*%
%ADD135R,0.06701X0.00091*%
%ADD136R,0.06882X0.00091*%
%ADD137R,0.08059X0.00091*%
%ADD138R,0.08150X0.00091*%
%ADD139R,0.08331X0.00091*%
%ADD140R,0.08512X0.00091*%
%ADD141R,0.08602X0.00091*%
%ADD142R,0.03169X0.00091*%
%ADD143R,0.03079X0.00091*%
%ADD144R,0.03441X0.00091*%
%ADD145R,0.09055X0.00091*%
%ADD146R,0.07606X0.00091*%
%ADD147R,0.02626X0.00091*%
%ADD148R,0.05343X0.00091*%
%ADD149R,0.04800X0.00100*%
%ADD150R,0.06400X0.00100*%
%ADD151R,0.02400X0.00100*%
%ADD152R,0.02800X0.00100*%
%ADD153R,0.01900X0.00100*%
%ADD154R,0.02000X0.00100*%
%ADD155R,0.01600X0.00100*%
%ADD156R,0.01700X0.00100*%
%ADD157R,0.01400X0.00100*%
%ADD158R,0.01500X0.00100*%
%ADD159R,0.01200X0.00100*%
%ADD160R,0.01100X0.00100*%
%ADD161R,0.01000X0.00100*%
%ADD162R,0.03200X0.00100*%
%ADD163R,0.00900X0.00100*%
%ADD164R,0.00800X0.00100*%
%ADD165R,0.04200X0.00100*%
%ADD166R,0.01300X0.00100*%
%ADD167R,0.02900X0.00100*%
%ADD168R,0.04300X0.00100*%
%ADD169R,0.05200X0.00100*%
%ADD170R,0.00700X0.00100*%
%ADD171R,0.03900X0.00100*%
%ADD172R,0.01800X0.00100*%
%ADD173R,0.04400X0.00100*%
%ADD174R,0.04900X0.00100*%
%ADD175R,0.05400X0.00100*%
%ADD176R,0.05800X0.00100*%
%ADD177R,0.00600X0.00100*%
%ADD178R,0.06200X0.00100*%
%ADD179R,0.06500X0.00100*%
%ADD180R,0.02300X0.00100*%
%ADD181R,0.02500X0.00100*%
%ADD182R,0.02200X0.00100*%
%ADD183R,0.00500X0.00100*%
%ADD184R,0.02600X0.00100*%
%ADD185R,0.02700X0.00100*%
%ADD186R,0.00200X0.00100*%
%ADD187R,0.00400X0.00100*%
%ADD188R,0.02100X0.00100*%
%ADD189R,0.03800X0.00100*%
%ADD190R,0.00300X0.00100*%
%ADD191R,0.03400X0.00100*%
%ADD192R,0.03000X0.00100*%
%ADD193R,0.06600X0.00100*%
%ADD194R,0.06300X0.00100*%
%ADD195R,0.06000X0.00100*%
%ADD196R,0.05600X0.00100*%
%ADD197R,0.04600X0.00100*%
%ADD198R,0.06900X0.00100*%
%ADD199R,0.03100X0.00100*%
%ADD200R,0.05100X0.00100*%
%ADD201R,0.04000X0.00100*%
%ADD202R,0.00827X0.00059*%
%ADD203R,0.00709X0.00059*%
%ADD204R,0.01063X0.00059*%
%ADD205R,0.01240X0.00059*%
%ADD206R,0.00945X0.00059*%
%ADD207R,0.01122X0.00059*%
%ADD208R,0.01299X0.00059*%
%ADD209R,0.01713X0.00059*%
%ADD210R,0.00886X0.00059*%
%ADD211R,0.01181X0.00059*%
%ADD212R,0.01890X0.00059*%
%ADD213R,0.01772X0.00059*%
%ADD214R,0.01654X0.00059*%
%ADD215R,0.01476X0.00059*%
%ADD216R,0.02244X0.00059*%
%ADD217R,0.01004X0.00059*%
%ADD218R,0.02362X0.00059*%
%ADD219R,0.02598X0.00059*%
%ADD220R,0.02480X0.00059*%
%ADD221R,0.02126X0.00059*%
%ADD222R,0.02835X0.00059*%
%ADD223R,0.01949X0.00059*%
%ADD224R,0.02717X0.00059*%
%ADD225R,0.02303X0.00059*%
%ADD226R,0.03130X0.00059*%
%ADD227R,0.02953X0.00059*%
%ADD228R,0.02067X0.00059*%
%ADD229R,0.02421X0.00059*%
%ADD230R,0.03071X0.00059*%
%ADD231R,0.03307X0.00059*%
%ADD232R,0.02894X0.00059*%
%ADD233R,0.02776X0.00059*%
%ADD234R,0.03189X0.00059*%
%ADD235R,0.03366X0.00059*%
%ADD236R,0.03012X0.00059*%
%ADD237R,0.03248X0.00059*%
%ADD238R,0.03425X0.00059*%
%ADD239R,0.03484X0.00059*%
%ADD240R,0.03543X0.00059*%
%ADD241R,0.01358X0.00059*%
%ADD242R,0.01594X0.00059*%
%ADD243R,0.01535X0.00059*%
%ADD244R,0.00413X0.00059*%
%ADD245R,0.01417X0.00059*%
%ADD246R,0.00177X0.00059*%
%ADD247R,0.03720X0.00059*%
%ADD248R,0.03780X0.00059*%
%ADD249R,0.01831X0.00059*%
%ADD250R,0.00118X0.00059*%
%ADD251R,0.02657X0.00059*%
%ADD252R,0.03602X0.00059*%
%ADD253R,0.03661X0.00059*%
%ADD254R,0.03839X0.00059*%
%ADD255R,0.00768X0.00059*%
%ADD256R,0.02539X0.00059*%
%ADD257R,0.02185X0.00059*%
%ADD258R,0.02008X0.00059*%
%ADD259R,0.00650X0.00059*%
%ADD260R,0.00354X0.00059*%
%ADD261R,0.00472X0.00059*%
%ADD262R,0.00295X0.00059*%
%ADD263R,0.00591X0.00059*%
%ADD264R,0.00531X0.00059*%
%ADD265R,0.00236X0.00059*%
%ADD266R,0.00059X0.00059*%
%ADD267R,0.04075X0.00059*%
%ADD268R,0.04193X0.00059*%
%ADD269R,0.03957X0.00059*%
%ADD270C,0.00600*%
D10*
X0052600Y0069006D02*
X0052150Y0069457D01*
X0052150Y0070358D01*
X0052600Y0070808D01*
X0053051Y0070808D01*
X0053501Y0070358D01*
X0053501Y0069457D01*
X0053952Y0069006D01*
X0054402Y0069006D01*
X0054852Y0069457D01*
X0054852Y0070358D01*
X0054402Y0070808D01*
X0054852Y0071769D02*
X0054852Y0073120D01*
X0054402Y0073570D01*
X0052600Y0073570D01*
X0052150Y0073120D01*
X0052150Y0071769D01*
X0054852Y0071769D01*
X0053952Y0074531D02*
X0052150Y0074531D01*
X0053501Y0074531D02*
X0053501Y0076333D01*
X0053952Y0076333D02*
X0052150Y0076333D01*
X0053952Y0076333D02*
X0054852Y0075432D01*
X0053952Y0074531D01*
X0054402Y0081006D02*
X0052600Y0081006D01*
X0052150Y0081457D01*
X0052150Y0082358D01*
X0052600Y0082808D01*
X0053501Y0082808D01*
X0053501Y0081907D01*
X0054402Y0081006D02*
X0054852Y0081457D01*
X0054852Y0082358D01*
X0054402Y0082808D01*
X0054852Y0083769D02*
X0052150Y0085570D01*
X0054852Y0085570D01*
X0054852Y0086531D02*
X0054852Y0087882D01*
X0054402Y0088333D01*
X0052600Y0088333D01*
X0052150Y0087882D01*
X0052150Y0086531D01*
X0054852Y0086531D01*
X0054852Y0083769D02*
X0052150Y0083769D01*
X0064150Y0084219D02*
X0064150Y0085120D01*
X0064600Y0085570D01*
X0064150Y0086531D02*
X0066852Y0086531D01*
X0066402Y0085570D02*
X0066852Y0085120D01*
X0066852Y0084219D01*
X0066402Y0083769D01*
X0064600Y0083769D01*
X0064150Y0084219D01*
X0064600Y0082808D02*
X0064150Y0082358D01*
X0064150Y0081457D01*
X0064600Y0081006D01*
X0065501Y0081457D02*
X0065501Y0082358D01*
X0065051Y0082808D01*
X0064600Y0082808D01*
X0065501Y0081457D02*
X0065952Y0081006D01*
X0066402Y0081006D01*
X0066852Y0081457D01*
X0066852Y0082358D01*
X0066402Y0082808D01*
X0064150Y0086531D02*
X0064150Y0088333D01*
X0065051Y0076333D02*
X0064150Y0075432D01*
X0065051Y0074531D01*
X0066852Y0074531D01*
X0066852Y0073570D02*
X0066852Y0071769D01*
X0065501Y0071769D01*
X0065952Y0072670D01*
X0065952Y0073120D01*
X0065501Y0073570D01*
X0064600Y0073570D01*
X0064150Y0073120D01*
X0064150Y0072219D01*
X0064600Y0071769D01*
X0065501Y0070808D02*
X0065501Y0069006D01*
X0066402Y0069907D02*
X0064600Y0069907D01*
X0065051Y0076333D02*
X0066852Y0076333D01*
X0065501Y0112006D02*
X0065501Y0113808D01*
X0065501Y0114769D02*
X0065952Y0115670D01*
X0065952Y0116120D01*
X0065501Y0116570D01*
X0064600Y0116570D01*
X0064150Y0116120D01*
X0064150Y0115219D01*
X0064600Y0114769D01*
X0065501Y0114769D02*
X0066852Y0114769D01*
X0066852Y0116570D01*
X0066852Y0117531D02*
X0065051Y0117531D01*
X0064150Y0118432D01*
X0065051Y0119333D01*
X0066852Y0119333D01*
X0066402Y0124006D02*
X0065952Y0124006D01*
X0065501Y0124457D01*
X0065501Y0125358D01*
X0065051Y0125808D01*
X0064600Y0125808D01*
X0064150Y0125358D01*
X0064150Y0124457D01*
X0064600Y0124006D01*
X0066402Y0124006D02*
X0066852Y0124457D01*
X0066852Y0125358D01*
X0066402Y0125808D01*
X0066402Y0126769D02*
X0064600Y0126769D01*
X0064150Y0127219D01*
X0064150Y0128120D01*
X0064600Y0128570D01*
X0064150Y0129531D02*
X0066852Y0129531D01*
X0066402Y0128570D02*
X0066852Y0128120D01*
X0066852Y0127219D01*
X0066402Y0126769D01*
X0064150Y0129531D02*
X0064150Y0131333D01*
X0054852Y0130882D02*
X0054852Y0129531D01*
X0052150Y0129531D01*
X0052150Y0130882D01*
X0052600Y0131333D01*
X0054402Y0131333D01*
X0054852Y0130882D01*
X0054852Y0128570D02*
X0052150Y0128570D01*
X0054852Y0126769D01*
X0052150Y0126769D01*
X0052600Y0125808D02*
X0053501Y0125808D01*
X0053501Y0124907D01*
X0052600Y0124006D02*
X0052150Y0124457D01*
X0052150Y0125358D01*
X0052600Y0125808D01*
X0052600Y0124006D02*
X0054402Y0124006D01*
X0054852Y0124457D01*
X0054852Y0125358D01*
X0054402Y0125808D01*
X0053952Y0119333D02*
X0052150Y0119333D01*
X0053501Y0119333D02*
X0053501Y0117531D01*
X0053952Y0117531D02*
X0054852Y0118432D01*
X0053952Y0119333D01*
X0053952Y0117531D02*
X0052150Y0117531D01*
X0052600Y0116570D02*
X0054402Y0116570D01*
X0054852Y0116120D01*
X0054852Y0114769D01*
X0052150Y0114769D01*
X0052150Y0116120D01*
X0052600Y0116570D01*
X0052600Y0113808D02*
X0052150Y0113358D01*
X0052150Y0112457D01*
X0052600Y0112006D01*
X0053501Y0112457D02*
X0053501Y0113358D01*
X0053051Y0113808D01*
X0052600Y0113808D01*
X0053501Y0112457D02*
X0053952Y0112006D01*
X0054402Y0112006D01*
X0054852Y0112457D01*
X0054852Y0113358D01*
X0054402Y0113808D01*
X0064600Y0112907D02*
X0066402Y0112907D01*
X0053952Y0153625D02*
X0052150Y0153625D01*
X0053501Y0153625D02*
X0053501Y0155427D01*
X0053952Y0155427D02*
X0052150Y0155427D01*
X0052150Y0156388D02*
X0052150Y0157739D01*
X0052600Y0158189D01*
X0054402Y0158189D01*
X0054852Y0157739D01*
X0054852Y0156388D01*
X0052150Y0156388D01*
X0053952Y0155427D02*
X0054852Y0154526D01*
X0053952Y0153625D01*
X0054402Y0159150D02*
X0052600Y0159150D01*
X0052150Y0159600D01*
X0052150Y0160501D01*
X0052600Y0160952D01*
X0052600Y0161912D02*
X0053051Y0161912D01*
X0053501Y0162363D01*
X0053501Y0163263D01*
X0053051Y0163714D01*
X0052600Y0163714D01*
X0052150Y0163263D01*
X0052150Y0162363D01*
X0052600Y0161912D01*
X0053501Y0162363D02*
X0053952Y0161912D01*
X0054402Y0161912D01*
X0054852Y0162363D01*
X0054852Y0163263D01*
X0054402Y0163714D01*
X0053952Y0163714D01*
X0053501Y0163263D01*
X0054402Y0160952D02*
X0054852Y0160501D01*
X0054852Y0159600D01*
X0054402Y0159150D01*
X0054402Y0167006D02*
X0052600Y0167006D01*
X0052150Y0167457D01*
X0052150Y0168358D01*
X0052600Y0168808D01*
X0053501Y0168808D01*
X0053501Y0167907D01*
X0054402Y0167006D02*
X0054852Y0167457D01*
X0054852Y0168358D01*
X0054402Y0168808D01*
X0054852Y0169769D02*
X0052150Y0171570D01*
X0054852Y0171570D01*
X0054852Y0172531D02*
X0054852Y0173882D01*
X0054402Y0174333D01*
X0052600Y0174333D01*
X0052150Y0173882D01*
X0052150Y0172531D01*
X0054852Y0172531D01*
X0054852Y0169769D02*
X0052150Y0169769D01*
X0064150Y0169739D02*
X0064600Y0170189D01*
X0066402Y0170189D01*
X0066852Y0169739D01*
X0066852Y0168388D01*
X0064150Y0168388D01*
X0064150Y0169739D01*
X0064600Y0171150D02*
X0064150Y0171600D01*
X0064150Y0172501D01*
X0064600Y0172952D01*
X0064600Y0173912D02*
X0064150Y0174363D01*
X0064150Y0175263D01*
X0064600Y0175714D01*
X0066402Y0175714D01*
X0066852Y0175263D01*
X0066852Y0174363D01*
X0066402Y0173912D01*
X0065952Y0173912D01*
X0065501Y0174363D01*
X0065501Y0175714D01*
X0066402Y0172952D02*
X0066852Y0172501D01*
X0066852Y0171600D01*
X0066402Y0171150D01*
X0064600Y0171150D01*
X0064150Y0167427D02*
X0065952Y0167427D01*
X0066852Y0166526D01*
X0065952Y0165625D01*
X0064150Y0165625D01*
X0065501Y0165625D02*
X0065501Y0167427D01*
X0065051Y0162333D02*
X0064150Y0161432D01*
X0065051Y0160531D01*
X0066852Y0160531D01*
X0066852Y0159570D02*
X0066852Y0157769D01*
X0065501Y0157769D01*
X0065952Y0158670D01*
X0065952Y0159120D01*
X0065501Y0159570D01*
X0064600Y0159570D01*
X0064150Y0159120D01*
X0064150Y0158219D01*
X0064600Y0157769D01*
X0065501Y0156808D02*
X0065501Y0155006D01*
X0066402Y0155907D02*
X0064600Y0155907D01*
X0065051Y0162333D02*
X0066852Y0162333D01*
X0078400Y0251006D02*
X0081102Y0251006D01*
X0081102Y0252358D01*
X0080652Y0252808D01*
X0079751Y0252808D01*
X0079301Y0252358D01*
X0079301Y0251006D01*
X0079301Y0251907D02*
X0078400Y0252808D01*
X0078400Y0253769D02*
X0080202Y0253769D01*
X0081102Y0254670D01*
X0080202Y0255570D01*
X0078400Y0255570D01*
X0078400Y0256531D02*
X0078850Y0256531D01*
X0080652Y0258333D01*
X0081102Y0258333D01*
X0081102Y0256531D01*
X0079751Y0255570D02*
X0079751Y0253769D01*
X0088400Y0253769D02*
X0090202Y0253769D01*
X0091102Y0254670D01*
X0090202Y0255570D01*
X0088400Y0255570D01*
X0088850Y0256531D02*
X0088400Y0256982D01*
X0088400Y0257882D01*
X0088850Y0258333D01*
X0089301Y0258333D01*
X0089751Y0257882D01*
X0089751Y0256531D01*
X0088850Y0256531D01*
X0089751Y0256531D02*
X0090652Y0257432D01*
X0091102Y0258333D01*
X0089751Y0255570D02*
X0089751Y0253769D01*
X0089751Y0252808D02*
X0089301Y0252358D01*
X0089301Y0251006D01*
X0088400Y0251006D02*
X0091102Y0251006D01*
X0091102Y0252358D01*
X0090652Y0252808D01*
X0089751Y0252808D01*
X0089301Y0251907D02*
X0088400Y0252808D01*
X0088850Y0273006D02*
X0088400Y0273457D01*
X0088400Y0274358D01*
X0088850Y0274808D01*
X0088400Y0275769D02*
X0090202Y0275769D01*
X0091102Y0276670D01*
X0090202Y0277570D01*
X0088400Y0277570D01*
X0088850Y0278531D02*
X0088400Y0278982D01*
X0088400Y0279882D01*
X0088850Y0280333D01*
X0089301Y0280333D01*
X0089751Y0279882D01*
X0089751Y0278531D01*
X0088850Y0278531D01*
X0089751Y0278531D02*
X0090652Y0279432D01*
X0091102Y0280333D01*
X0089751Y0277570D02*
X0089751Y0275769D01*
X0090652Y0274808D02*
X0091102Y0274358D01*
X0091102Y0273457D01*
X0090652Y0273006D01*
X0088850Y0273006D01*
X0081102Y0273457D02*
X0080652Y0273006D01*
X0078850Y0273006D01*
X0078400Y0273457D01*
X0078400Y0274358D01*
X0078850Y0274808D01*
X0078400Y0275769D02*
X0080202Y0275769D01*
X0081102Y0276670D01*
X0080202Y0277570D01*
X0078400Y0277570D01*
X0078400Y0278531D02*
X0078850Y0278531D01*
X0080652Y0280333D01*
X0081102Y0280333D01*
X0081102Y0278531D01*
X0079751Y0277570D02*
X0079751Y0275769D01*
X0080652Y0274808D02*
X0081102Y0274358D01*
X0081102Y0273457D01*
X0303150Y0127432D02*
X0304051Y0128333D01*
X0305852Y0128333D01*
X0305852Y0126531D02*
X0304051Y0126531D01*
X0303150Y0127432D01*
X0303600Y0125570D02*
X0303150Y0125120D01*
X0303150Y0124219D01*
X0303600Y0123769D01*
X0304501Y0123769D02*
X0304952Y0124670D01*
X0304952Y0125120D01*
X0304501Y0125570D01*
X0303600Y0125570D01*
X0304501Y0123769D02*
X0305852Y0123769D01*
X0305852Y0125570D01*
X0304501Y0122808D02*
X0304501Y0121006D01*
X0305402Y0121907D02*
X0303600Y0121907D01*
X0303150Y0119333D02*
X0305852Y0119333D01*
X0304952Y0118432D01*
X0305852Y0117531D01*
X0303150Y0117531D01*
X0303150Y0116570D02*
X0305852Y0116570D01*
X0305852Y0114769D02*
X0303150Y0114769D01*
X0304051Y0115670D01*
X0303150Y0116570D01*
X0304501Y0113808D02*
X0304051Y0113358D01*
X0304051Y0112006D01*
X0303150Y0112006D02*
X0305852Y0112006D01*
X0305852Y0113358D01*
X0305402Y0113808D01*
X0304501Y0113808D01*
X0315150Y0113358D02*
X0315600Y0113808D01*
X0316501Y0113808D01*
X0316501Y0112907D01*
X0315600Y0112006D02*
X0315150Y0112457D01*
X0315150Y0113358D01*
X0315150Y0114769D02*
X0317852Y0114769D01*
X0315150Y0116570D01*
X0317852Y0116570D01*
X0317852Y0117531D02*
X0317852Y0118882D01*
X0317402Y0119333D01*
X0315600Y0119333D01*
X0315150Y0118882D01*
X0315150Y0117531D01*
X0317852Y0117531D01*
X0317402Y0113808D02*
X0317852Y0113358D01*
X0317852Y0112457D01*
X0317402Y0112006D01*
X0315600Y0112006D01*
X0315600Y0124036D02*
X0315150Y0124487D01*
X0315150Y0125387D01*
X0315600Y0125838D01*
X0316051Y0125838D01*
X0316501Y0125387D01*
X0316501Y0124487D01*
X0316952Y0124036D01*
X0317402Y0124036D01*
X0317852Y0124487D01*
X0317852Y0125387D01*
X0317402Y0125838D01*
X0317852Y0126799D02*
X0317852Y0128600D01*
X0317852Y0127699D02*
X0315150Y0127699D01*
X0315150Y0129561D02*
X0315150Y0131362D01*
X0315150Y0132323D02*
X0315150Y0134125D01*
X0315150Y0135086D02*
X0317852Y0135086D01*
X0317852Y0136437D01*
X0317402Y0136887D01*
X0316501Y0136887D01*
X0316051Y0136437D01*
X0316051Y0135086D01*
X0316051Y0135986D02*
X0315150Y0136887D01*
X0315150Y0137848D02*
X0315150Y0138749D01*
X0315150Y0138298D02*
X0317852Y0138298D01*
X0317852Y0137848D02*
X0317852Y0138749D01*
X0317852Y0139690D02*
X0315150Y0141491D01*
X0317852Y0141491D01*
X0317402Y0142452D02*
X0315600Y0142452D01*
X0315150Y0142902D01*
X0315150Y0143803D01*
X0315600Y0144253D01*
X0316501Y0144253D01*
X0316501Y0143353D01*
X0317402Y0144253D02*
X0317852Y0143803D01*
X0317852Y0142902D01*
X0317402Y0142452D01*
X0317852Y0139690D02*
X0315150Y0139690D01*
X0316501Y0145214D02*
X0316501Y0147016D01*
X0316051Y0147977D02*
X0316051Y0149328D01*
X0316501Y0149778D01*
X0317402Y0149778D01*
X0317852Y0149328D01*
X0317852Y0147977D01*
X0315150Y0147977D01*
X0315600Y0150739D02*
X0315150Y0151189D01*
X0315150Y0152090D01*
X0315600Y0152541D01*
X0317402Y0152541D01*
X0317852Y0152090D01*
X0317852Y0151189D01*
X0317402Y0150739D01*
X0315600Y0150739D01*
X0317852Y0153501D02*
X0317852Y0155303D01*
X0317852Y0154402D02*
X0315150Y0154402D01*
X0317852Y0134125D02*
X0317852Y0132323D01*
X0315150Y0132323D01*
X0316501Y0132323D02*
X0316501Y0133224D01*
X0317852Y0131362D02*
X0317852Y0129561D01*
X0315150Y0129561D01*
X0316501Y0129561D02*
X0316501Y0130462D01*
X0315150Y0089714D02*
X0315150Y0087912D01*
X0315150Y0088813D02*
X0317852Y0088813D01*
X0316952Y0087912D01*
X0317402Y0086952D02*
X0317852Y0086501D01*
X0317852Y0085600D01*
X0317402Y0085150D01*
X0315600Y0085150D01*
X0315150Y0085600D01*
X0315150Y0086501D01*
X0315600Y0086952D01*
X0315600Y0084189D02*
X0315150Y0083739D01*
X0315150Y0082388D01*
X0317852Y0082388D01*
X0317852Y0083739D01*
X0317402Y0084189D01*
X0315600Y0084189D01*
X0315150Y0081427D02*
X0316952Y0081427D01*
X0317852Y0080526D01*
X0316952Y0079625D01*
X0315150Y0079625D01*
X0316501Y0079625D02*
X0316501Y0081427D01*
X0315600Y0076333D02*
X0315150Y0075882D01*
X0315150Y0074531D01*
X0317852Y0074531D01*
X0317852Y0075882D01*
X0317402Y0076333D01*
X0315600Y0076333D01*
X0315150Y0073570D02*
X0317852Y0073570D01*
X0317852Y0071769D02*
X0315150Y0071769D01*
X0315600Y0070808D02*
X0315150Y0070358D01*
X0315150Y0069457D01*
X0315600Y0069006D01*
X0317402Y0069006D01*
X0317852Y0069457D01*
X0317852Y0070358D01*
X0317402Y0070808D01*
X0316501Y0070808D02*
X0316501Y0069907D01*
X0316501Y0070808D02*
X0315600Y0070808D01*
X0317852Y0071769D02*
X0315150Y0073570D01*
X0305852Y0073600D02*
X0305402Y0073150D01*
X0303600Y0073150D01*
X0303150Y0073600D01*
X0303150Y0074501D01*
X0303600Y0074952D01*
X0303150Y0075912D02*
X0304952Y0077714D01*
X0305402Y0077714D01*
X0305852Y0077263D01*
X0305852Y0076363D01*
X0305402Y0075912D01*
X0305402Y0074952D02*
X0305852Y0074501D01*
X0305852Y0073600D01*
X0305402Y0072189D02*
X0305852Y0071739D01*
X0305852Y0070388D01*
X0303150Y0070388D01*
X0303150Y0071739D01*
X0303600Y0072189D01*
X0305402Y0072189D01*
X0304952Y0069427D02*
X0303150Y0069427D01*
X0304501Y0069427D02*
X0304501Y0067625D01*
X0304952Y0067625D02*
X0305852Y0068526D01*
X0304952Y0069427D01*
X0304952Y0067625D02*
X0303150Y0067625D01*
X0303150Y0075912D02*
X0303150Y0077714D01*
X0304501Y0081006D02*
X0304501Y0082808D01*
X0304501Y0083769D02*
X0304952Y0084670D01*
X0304952Y0085120D01*
X0304501Y0085570D01*
X0303600Y0085570D01*
X0303150Y0085120D01*
X0303150Y0084219D01*
X0303600Y0083769D01*
X0304501Y0083769D02*
X0305852Y0083769D01*
X0305852Y0085570D01*
X0305852Y0086531D02*
X0304051Y0086531D01*
X0303150Y0087432D01*
X0304051Y0088333D01*
X0305852Y0088333D01*
X0305402Y0081907D02*
X0303600Y0081907D01*
D11*
X0069200Y0069325D02*
X0069200Y0066923D01*
X0072803Y0066923D01*
X0072803Y0070606D02*
X0072803Y0071807D01*
X0072803Y0071206D02*
X0069200Y0071206D01*
X0069200Y0070606D02*
X0069200Y0071807D01*
X0069200Y0073061D02*
X0069200Y0074863D01*
X0069801Y0075463D01*
X0072203Y0075463D01*
X0072803Y0074863D01*
X0072803Y0073061D01*
X0069200Y0073061D01*
X0069200Y0076745D02*
X0071602Y0076745D01*
X0072803Y0077946D01*
X0071602Y0079147D01*
X0069200Y0079147D01*
X0069200Y0080428D02*
X0072803Y0080428D01*
X0072803Y0082229D01*
X0072203Y0082830D01*
X0071002Y0082830D01*
X0070401Y0082229D01*
X0070401Y0080428D01*
X0070401Y0081629D02*
X0069200Y0082830D01*
X0071002Y0084111D02*
X0071002Y0086513D01*
X0071602Y0087794D02*
X0072803Y0088995D01*
X0069200Y0088995D01*
X0069200Y0087794D02*
X0069200Y0090196D01*
X0071002Y0079147D02*
X0071002Y0076745D01*
X0072803Y0109923D02*
X0069200Y0109923D01*
X0069200Y0112325D01*
X0069200Y0113606D02*
X0069200Y0114807D01*
X0069200Y0114206D02*
X0072803Y0114206D01*
X0072803Y0113606D02*
X0072803Y0114807D01*
X0072803Y0116061D02*
X0072803Y0117863D01*
X0072203Y0118463D01*
X0069801Y0118463D01*
X0069200Y0117863D01*
X0069200Y0116061D01*
X0072803Y0116061D01*
X0071602Y0119745D02*
X0072803Y0120946D01*
X0071602Y0122147D01*
X0069200Y0122147D01*
X0069200Y0123428D02*
X0072803Y0123428D01*
X0072803Y0125229D01*
X0072203Y0125830D01*
X0071002Y0125830D01*
X0070401Y0125229D01*
X0070401Y0123428D01*
X0070401Y0124629D02*
X0069200Y0125830D01*
X0071002Y0127111D02*
X0071002Y0129513D01*
X0072203Y0130794D02*
X0072803Y0131395D01*
X0072803Y0132596D01*
X0072203Y0133196D01*
X0071602Y0133196D01*
X0069200Y0130794D01*
X0069200Y0133196D01*
X0071002Y0122147D02*
X0071002Y0119745D01*
X0071602Y0119745D02*
X0069200Y0119745D01*
X0070002Y0148626D02*
X0070002Y0150427D01*
X0069401Y0151028D01*
X0068801Y0151028D01*
X0068200Y0150427D01*
X0068200Y0148626D01*
X0071803Y0148626D01*
X0071803Y0150427D01*
X0071203Y0151028D01*
X0070602Y0151028D01*
X0070002Y0150427D01*
X0069401Y0152309D02*
X0069401Y0154111D01*
X0070002Y0154711D01*
X0071203Y0154711D01*
X0071803Y0154111D01*
X0071803Y0152309D01*
X0068200Y0152309D01*
X0069401Y0153510D02*
X0068200Y0154711D01*
X0068200Y0155992D02*
X0071803Y0155992D01*
X0070002Y0156593D02*
X0068200Y0158394D01*
X0070002Y0159675D02*
X0070002Y0162077D01*
X0071803Y0163358D02*
X0070602Y0164559D01*
X0071803Y0165760D01*
X0068200Y0165760D01*
X0070002Y0167042D02*
X0070002Y0169444D01*
X0070002Y0170725D02*
X0070002Y0171926D01*
X0071803Y0173127D02*
X0071803Y0170725D01*
X0068200Y0170725D01*
X0068200Y0173127D01*
X0068200Y0174408D02*
X0071803Y0174408D01*
X0068200Y0176810D01*
X0071803Y0176810D01*
X0071203Y0178091D02*
X0068801Y0178091D01*
X0068200Y0178691D01*
X0068200Y0179893D01*
X0068801Y0180493D01*
X0071203Y0180493D02*
X0071803Y0179893D01*
X0071803Y0178691D01*
X0071203Y0178091D01*
X0071803Y0163358D02*
X0068200Y0163358D01*
X0071803Y0158394D02*
X0069401Y0155992D01*
D12*
X0255925Y0278835D02*
X0256676Y0278085D01*
X0257427Y0278085D01*
X0258177Y0278835D01*
X0255925Y0278835D02*
X0255925Y0282588D01*
X0255175Y0282588D02*
X0256676Y0282588D01*
X0259812Y0282588D02*
X0264316Y0278085D01*
X0263565Y0278835D02*
X0262815Y0278085D01*
X0261313Y0278085D01*
X0260563Y0278835D01*
X0260563Y0281838D01*
X0261313Y0282588D01*
X0262815Y0282588D01*
X0263565Y0281838D01*
X0263565Y0278835D01*
X0265917Y0278085D02*
X0265917Y0282588D01*
X0265917Y0280337D02*
X0268920Y0280337D01*
X0268920Y0282588D02*
X0268920Y0278085D01*
X0275092Y0278085D02*
X0276593Y0278085D01*
X0275842Y0278085D02*
X0275842Y0282588D01*
X0275092Y0282588D02*
X0276593Y0282588D01*
X0278194Y0281838D02*
X0278945Y0282588D01*
X0280446Y0282588D01*
X0281197Y0281838D01*
X0281197Y0281087D01*
X0280446Y0280337D01*
X0278945Y0280337D01*
X0278194Y0279586D01*
X0278194Y0278835D01*
X0278945Y0278085D01*
X0280446Y0278085D01*
X0281197Y0278835D01*
X0287402Y0278835D02*
X0288153Y0278085D01*
X0289654Y0278085D01*
X0290405Y0278835D01*
X0290405Y0281838D01*
X0289654Y0282588D01*
X0288153Y0282588D01*
X0287402Y0281838D01*
X0287402Y0280337D02*
X0288903Y0280337D01*
X0287402Y0280337D02*
X0287402Y0278835D01*
X0292006Y0278085D02*
X0292006Y0282588D01*
X0295009Y0282588D02*
X0292006Y0278085D01*
X0295009Y0278085D02*
X0295009Y0282588D01*
X0296577Y0282588D02*
X0298078Y0282588D01*
X0297327Y0282588D02*
X0297327Y0278085D01*
X0296577Y0278085D02*
X0298078Y0278085D01*
X0299679Y0278085D02*
X0299679Y0282588D01*
X0302682Y0282588D02*
X0299679Y0278085D01*
X0302682Y0278085D02*
X0302682Y0282588D01*
X0304283Y0282588D02*
X0304283Y0278085D01*
X0307286Y0282588D01*
X0307286Y0278085D01*
X0308887Y0278085D02*
X0311890Y0278085D01*
X0311890Y0282588D01*
X0308887Y0282588D01*
X0310388Y0280337D02*
X0311890Y0280337D01*
X0313491Y0280337D02*
X0316494Y0280337D01*
X0316494Y0282588D02*
X0316494Y0278085D01*
X0313491Y0278085D02*
X0313491Y0282588D01*
X0313107Y0293085D02*
X0313107Y0296087D01*
X0314609Y0297588D01*
X0316110Y0296087D01*
X0316110Y0293085D01*
X0316110Y0295337D02*
X0313107Y0295337D01*
X0311506Y0293835D02*
X0310755Y0293085D01*
X0309254Y0293085D01*
X0308504Y0293835D01*
X0308504Y0297588D01*
X0306902Y0297588D02*
X0303900Y0297588D01*
X0305401Y0297588D02*
X0305401Y0293085D01*
X0302298Y0293835D02*
X0302298Y0296838D01*
X0301548Y0297588D01*
X0300046Y0297588D01*
X0299296Y0296838D01*
X0299296Y0293835D01*
X0300046Y0293085D01*
X0301548Y0293085D01*
X0302298Y0293835D01*
X0311506Y0293835D02*
X0311506Y0297588D01*
X0293090Y0296087D02*
X0291589Y0293085D01*
X0290088Y0296087D01*
X0288486Y0296087D02*
X0286985Y0297588D01*
X0286985Y0293085D01*
X0288486Y0293085D02*
X0285484Y0293085D01*
X0283883Y0293085D02*
X0283132Y0293085D01*
X0283132Y0293835D01*
X0283883Y0293835D01*
X0283883Y0293085D01*
X0281581Y0293085D02*
X0278578Y0293085D01*
X0280079Y0293085D02*
X0280079Y0297588D01*
X0281581Y0296087D01*
X0282031Y0290088D02*
X0282031Y0289338D01*
X0283532Y0287837D01*
X0283532Y0285585D01*
X0283532Y0287837D02*
X0285033Y0289338D01*
X0285033Y0290088D01*
X0286635Y0289338D02*
X0286635Y0288587D01*
X0287385Y0287837D01*
X0289637Y0287837D01*
X0289637Y0290088D02*
X0289637Y0285585D01*
X0287385Y0285585D01*
X0286635Y0286335D01*
X0286635Y0287086D01*
X0287385Y0287837D01*
X0286635Y0289338D02*
X0287385Y0290088D01*
X0289637Y0290088D01*
X0272373Y0293085D02*
X0269370Y0296087D01*
X0269370Y0296838D01*
X0270121Y0297588D01*
X0271622Y0297588D01*
X0272373Y0296838D01*
X0272373Y0293085D02*
X0269370Y0293085D01*
X0267769Y0293835D02*
X0264766Y0296838D01*
X0264766Y0293835D01*
X0265517Y0293085D01*
X0267018Y0293085D01*
X0267769Y0293835D01*
X0267769Y0296838D01*
X0267018Y0297588D01*
X0265517Y0297588D01*
X0264766Y0296838D01*
X0263165Y0296087D02*
X0261664Y0297588D01*
X0261664Y0293085D01*
X0263165Y0293085D02*
X0260162Y0293085D01*
X0258561Y0293085D02*
X0258561Y0293835D01*
X0255558Y0296838D01*
X0255558Y0297588D01*
X0258561Y0297588D01*
D13*
X0218492Y0100307D03*
X0218492Y0091071D03*
X0218492Y0081835D03*
X0237689Y0081835D03*
X0237689Y0091071D03*
D14*
X0237644Y0081925D03*
X0218537Y0081925D03*
D15*
X0218537Y0082016D03*
X0218537Y0091252D03*
X0218537Y0100488D03*
X0237644Y0100488D03*
X0237644Y0091252D03*
X0237644Y0082016D03*
D16*
X0237598Y0082106D03*
X0237598Y0091343D03*
X0218583Y0082106D03*
D17*
X0218583Y0082197D03*
X0218583Y0091433D03*
X0237598Y0091433D03*
X0237598Y0082197D03*
D18*
X0237553Y0082287D03*
X0218628Y0082287D03*
D19*
X0218673Y0082378D03*
X0218673Y0091614D03*
X0218673Y0100850D03*
X0218673Y0107189D03*
X0237508Y0107189D03*
X0237508Y0100850D03*
X0237508Y0091614D03*
X0237508Y0082378D03*
D20*
X0237463Y0082469D03*
X0237463Y0091705D03*
X0237463Y0100941D03*
X0228136Y0113075D03*
X0235470Y0115972D03*
X0235470Y0116063D03*
X0235561Y0115791D03*
X0235561Y0115701D03*
X0235380Y0116516D03*
X0235380Y0126929D03*
X0235470Y0127382D03*
X0235470Y0127472D03*
X0235470Y0127563D03*
X0235561Y0127654D03*
X0235561Y0127744D03*
X0220801Y0115701D03*
X0220801Y0115610D03*
X0220711Y0115429D03*
X0220711Y0115339D03*
X0217813Y0112803D03*
X0215006Y0115248D03*
X0215006Y0115339D03*
X0214915Y0115429D03*
X0218719Y0100941D03*
X0218719Y0091705D03*
X0218719Y0082469D03*
D21*
X0218764Y0082559D03*
X0218764Y0091795D03*
X0218764Y0101031D03*
X0220303Y0114795D03*
X0235969Y0128378D03*
X0237417Y0101031D03*
X0237417Y0091795D03*
X0237417Y0082559D03*
D22*
X0237417Y0082650D03*
X0237417Y0091886D03*
X0237417Y0097681D03*
X0237417Y0101122D03*
X0237417Y0106917D03*
X0236150Y0114976D03*
X0218764Y0101122D03*
X0218764Y0091886D03*
X0218764Y0082650D03*
D23*
X0218809Y0082740D03*
X0218809Y0091976D03*
X0218809Y0101213D03*
X0237372Y0101213D03*
X0237372Y0091976D03*
X0237372Y0082740D03*
D24*
X0237327Y0082831D03*
X0237327Y0092067D03*
X0237327Y0101303D03*
X0218854Y0101303D03*
X0218854Y0092067D03*
X0218854Y0082831D03*
D25*
X0218900Y0082921D03*
X0218900Y0092157D03*
X0237281Y0092157D03*
X0237281Y0082921D03*
X0217813Y0113165D03*
D26*
X0217813Y0113256D03*
X0218900Y0101484D03*
X0218900Y0092248D03*
X0218900Y0083012D03*
X0237281Y0083012D03*
X0237281Y0092248D03*
X0237281Y0101484D03*
D27*
X0237236Y0101575D03*
X0237236Y0092339D03*
X0237236Y0083102D03*
X0218945Y0083102D03*
X0218945Y0092339D03*
X0218945Y0101575D03*
X0239953Y0112984D03*
D28*
X0237191Y0092429D03*
X0237191Y0083193D03*
X0218990Y0083193D03*
X0218990Y0092429D03*
D29*
X0219035Y0083283D03*
X0237146Y0083283D03*
X0239591Y0113165D03*
D30*
X0239409Y0130189D03*
X0237055Y0083374D03*
X0219126Y0083374D03*
D31*
X0219126Y0083465D03*
X0219126Y0092701D03*
X0219126Y0101937D03*
X0217858Y0114161D03*
X0239228Y0113528D03*
X0237055Y0101937D03*
X0237055Y0092701D03*
X0237055Y0083465D03*
X0239228Y0130008D03*
D32*
X0239002Y0129646D03*
X0239002Y0113890D03*
X0237010Y0102028D03*
X0237010Y0092791D03*
X0237010Y0083555D03*
X0219171Y0083555D03*
X0219171Y0092791D03*
X0219171Y0102028D03*
X0217813Y0114524D03*
D33*
X0219217Y0102118D03*
X0219217Y0092882D03*
X0219217Y0083646D03*
X0236965Y0083646D03*
X0236965Y0092882D03*
X0236965Y0102118D03*
X0238776Y0114433D03*
X0238776Y0114524D03*
X0238776Y0129012D03*
D34*
X0228181Y0128559D03*
X0236874Y0102209D03*
X0236874Y0092972D03*
X0236874Y0083736D03*
X0219307Y0083736D03*
D35*
X0219352Y0083827D03*
X0219352Y0093063D03*
X0219352Y0102299D03*
X0236829Y0102299D03*
X0236829Y0093063D03*
X0236829Y0083827D03*
D36*
X0236783Y0083917D03*
X0236783Y0093154D03*
X0236783Y0102390D03*
X0219398Y0102390D03*
X0219398Y0093154D03*
X0219398Y0083917D03*
D37*
X0219488Y0084008D03*
X0219488Y0093244D03*
X0219488Y0102480D03*
X0236693Y0102480D03*
X0236693Y0093244D03*
X0236693Y0084008D03*
D38*
X0236602Y0084098D03*
X0236602Y0093335D03*
X0236602Y0102571D03*
X0219579Y0102571D03*
X0219579Y0093335D03*
X0219579Y0084098D03*
D39*
X0219715Y0084189D03*
X0236467Y0084189D03*
D40*
X0236376Y0084280D03*
X0219805Y0084280D03*
X0219805Y0093516D03*
D41*
X0220031Y0093606D03*
X0236150Y0093606D03*
X0236150Y0084370D03*
D42*
X0219986Y0084370D03*
D43*
X0220348Y0084461D03*
X0235833Y0084461D03*
D44*
X0228091Y0084551D03*
X0228091Y0093787D03*
X0228091Y0103024D03*
X0228091Y0105016D03*
D45*
X0228091Y0103114D03*
X0228091Y0093878D03*
X0228091Y0084642D03*
D46*
X0228091Y0084732D03*
X0228091Y0093969D03*
X0228091Y0103205D03*
D47*
X0228091Y0103295D03*
X0228091Y0094059D03*
X0228091Y0084823D03*
D48*
X0228091Y0084913D03*
X0228091Y0094150D03*
X0228091Y0103386D03*
D49*
X0228091Y0103476D03*
X0228091Y0094240D03*
X0228091Y0085004D03*
D50*
X0228091Y0085094D03*
X0228091Y0094331D03*
X0228091Y0103567D03*
D51*
X0228045Y0103657D03*
X0228045Y0085185D03*
D52*
X0228091Y0085276D03*
X0228091Y0085819D03*
X0228091Y0094512D03*
X0228091Y0095055D03*
X0228091Y0103748D03*
X0228091Y0104291D03*
D53*
X0228091Y0104201D03*
X0228091Y0103839D03*
X0228091Y0094965D03*
X0228091Y0094602D03*
X0228091Y0085728D03*
X0228091Y0085366D03*
D54*
X0228091Y0085457D03*
X0228091Y0085638D03*
X0228091Y0094693D03*
X0228091Y0094874D03*
X0228091Y0103929D03*
X0228091Y0104110D03*
D55*
X0228091Y0104020D03*
X0228091Y0094783D03*
X0228091Y0085547D03*
D56*
X0228091Y0085909D03*
X0228091Y0095146D03*
X0228091Y0104382D03*
D57*
X0228091Y0104472D03*
X0228091Y0095236D03*
X0228091Y0086000D03*
D58*
X0228091Y0086091D03*
X0228091Y0095327D03*
X0228091Y0104563D03*
D59*
X0228091Y0104654D03*
X0228091Y0095417D03*
X0228091Y0086181D03*
D60*
X0228091Y0086272D03*
X0228091Y0095508D03*
X0228091Y0104744D03*
D61*
X0228091Y0104835D03*
X0228091Y0095598D03*
X0228091Y0086362D03*
D62*
X0228091Y0086453D03*
X0228091Y0095689D03*
D63*
X0228091Y0086543D03*
D64*
X0236014Y0086634D03*
D65*
X0236059Y0095870D03*
X0220122Y0095870D03*
X0220122Y0086634D03*
D66*
X0219896Y0086724D03*
X0236285Y0086724D03*
D67*
X0236421Y0086815D03*
X0236421Y0096051D03*
X0219760Y0096051D03*
X0219760Y0086815D03*
D68*
X0219669Y0096142D03*
X0219669Y0105378D03*
X0236512Y0105378D03*
X0236512Y0096142D03*
X0236512Y0086906D03*
D69*
X0219624Y0086906D03*
D70*
X0219579Y0096232D03*
X0219579Y0105469D03*
X0236602Y0105469D03*
X0236602Y0096232D03*
X0236602Y0086996D03*
D71*
X0219533Y0086996D03*
D72*
X0219488Y0087087D03*
X0219488Y0096323D03*
X0219488Y0105559D03*
X0236693Y0105559D03*
X0236693Y0096323D03*
X0236693Y0087087D03*
D73*
X0236783Y0087177D03*
X0236783Y0096413D03*
X0236783Y0105650D03*
X0219398Y0105650D03*
X0219398Y0096413D03*
X0219398Y0087177D03*
D74*
X0219352Y0087268D03*
X0219352Y0096504D03*
X0219352Y0105740D03*
X0236829Y0105740D03*
X0236829Y0096504D03*
X0236829Y0087268D03*
D75*
X0236919Y0087358D03*
X0236919Y0096594D03*
X0219262Y0096594D03*
X0219262Y0087358D03*
X0219262Y0105831D03*
X0228136Y0130551D03*
D76*
X0238866Y0129283D03*
X0238866Y0114252D03*
X0238866Y0114161D03*
X0236965Y0105921D03*
X0236965Y0096685D03*
X0236965Y0087449D03*
X0219217Y0087449D03*
X0219217Y0096685D03*
X0219217Y0105921D03*
D77*
X0217813Y0114343D03*
X0219171Y0096776D03*
X0219171Y0087539D03*
X0237010Y0087539D03*
X0237010Y0096776D03*
X0239093Y0113709D03*
D78*
X0239319Y0130098D03*
X0217858Y0114071D03*
X0219126Y0087630D03*
X0237055Y0087630D03*
D79*
X0237146Y0087720D03*
X0237146Y0096957D03*
X0239500Y0113256D03*
X0219035Y0096957D03*
X0219035Y0087720D03*
D80*
X0218990Y0087811D03*
X0218990Y0097047D03*
X0217813Y0113618D03*
X0237191Y0087811D03*
D81*
X0237191Y0087902D03*
X0237191Y0097138D03*
X0237191Y0101665D03*
X0237191Y0106374D03*
X0218990Y0106374D03*
X0218990Y0101665D03*
X0218990Y0097138D03*
D82*
X0218945Y0087902D03*
D83*
X0218945Y0087992D03*
X0218945Y0097228D03*
X0218945Y0106465D03*
X0237236Y0106465D03*
X0237236Y0097228D03*
X0237236Y0087992D03*
D84*
X0237281Y0088083D03*
X0237281Y0097319D03*
X0237281Y0106555D03*
X0218900Y0106555D03*
X0218900Y0097319D03*
X0218900Y0088083D03*
D85*
X0218854Y0088173D03*
X0237327Y0088173D03*
D86*
X0237327Y0088264D03*
X0237327Y0097500D03*
X0237327Y0106736D03*
X0218854Y0106736D03*
X0218854Y0097500D03*
X0218854Y0088264D03*
D87*
X0218809Y0088354D03*
X0218809Y0097591D03*
X0237372Y0097591D03*
X0237372Y0106827D03*
X0237372Y0088354D03*
D88*
X0237417Y0088445D03*
X0220122Y0114705D03*
X0215504Y0114705D03*
X0236059Y0128469D03*
D89*
X0217813Y0112894D03*
X0218719Y0106917D03*
X0218719Y0097681D03*
X0218719Y0088445D03*
D90*
X0218719Y0088535D03*
X0218719Y0097772D03*
X0218719Y0107008D03*
X0215368Y0114795D03*
X0235923Y0115157D03*
X0237463Y0107008D03*
X0237463Y0097772D03*
X0237463Y0088535D03*
X0235833Y0128287D03*
D91*
X0235425Y0127291D03*
X0235425Y0127201D03*
X0235425Y0127110D03*
X0235425Y0127020D03*
X0235335Y0126839D03*
X0235335Y0126748D03*
X0235335Y0126657D03*
X0235335Y0126567D03*
X0235335Y0126476D03*
X0235335Y0126386D03*
X0235335Y0126295D03*
X0235335Y0126205D03*
X0235335Y0126114D03*
X0235335Y0126024D03*
X0235335Y0125933D03*
X0235244Y0125661D03*
X0235244Y0125571D03*
X0235244Y0125480D03*
X0235244Y0125390D03*
X0235244Y0125299D03*
X0235244Y0125209D03*
X0235244Y0125118D03*
X0235244Y0125028D03*
X0235244Y0124937D03*
X0235244Y0124846D03*
X0235244Y0124756D03*
X0235244Y0124665D03*
X0235244Y0124575D03*
X0235244Y0124484D03*
X0235244Y0124394D03*
X0235244Y0124303D03*
X0235244Y0124213D03*
X0235244Y0124122D03*
X0235244Y0124031D03*
X0235244Y0123941D03*
X0235244Y0123850D03*
X0235244Y0123760D03*
X0235244Y0123669D03*
X0235244Y0123579D03*
X0235244Y0123488D03*
X0235244Y0123398D03*
X0235244Y0123307D03*
X0235244Y0123217D03*
X0235244Y0123126D03*
X0235244Y0123035D03*
X0235244Y0122945D03*
X0235244Y0122854D03*
X0235244Y0122764D03*
X0235244Y0122673D03*
X0235244Y0122583D03*
X0235244Y0122492D03*
X0235244Y0122402D03*
X0235244Y0122311D03*
X0235244Y0122220D03*
X0235244Y0122130D03*
X0235244Y0122039D03*
X0235244Y0121949D03*
X0235244Y0121858D03*
X0235244Y0121768D03*
X0235244Y0121677D03*
X0235244Y0121587D03*
X0235244Y0121496D03*
X0235244Y0121406D03*
X0235244Y0121315D03*
X0235244Y0121224D03*
X0235244Y0121134D03*
X0235244Y0121043D03*
X0235244Y0120953D03*
X0235244Y0120862D03*
X0235244Y0120772D03*
X0235244Y0120681D03*
X0235244Y0120591D03*
X0235244Y0120500D03*
X0235244Y0120409D03*
X0235244Y0120319D03*
X0235244Y0120228D03*
X0235244Y0120138D03*
X0235244Y0120047D03*
X0235244Y0119957D03*
X0235244Y0119866D03*
X0235244Y0119776D03*
X0235244Y0119685D03*
X0235244Y0119594D03*
X0235244Y0119504D03*
X0235244Y0119413D03*
X0235244Y0119323D03*
X0235244Y0119232D03*
X0235244Y0119142D03*
X0235244Y0119051D03*
X0235244Y0118961D03*
X0235244Y0118870D03*
X0235244Y0118780D03*
X0235244Y0118689D03*
X0235244Y0118598D03*
X0235244Y0118508D03*
X0235244Y0118417D03*
X0235244Y0118327D03*
X0235244Y0118236D03*
X0235244Y0118146D03*
X0235244Y0118055D03*
X0235244Y0117965D03*
X0235244Y0117874D03*
X0235244Y0117783D03*
X0235335Y0117512D03*
X0235335Y0117421D03*
X0235335Y0117331D03*
X0235335Y0117240D03*
X0235335Y0117150D03*
X0235335Y0117059D03*
X0235335Y0116969D03*
X0235335Y0116878D03*
X0235335Y0116787D03*
X0235335Y0116697D03*
X0235335Y0116606D03*
X0235425Y0116425D03*
X0235425Y0116335D03*
X0235425Y0116244D03*
X0235425Y0116154D03*
X0235516Y0115882D03*
X0237508Y0107098D03*
X0237508Y0097862D03*
X0237508Y0088626D03*
X0218673Y0088626D03*
X0218673Y0097862D03*
X0218673Y0107098D03*
X0220756Y0115520D03*
X0220846Y0115791D03*
X0220846Y0115882D03*
X0220846Y0115972D03*
X0220937Y0116244D03*
X0220937Y0116335D03*
X0220937Y0116425D03*
X0220937Y0116516D03*
X0220937Y0116606D03*
X0214870Y0115701D03*
X0214870Y0115610D03*
X0214870Y0115520D03*
X0214780Y0115791D03*
X0214780Y0115882D03*
X0214780Y0115972D03*
X0214780Y0116063D03*
X0214689Y0116335D03*
X0214689Y0116425D03*
X0214689Y0116516D03*
X0214689Y0116606D03*
X0214689Y0116697D03*
X0214689Y0116787D03*
D92*
X0214644Y0130551D03*
X0220982Y0130551D03*
X0218628Y0097953D03*
X0218628Y0088717D03*
X0237553Y0088717D03*
X0237553Y0097953D03*
D93*
X0237553Y0098043D03*
X0237553Y0088807D03*
X0237553Y0107280D03*
X0218628Y0107280D03*
X0218628Y0098043D03*
X0218628Y0088807D03*
D94*
X0218583Y0088898D03*
X0218583Y0098134D03*
X0218583Y0107370D03*
X0237598Y0107370D03*
X0237598Y0098134D03*
X0237598Y0088898D03*
D95*
X0237644Y0088988D03*
X0218537Y0088988D03*
D96*
X0218537Y0089079D03*
X0218537Y0098315D03*
X0218537Y0107551D03*
X0237644Y0107551D03*
X0237644Y0098315D03*
X0237644Y0089079D03*
D97*
X0237689Y0089169D03*
X0218492Y0089169D03*
D98*
X0218492Y0091161D03*
X0218492Y0100398D03*
X0237689Y0100398D03*
X0237689Y0091161D03*
D99*
X0237644Y0100579D03*
X0218537Y0100579D03*
X0218537Y0091343D03*
D100*
X0218673Y0091524D03*
X0218673Y0100760D03*
X0237508Y0100760D03*
X0237508Y0091524D03*
D101*
X0237146Y0092520D03*
X0237146Y0097047D03*
X0237146Y0101756D03*
X0237146Y0106283D03*
X0219035Y0106283D03*
X0219035Y0101756D03*
X0219035Y0092520D03*
X0239681Y0130370D03*
D102*
X0217813Y0113890D03*
X0219081Y0106193D03*
X0219081Y0101846D03*
X0219081Y0092610D03*
X0237100Y0092610D03*
X0237100Y0101846D03*
X0237100Y0106193D03*
D103*
X0219262Y0102209D03*
X0219262Y0092972D03*
X0228136Y0128469D03*
X0228136Y0130461D03*
D104*
X0219669Y0102661D03*
X0219669Y0093425D03*
X0236512Y0093425D03*
D105*
X0236331Y0093516D03*
X0236331Y0102752D03*
X0219850Y0102752D03*
D106*
X0220303Y0093697D03*
X0235878Y0093697D03*
D107*
X0228091Y0094421D03*
D108*
X0228045Y0095780D03*
D109*
X0236240Y0095961D03*
X0236240Y0105197D03*
X0219941Y0105197D03*
X0219941Y0095961D03*
D110*
X0219081Y0096866D03*
X0219081Y0106102D03*
X0237100Y0106102D03*
X0239274Y0113437D03*
X0237100Y0096866D03*
D111*
X0237281Y0097409D03*
X0237281Y0106646D03*
X0218900Y0106646D03*
X0218900Y0097409D03*
D112*
X0218583Y0098224D03*
X0218583Y0107461D03*
X0237598Y0107461D03*
X0237598Y0098224D03*
D113*
X0237644Y0098406D03*
X0237644Y0107642D03*
X0218537Y0107642D03*
X0218537Y0098406D03*
D114*
X0218628Y0100669D03*
X0217813Y0112713D03*
X0237553Y0100669D03*
D115*
X0237327Y0101394D03*
X0218854Y0101394D03*
D116*
X0236467Y0102661D03*
D117*
X0236195Y0102843D03*
X0219986Y0102843D03*
D118*
X0220258Y0102933D03*
X0235923Y0102933D03*
D119*
X0228045Y0104925D03*
D120*
X0236014Y0105106D03*
X0220167Y0105106D03*
D121*
X0219805Y0105287D03*
X0236376Y0105287D03*
D122*
X0236874Y0105831D03*
D123*
X0237055Y0106012D03*
X0239047Y0113799D03*
X0239047Y0129736D03*
X0217858Y0114433D03*
X0219126Y0106012D03*
D124*
X0218764Y0106827D03*
D125*
X0220892Y0116063D03*
X0220892Y0116154D03*
X0220982Y0116697D03*
X0220982Y0116787D03*
X0220982Y0116878D03*
X0220982Y0116969D03*
X0220982Y0117059D03*
X0220982Y0117150D03*
X0220982Y0117240D03*
X0220982Y0117331D03*
X0220982Y0117421D03*
X0220982Y0117512D03*
X0220982Y0117602D03*
X0220982Y0117693D03*
X0220982Y0117783D03*
X0220982Y0117874D03*
X0220982Y0117965D03*
X0220982Y0118055D03*
X0220982Y0118146D03*
X0220982Y0118236D03*
X0220982Y0118327D03*
X0220982Y0118417D03*
X0220982Y0118508D03*
X0220982Y0118598D03*
X0220982Y0118689D03*
X0220982Y0118780D03*
X0220982Y0118870D03*
X0220982Y0118961D03*
X0220982Y0119051D03*
X0220982Y0119142D03*
X0220982Y0119232D03*
X0220982Y0119323D03*
X0220982Y0119413D03*
X0220982Y0119504D03*
X0220982Y0119594D03*
X0220982Y0119685D03*
X0220982Y0119776D03*
X0220982Y0119866D03*
X0220982Y0119957D03*
X0220982Y0120047D03*
X0220982Y0120138D03*
X0220982Y0120228D03*
X0220982Y0120319D03*
X0220982Y0120409D03*
X0220982Y0120500D03*
X0220982Y0120591D03*
X0220982Y0120681D03*
X0220982Y0120772D03*
X0220982Y0120862D03*
X0220982Y0120953D03*
X0220982Y0121043D03*
X0220982Y0121134D03*
X0220982Y0121224D03*
X0220982Y0121315D03*
X0220982Y0121406D03*
X0220982Y0121496D03*
X0220982Y0121587D03*
X0220982Y0121677D03*
X0220982Y0121768D03*
X0220982Y0121858D03*
X0220982Y0121949D03*
X0220982Y0122039D03*
X0220982Y0122130D03*
X0220982Y0122220D03*
X0220982Y0122311D03*
X0220982Y0122402D03*
X0220982Y0122492D03*
X0220982Y0122583D03*
X0220982Y0122673D03*
X0220982Y0122764D03*
X0220982Y0122854D03*
X0220982Y0122945D03*
X0220982Y0123035D03*
X0220982Y0123126D03*
X0220982Y0123217D03*
X0220982Y0123307D03*
X0220982Y0123398D03*
X0220982Y0123488D03*
X0220982Y0123579D03*
X0220982Y0123669D03*
X0220982Y0123760D03*
X0220982Y0123850D03*
X0220982Y0123941D03*
X0220982Y0124031D03*
X0220982Y0124122D03*
X0220982Y0124213D03*
X0220982Y0124303D03*
X0220982Y0124394D03*
X0220982Y0124484D03*
X0220982Y0124575D03*
X0220982Y0124665D03*
X0220982Y0124756D03*
X0220982Y0124846D03*
X0220982Y0124937D03*
X0220982Y0125028D03*
X0220982Y0125118D03*
X0220982Y0125209D03*
X0220982Y0125299D03*
X0220982Y0125390D03*
X0220982Y0125480D03*
X0220982Y0125571D03*
X0220982Y0125661D03*
X0220982Y0125752D03*
X0220982Y0125843D03*
X0220982Y0125933D03*
X0220982Y0126024D03*
X0220982Y0126114D03*
X0220982Y0126205D03*
X0220982Y0126295D03*
X0220982Y0126386D03*
X0220982Y0126476D03*
X0220982Y0126567D03*
X0220982Y0126657D03*
X0220982Y0126748D03*
X0220982Y0126839D03*
X0220982Y0126929D03*
X0220982Y0127020D03*
X0220982Y0127110D03*
X0220982Y0127201D03*
X0220982Y0127291D03*
X0220982Y0127382D03*
X0220982Y0127472D03*
X0220982Y0127563D03*
X0220982Y0127654D03*
X0220982Y0127744D03*
X0220982Y0127835D03*
X0220982Y0127925D03*
X0220982Y0128016D03*
X0220982Y0128106D03*
X0220982Y0128197D03*
X0220982Y0128287D03*
X0220982Y0128378D03*
X0220982Y0128469D03*
X0220982Y0128559D03*
X0220982Y0128650D03*
X0220982Y0128740D03*
X0220982Y0128831D03*
X0220982Y0128921D03*
X0220982Y0129012D03*
X0220982Y0129102D03*
X0220982Y0129193D03*
X0220982Y0129283D03*
X0220982Y0129374D03*
X0220982Y0129465D03*
X0220982Y0129555D03*
X0220982Y0129646D03*
X0220982Y0129736D03*
X0220982Y0129827D03*
X0220982Y0129917D03*
X0220982Y0130008D03*
X0220982Y0130098D03*
X0220982Y0130189D03*
X0220982Y0130280D03*
X0220982Y0130370D03*
X0214644Y0130370D03*
X0214644Y0130280D03*
X0214644Y0130189D03*
X0214644Y0130098D03*
X0214644Y0130008D03*
X0214644Y0129917D03*
X0214644Y0129827D03*
X0214644Y0129736D03*
X0214644Y0129646D03*
X0214644Y0129555D03*
X0214644Y0129465D03*
X0214644Y0129374D03*
X0214644Y0129283D03*
X0214644Y0129193D03*
X0214644Y0129102D03*
X0214644Y0129012D03*
X0214644Y0128921D03*
X0214644Y0128831D03*
X0214644Y0128740D03*
X0214644Y0128650D03*
X0214644Y0128559D03*
X0214644Y0128469D03*
X0214644Y0128378D03*
X0214644Y0128287D03*
X0214644Y0128197D03*
X0214644Y0128106D03*
X0214644Y0128016D03*
X0214644Y0127925D03*
X0214644Y0127835D03*
X0214644Y0127744D03*
X0214644Y0127654D03*
X0214644Y0127563D03*
X0214644Y0127472D03*
X0214644Y0127382D03*
X0214644Y0127291D03*
X0214644Y0127201D03*
X0214644Y0127110D03*
X0214644Y0127020D03*
X0214644Y0126929D03*
X0214644Y0126839D03*
X0214644Y0126748D03*
X0214644Y0126657D03*
X0214644Y0126567D03*
X0214644Y0126476D03*
X0214644Y0126386D03*
X0214644Y0126295D03*
X0214644Y0126205D03*
X0214644Y0126114D03*
X0214644Y0126024D03*
X0214644Y0125933D03*
X0214644Y0125843D03*
X0214644Y0125752D03*
X0214644Y0125661D03*
X0214644Y0125571D03*
X0214644Y0125480D03*
X0214644Y0125390D03*
X0214644Y0125299D03*
X0214644Y0125209D03*
X0214644Y0125118D03*
X0214644Y0125028D03*
X0214644Y0124937D03*
X0214644Y0124846D03*
X0214644Y0124756D03*
X0214644Y0124665D03*
X0214644Y0124575D03*
X0214644Y0124484D03*
X0214644Y0124394D03*
X0214644Y0124303D03*
X0214644Y0124213D03*
X0214644Y0124122D03*
X0214644Y0124031D03*
X0214644Y0123941D03*
X0214644Y0123850D03*
X0214644Y0123760D03*
X0214644Y0123669D03*
X0214644Y0123579D03*
X0214644Y0123488D03*
X0214644Y0123398D03*
X0214644Y0123307D03*
X0214644Y0123217D03*
X0214644Y0123126D03*
X0214644Y0123035D03*
X0214644Y0122945D03*
X0214644Y0122854D03*
X0214644Y0122764D03*
X0214644Y0122673D03*
X0214644Y0122583D03*
X0214644Y0122492D03*
X0214644Y0122402D03*
X0214644Y0122311D03*
X0214644Y0122220D03*
X0214644Y0122130D03*
X0214644Y0122039D03*
X0214644Y0121949D03*
X0214644Y0121858D03*
X0214644Y0121768D03*
X0214644Y0121677D03*
X0214644Y0121587D03*
X0214644Y0121496D03*
X0214644Y0121406D03*
X0214644Y0121315D03*
X0214644Y0121224D03*
X0214644Y0121134D03*
X0214644Y0121043D03*
X0214644Y0120953D03*
X0214644Y0120862D03*
X0214644Y0120772D03*
X0214644Y0120681D03*
X0214644Y0120591D03*
X0214644Y0120500D03*
X0214644Y0120409D03*
X0214644Y0120319D03*
X0214644Y0120228D03*
X0214644Y0120138D03*
X0214644Y0120047D03*
X0214644Y0119957D03*
X0214644Y0119866D03*
X0214644Y0119776D03*
X0214644Y0119685D03*
X0214644Y0119594D03*
X0214644Y0119504D03*
X0214644Y0119413D03*
X0214644Y0119323D03*
X0214644Y0119232D03*
X0214644Y0119142D03*
X0214644Y0119051D03*
X0214644Y0118961D03*
X0214644Y0118870D03*
X0214644Y0118780D03*
X0214644Y0118689D03*
X0214644Y0118598D03*
X0214644Y0118508D03*
X0214644Y0118417D03*
X0214644Y0118327D03*
X0214644Y0118236D03*
X0214644Y0118146D03*
X0214644Y0118055D03*
X0214644Y0117965D03*
X0214644Y0117874D03*
X0214644Y0117783D03*
X0214644Y0117693D03*
X0214644Y0117602D03*
X0214644Y0117512D03*
X0214644Y0117421D03*
X0214644Y0117331D03*
X0214644Y0117240D03*
X0214644Y0117150D03*
X0214644Y0117059D03*
X0214644Y0116969D03*
X0214644Y0116878D03*
X0214734Y0116244D03*
X0214734Y0116154D03*
X0228136Y0112984D03*
X0235289Y0117602D03*
X0235289Y0117693D03*
X0241628Y0117693D03*
X0241628Y0117783D03*
X0241628Y0117874D03*
X0241628Y0117965D03*
X0241628Y0118055D03*
X0241628Y0118146D03*
X0241628Y0118236D03*
X0241628Y0118327D03*
X0241628Y0118417D03*
X0241628Y0118508D03*
X0241628Y0118598D03*
X0241628Y0118689D03*
X0241628Y0118780D03*
X0241628Y0118870D03*
X0241628Y0118961D03*
X0241628Y0119051D03*
X0241628Y0119142D03*
X0241628Y0119232D03*
X0241628Y0119323D03*
X0241628Y0119413D03*
X0241628Y0119504D03*
X0241628Y0119594D03*
X0241628Y0119685D03*
X0241628Y0119776D03*
X0241628Y0119866D03*
X0241628Y0119957D03*
X0241628Y0120047D03*
X0241628Y0120138D03*
X0241628Y0120228D03*
X0241628Y0120319D03*
X0241628Y0120409D03*
X0241628Y0120500D03*
X0241628Y0120591D03*
X0241628Y0120681D03*
X0241628Y0120772D03*
X0241628Y0120862D03*
X0241628Y0120953D03*
X0241628Y0121043D03*
X0241628Y0121134D03*
X0241628Y0121224D03*
X0241628Y0121315D03*
X0241628Y0121406D03*
X0241628Y0121496D03*
X0241628Y0121587D03*
X0241628Y0121677D03*
X0241628Y0121768D03*
X0241628Y0121858D03*
X0241628Y0121949D03*
X0241628Y0122039D03*
X0241628Y0122130D03*
X0241628Y0122220D03*
X0241628Y0122311D03*
X0241628Y0122402D03*
X0241628Y0122492D03*
X0241628Y0122583D03*
X0241628Y0122673D03*
X0241628Y0122764D03*
X0241628Y0122854D03*
X0241628Y0122945D03*
X0241628Y0123035D03*
X0241628Y0123126D03*
X0241628Y0123217D03*
X0241628Y0123307D03*
X0241628Y0123398D03*
X0241628Y0123488D03*
X0241628Y0123579D03*
X0241628Y0123669D03*
X0241628Y0123760D03*
X0241628Y0123850D03*
X0241628Y0123941D03*
X0241628Y0124031D03*
X0241628Y0124122D03*
X0241628Y0124213D03*
X0241628Y0124303D03*
X0241628Y0124394D03*
X0241628Y0124484D03*
X0241628Y0124575D03*
X0241628Y0124665D03*
X0241628Y0124756D03*
X0241628Y0124846D03*
X0241628Y0124937D03*
X0241628Y0125028D03*
X0241628Y0125118D03*
X0241628Y0125209D03*
X0241628Y0125299D03*
X0241628Y0125390D03*
X0241628Y0125480D03*
X0241628Y0125571D03*
X0241628Y0125661D03*
X0241628Y0125752D03*
X0241628Y0125843D03*
X0241628Y0125933D03*
X0241628Y0126024D03*
X0241628Y0126114D03*
X0241628Y0126205D03*
X0241628Y0126295D03*
X0241628Y0126386D03*
X0241628Y0126476D03*
X0241628Y0126567D03*
X0241628Y0126657D03*
X0241628Y0126748D03*
X0241628Y0126839D03*
X0241628Y0126929D03*
X0241628Y0127020D03*
X0241628Y0127110D03*
X0241628Y0127201D03*
X0241628Y0127291D03*
X0241628Y0127382D03*
X0241628Y0127472D03*
X0241628Y0127563D03*
X0241628Y0127654D03*
X0241628Y0127744D03*
X0241628Y0127835D03*
X0241628Y0127925D03*
X0241628Y0128016D03*
X0241628Y0128106D03*
X0241628Y0128197D03*
X0241628Y0128287D03*
X0241628Y0128378D03*
X0241628Y0128469D03*
X0235289Y0125843D03*
X0235289Y0125752D03*
X0241628Y0117602D03*
X0241628Y0117512D03*
X0241628Y0117421D03*
X0241628Y0117331D03*
X0241628Y0117240D03*
X0241628Y0117150D03*
X0241628Y0117059D03*
X0241628Y0116969D03*
X0241628Y0116878D03*
X0241628Y0116787D03*
X0241628Y0116697D03*
X0241628Y0116606D03*
X0241628Y0116516D03*
X0241628Y0116425D03*
X0241628Y0116335D03*
X0241628Y0116244D03*
X0241628Y0116154D03*
X0241628Y0116063D03*
X0241628Y0115972D03*
X0241628Y0115882D03*
X0241628Y0115791D03*
X0241628Y0115701D03*
X0241628Y0115610D03*
X0241628Y0115520D03*
X0241628Y0115429D03*
X0241628Y0115339D03*
X0241628Y0115248D03*
X0241628Y0115157D03*
X0241628Y0115067D03*
X0241628Y0114976D03*
X0214644Y0130461D03*
D126*
X0217858Y0112984D03*
D127*
X0239772Y0113075D03*
D128*
X0217813Y0113075D03*
D129*
X0215142Y0115067D03*
X0215051Y0115157D03*
X0220575Y0115157D03*
X0220665Y0115248D03*
X0228181Y0115248D03*
X0228181Y0115157D03*
X0228181Y0115067D03*
X0228181Y0114976D03*
X0228181Y0114886D03*
X0228181Y0114795D03*
X0228181Y0114705D03*
X0228181Y0114614D03*
X0228181Y0114524D03*
X0228181Y0114433D03*
X0228181Y0114343D03*
X0228181Y0114252D03*
X0228181Y0114161D03*
X0228181Y0114071D03*
X0228181Y0113980D03*
X0228181Y0113890D03*
X0228181Y0113799D03*
X0228181Y0113709D03*
X0228181Y0113618D03*
X0228181Y0113528D03*
X0228181Y0113437D03*
X0228181Y0113346D03*
X0228181Y0113256D03*
X0228181Y0113165D03*
X0228181Y0115339D03*
X0228181Y0115429D03*
X0228181Y0115520D03*
X0228181Y0115610D03*
X0228181Y0115701D03*
X0228181Y0115791D03*
X0228181Y0115882D03*
X0228181Y0115972D03*
X0228181Y0116063D03*
X0228181Y0116154D03*
X0228181Y0116244D03*
X0228181Y0116335D03*
X0228181Y0116425D03*
X0228181Y0116516D03*
X0228181Y0116606D03*
X0228181Y0116697D03*
X0228181Y0116787D03*
X0228181Y0116878D03*
X0228181Y0116969D03*
X0228181Y0117059D03*
X0228181Y0117150D03*
X0228181Y0117240D03*
X0228181Y0117331D03*
X0228181Y0117421D03*
X0228181Y0117512D03*
X0228181Y0117602D03*
X0228181Y0117693D03*
X0228181Y0117783D03*
X0228181Y0117874D03*
X0228181Y0117965D03*
X0228181Y0118055D03*
X0228181Y0118146D03*
X0228181Y0118236D03*
X0228181Y0118327D03*
X0228181Y0118417D03*
X0228181Y0118508D03*
X0228181Y0118598D03*
X0228181Y0118689D03*
X0228181Y0118780D03*
X0228181Y0118870D03*
X0228181Y0118961D03*
X0228181Y0119051D03*
X0228181Y0119142D03*
X0228181Y0119232D03*
X0228181Y0119323D03*
X0228181Y0119413D03*
X0228181Y0119504D03*
X0228181Y0119594D03*
X0228181Y0119685D03*
X0228181Y0119776D03*
X0228181Y0119866D03*
X0228181Y0119957D03*
X0228181Y0120047D03*
X0228181Y0120138D03*
X0228181Y0120228D03*
X0228181Y0120319D03*
X0228181Y0120409D03*
X0228181Y0120500D03*
X0228181Y0120591D03*
X0228181Y0120681D03*
X0228181Y0120772D03*
X0228181Y0120862D03*
X0228181Y0120953D03*
X0228181Y0121043D03*
X0228181Y0121134D03*
X0228181Y0121224D03*
X0228181Y0121315D03*
X0228181Y0121406D03*
X0228181Y0121496D03*
X0228181Y0121587D03*
X0228181Y0121677D03*
X0228181Y0121768D03*
X0228181Y0121858D03*
X0228181Y0121949D03*
X0228181Y0122039D03*
X0228181Y0122130D03*
X0228181Y0122220D03*
X0228181Y0122311D03*
X0228181Y0122402D03*
X0228181Y0122492D03*
X0228181Y0122583D03*
X0228181Y0122673D03*
X0228181Y0122764D03*
X0228181Y0122854D03*
X0228181Y0122945D03*
X0228181Y0123035D03*
X0228181Y0123126D03*
X0228181Y0123217D03*
X0228181Y0123307D03*
X0228181Y0123398D03*
X0228181Y0123488D03*
X0228181Y0123579D03*
X0228181Y0123669D03*
X0228181Y0123760D03*
X0228181Y0123850D03*
X0228181Y0123941D03*
X0228181Y0124031D03*
X0228181Y0124122D03*
X0228181Y0124213D03*
X0228181Y0124303D03*
X0228181Y0124394D03*
X0228181Y0124484D03*
X0228181Y0124575D03*
X0228181Y0124665D03*
X0228181Y0124756D03*
X0228181Y0124846D03*
X0228181Y0124937D03*
X0228181Y0125028D03*
X0228181Y0125118D03*
X0228181Y0125209D03*
X0228181Y0125299D03*
X0228181Y0125390D03*
X0228181Y0125480D03*
X0228181Y0125571D03*
X0228181Y0125661D03*
X0228181Y0125752D03*
X0228181Y0125843D03*
X0228181Y0125933D03*
X0228181Y0126024D03*
X0228181Y0126114D03*
X0228181Y0126205D03*
X0228181Y0126295D03*
X0228181Y0126386D03*
X0228181Y0126476D03*
X0228181Y0126567D03*
X0228181Y0126657D03*
X0228181Y0126748D03*
X0228181Y0126839D03*
X0228181Y0126929D03*
X0228181Y0127020D03*
X0228181Y0127110D03*
X0228181Y0127201D03*
X0228181Y0127291D03*
X0228181Y0127382D03*
X0228181Y0127472D03*
X0228181Y0127563D03*
X0228181Y0127654D03*
X0228181Y0127744D03*
X0228181Y0127835D03*
X0228181Y0127925D03*
X0228181Y0128016D03*
X0228181Y0128106D03*
X0228181Y0128197D03*
X0228181Y0128287D03*
X0235606Y0127925D03*
X0235606Y0127835D03*
X0235697Y0128016D03*
X0235606Y0115610D03*
X0235697Y0115429D03*
D130*
X0239364Y0113346D03*
X0217813Y0113980D03*
D131*
X0217813Y0113346D03*
D132*
X0217813Y0113437D03*
D133*
X0217858Y0113528D03*
X0239862Y0130461D03*
D134*
X0239138Y0129827D03*
X0239138Y0113618D03*
X0217858Y0114252D03*
D135*
X0217813Y0113709D03*
D136*
X0217813Y0113799D03*
X0239545Y0130280D03*
D137*
X0238957Y0129555D03*
X0238957Y0129465D03*
X0238957Y0113980D03*
X0217858Y0114614D03*
D138*
X0238911Y0114071D03*
X0238911Y0129374D03*
D139*
X0238821Y0129193D03*
X0238821Y0129102D03*
X0238821Y0114343D03*
D140*
X0238730Y0114614D03*
X0238730Y0114705D03*
X0238730Y0128831D03*
X0238730Y0128921D03*
D141*
X0238685Y0128740D03*
X0238685Y0128650D03*
X0238685Y0128559D03*
X0238685Y0114886D03*
X0238685Y0114795D03*
D142*
X0235787Y0115248D03*
X0235787Y0128197D03*
X0220484Y0114976D03*
X0220394Y0114886D03*
X0215232Y0114886D03*
D143*
X0215187Y0114976D03*
X0220530Y0115067D03*
X0235652Y0115520D03*
X0235742Y0115339D03*
X0235742Y0128106D03*
X0228136Y0128378D03*
D144*
X0236014Y0115067D03*
D145*
X0228136Y0128650D03*
X0228136Y0128740D03*
X0228136Y0128831D03*
X0228136Y0128921D03*
X0228136Y0129012D03*
X0228136Y0129102D03*
X0228136Y0129193D03*
X0228136Y0129283D03*
X0228136Y0129374D03*
X0228136Y0129465D03*
X0228136Y0129555D03*
X0228136Y0129646D03*
X0228136Y0129736D03*
X0228136Y0129827D03*
X0228136Y0129917D03*
X0228136Y0130008D03*
X0228136Y0130098D03*
X0228136Y0130189D03*
X0228136Y0130280D03*
X0228136Y0130370D03*
D146*
X0239183Y0129917D03*
D147*
X0221028Y0130461D03*
D148*
X0240134Y0130551D03*
D149*
X0217450Y0055300D03*
D150*
X0217450Y0055400D03*
X0246550Y0068800D03*
D151*
X0245050Y0067500D03*
X0247950Y0066000D03*
X0250750Y0058200D03*
X0245050Y0058200D03*
X0220050Y0055500D03*
D152*
X0215050Y0055500D03*
X0244850Y0058500D03*
X0251050Y0058700D03*
X0251150Y0058800D03*
X0251050Y0067100D03*
X0244850Y0067100D03*
X0244750Y0067000D03*
D153*
X0243400Y0065700D03*
X0243000Y0064700D03*
X0242700Y0063200D03*
X0242700Y0063100D03*
X0242700Y0063000D03*
X0242700Y0062900D03*
X0242700Y0062800D03*
X0242700Y0062700D03*
X0242700Y0062600D03*
X0243000Y0061100D03*
X0243400Y0060000D03*
X0250600Y0057900D03*
X0252500Y0060000D03*
X0252500Y0060100D03*
X0253200Y0062600D03*
X0253200Y0062700D03*
X0253200Y0062800D03*
X0253200Y0062900D03*
X0253200Y0063000D03*
X0253200Y0063100D03*
X0253200Y0063200D03*
X0252900Y0064700D03*
X0252500Y0065700D03*
X0252500Y0065800D03*
X0247900Y0067900D03*
X0247900Y0068000D03*
X0241600Y0069200D03*
X0231500Y0069400D03*
X0220800Y0055600D03*
D154*
X0214150Y0055600D03*
X0234650Y0070700D03*
X0243050Y0064800D03*
X0243150Y0064900D03*
X0243350Y0065400D03*
X0243350Y0065500D03*
X0243350Y0065600D03*
X0245250Y0067800D03*
X0245350Y0067900D03*
X0247950Y0066100D03*
X0250550Y0067900D03*
X0252550Y0065600D03*
X0252550Y0065500D03*
X0252850Y0064800D03*
X0252850Y0061000D03*
X0252550Y0060300D03*
X0252550Y0060200D03*
X0250650Y0058000D03*
X0250350Y0057800D03*
X0245150Y0057900D03*
X0243350Y0060100D03*
X0243350Y0060200D03*
X0243050Y0061000D03*
D155*
X0242550Y0062200D03*
X0243350Y0059700D03*
X0245350Y0058900D03*
X0247950Y0058200D03*
X0247950Y0058100D03*
X0250550Y0058900D03*
X0252450Y0059700D03*
X0252450Y0059800D03*
X0253350Y0062200D03*
X0253350Y0063600D03*
X0252450Y0066000D03*
X0247950Y0067600D03*
X0243450Y0066000D03*
X0230450Y0070700D03*
X0225550Y0057200D03*
X0225350Y0057100D03*
X0221450Y0055700D03*
D156*
X0221000Y0056200D03*
X0222700Y0056500D03*
X0213500Y0055700D03*
X0242600Y0062300D03*
X0242600Y0063500D03*
X0243400Y0065900D03*
X0241000Y0069300D03*
X0247900Y0069000D03*
X0247900Y0067700D03*
X0252500Y0065900D03*
X0253300Y0063500D03*
X0253300Y0062300D03*
X0243400Y0059800D03*
D157*
X0243350Y0059600D03*
X0245350Y0059000D03*
X0247950Y0059600D03*
X0247950Y0058300D03*
X0250550Y0059000D03*
X0252450Y0059600D03*
X0253350Y0062100D03*
X0250550Y0066800D03*
X0245350Y0066800D03*
X0239550Y0069600D03*
X0238250Y0069900D03*
X0235750Y0070500D03*
X0242550Y0062100D03*
X0226850Y0057800D03*
X0226650Y0057700D03*
X0226450Y0057600D03*
X0226250Y0057500D03*
X0221850Y0055800D03*
X0212450Y0055900D03*
X0224750Y0065900D03*
D158*
X0232700Y0059900D03*
X0227100Y0057900D03*
X0226000Y0057400D03*
X0225800Y0057300D03*
X0219400Y0056500D03*
X0212900Y0055800D03*
X0235300Y0070600D03*
X0240000Y0069500D03*
X0240500Y0069400D03*
X0243400Y0066100D03*
X0242600Y0063600D03*
X0247900Y0067500D03*
X0252500Y0066100D03*
D159*
X0252550Y0066300D03*
X0252450Y0066400D03*
X0252350Y0066500D03*
X0250550Y0066700D03*
X0245350Y0066700D03*
X0243650Y0066600D03*
X0243550Y0066500D03*
X0243450Y0066400D03*
X0242450Y0062000D03*
X0243350Y0059500D03*
X0243350Y0059400D03*
X0243450Y0059300D03*
X0243550Y0059200D03*
X0245350Y0059100D03*
X0246850Y0060000D03*
X0247950Y0058400D03*
X0249050Y0060000D03*
X0250550Y0059100D03*
X0252050Y0058900D03*
X0252150Y0059000D03*
X0252250Y0059100D03*
X0253450Y0062000D03*
X0244150Y0057100D03*
X0237850Y0070000D03*
X0237450Y0070100D03*
X0237050Y0070200D03*
X0236650Y0070300D03*
X0236250Y0070400D03*
X0229950Y0070600D03*
X0223650Y0056700D03*
X0222750Y0056000D03*
X0222350Y0055900D03*
X0218850Y0056600D03*
X0212050Y0056000D03*
X0211650Y0056100D03*
D160*
X0211300Y0056200D03*
X0218500Y0056700D03*
X0223100Y0056100D03*
X0231500Y0059600D03*
X0231800Y0059700D03*
X0237100Y0059800D03*
X0242400Y0063800D03*
X0243400Y0066300D03*
X0246700Y0065700D03*
X0247900Y0067300D03*
X0249200Y0065700D03*
X0253500Y0063800D03*
X0252500Y0059400D03*
X0252400Y0059300D03*
X0252300Y0059200D03*
X0234100Y0069300D03*
X0230800Y0069300D03*
X0224700Y0065800D03*
X0202400Y0066700D03*
D161*
X0202450Y0066800D03*
X0200350Y0074400D03*
X0223450Y0056200D03*
X0223750Y0056300D03*
X0224050Y0056800D03*
X0224350Y0056900D03*
X0237450Y0059700D03*
X0242450Y0061200D03*
X0242450Y0061300D03*
X0242350Y0061600D03*
X0242350Y0061700D03*
X0242350Y0064100D03*
X0242450Y0064400D03*
X0242450Y0064500D03*
X0245350Y0066600D03*
X0246450Y0065600D03*
X0247950Y0066200D03*
X0249450Y0065600D03*
X0250550Y0066600D03*
X0253450Y0064500D03*
X0253550Y0064100D03*
X0253550Y0061700D03*
X0253550Y0061600D03*
X0253450Y0061300D03*
X0253450Y0061200D03*
X0249350Y0060100D03*
X0246550Y0060100D03*
X0245350Y0059200D03*
X0243850Y0057200D03*
X0230450Y0069200D03*
X0229550Y0070500D03*
D162*
X0232450Y0069500D03*
X0221050Y0056300D03*
X0247950Y0059900D03*
D163*
X0249500Y0060200D03*
X0246400Y0060200D03*
X0243500Y0057300D03*
X0243200Y0057400D03*
X0242900Y0057500D03*
X0242400Y0061400D03*
X0242400Y0061500D03*
X0242300Y0061800D03*
X0242300Y0061900D03*
X0242300Y0063900D03*
X0242300Y0064000D03*
X0242400Y0064200D03*
X0242400Y0064300D03*
X0242500Y0064600D03*
X0238100Y0059500D03*
X0237800Y0059600D03*
X0234800Y0060300D03*
X0231200Y0059500D03*
X0230900Y0059400D03*
X0230600Y0059300D03*
X0230100Y0059100D03*
X0224600Y0056600D03*
X0224300Y0056500D03*
X0218200Y0056800D03*
X0211000Y0056300D03*
X0210700Y0056400D03*
X0210400Y0056500D03*
X0209900Y0056700D03*
X0200900Y0074200D03*
X0228900Y0070300D03*
X0229200Y0070400D03*
X0234400Y0069200D03*
X0234700Y0069100D03*
X0253400Y0064600D03*
X0253500Y0064400D03*
X0253500Y0064300D03*
X0253500Y0064200D03*
X0253600Y0064000D03*
X0253600Y0063900D03*
X0253600Y0061900D03*
X0253600Y0061800D03*
X0253500Y0061500D03*
X0253500Y0061400D03*
X0253400Y0061100D03*
D164*
X0252450Y0061100D03*
X0250550Y0059200D03*
X0249750Y0060300D03*
X0249850Y0060400D03*
X0247950Y0058500D03*
X0246150Y0060300D03*
X0246050Y0060400D03*
X0242650Y0057600D03*
X0242450Y0057700D03*
X0242150Y0057800D03*
X0241950Y0057900D03*
X0241450Y0058100D03*
X0241250Y0058200D03*
X0240750Y0058400D03*
X0240550Y0058500D03*
X0239850Y0058800D03*
X0239650Y0058900D03*
X0239350Y0059000D03*
X0239150Y0059100D03*
X0238850Y0059200D03*
X0238650Y0059300D03*
X0238350Y0059400D03*
X0230350Y0059200D03*
X0229850Y0059000D03*
X0229650Y0058900D03*
X0228950Y0058600D03*
X0228750Y0058500D03*
X0225050Y0056800D03*
X0224850Y0056700D03*
X0224050Y0056400D03*
X0217850Y0056900D03*
X0217650Y0057000D03*
X0210150Y0056600D03*
X0209650Y0056800D03*
X0208750Y0057200D03*
X0208550Y0057300D03*
X0201150Y0074100D03*
X0200650Y0074300D03*
X0228450Y0070100D03*
X0228650Y0070200D03*
X0230150Y0069100D03*
X0234950Y0069000D03*
X0246250Y0065500D03*
X0249650Y0065500D03*
D165*
X0221050Y0056400D03*
D166*
X0223300Y0056600D03*
X0232200Y0059800D03*
X0236700Y0059900D03*
X0242500Y0063700D03*
X0243400Y0066200D03*
X0243700Y0066700D03*
X0243800Y0066800D03*
X0247900Y0067400D03*
X0252100Y0066800D03*
X0252200Y0066700D03*
X0252300Y0066600D03*
X0252500Y0066200D03*
X0253400Y0063700D03*
X0252500Y0059500D03*
X0244600Y0057000D03*
X0243800Y0058900D03*
X0243700Y0059000D03*
X0243600Y0059100D03*
X0239100Y0069700D03*
X0238700Y0069800D03*
D167*
X0244700Y0066900D03*
X0251100Y0067000D03*
X0251200Y0066900D03*
X0244700Y0058800D03*
X0244800Y0058700D03*
X0244800Y0058600D03*
X0246700Y0056700D03*
D168*
X0246800Y0056800D03*
D169*
X0246850Y0056900D03*
X0247950Y0068500D03*
X0247450Y0068700D03*
D170*
X0246100Y0065400D03*
X0246000Y0065300D03*
X0245900Y0065200D03*
X0243400Y0064600D03*
X0245700Y0060700D03*
X0245800Y0060600D03*
X0245900Y0060500D03*
X0250000Y0060500D03*
X0250100Y0060600D03*
X0250200Y0060700D03*
X0252500Y0064600D03*
X0249900Y0065300D03*
X0249800Y0065400D03*
X0241700Y0058000D03*
X0241000Y0058300D03*
X0240300Y0058600D03*
X0240100Y0058700D03*
X0229400Y0058800D03*
X0229200Y0058700D03*
X0228500Y0058400D03*
X0228300Y0058300D03*
X0228100Y0058200D03*
X0227900Y0058100D03*
X0227700Y0058000D03*
X0227500Y0058300D03*
X0227300Y0058200D03*
X0227100Y0058100D03*
X0226900Y0058000D03*
X0225300Y0056900D03*
X0217400Y0057100D03*
X0217200Y0057200D03*
X0217000Y0057300D03*
X0216600Y0057500D03*
X0209400Y0056900D03*
X0209200Y0057000D03*
X0209000Y0057100D03*
X0208300Y0057400D03*
X0207600Y0057800D03*
X0207400Y0057900D03*
X0201800Y0073800D03*
X0201600Y0073900D03*
X0201400Y0074000D03*
X0200200Y0074500D03*
X0224600Y0065700D03*
X0225300Y0066000D03*
X0225500Y0066100D03*
X0227600Y0069700D03*
X0227800Y0069800D03*
X0228000Y0069900D03*
X0228200Y0070000D03*
X0229300Y0068700D03*
X0229500Y0068800D03*
X0229700Y0068900D03*
X0229900Y0069000D03*
X0235200Y0068900D03*
X0235400Y0068800D03*
D171*
X0247800Y0057000D03*
D172*
X0247950Y0057700D03*
X0247950Y0057800D03*
X0247950Y0057900D03*
X0247950Y0058000D03*
X0252450Y0059900D03*
X0253250Y0062400D03*
X0253250Y0062500D03*
X0253250Y0063300D03*
X0253250Y0063400D03*
X0247950Y0067800D03*
X0243450Y0065800D03*
X0242650Y0063400D03*
X0242650Y0063300D03*
X0242650Y0062500D03*
X0242650Y0062400D03*
X0243350Y0059900D03*
X0236050Y0060000D03*
X0233450Y0069400D03*
X0225050Y0057000D03*
D173*
X0247850Y0057100D03*
D174*
X0247800Y0057200D03*
D175*
X0247850Y0057300D03*
D176*
X0247850Y0057400D03*
D177*
X0245650Y0060800D03*
X0245550Y0060900D03*
X0245450Y0061000D03*
X0245250Y0061300D03*
X0245350Y0064600D03*
X0245550Y0064900D03*
X0245650Y0065000D03*
X0245750Y0065100D03*
X0245350Y0066500D03*
X0247950Y0067200D03*
X0250550Y0066500D03*
X0250050Y0065200D03*
X0250150Y0065100D03*
X0250250Y0065000D03*
X0250350Y0064900D03*
X0250450Y0064800D03*
X0250550Y0064600D03*
X0250650Y0064500D03*
X0250650Y0061300D03*
X0250550Y0061100D03*
X0250450Y0061000D03*
X0250350Y0060900D03*
X0250250Y0060800D03*
X0235750Y0068600D03*
X0235550Y0068700D03*
X0229050Y0068600D03*
X0228750Y0068400D03*
X0228450Y0068200D03*
X0228150Y0068000D03*
X0226850Y0067000D03*
X0226450Y0066700D03*
X0226150Y0066500D03*
X0225850Y0066300D03*
X0225650Y0066200D03*
X0226350Y0068900D03*
X0226650Y0069100D03*
X0226750Y0069200D03*
X0226950Y0069300D03*
X0227050Y0069400D03*
X0227250Y0069500D03*
X0227450Y0069600D03*
X0232850Y0061800D03*
X0233150Y0062000D03*
X0233550Y0062300D03*
X0232150Y0061300D03*
X0231850Y0061100D03*
X0231550Y0060900D03*
X0231150Y0060600D03*
X0230850Y0060400D03*
X0230550Y0060200D03*
X0230250Y0060000D03*
X0229950Y0059800D03*
X0229650Y0059600D03*
X0229450Y0059500D03*
X0229350Y0059400D03*
X0229150Y0059300D03*
X0228850Y0059100D03*
X0228650Y0059000D03*
X0228550Y0058900D03*
X0228350Y0058800D03*
X0228150Y0058700D03*
X0228050Y0058600D03*
X0227850Y0058500D03*
X0227650Y0058400D03*
X0216750Y0057400D03*
X0216450Y0057600D03*
X0216250Y0057700D03*
X0216050Y0057800D03*
X0215950Y0057900D03*
X0215750Y0058000D03*
X0208150Y0057500D03*
X0207950Y0057600D03*
X0207750Y0057700D03*
X0207250Y0058000D03*
X0207050Y0058100D03*
X0206850Y0058200D03*
X0206750Y0058300D03*
X0206550Y0058400D03*
X0206250Y0058600D03*
X0205950Y0058800D03*
X0205650Y0059000D03*
X0204950Y0059500D03*
X0202650Y0073300D03*
X0202450Y0073400D03*
X0202350Y0073500D03*
X0202150Y0073600D03*
X0201950Y0073700D03*
D178*
X0247850Y0057500D03*
D179*
X0247800Y0057600D03*
D180*
X0250100Y0057700D03*
X0245100Y0058100D03*
X0245100Y0067600D03*
X0245600Y0068000D03*
X0250300Y0068000D03*
X0250800Y0067600D03*
D181*
X0250800Y0067500D03*
X0245000Y0067400D03*
X0245700Y0057700D03*
X0250800Y0058300D03*
D182*
X0250750Y0058100D03*
X0247950Y0059700D03*
X0245450Y0057800D03*
X0245150Y0058000D03*
X0243250Y0060600D03*
X0243150Y0060800D03*
X0245150Y0067700D03*
X0242350Y0069100D03*
X0250750Y0067700D03*
X0232450Y0069600D03*
D183*
X0235900Y0068500D03*
X0236000Y0068400D03*
X0236200Y0068300D03*
X0236300Y0068200D03*
X0236400Y0068100D03*
X0236500Y0068000D03*
X0236100Y0064500D03*
X0236000Y0064400D03*
X0235500Y0063900D03*
X0235400Y0063800D03*
X0235300Y0063700D03*
X0235200Y0063600D03*
X0235100Y0063500D03*
X0235000Y0063400D03*
X0234800Y0063300D03*
X0234700Y0063200D03*
X0234600Y0063100D03*
X0234500Y0063000D03*
X0234300Y0062900D03*
X0234200Y0062800D03*
X0234100Y0062700D03*
X0234000Y0062600D03*
X0233800Y0062500D03*
X0233700Y0062400D03*
X0233400Y0062200D03*
X0233300Y0062100D03*
X0233000Y0061900D03*
X0232700Y0061700D03*
X0232600Y0061600D03*
X0232400Y0061500D03*
X0232300Y0061400D03*
X0232000Y0061200D03*
X0231700Y0061000D03*
X0231400Y0060800D03*
X0231300Y0060700D03*
X0231000Y0060500D03*
X0230700Y0060300D03*
X0230400Y0060100D03*
X0230100Y0059900D03*
X0229800Y0059700D03*
X0229000Y0059200D03*
X0226000Y0066400D03*
X0226300Y0066600D03*
X0226600Y0066800D03*
X0226700Y0066900D03*
X0227000Y0067100D03*
X0227100Y0067200D03*
X0227200Y0067300D03*
X0227400Y0067400D03*
X0227500Y0067500D03*
X0227600Y0067600D03*
X0227700Y0067700D03*
X0227900Y0067800D03*
X0228000Y0067900D03*
X0228300Y0068100D03*
X0228600Y0068300D03*
X0228900Y0068500D03*
X0226500Y0069000D03*
X0226200Y0068800D03*
X0226100Y0068700D03*
X0226000Y0068600D03*
X0225800Y0068500D03*
X0225700Y0068400D03*
X0225600Y0068300D03*
X0225500Y0068200D03*
X0215500Y0058200D03*
X0215600Y0058100D03*
X0215300Y0058300D03*
X0215200Y0058400D03*
X0215100Y0058500D03*
X0214900Y0058600D03*
X0214800Y0058700D03*
X0214700Y0058800D03*
X0214600Y0058900D03*
X0214500Y0059000D03*
X0214000Y0059400D03*
X0213900Y0059500D03*
X0213800Y0059600D03*
X0206400Y0058500D03*
X0206100Y0058700D03*
X0205800Y0058900D03*
X0205500Y0059100D03*
X0205400Y0059200D03*
X0205200Y0059300D03*
X0205100Y0059400D03*
X0204800Y0059600D03*
X0204700Y0059700D03*
X0204600Y0059800D03*
X0204300Y0060000D03*
X0204200Y0060100D03*
X0204100Y0060200D03*
X0204000Y0060300D03*
X0203900Y0060400D03*
X0202000Y0066600D03*
X0202400Y0066900D03*
X0205700Y0070500D03*
X0205600Y0070600D03*
X0204900Y0071400D03*
X0204800Y0071500D03*
X0204700Y0071600D03*
X0203800Y0072400D03*
X0203700Y0072500D03*
X0203600Y0072600D03*
X0203500Y0072700D03*
X0203300Y0072800D03*
X0203200Y0072900D03*
X0203100Y0073000D03*
X0202900Y0073100D03*
X0202800Y0073200D03*
X0243400Y0061200D03*
X0245000Y0061800D03*
X0245000Y0061900D03*
X0244900Y0062100D03*
X0244900Y0062200D03*
X0244900Y0062300D03*
X0244800Y0062700D03*
X0244800Y0062800D03*
X0244800Y0062900D03*
X0244800Y0063000D03*
X0244900Y0063500D03*
X0244900Y0063600D03*
X0245000Y0063900D03*
X0245000Y0064000D03*
X0245100Y0064100D03*
X0245100Y0064200D03*
X0245200Y0064300D03*
X0245200Y0064400D03*
X0245300Y0064500D03*
X0245400Y0064700D03*
X0245500Y0064800D03*
X0245100Y0061600D03*
X0245100Y0061500D03*
X0245200Y0061400D03*
X0245300Y0061200D03*
X0245400Y0061100D03*
X0250600Y0061200D03*
X0250700Y0061400D03*
X0250800Y0061500D03*
X0250800Y0061600D03*
X0250900Y0061800D03*
X0250900Y0061900D03*
X0251000Y0062100D03*
X0251000Y0062200D03*
X0251100Y0062600D03*
X0251100Y0062700D03*
X0251100Y0062800D03*
X0251100Y0062900D03*
X0251100Y0063000D03*
X0251100Y0063100D03*
X0251100Y0063200D03*
X0251000Y0063500D03*
X0251000Y0063600D03*
X0251000Y0063700D03*
X0250900Y0063900D03*
X0250900Y0064000D03*
X0250800Y0064100D03*
X0250800Y0064200D03*
X0250700Y0064400D03*
X0250500Y0064700D03*
D184*
X0250850Y0067400D03*
X0244950Y0067300D03*
X0247950Y0059800D03*
X0250850Y0058400D03*
X0244950Y0058300D03*
X0232450Y0071000D03*
D185*
X0234700Y0060200D03*
X0244900Y0058400D03*
X0250900Y0058500D03*
X0251000Y0058600D03*
X0251000Y0067200D03*
X0250900Y0067300D03*
X0244900Y0067200D03*
D186*
X0247950Y0058600D03*
X0232450Y0069700D03*
D187*
X0236550Y0067900D03*
X0236650Y0067800D03*
X0236750Y0067700D03*
X0236850Y0067500D03*
X0237050Y0066200D03*
X0236850Y0065600D03*
X0236750Y0065400D03*
X0236650Y0065300D03*
X0236550Y0065100D03*
X0236450Y0065000D03*
X0236450Y0064900D03*
X0236350Y0064800D03*
X0236250Y0064700D03*
X0236150Y0064600D03*
X0235950Y0064300D03*
X0235850Y0064200D03*
X0235750Y0064100D03*
X0235650Y0064000D03*
X0244850Y0063400D03*
X0244850Y0063300D03*
X0244850Y0063200D03*
X0244850Y0063100D03*
X0244850Y0062600D03*
X0244850Y0062500D03*
X0244850Y0062400D03*
X0244950Y0062000D03*
X0245050Y0061700D03*
X0244950Y0063700D03*
X0244950Y0063800D03*
X0245350Y0059300D03*
X0250750Y0064300D03*
X0250950Y0063800D03*
X0251050Y0063400D03*
X0251050Y0063300D03*
X0251050Y0062500D03*
X0251050Y0062400D03*
X0251050Y0062300D03*
X0250950Y0062000D03*
X0250850Y0061700D03*
X0225350Y0068100D03*
X0225250Y0068000D03*
X0225150Y0067900D03*
X0225050Y0067800D03*
X0224950Y0067700D03*
X0224850Y0067600D03*
X0224750Y0067500D03*
X0224650Y0067400D03*
X0224550Y0067300D03*
X0224450Y0067100D03*
X0224350Y0067000D03*
X0224250Y0066800D03*
X0224150Y0066500D03*
X0214350Y0059100D03*
X0214250Y0059200D03*
X0214150Y0059300D03*
X0213750Y0059700D03*
X0213650Y0059800D03*
X0213550Y0059900D03*
X0213450Y0060000D03*
X0213350Y0060100D03*
X0213250Y0060200D03*
X0213150Y0060300D03*
X0213050Y0060400D03*
X0212950Y0060500D03*
X0212850Y0060600D03*
X0212750Y0060700D03*
X0212750Y0060800D03*
X0212650Y0060900D03*
X0212550Y0061000D03*
X0212450Y0061100D03*
X0212350Y0061200D03*
X0212350Y0061300D03*
X0212250Y0061400D03*
X0212150Y0061500D03*
X0212050Y0061600D03*
X0211950Y0061700D03*
X0211850Y0061900D03*
X0211750Y0062000D03*
X0211650Y0062100D03*
X0211650Y0062200D03*
X0211550Y0062300D03*
X0211450Y0062400D03*
X0211350Y0062600D03*
X0211250Y0062700D03*
X0211150Y0062800D03*
X0211050Y0063000D03*
X0210950Y0063100D03*
X0210850Y0063200D03*
X0210750Y0063400D03*
X0210650Y0063500D03*
X0210550Y0063700D03*
X0210450Y0063800D03*
X0210350Y0064000D03*
X0210250Y0064100D03*
X0210150Y0064300D03*
X0210050Y0064400D03*
X0209950Y0064600D03*
X0209850Y0064700D03*
X0209750Y0064900D03*
X0209650Y0065000D03*
X0209550Y0065200D03*
X0209450Y0065300D03*
X0209350Y0065500D03*
X0209250Y0065600D03*
X0209150Y0065700D03*
X0209150Y0065800D03*
X0209050Y0065900D03*
X0208950Y0066000D03*
X0208950Y0066100D03*
X0208850Y0066200D03*
X0208750Y0066300D03*
X0208650Y0066500D03*
X0208550Y0066600D03*
X0208450Y0066800D03*
X0208350Y0066900D03*
X0208250Y0067100D03*
X0208150Y0067200D03*
X0208050Y0067400D03*
X0207950Y0067500D03*
X0207850Y0067700D03*
X0207750Y0067800D03*
X0207650Y0067900D03*
X0207650Y0068000D03*
X0207550Y0068100D03*
X0207450Y0068200D03*
X0207350Y0068400D03*
X0207250Y0068500D03*
X0207150Y0068600D03*
X0207150Y0068700D03*
X0207050Y0068800D03*
X0206950Y0068900D03*
X0206850Y0069100D03*
X0206750Y0069200D03*
X0206650Y0069300D03*
X0206550Y0069400D03*
X0206550Y0069500D03*
X0206450Y0069600D03*
X0206350Y0069700D03*
X0206250Y0069800D03*
X0206150Y0069900D03*
X0206150Y0070000D03*
X0206050Y0070100D03*
X0205950Y0070200D03*
X0205850Y0070300D03*
X0205750Y0070400D03*
X0205550Y0070700D03*
X0205450Y0070800D03*
X0205350Y0070900D03*
X0205250Y0071000D03*
X0205150Y0071100D03*
X0205050Y0071200D03*
X0204950Y0071300D03*
X0204550Y0071700D03*
X0204450Y0071800D03*
X0204350Y0071900D03*
X0204250Y0072000D03*
X0204150Y0072100D03*
X0204050Y0072200D03*
X0203950Y0072300D03*
X0200050Y0074600D03*
X0201850Y0066500D03*
X0201750Y0066300D03*
X0201650Y0066100D03*
X0201550Y0065700D03*
X0201950Y0063300D03*
X0202050Y0063000D03*
X0202150Y0062800D03*
X0202250Y0062600D03*
X0202350Y0062400D03*
X0202450Y0062200D03*
X0202550Y0062000D03*
X0202650Y0061900D03*
X0202750Y0061700D03*
X0202850Y0061500D03*
X0202950Y0061400D03*
X0203050Y0061300D03*
X0203150Y0061100D03*
X0203250Y0061000D03*
X0203350Y0060900D03*
X0203450Y0060800D03*
X0203550Y0060700D03*
X0203650Y0060600D03*
X0203750Y0060500D03*
X0204450Y0059900D03*
D188*
X0233400Y0060000D03*
X0243100Y0060900D03*
X0243200Y0060700D03*
X0243300Y0060500D03*
X0243300Y0060400D03*
X0243300Y0060300D03*
X0243200Y0065000D03*
X0243200Y0065100D03*
X0243300Y0065200D03*
X0243300Y0065300D03*
X0250700Y0067800D03*
X0252600Y0065400D03*
X0252600Y0065300D03*
X0252600Y0065200D03*
X0252700Y0065100D03*
X0252700Y0065000D03*
X0252800Y0064900D03*
X0252800Y0060900D03*
X0252700Y0060800D03*
X0252700Y0060700D03*
X0252600Y0060600D03*
X0252600Y0060500D03*
X0252600Y0060400D03*
D189*
X0234650Y0060100D03*
D190*
X0236600Y0065200D03*
X0236800Y0065500D03*
X0236900Y0065700D03*
X0236900Y0065800D03*
X0237000Y0065900D03*
X0237000Y0066000D03*
X0237000Y0066100D03*
X0237100Y0066300D03*
X0237100Y0066400D03*
X0237100Y0066500D03*
X0237100Y0066600D03*
X0237100Y0066700D03*
X0237100Y0066800D03*
X0237100Y0066900D03*
X0237100Y0067000D03*
X0237000Y0067100D03*
X0237000Y0067200D03*
X0237000Y0067300D03*
X0236900Y0067400D03*
X0236800Y0067600D03*
X0224500Y0067200D03*
X0224300Y0066900D03*
X0224200Y0066700D03*
X0224200Y0066600D03*
X0224100Y0066400D03*
X0224100Y0066300D03*
X0224100Y0066200D03*
X0224100Y0066100D03*
X0224200Y0066000D03*
X0211900Y0061800D03*
X0211400Y0062500D03*
X0211100Y0062900D03*
X0210800Y0063300D03*
X0210600Y0063600D03*
X0210400Y0063900D03*
X0210200Y0064200D03*
X0210000Y0064500D03*
X0209800Y0064800D03*
X0209600Y0065100D03*
X0209400Y0065400D03*
X0208700Y0066400D03*
X0208500Y0066700D03*
X0208300Y0067000D03*
X0208100Y0067300D03*
X0207900Y0067600D03*
X0207400Y0068300D03*
X0206900Y0069000D03*
X0202700Y0066600D03*
X0201800Y0066400D03*
X0201700Y0066200D03*
X0201600Y0066000D03*
X0201600Y0065900D03*
X0201600Y0065800D03*
X0201500Y0065600D03*
X0201500Y0065500D03*
X0201500Y0065400D03*
X0201500Y0065300D03*
X0201500Y0065200D03*
X0201500Y0065100D03*
X0201500Y0065000D03*
X0201500Y0064900D03*
X0201600Y0064800D03*
X0201600Y0064700D03*
X0201600Y0064600D03*
X0201600Y0064500D03*
X0201600Y0064400D03*
X0201600Y0064300D03*
X0201700Y0064200D03*
X0201700Y0064100D03*
X0201700Y0064000D03*
X0201700Y0063900D03*
X0201800Y0063800D03*
X0201800Y0063700D03*
X0201800Y0063600D03*
X0201900Y0063500D03*
X0201900Y0063400D03*
X0202000Y0063200D03*
X0202000Y0063100D03*
X0202100Y0062900D03*
X0202200Y0062700D03*
X0202300Y0062500D03*
X0202400Y0062300D03*
X0202500Y0062100D03*
X0202700Y0061800D03*
X0202800Y0061600D03*
X0203100Y0061200D03*
X0252400Y0061200D03*
D191*
X0247950Y0065800D03*
D192*
X0247950Y0065900D03*
D193*
X0247950Y0068100D03*
D194*
X0248000Y0068200D03*
D195*
X0247950Y0068300D03*
D196*
X0247950Y0068400D03*
D197*
X0247950Y0068600D03*
D198*
X0245900Y0068900D03*
D199*
X0243400Y0069000D03*
D200*
X0232600Y0070800D03*
D201*
X0232550Y0070900D03*
D202*
X0237065Y0278098D03*
X0242675Y0278039D03*
X0230510Y0282528D03*
X0229152Y0282469D03*
X0227498Y0282528D03*
X0224900Y0282528D03*
X0227911Y0286839D03*
X0227911Y0286898D03*
X0225667Y0287783D03*
X0225667Y0290736D03*
X0227911Y0290854D03*
X0227911Y0291681D03*
X0230156Y0290736D03*
X0230510Y0289496D03*
X0230510Y0289437D03*
X0230510Y0289083D03*
X0230510Y0289024D03*
X0230156Y0287783D03*
X0235884Y0292213D03*
X0218167Y0282528D03*
X0212852Y0285480D03*
X0208955Y0282528D03*
X0207596Y0282469D03*
D203*
X0220589Y0287843D03*
X0225254Y0288906D03*
X0225254Y0289614D03*
X0225667Y0290854D03*
X0226612Y0291209D03*
X0224781Y0292390D03*
X0220707Y0292508D03*
X0226612Y0287311D03*
X0227911Y0286957D03*
X0227911Y0287665D03*
X0230569Y0288906D03*
X0230569Y0289614D03*
X0230156Y0290854D03*
X0226612Y0278039D03*
X0238719Y0278039D03*
D204*
X0239486Y0279043D03*
X0239486Y0279102D03*
X0239545Y0279220D03*
X0239545Y0279280D03*
X0239545Y0279339D03*
X0239545Y0279398D03*
X0239545Y0279457D03*
X0239545Y0279516D03*
X0239486Y0279575D03*
X0239486Y0279634D03*
X0239486Y0279693D03*
X0241317Y0279693D03*
X0241317Y0279752D03*
X0241317Y0279811D03*
X0241317Y0279870D03*
X0241317Y0279929D03*
X0241317Y0279988D03*
X0241317Y0280047D03*
X0241317Y0280106D03*
X0241317Y0280165D03*
X0241317Y0280224D03*
X0241317Y0280283D03*
X0241317Y0280343D03*
X0241317Y0280402D03*
X0241317Y0280461D03*
X0241317Y0280520D03*
X0241317Y0280579D03*
X0241317Y0280638D03*
X0241317Y0280697D03*
X0241317Y0280756D03*
X0241317Y0280815D03*
X0241317Y0280874D03*
X0241317Y0280933D03*
X0241376Y0280992D03*
X0241376Y0281051D03*
X0241376Y0281110D03*
X0241435Y0281287D03*
X0241376Y0279575D03*
X0241376Y0279516D03*
X0241376Y0279457D03*
X0243974Y0279457D03*
X0243974Y0279398D03*
X0244033Y0279575D03*
X0244033Y0279634D03*
X0244033Y0279693D03*
X0244033Y0279752D03*
X0244033Y0279811D03*
X0244033Y0279870D03*
X0244033Y0279929D03*
X0244033Y0280047D03*
X0244033Y0280638D03*
X0244033Y0280697D03*
X0244033Y0280756D03*
X0244033Y0280815D03*
X0244033Y0280874D03*
X0244033Y0280933D03*
X0244033Y0280992D03*
X0244033Y0281051D03*
X0243974Y0281169D03*
X0248758Y0281346D03*
X0248758Y0281406D03*
X0248758Y0281465D03*
X0248758Y0281524D03*
X0248758Y0281583D03*
X0248758Y0281642D03*
X0248758Y0281701D03*
X0248758Y0281760D03*
X0248758Y0281819D03*
X0248758Y0281878D03*
X0248758Y0281937D03*
X0248758Y0281996D03*
X0248758Y0282055D03*
X0248758Y0282114D03*
X0248758Y0282173D03*
X0248758Y0282232D03*
X0248758Y0282291D03*
X0248758Y0282350D03*
X0248758Y0282409D03*
X0248758Y0282469D03*
X0248758Y0282528D03*
X0248758Y0282587D03*
X0248758Y0282646D03*
X0248758Y0282705D03*
X0248758Y0282764D03*
X0248758Y0282823D03*
X0248758Y0282882D03*
X0248758Y0282941D03*
X0248758Y0283000D03*
X0248758Y0280283D03*
X0248758Y0280224D03*
X0248758Y0280165D03*
X0248758Y0280106D03*
X0248758Y0280047D03*
X0248758Y0279988D03*
X0248758Y0279929D03*
X0248758Y0279870D03*
X0248758Y0279811D03*
X0248758Y0279752D03*
X0248758Y0279693D03*
X0248758Y0279634D03*
X0248758Y0279575D03*
X0248758Y0279516D03*
X0248758Y0279457D03*
X0248758Y0279398D03*
X0248758Y0279339D03*
X0248758Y0279280D03*
X0248758Y0279220D03*
X0248758Y0279161D03*
X0248758Y0279102D03*
X0248758Y0279043D03*
X0248758Y0278984D03*
X0248758Y0278925D03*
X0248758Y0278866D03*
X0248758Y0278807D03*
X0248758Y0278748D03*
X0248758Y0278689D03*
X0248758Y0278630D03*
X0248758Y0278571D03*
X0248758Y0278512D03*
X0248758Y0278453D03*
X0248758Y0278394D03*
X0248758Y0278335D03*
X0248758Y0278276D03*
X0248758Y0278217D03*
X0248758Y0278157D03*
X0245687Y0288197D03*
X0245687Y0288256D03*
X0245687Y0290323D03*
X0239132Y0288138D03*
X0239132Y0288079D03*
X0237537Y0286307D03*
X0235943Y0287961D03*
X0230215Y0288138D03*
X0229270Y0291622D03*
X0226494Y0291622D03*
X0226494Y0286898D03*
X0226730Y0286720D03*
X0227498Y0282409D03*
X0227498Y0282350D03*
X0227498Y0282291D03*
X0227498Y0282232D03*
X0227498Y0282173D03*
X0227498Y0282114D03*
X0227498Y0282055D03*
X0227498Y0281996D03*
X0227498Y0281937D03*
X0227498Y0281878D03*
X0227498Y0281819D03*
X0227498Y0281760D03*
X0227498Y0281701D03*
X0227498Y0281642D03*
X0227498Y0281583D03*
X0227498Y0281524D03*
X0227498Y0281465D03*
X0227498Y0281406D03*
X0227498Y0281346D03*
X0227498Y0281287D03*
X0227498Y0281228D03*
X0227498Y0281169D03*
X0227498Y0281110D03*
X0227498Y0281051D03*
X0227498Y0280992D03*
X0227498Y0280933D03*
X0227498Y0280874D03*
X0227498Y0280815D03*
X0227498Y0280756D03*
X0227498Y0280697D03*
X0227498Y0280638D03*
X0227498Y0280579D03*
X0227498Y0280520D03*
X0227498Y0280461D03*
X0227498Y0280402D03*
X0227498Y0280343D03*
X0227498Y0280283D03*
X0227498Y0280224D03*
X0227498Y0280165D03*
X0227498Y0280106D03*
X0227498Y0280047D03*
X0227498Y0279988D03*
X0227498Y0279929D03*
X0227498Y0279870D03*
X0227498Y0279811D03*
X0227498Y0279752D03*
X0227498Y0279693D03*
X0227498Y0279634D03*
X0227498Y0279575D03*
X0227498Y0279516D03*
X0227498Y0279457D03*
X0227498Y0279398D03*
X0227439Y0279339D03*
X0227439Y0279280D03*
X0227439Y0279220D03*
X0224900Y0279220D03*
X0224900Y0279280D03*
X0224900Y0279339D03*
X0224900Y0279398D03*
X0224900Y0279457D03*
X0224900Y0279516D03*
X0224900Y0279575D03*
X0224900Y0279634D03*
X0224900Y0279693D03*
X0224900Y0279752D03*
X0224900Y0279811D03*
X0224900Y0279870D03*
X0224900Y0279929D03*
X0224900Y0279988D03*
X0224900Y0280047D03*
X0224900Y0280106D03*
X0224900Y0280165D03*
X0224900Y0280224D03*
X0224900Y0280283D03*
X0224900Y0280343D03*
X0224900Y0280402D03*
X0224900Y0280461D03*
X0224900Y0280520D03*
X0224900Y0280579D03*
X0224900Y0280638D03*
X0224900Y0280697D03*
X0224900Y0280756D03*
X0224900Y0280815D03*
X0224900Y0280874D03*
X0224900Y0280933D03*
X0224900Y0280992D03*
X0224900Y0281051D03*
X0224900Y0281110D03*
X0224900Y0281169D03*
X0224900Y0281228D03*
X0224900Y0281287D03*
X0224900Y0281346D03*
X0224900Y0281406D03*
X0224900Y0281465D03*
X0224900Y0281524D03*
X0224900Y0281583D03*
X0224900Y0281642D03*
X0224900Y0281701D03*
X0224900Y0281760D03*
X0224900Y0281819D03*
X0224900Y0281878D03*
X0224900Y0281937D03*
X0224900Y0281996D03*
X0224900Y0282055D03*
X0224900Y0282114D03*
X0224900Y0282173D03*
X0224900Y0282232D03*
X0224900Y0282291D03*
X0224900Y0282350D03*
X0222833Y0281406D03*
X0222833Y0281346D03*
X0222833Y0281287D03*
X0222833Y0281228D03*
X0222833Y0281169D03*
X0222833Y0281110D03*
X0222833Y0281051D03*
X0222833Y0280992D03*
X0222833Y0280933D03*
X0222833Y0280874D03*
X0222833Y0280815D03*
X0222833Y0280756D03*
X0222833Y0280697D03*
X0222833Y0280638D03*
X0222833Y0280579D03*
X0222833Y0280520D03*
X0222833Y0280461D03*
X0222833Y0280402D03*
X0222833Y0280343D03*
X0222833Y0280283D03*
X0222833Y0280224D03*
X0222833Y0280165D03*
X0222833Y0280106D03*
X0222833Y0280047D03*
X0222833Y0279988D03*
X0222833Y0279929D03*
X0222833Y0279870D03*
X0222833Y0279811D03*
X0222833Y0279752D03*
X0222833Y0279693D03*
X0222833Y0279634D03*
X0222833Y0279575D03*
X0222833Y0279516D03*
X0222833Y0279457D03*
X0222833Y0279398D03*
X0222833Y0279339D03*
X0222833Y0279280D03*
X0222833Y0279220D03*
X0222833Y0279161D03*
X0222833Y0279102D03*
X0222833Y0279043D03*
X0222833Y0278984D03*
X0222833Y0278925D03*
X0222833Y0278866D03*
X0222833Y0278807D03*
X0222833Y0278748D03*
X0222833Y0278689D03*
X0222833Y0278630D03*
X0222833Y0278571D03*
X0222833Y0278512D03*
X0222833Y0278453D03*
X0222833Y0278394D03*
X0222833Y0278335D03*
X0222833Y0278276D03*
X0222833Y0278217D03*
X0224900Y0278217D03*
X0224900Y0278276D03*
X0224900Y0278335D03*
X0220234Y0278335D03*
X0220234Y0278394D03*
X0220234Y0278453D03*
X0220234Y0278512D03*
X0220234Y0278571D03*
X0220234Y0278630D03*
X0220234Y0278689D03*
X0220234Y0278748D03*
X0220234Y0278807D03*
X0220234Y0278866D03*
X0220234Y0278925D03*
X0220234Y0278984D03*
X0220234Y0279043D03*
X0220234Y0279102D03*
X0220234Y0279161D03*
X0220234Y0279220D03*
X0220234Y0279280D03*
X0220234Y0279339D03*
X0220234Y0279398D03*
X0220234Y0279457D03*
X0220234Y0279516D03*
X0220234Y0279575D03*
X0220234Y0279634D03*
X0220234Y0279693D03*
X0220234Y0279752D03*
X0220234Y0279811D03*
X0220234Y0279870D03*
X0220234Y0279929D03*
X0220234Y0279988D03*
X0220234Y0280047D03*
X0220234Y0280106D03*
X0220234Y0280165D03*
X0220234Y0280224D03*
X0220234Y0280283D03*
X0220234Y0280343D03*
X0220234Y0280402D03*
X0220234Y0280461D03*
X0220234Y0280520D03*
X0220234Y0280579D03*
X0220234Y0280638D03*
X0220234Y0280697D03*
X0220234Y0280756D03*
X0220234Y0280815D03*
X0220234Y0280874D03*
X0220234Y0280933D03*
X0220234Y0280992D03*
X0220234Y0281051D03*
X0220234Y0281110D03*
X0220234Y0281169D03*
X0220234Y0281228D03*
X0220234Y0281287D03*
X0220293Y0281406D03*
X0220293Y0281465D03*
X0218108Y0281406D03*
X0215569Y0281406D03*
X0215569Y0281346D03*
X0215569Y0281287D03*
X0215569Y0281228D03*
X0215510Y0281110D03*
X0215510Y0281051D03*
X0215510Y0280992D03*
X0215510Y0280933D03*
X0215510Y0280874D03*
X0215510Y0280815D03*
X0215510Y0280756D03*
X0215510Y0280697D03*
X0215510Y0280638D03*
X0215510Y0280579D03*
X0215510Y0280520D03*
X0215510Y0280461D03*
X0215510Y0280402D03*
X0215510Y0280343D03*
X0215510Y0280283D03*
X0215510Y0280224D03*
X0215510Y0280165D03*
X0215510Y0280106D03*
X0215510Y0280047D03*
X0215510Y0279988D03*
X0215510Y0279929D03*
X0215510Y0279870D03*
X0215510Y0279811D03*
X0215510Y0279752D03*
X0215510Y0279693D03*
X0215510Y0279634D03*
X0215510Y0279575D03*
X0215510Y0279516D03*
X0215510Y0279457D03*
X0215510Y0279398D03*
X0215510Y0279339D03*
X0215510Y0279280D03*
X0215510Y0279220D03*
X0215510Y0279161D03*
X0215510Y0279102D03*
X0215510Y0279043D03*
X0215510Y0278984D03*
X0215510Y0278925D03*
X0215510Y0278866D03*
X0215510Y0278807D03*
X0215510Y0278748D03*
X0215510Y0278689D03*
X0215510Y0278630D03*
X0215510Y0278571D03*
X0215510Y0278512D03*
X0215510Y0278453D03*
X0215510Y0278394D03*
X0215510Y0278335D03*
X0215510Y0278276D03*
X0215510Y0278217D03*
X0213502Y0279398D03*
X0213502Y0279457D03*
X0213502Y0279516D03*
X0213561Y0279634D03*
X0213561Y0279693D03*
X0213561Y0279752D03*
X0213561Y0279811D03*
X0213561Y0279870D03*
X0213561Y0279929D03*
X0213561Y0280697D03*
X0213561Y0280756D03*
X0213561Y0280815D03*
X0213561Y0280874D03*
X0213561Y0280933D03*
X0213561Y0280992D03*
X0213502Y0281051D03*
X0213502Y0281110D03*
X0213502Y0281169D03*
X0210904Y0281169D03*
X0210904Y0281110D03*
X0210904Y0281051D03*
X0210844Y0280992D03*
X0210844Y0280933D03*
X0210844Y0280874D03*
X0210844Y0280815D03*
X0210844Y0280756D03*
X0210844Y0280697D03*
X0208896Y0281406D03*
X0206061Y0281465D03*
X0206061Y0281524D03*
X0206061Y0281583D03*
X0206061Y0281346D03*
X0206061Y0281287D03*
X0203994Y0279339D03*
X0203994Y0279280D03*
X0203994Y0279220D03*
X0203994Y0279161D03*
X0203994Y0279102D03*
X0205116Y0278039D03*
X0220234Y0278217D03*
X0220234Y0278276D03*
X0232577Y0278925D03*
X0233758Y0278039D03*
X0235116Y0279339D03*
X0235116Y0279398D03*
X0235175Y0279516D03*
X0235175Y0279575D03*
X0235175Y0279634D03*
X0235175Y0279693D03*
X0235175Y0279752D03*
X0235175Y0279811D03*
X0235175Y0279870D03*
X0235175Y0279929D03*
X0235175Y0279988D03*
X0235175Y0280638D03*
X0235175Y0280697D03*
X0235175Y0280756D03*
X0235175Y0280815D03*
X0235175Y0280874D03*
X0235175Y0280933D03*
X0235175Y0280992D03*
X0235175Y0281051D03*
X0235175Y0281110D03*
X0235116Y0281169D03*
X0235116Y0281228D03*
X0235116Y0281287D03*
X0235057Y0281406D03*
X0237124Y0281406D03*
X0237124Y0281346D03*
X0237124Y0281287D03*
X0237124Y0281228D03*
X0237124Y0281169D03*
X0237124Y0281110D03*
X0237124Y0280992D03*
X0237124Y0280933D03*
X0237124Y0280874D03*
X0237124Y0280756D03*
X0237124Y0279988D03*
X0237124Y0279870D03*
X0237124Y0279811D03*
X0237124Y0279752D03*
X0237124Y0279693D03*
X0237124Y0279634D03*
X0237124Y0279575D03*
X0237124Y0279516D03*
X0237124Y0279457D03*
X0237124Y0279398D03*
X0237124Y0279339D03*
X0237124Y0279280D03*
X0237124Y0279220D03*
X0237124Y0279161D03*
X0237124Y0279102D03*
X0237124Y0279043D03*
D205*
X0234909Y0278984D03*
X0237272Y0281642D03*
X0239339Y0279929D03*
X0241583Y0281524D03*
X0243827Y0279102D03*
X0243768Y0279043D03*
X0245657Y0278276D03*
X0245717Y0278335D03*
X0245776Y0278453D03*
X0245835Y0278571D03*
X0245894Y0278689D03*
X0245953Y0278807D03*
X0246012Y0278925D03*
X0246071Y0278984D03*
X0246130Y0279102D03*
X0246189Y0279220D03*
X0246248Y0279339D03*
X0246307Y0279457D03*
X0246366Y0279575D03*
X0246425Y0279693D03*
X0246484Y0279752D03*
X0246484Y0279811D03*
X0246543Y0279870D03*
X0246602Y0279988D03*
X0246661Y0280106D03*
X0246720Y0280224D03*
X0246780Y0280343D03*
X0245953Y0281465D03*
X0245894Y0282764D03*
X0245953Y0287547D03*
X0245894Y0287606D03*
X0245894Y0290972D03*
X0245953Y0291031D03*
X0238925Y0287429D03*
X0238866Y0287370D03*
X0236150Y0287429D03*
X0236091Y0287488D03*
X0229358Y0287075D03*
X0226465Y0287016D03*
X0226465Y0291504D03*
X0225756Y0292272D03*
X0229358Y0291504D03*
X0229299Y0282291D03*
X0230362Y0281524D03*
X0227350Y0278984D03*
X0224988Y0279102D03*
X0222744Y0281524D03*
X0220382Y0281642D03*
X0218020Y0281524D03*
X0215717Y0281642D03*
X0213295Y0281524D03*
X0211937Y0278039D03*
X0208807Y0281524D03*
X0204083Y0279516D03*
D206*
X0208955Y0282469D03*
X0218167Y0282469D03*
X0222833Y0282469D03*
X0227498Y0282469D03*
X0230510Y0282469D03*
X0229033Y0286720D03*
X0230156Y0287902D03*
X0230156Y0287961D03*
X0230274Y0288256D03*
X0230333Y0288315D03*
X0230333Y0290205D03*
X0230156Y0290618D03*
X0230156Y0290677D03*
X0229270Y0291681D03*
X0229211Y0291740D03*
X0227852Y0292272D03*
X0226730Y0291799D03*
X0226553Y0291681D03*
X0225608Y0290500D03*
X0225549Y0290323D03*
X0225490Y0290205D03*
X0225313Y0289378D03*
X0225313Y0289319D03*
X0225313Y0289260D03*
X0225313Y0289201D03*
X0225313Y0289142D03*
X0225431Y0288374D03*
X0225490Y0288315D03*
X0225608Y0287902D03*
X0226553Y0286780D03*
X0237065Y0278276D03*
X0237065Y0278217D03*
X0237065Y0278157D03*
X0239309Y0281701D03*
X0248758Y0278098D03*
D207*
X0248728Y0280343D03*
X0248728Y0281287D03*
X0245835Y0281701D03*
X0245835Y0281760D03*
X0245776Y0281819D03*
X0245776Y0281878D03*
X0245776Y0281937D03*
X0245776Y0281996D03*
X0245776Y0282055D03*
X0245776Y0282114D03*
X0245776Y0282173D03*
X0245776Y0282232D03*
X0245776Y0282291D03*
X0245776Y0282350D03*
X0245776Y0282409D03*
X0245776Y0282469D03*
X0245776Y0282528D03*
X0245835Y0282587D03*
X0245835Y0282646D03*
X0243886Y0281406D03*
X0243945Y0281287D03*
X0243945Y0281228D03*
X0244004Y0281110D03*
X0244004Y0279516D03*
X0243945Y0279339D03*
X0243945Y0279280D03*
X0243886Y0279220D03*
X0245598Y0278098D03*
X0241465Y0279220D03*
X0241465Y0279280D03*
X0241406Y0279339D03*
X0241406Y0279398D03*
X0241406Y0281169D03*
X0241406Y0281228D03*
X0241465Y0281346D03*
X0242705Y0282528D03*
X0242528Y0286425D03*
X0242528Y0286484D03*
X0242528Y0286543D03*
X0242528Y0286602D03*
X0242528Y0286661D03*
X0242528Y0286720D03*
X0242528Y0286780D03*
X0242528Y0286839D03*
X0242528Y0286898D03*
X0242528Y0286957D03*
X0242528Y0287016D03*
X0242528Y0287075D03*
X0242528Y0287134D03*
X0242528Y0287193D03*
X0242528Y0287252D03*
X0242528Y0287311D03*
X0242528Y0287370D03*
X0242528Y0287429D03*
X0242528Y0287488D03*
X0242528Y0287547D03*
X0242528Y0287606D03*
X0242528Y0287665D03*
X0242528Y0287724D03*
X0242528Y0287783D03*
X0242528Y0287843D03*
X0242528Y0287902D03*
X0242528Y0287961D03*
X0242528Y0288020D03*
X0242528Y0288079D03*
X0242528Y0288138D03*
X0242528Y0288197D03*
X0242528Y0288256D03*
X0242528Y0288315D03*
X0242528Y0288374D03*
X0242528Y0288433D03*
X0242528Y0288492D03*
X0242528Y0288551D03*
X0242528Y0288610D03*
X0242528Y0288669D03*
X0242528Y0288728D03*
X0242528Y0288787D03*
X0242528Y0288846D03*
X0242528Y0288906D03*
X0242528Y0288965D03*
X0242528Y0289024D03*
X0242528Y0289083D03*
X0242528Y0289142D03*
X0242528Y0289201D03*
X0242528Y0289260D03*
X0242528Y0289319D03*
X0242528Y0289378D03*
X0242528Y0289437D03*
X0242528Y0289496D03*
X0242528Y0289555D03*
X0242528Y0289614D03*
X0242528Y0289673D03*
X0242528Y0289732D03*
X0242528Y0289791D03*
X0242528Y0289850D03*
X0242528Y0289909D03*
X0242528Y0289969D03*
X0242528Y0290028D03*
X0242528Y0290087D03*
X0242528Y0290146D03*
X0242528Y0290205D03*
X0242528Y0290264D03*
X0242528Y0290323D03*
X0242528Y0290382D03*
X0242528Y0290441D03*
X0242528Y0290500D03*
X0242528Y0290559D03*
X0242528Y0290618D03*
X0242528Y0290677D03*
X0242528Y0290736D03*
X0242528Y0290795D03*
X0242528Y0290854D03*
X0242528Y0290913D03*
X0242528Y0290972D03*
X0242528Y0291031D03*
X0242528Y0291091D03*
X0242528Y0291150D03*
X0242528Y0291209D03*
X0242528Y0291268D03*
X0245717Y0290559D03*
X0245717Y0290500D03*
X0245717Y0290441D03*
X0245717Y0290382D03*
X0245657Y0290264D03*
X0245657Y0290205D03*
X0245657Y0290146D03*
X0245657Y0290087D03*
X0245657Y0290028D03*
X0245657Y0289969D03*
X0245657Y0289909D03*
X0245657Y0289850D03*
X0245657Y0289791D03*
X0245657Y0289732D03*
X0245657Y0289673D03*
X0245657Y0289614D03*
X0245657Y0289555D03*
X0245657Y0289496D03*
X0245657Y0289437D03*
X0245657Y0289378D03*
X0245657Y0289319D03*
X0245657Y0289260D03*
X0245657Y0289201D03*
X0245657Y0289142D03*
X0245657Y0289083D03*
X0245657Y0289024D03*
X0245657Y0288965D03*
X0245657Y0288906D03*
X0245657Y0288846D03*
X0245657Y0288787D03*
X0245657Y0288728D03*
X0245657Y0288669D03*
X0245657Y0288610D03*
X0245657Y0288551D03*
X0245657Y0288492D03*
X0245657Y0288433D03*
X0245657Y0288374D03*
X0245657Y0288315D03*
X0245717Y0288138D03*
X0245717Y0288079D03*
X0245717Y0288020D03*
X0245717Y0287961D03*
X0245776Y0287902D03*
X0245776Y0287843D03*
X0245776Y0290618D03*
X0245776Y0290677D03*
X0248787Y0290677D03*
X0248787Y0290618D03*
X0248787Y0290559D03*
X0248787Y0290500D03*
X0248787Y0290441D03*
X0248787Y0290382D03*
X0248787Y0290323D03*
X0248787Y0290264D03*
X0248787Y0290205D03*
X0248787Y0290146D03*
X0248787Y0290087D03*
X0248787Y0290028D03*
X0248787Y0289969D03*
X0248787Y0289909D03*
X0248787Y0289850D03*
X0248787Y0289791D03*
X0248787Y0289732D03*
X0248787Y0289673D03*
X0248787Y0289614D03*
X0248787Y0289555D03*
X0248787Y0289496D03*
X0248787Y0289437D03*
X0248787Y0289378D03*
X0248787Y0289319D03*
X0248787Y0289260D03*
X0248787Y0289201D03*
X0248787Y0289142D03*
X0248787Y0289083D03*
X0248787Y0289024D03*
X0248787Y0288965D03*
X0248787Y0288906D03*
X0248787Y0288846D03*
X0248787Y0288787D03*
X0248787Y0288728D03*
X0248787Y0288669D03*
X0248787Y0288610D03*
X0248787Y0288551D03*
X0248787Y0288492D03*
X0248787Y0288433D03*
X0248787Y0288374D03*
X0248787Y0288315D03*
X0248787Y0288256D03*
X0248787Y0288197D03*
X0248787Y0288138D03*
X0248787Y0288079D03*
X0248787Y0288020D03*
X0248787Y0287961D03*
X0248787Y0287902D03*
X0248787Y0287843D03*
X0248787Y0287783D03*
X0248787Y0287724D03*
X0248787Y0287665D03*
X0248787Y0287606D03*
X0248787Y0287547D03*
X0248787Y0287488D03*
X0248787Y0287429D03*
X0248787Y0287370D03*
X0248787Y0287311D03*
X0248787Y0287252D03*
X0248787Y0290736D03*
X0248787Y0290795D03*
X0248787Y0290854D03*
X0248787Y0290913D03*
X0248787Y0290972D03*
X0248787Y0291031D03*
X0248787Y0291091D03*
X0248787Y0291150D03*
X0248787Y0291209D03*
X0248787Y0291268D03*
X0239161Y0291268D03*
X0239161Y0291327D03*
X0239161Y0291386D03*
X0239161Y0291445D03*
X0239161Y0291504D03*
X0239161Y0291563D03*
X0239161Y0291622D03*
X0239161Y0291681D03*
X0239161Y0291740D03*
X0239161Y0291799D03*
X0239161Y0291858D03*
X0239161Y0291917D03*
X0239161Y0291976D03*
X0239161Y0292035D03*
X0239161Y0292094D03*
X0239161Y0291209D03*
X0239161Y0291150D03*
X0239161Y0291091D03*
X0239161Y0291031D03*
X0239161Y0290972D03*
X0239161Y0290913D03*
X0239161Y0290854D03*
X0239161Y0290795D03*
X0239161Y0290736D03*
X0239161Y0290677D03*
X0239161Y0290618D03*
X0239161Y0290559D03*
X0239161Y0290500D03*
X0239161Y0290441D03*
X0239161Y0290382D03*
X0239161Y0290323D03*
X0239161Y0290264D03*
X0239161Y0290205D03*
X0239161Y0290146D03*
X0239161Y0290087D03*
X0239161Y0290028D03*
X0239161Y0289969D03*
X0239161Y0289909D03*
X0239161Y0289850D03*
X0239161Y0289791D03*
X0239161Y0289732D03*
X0239161Y0289673D03*
X0239161Y0289614D03*
X0239161Y0289555D03*
X0239161Y0289496D03*
X0239161Y0289437D03*
X0239161Y0289378D03*
X0239161Y0289319D03*
X0239161Y0289260D03*
X0239161Y0289201D03*
X0239161Y0289142D03*
X0239161Y0289083D03*
X0239161Y0289024D03*
X0239161Y0288965D03*
X0239161Y0288906D03*
X0239161Y0288846D03*
X0239161Y0288787D03*
X0239161Y0288728D03*
X0239161Y0288669D03*
X0239161Y0288610D03*
X0239161Y0288551D03*
X0239161Y0288492D03*
X0239161Y0288433D03*
X0239161Y0288374D03*
X0239161Y0288315D03*
X0239161Y0288256D03*
X0239161Y0288197D03*
X0239102Y0288020D03*
X0239102Y0287961D03*
X0239102Y0287902D03*
X0239102Y0287843D03*
X0239043Y0287724D03*
X0239043Y0287665D03*
X0236031Y0287665D03*
X0236031Y0287606D03*
X0235972Y0287724D03*
X0235972Y0287783D03*
X0235972Y0287843D03*
X0235972Y0287902D03*
X0235913Y0288020D03*
X0235913Y0288079D03*
X0235913Y0288138D03*
X0235913Y0288197D03*
X0235913Y0288256D03*
X0235913Y0288315D03*
X0235913Y0288374D03*
X0235913Y0288433D03*
X0235913Y0288492D03*
X0235913Y0288551D03*
X0235913Y0288610D03*
X0235913Y0288669D03*
X0235913Y0288728D03*
X0235913Y0288787D03*
X0235913Y0288846D03*
X0235913Y0288906D03*
X0235913Y0288965D03*
X0235913Y0289024D03*
X0235913Y0289083D03*
X0235913Y0289142D03*
X0235913Y0289201D03*
X0235913Y0289260D03*
X0235913Y0289319D03*
X0235913Y0289378D03*
X0235913Y0289437D03*
X0235913Y0289496D03*
X0235913Y0289555D03*
X0235913Y0289614D03*
X0235913Y0289673D03*
X0235913Y0289732D03*
X0235913Y0289791D03*
X0235913Y0289850D03*
X0235913Y0289909D03*
X0235913Y0289969D03*
X0235913Y0290028D03*
X0235913Y0290087D03*
X0235913Y0290146D03*
X0235913Y0290205D03*
X0235913Y0290264D03*
X0235913Y0290323D03*
X0235913Y0290382D03*
X0235913Y0290441D03*
X0235913Y0290500D03*
X0235913Y0290559D03*
X0235913Y0290618D03*
X0235913Y0290677D03*
X0235913Y0290736D03*
X0235913Y0290795D03*
X0235913Y0290854D03*
X0235913Y0290913D03*
X0235913Y0290972D03*
X0235913Y0291031D03*
X0235913Y0291091D03*
X0235913Y0291150D03*
X0235913Y0291209D03*
X0235913Y0291268D03*
X0235913Y0291327D03*
X0235913Y0291386D03*
X0235913Y0291445D03*
X0235913Y0291504D03*
X0235913Y0291563D03*
X0235913Y0291622D03*
X0235913Y0291681D03*
X0235913Y0291740D03*
X0235913Y0291799D03*
X0235913Y0291858D03*
X0235913Y0291917D03*
X0235913Y0291976D03*
X0235913Y0292035D03*
X0235913Y0292094D03*
X0229299Y0286957D03*
X0226465Y0286957D03*
X0229240Y0282350D03*
X0230421Y0281465D03*
X0227409Y0279161D03*
X0227409Y0279102D03*
X0224929Y0279161D03*
X0222803Y0281465D03*
X0220323Y0281524D03*
X0218079Y0281465D03*
X0216425Y0282528D03*
X0215598Y0281524D03*
X0215598Y0281465D03*
X0213472Y0281287D03*
X0213472Y0281228D03*
X0213413Y0281346D03*
X0213472Y0279339D03*
X0213413Y0279280D03*
X0213413Y0279220D03*
X0211051Y0278925D03*
X0210933Y0281228D03*
X0210933Y0281287D03*
X0210992Y0281346D03*
X0210992Y0281406D03*
X0208866Y0281465D03*
X0207685Y0282350D03*
X0206031Y0281642D03*
X0206031Y0281228D03*
X0204024Y0279398D03*
X0204024Y0279043D03*
X0204024Y0278984D03*
X0211760Y0285598D03*
X0213886Y0285598D03*
X0220264Y0292567D03*
X0235028Y0281465D03*
X0235087Y0281346D03*
X0235146Y0279457D03*
X0235087Y0279280D03*
X0235087Y0279220D03*
X0235028Y0279161D03*
X0235028Y0279102D03*
X0237154Y0281465D03*
X0237154Y0281524D03*
X0237213Y0281583D03*
X0239398Y0279870D03*
X0239457Y0279811D03*
X0239457Y0279752D03*
X0239516Y0279161D03*
X0239457Y0278984D03*
X0238689Y0278098D03*
D208*
X0241612Y0279043D03*
X0241671Y0278984D03*
X0242675Y0278098D03*
X0241612Y0281583D03*
X0243738Y0281583D03*
X0245982Y0281406D03*
X0245923Y0282823D03*
X0245982Y0282882D03*
X0245982Y0287488D03*
X0245982Y0291091D03*
X0238837Y0287311D03*
X0236238Y0287311D03*
X0236179Y0287370D03*
X0234880Y0281642D03*
X0232695Y0281701D03*
X0229388Y0287134D03*
X0226435Y0287075D03*
X0226376Y0291386D03*
X0226435Y0291445D03*
X0229388Y0291445D03*
X0213266Y0281583D03*
X0211140Y0281583D03*
X0213266Y0279043D03*
X0205943Y0281110D03*
X0205943Y0281701D03*
X0204171Y0279634D03*
X0204112Y0279575D03*
D209*
X0204496Y0279929D03*
X0204555Y0279988D03*
X0205500Y0280697D03*
X0205559Y0280756D03*
X0216425Y0282409D03*
X0221150Y0282409D03*
X0225224Y0278925D03*
X0226583Y0278217D03*
X0233669Y0278098D03*
X0238689Y0278217D03*
X0238571Y0287193D03*
X0236504Y0287193D03*
D210*
X0232547Y0284063D03*
X0229240Y0286839D03*
X0229181Y0286780D03*
X0227882Y0286780D03*
X0227882Y0286720D03*
X0230126Y0287843D03*
X0230362Y0288374D03*
X0230480Y0289142D03*
X0230480Y0289201D03*
X0230480Y0289260D03*
X0230480Y0289319D03*
X0230480Y0289378D03*
X0227882Y0291740D03*
X0227882Y0291799D03*
X0226583Y0291740D03*
X0225638Y0290677D03*
X0225638Y0290618D03*
X0225283Y0289496D03*
X0225283Y0289437D03*
X0225283Y0289083D03*
X0225283Y0289024D03*
X0225638Y0287843D03*
X0225165Y0292331D03*
X0239161Y0292213D03*
X0230480Y0278098D03*
X0224870Y0278098D03*
X0222862Y0278098D03*
X0220205Y0278098D03*
X0218138Y0278098D03*
X0215539Y0278098D03*
X0208925Y0278098D03*
D211*
X0211022Y0281465D03*
X0211081Y0281524D03*
X0212203Y0282528D03*
X0213384Y0281465D03*
X0213384Y0281406D03*
X0213384Y0279161D03*
X0213325Y0279102D03*
X0215628Y0281583D03*
X0220352Y0281583D03*
X0221120Y0282528D03*
X0227380Y0279043D03*
X0226612Y0278098D03*
X0234998Y0279043D03*
X0237183Y0278984D03*
X0239427Y0278925D03*
X0241494Y0279161D03*
X0241553Y0279102D03*
X0243856Y0279161D03*
X0245628Y0278217D03*
X0245628Y0278157D03*
X0245746Y0278394D03*
X0245805Y0278512D03*
X0245864Y0278630D03*
X0245923Y0278748D03*
X0245982Y0278866D03*
X0246100Y0279043D03*
X0246159Y0279161D03*
X0246219Y0279280D03*
X0246278Y0279398D03*
X0246337Y0279516D03*
X0246396Y0279634D03*
X0246573Y0279929D03*
X0246632Y0280047D03*
X0246691Y0280165D03*
X0246750Y0280283D03*
X0245923Y0281524D03*
X0245864Y0281583D03*
X0245864Y0281642D03*
X0245864Y0282705D03*
X0243856Y0281465D03*
X0243797Y0281524D03*
X0243915Y0281346D03*
X0241553Y0281465D03*
X0241494Y0281406D03*
X0234998Y0281524D03*
X0234939Y0281583D03*
X0236061Y0287547D03*
X0238955Y0287488D03*
X0239014Y0287547D03*
X0239014Y0287606D03*
X0239073Y0287783D03*
X0245805Y0287783D03*
X0245805Y0287724D03*
X0245864Y0287665D03*
X0245805Y0290736D03*
X0245805Y0290795D03*
X0245864Y0290854D03*
X0245864Y0290913D03*
X0248758Y0291327D03*
X0229329Y0291563D03*
X0227911Y0290795D03*
X0226494Y0291563D03*
X0227911Y0287724D03*
X0229329Y0287016D03*
X0207715Y0282291D03*
X0206002Y0281169D03*
X0204053Y0279457D03*
X0204112Y0278925D03*
D212*
X0204703Y0280106D03*
X0204762Y0280165D03*
X0204939Y0280283D03*
X0205116Y0280402D03*
X0205293Y0280520D03*
X0205352Y0280579D03*
X0211848Y0278098D03*
X0216455Y0282350D03*
X0221179Y0282350D03*
X0238659Y0278276D03*
X0242675Y0278217D03*
X0246337Y0283059D03*
D213*
X0242675Y0282409D03*
X0246396Y0291327D03*
X0227852Y0286366D03*
X0227321Y0286248D03*
X0212203Y0282409D03*
X0205234Y0278098D03*
D214*
X0204407Y0279870D03*
X0205648Y0280815D03*
X0208600Y0281642D03*
X0230156Y0281642D03*
X0238482Y0282528D03*
X0237537Y0286366D03*
X0246278Y0287252D03*
X0242675Y0278157D03*
D215*
X0238689Y0278157D03*
X0238748Y0287252D03*
X0246189Y0287311D03*
X0246130Y0291209D03*
X0227882Y0290736D03*
X0221150Y0282469D03*
X0216425Y0282469D03*
X0226583Y0278157D03*
D216*
X0229860Y0281760D03*
X0229860Y0281819D03*
X0229860Y0281878D03*
X0229860Y0281937D03*
X0233581Y0278157D03*
X0227911Y0292094D03*
X0212203Y0282291D03*
X0208305Y0281819D03*
X0208305Y0281760D03*
X0205293Y0278157D03*
D217*
X0206091Y0281406D03*
X0207626Y0282409D03*
X0208925Y0282409D03*
X0208925Y0282350D03*
X0208925Y0282291D03*
X0208925Y0281346D03*
X0208925Y0281287D03*
X0208925Y0281228D03*
X0208925Y0281169D03*
X0208925Y0281110D03*
X0208925Y0281051D03*
X0208925Y0280992D03*
X0208925Y0280933D03*
X0208925Y0280874D03*
X0208925Y0280815D03*
X0208925Y0280756D03*
X0208925Y0280697D03*
X0208925Y0280638D03*
X0208925Y0280579D03*
X0208925Y0280520D03*
X0208925Y0280461D03*
X0208925Y0280402D03*
X0208925Y0280343D03*
X0208925Y0280283D03*
X0208925Y0280224D03*
X0208925Y0280165D03*
X0208925Y0280106D03*
X0208925Y0280047D03*
X0208925Y0279988D03*
X0208925Y0279929D03*
X0208925Y0279870D03*
X0208925Y0279811D03*
X0208925Y0279752D03*
X0208925Y0279693D03*
X0208925Y0279634D03*
X0208925Y0279575D03*
X0208925Y0279516D03*
X0208925Y0279457D03*
X0208925Y0279398D03*
X0208925Y0279339D03*
X0208925Y0279280D03*
X0208925Y0279220D03*
X0208925Y0279161D03*
X0208925Y0279102D03*
X0208925Y0279043D03*
X0208925Y0278984D03*
X0208925Y0278925D03*
X0208925Y0278866D03*
X0208925Y0278807D03*
X0208925Y0278748D03*
X0208925Y0278689D03*
X0208925Y0278630D03*
X0208925Y0278571D03*
X0208925Y0278512D03*
X0208925Y0278453D03*
X0208925Y0278394D03*
X0208925Y0278335D03*
X0208925Y0278276D03*
X0208925Y0278217D03*
X0208925Y0278157D03*
X0213531Y0279575D03*
X0215539Y0278157D03*
X0218138Y0278157D03*
X0218138Y0278217D03*
X0218138Y0278276D03*
X0218138Y0278335D03*
X0218138Y0278394D03*
X0218138Y0278453D03*
X0218138Y0278512D03*
X0218138Y0278571D03*
X0218138Y0278630D03*
X0218138Y0278689D03*
X0218138Y0278748D03*
X0218138Y0278807D03*
X0218138Y0278866D03*
X0218138Y0278925D03*
X0218138Y0278984D03*
X0218138Y0279043D03*
X0218138Y0279102D03*
X0218138Y0279161D03*
X0218138Y0279220D03*
X0218138Y0279280D03*
X0218138Y0279339D03*
X0218138Y0279398D03*
X0218138Y0279457D03*
X0218138Y0279516D03*
X0218138Y0279575D03*
X0218138Y0279634D03*
X0218138Y0279693D03*
X0218138Y0279752D03*
X0218138Y0279811D03*
X0218138Y0279870D03*
X0218138Y0279929D03*
X0218138Y0279988D03*
X0218138Y0280047D03*
X0218138Y0280106D03*
X0218138Y0280165D03*
X0218138Y0280224D03*
X0218138Y0280283D03*
X0218138Y0280343D03*
X0218138Y0280402D03*
X0218138Y0280461D03*
X0218138Y0280520D03*
X0218138Y0280579D03*
X0218138Y0280638D03*
X0218138Y0280697D03*
X0218138Y0280756D03*
X0218138Y0280815D03*
X0218138Y0280874D03*
X0218138Y0280933D03*
X0218138Y0280992D03*
X0218138Y0281051D03*
X0218138Y0281110D03*
X0218138Y0281169D03*
X0218138Y0281228D03*
X0218138Y0281287D03*
X0218138Y0281346D03*
X0218138Y0282291D03*
X0218138Y0282350D03*
X0218138Y0282409D03*
X0220264Y0281346D03*
X0222862Y0282291D03*
X0222862Y0282350D03*
X0222862Y0282409D03*
X0224870Y0282409D03*
X0224870Y0282469D03*
X0229181Y0282409D03*
X0230480Y0282409D03*
X0230480Y0282350D03*
X0230480Y0282291D03*
X0230480Y0281406D03*
X0230480Y0281346D03*
X0230480Y0281287D03*
X0230480Y0281228D03*
X0230480Y0281169D03*
X0230480Y0281110D03*
X0230480Y0281051D03*
X0230480Y0280992D03*
X0230480Y0280933D03*
X0230480Y0280874D03*
X0230480Y0280815D03*
X0230480Y0280756D03*
X0230480Y0280697D03*
X0230480Y0280638D03*
X0230480Y0280579D03*
X0230480Y0280520D03*
X0230480Y0280461D03*
X0230480Y0280402D03*
X0230480Y0280343D03*
X0230480Y0280283D03*
X0230480Y0280224D03*
X0230480Y0280165D03*
X0230480Y0280106D03*
X0230480Y0280047D03*
X0230480Y0279988D03*
X0230480Y0279929D03*
X0230480Y0279870D03*
X0230480Y0279811D03*
X0230480Y0279752D03*
X0230480Y0279693D03*
X0230480Y0279634D03*
X0230480Y0279575D03*
X0230480Y0279516D03*
X0230480Y0279457D03*
X0230480Y0279398D03*
X0230480Y0279339D03*
X0230480Y0279280D03*
X0230480Y0279220D03*
X0230480Y0279161D03*
X0230480Y0279102D03*
X0230480Y0279043D03*
X0230480Y0278984D03*
X0230480Y0278925D03*
X0230480Y0278866D03*
X0230480Y0278807D03*
X0230480Y0278748D03*
X0230480Y0278689D03*
X0230480Y0278630D03*
X0230480Y0278571D03*
X0230480Y0278512D03*
X0230480Y0278453D03*
X0230480Y0278394D03*
X0230480Y0278335D03*
X0230480Y0278276D03*
X0230480Y0278217D03*
X0230480Y0278157D03*
X0232547Y0278984D03*
X0232547Y0279043D03*
X0232547Y0279102D03*
X0232547Y0279161D03*
X0232547Y0279220D03*
X0232547Y0279280D03*
X0232547Y0279339D03*
X0232547Y0279398D03*
X0232547Y0279457D03*
X0232547Y0279516D03*
X0232547Y0279575D03*
X0232547Y0279634D03*
X0232547Y0279693D03*
X0232547Y0279752D03*
X0232547Y0279811D03*
X0232547Y0279870D03*
X0232547Y0279929D03*
X0232547Y0279988D03*
X0232547Y0280047D03*
X0232547Y0280106D03*
X0232547Y0280165D03*
X0232547Y0280224D03*
X0232547Y0280283D03*
X0232547Y0280343D03*
X0232547Y0280402D03*
X0232547Y0280461D03*
X0232547Y0280520D03*
X0232547Y0280579D03*
X0232547Y0280638D03*
X0232547Y0280697D03*
X0232547Y0280756D03*
X0232547Y0280815D03*
X0232547Y0280874D03*
X0232547Y0280933D03*
X0232547Y0280992D03*
X0232547Y0281051D03*
X0232547Y0281110D03*
X0232547Y0281169D03*
X0232547Y0281228D03*
X0232547Y0281287D03*
X0232547Y0281346D03*
X0232547Y0281406D03*
X0232547Y0281465D03*
X0232547Y0281524D03*
X0232547Y0281583D03*
X0232547Y0281642D03*
X0232547Y0282587D03*
X0232547Y0282646D03*
X0232547Y0282705D03*
X0232547Y0282764D03*
X0232547Y0282823D03*
X0232547Y0282882D03*
X0232547Y0282941D03*
X0232547Y0283000D03*
X0232547Y0283059D03*
X0232547Y0283118D03*
X0232547Y0283177D03*
X0232547Y0283236D03*
X0232547Y0283295D03*
X0232547Y0283354D03*
X0232547Y0283413D03*
X0232547Y0283472D03*
X0232547Y0283531D03*
X0232547Y0283591D03*
X0232547Y0283650D03*
X0232547Y0283709D03*
X0232547Y0283768D03*
X0232547Y0283827D03*
X0232547Y0283886D03*
X0232547Y0283945D03*
X0232547Y0284004D03*
X0235205Y0280579D03*
X0235205Y0280520D03*
X0235205Y0280461D03*
X0235205Y0280402D03*
X0235205Y0280343D03*
X0235205Y0280283D03*
X0235205Y0280224D03*
X0235205Y0280165D03*
X0235205Y0280106D03*
X0235205Y0280047D03*
X0237094Y0279929D03*
X0237094Y0280815D03*
X0237094Y0281051D03*
X0241346Y0279634D03*
X0244063Y0279988D03*
X0244063Y0280106D03*
X0244063Y0280165D03*
X0244063Y0280224D03*
X0244063Y0280283D03*
X0244063Y0280343D03*
X0244063Y0280402D03*
X0244063Y0280461D03*
X0244063Y0280520D03*
X0244063Y0280579D03*
X0247606Y0284004D03*
X0242528Y0286366D03*
X0239161Y0292154D03*
X0235913Y0292154D03*
X0230303Y0290264D03*
X0230244Y0290323D03*
X0230244Y0290382D03*
X0230185Y0290441D03*
X0230185Y0290500D03*
X0230185Y0290559D03*
X0229063Y0291799D03*
X0225638Y0290559D03*
X0225579Y0290441D03*
X0225579Y0290382D03*
X0225520Y0290264D03*
X0225520Y0288256D03*
X0225579Y0288197D03*
X0225579Y0288138D03*
X0225579Y0288079D03*
X0225638Y0288020D03*
X0225638Y0287961D03*
X0226524Y0286839D03*
X0229240Y0286898D03*
X0230185Y0288020D03*
X0230185Y0288079D03*
X0230244Y0288197D03*
X0220264Y0293276D03*
X0215539Y0281169D03*
X0220205Y0278157D03*
X0222862Y0278157D03*
X0224870Y0278157D03*
D218*
X0238541Y0282409D03*
X0242675Y0282232D03*
X0212203Y0282232D03*
X0211789Y0278157D03*
D219*
X0211789Y0278217D03*
X0205234Y0278276D03*
X0204880Y0282350D03*
X0233344Y0282469D03*
X0233522Y0278217D03*
X0242675Y0278453D03*
X0247931Y0292154D03*
D220*
X0227911Y0292035D03*
X0212203Y0282173D03*
X0205293Y0278217D03*
D221*
X0208364Y0281701D03*
X0221179Y0282291D03*
X0227852Y0286425D03*
X0229919Y0281701D03*
X0237656Y0280697D03*
X0242675Y0278276D03*
X0247754Y0283945D03*
D222*
X0242675Y0278571D03*
X0238364Y0282114D03*
X0233463Y0282350D03*
X0233522Y0278276D03*
X0247872Y0292094D03*
X0212203Y0281996D03*
X0211907Y0278335D03*
X0205175Y0278453D03*
X0204998Y0282114D03*
D223*
X0205205Y0280461D03*
X0205028Y0280343D03*
X0204850Y0280224D03*
X0214594Y0286071D03*
X0226583Y0278276D03*
D224*
X0233404Y0282409D03*
X0238423Y0282232D03*
X0237537Y0286602D03*
X0242675Y0278512D03*
X0247813Y0283886D03*
X0227852Y0286543D03*
X0227911Y0291976D03*
X0211848Y0278276D03*
X0205234Y0278335D03*
X0204939Y0282232D03*
D225*
X0208276Y0282232D03*
X0208276Y0282173D03*
X0208276Y0282114D03*
X0208276Y0282055D03*
X0208276Y0281996D03*
X0208276Y0281937D03*
X0208276Y0281878D03*
X0227350Y0286307D03*
X0229831Y0282232D03*
X0229831Y0282173D03*
X0229831Y0282114D03*
X0229831Y0282055D03*
X0229831Y0281996D03*
X0237508Y0286484D03*
X0242705Y0278335D03*
D226*
X0242705Y0278748D03*
X0242705Y0281819D03*
X0238157Y0280283D03*
X0238157Y0278394D03*
X0238157Y0278335D03*
X0233610Y0278453D03*
X0233610Y0282114D03*
X0227823Y0286661D03*
X0212055Y0278571D03*
X0247724Y0283768D03*
X0247783Y0286543D03*
X0247783Y0291976D03*
D227*
X0247872Y0286484D03*
X0247754Y0283827D03*
X0242675Y0281937D03*
X0242675Y0278630D03*
X0238305Y0281996D03*
X0233522Y0282291D03*
X0233522Y0278335D03*
X0227852Y0286602D03*
X0227911Y0291917D03*
X0212203Y0281937D03*
X0205057Y0281937D03*
X0205057Y0281878D03*
X0205057Y0281819D03*
X0205116Y0278630D03*
X0205116Y0278571D03*
D228*
X0204909Y0282469D03*
X0216484Y0282291D03*
X0226583Y0278335D03*
X0247902Y0292213D03*
D229*
X0247961Y0286366D03*
X0242705Y0278394D03*
X0237803Y0280638D03*
X0233256Y0282528D03*
X0227823Y0286484D03*
X0212823Y0285539D03*
X0204850Y0282409D03*
D230*
X0205057Y0278866D03*
X0205057Y0278807D03*
X0212026Y0278512D03*
X0212203Y0281878D03*
X0233581Y0282173D03*
X0238246Y0281819D03*
X0238246Y0281760D03*
X0238128Y0280343D03*
X0242675Y0281878D03*
X0247754Y0280579D03*
X0247754Y0280461D03*
X0247754Y0280402D03*
X0237537Y0286720D03*
X0233581Y0278394D03*
D231*
X0233699Y0278630D03*
X0233699Y0278689D03*
X0233699Y0281937D03*
X0238246Y0280047D03*
X0238246Y0278630D03*
X0238246Y0278571D03*
X0242675Y0281701D03*
X0247636Y0280697D03*
X0247695Y0286661D03*
X0237537Y0286839D03*
X0226022Y0278394D03*
X0221711Y0282232D03*
X0216986Y0282173D03*
X0212203Y0281701D03*
X0212144Y0278866D03*
X0212144Y0278807D03*
D232*
X0211937Y0278394D03*
X0205146Y0278512D03*
X0205028Y0281996D03*
X0205028Y0282055D03*
X0237508Y0286661D03*
X0238335Y0282055D03*
X0238039Y0280461D03*
X0242705Y0281996D03*
D233*
X0242705Y0282055D03*
X0238394Y0282173D03*
X0237980Y0280520D03*
X0247902Y0286425D03*
X0212232Y0282055D03*
X0204969Y0282173D03*
X0205205Y0278394D03*
D234*
X0212085Y0278630D03*
X0212085Y0278689D03*
X0212203Y0281760D03*
X0212203Y0281819D03*
X0227911Y0291858D03*
X0233640Y0282055D03*
X0238187Y0280224D03*
X0238187Y0278453D03*
X0242675Y0278807D03*
X0247695Y0280638D03*
X0247754Y0286602D03*
X0237537Y0286780D03*
X0233640Y0278512D03*
D235*
X0233728Y0278748D03*
X0233728Y0281819D03*
X0233728Y0281878D03*
X0238276Y0278807D03*
X0238276Y0278748D03*
X0238276Y0278689D03*
X0247606Y0283650D03*
X0247665Y0286720D03*
X0247665Y0291858D03*
X0226051Y0278512D03*
X0226051Y0278453D03*
X0221681Y0282114D03*
X0221681Y0282173D03*
X0216957Y0282114D03*
D236*
X0211996Y0278453D03*
X0205087Y0278689D03*
X0205087Y0278748D03*
X0205087Y0281760D03*
X0227173Y0292213D03*
X0233551Y0282232D03*
X0238276Y0281937D03*
X0238276Y0281878D03*
X0238098Y0280402D03*
X0242705Y0278689D03*
X0247783Y0280520D03*
X0247843Y0292035D03*
D237*
X0247724Y0291917D03*
X0247665Y0283709D03*
X0242705Y0281760D03*
X0242705Y0278866D03*
X0238217Y0278512D03*
X0238217Y0280106D03*
X0238217Y0280165D03*
X0233669Y0278571D03*
X0233669Y0281996D03*
X0217016Y0282232D03*
X0212114Y0278748D03*
D238*
X0216927Y0281996D03*
X0216927Y0282055D03*
X0221652Y0282055D03*
X0221652Y0281996D03*
X0226081Y0278630D03*
X0226081Y0278571D03*
X0233758Y0278807D03*
X0233758Y0278866D03*
X0233758Y0281760D03*
X0237537Y0286898D03*
X0247577Y0283591D03*
X0247577Y0280756D03*
X0247636Y0291799D03*
D239*
X0247606Y0291740D03*
X0247606Y0286780D03*
X0247547Y0280815D03*
X0237508Y0286957D03*
X0226110Y0278748D03*
X0226110Y0278689D03*
X0221622Y0281878D03*
X0221622Y0281937D03*
X0216898Y0281937D03*
X0216898Y0281878D03*
X0216898Y0281819D03*
D240*
X0216868Y0281760D03*
X0216868Y0281701D03*
X0221593Y0281701D03*
X0221593Y0281760D03*
X0221593Y0281819D03*
X0226140Y0278866D03*
X0226140Y0278807D03*
X0247518Y0280874D03*
X0247518Y0283531D03*
X0247577Y0286839D03*
X0247577Y0291681D03*
D241*
X0246071Y0291150D03*
X0246012Y0287429D03*
X0246071Y0281346D03*
X0243709Y0278984D03*
X0239339Y0278866D03*
X0237272Y0278925D03*
X0234850Y0278925D03*
X0227232Y0278925D03*
X0225047Y0279043D03*
X0226346Y0287134D03*
X0226346Y0287193D03*
X0229417Y0287193D03*
X0229476Y0287252D03*
X0229417Y0291386D03*
X0226346Y0291327D03*
X0226287Y0291268D03*
X0214594Y0286012D03*
X0205854Y0281051D03*
D242*
X0213059Y0278925D03*
X0217843Y0281642D03*
X0222567Y0281642D03*
X0221327Y0287902D03*
X0237390Y0278866D03*
X0241819Y0278925D03*
X0246189Y0281287D03*
X0247843Y0286307D03*
D243*
X0246159Y0283000D03*
X0242675Y0282469D03*
X0243561Y0278925D03*
X0246219Y0291268D03*
X0225136Y0278984D03*
X0212203Y0282469D03*
X0205766Y0280933D03*
X0205707Y0280874D03*
X0204348Y0279811D03*
X0204289Y0279752D03*
X0204939Y0282528D03*
D244*
X0206327Y0278925D03*
X0209634Y0286012D03*
X0209811Y0285953D03*
X0210047Y0285894D03*
X0213413Y0286189D03*
X0215539Y0285894D03*
X0220028Y0287724D03*
X0222626Y0287724D03*
X0225165Y0288492D03*
X0225165Y0288551D03*
X0225106Y0288728D03*
X0225106Y0288787D03*
X0225106Y0289732D03*
X0225106Y0289791D03*
X0225165Y0289969D03*
X0225165Y0290028D03*
X0225224Y0290146D03*
X0227173Y0290618D03*
X0227882Y0291445D03*
X0228650Y0290618D03*
X0230598Y0290146D03*
X0230598Y0290087D03*
X0230657Y0289969D03*
X0230657Y0289909D03*
X0230657Y0289850D03*
X0230657Y0288669D03*
X0230657Y0288610D03*
X0230657Y0288551D03*
X0230598Y0288433D03*
X0229181Y0287429D03*
X0227173Y0287902D03*
X0225992Y0286425D03*
X0222390Y0292921D03*
X0221031Y0292449D03*
X0219437Y0292449D03*
X0205382Y0291209D03*
X0233846Y0282587D03*
D245*
X0234821Y0281701D03*
X0237360Y0281701D03*
X0239250Y0279988D03*
X0241730Y0281642D03*
X0243679Y0281642D03*
X0246041Y0282941D03*
X0248581Y0283059D03*
X0246100Y0287370D03*
X0236297Y0287252D03*
X0229447Y0291327D03*
X0227911Y0287783D03*
X0226317Y0287252D03*
X0222656Y0281583D03*
X0217931Y0281583D03*
X0213148Y0281642D03*
X0211258Y0281642D03*
X0208719Y0281583D03*
X0205825Y0280992D03*
X0204230Y0279693D03*
X0213207Y0278984D03*
X0230274Y0281583D03*
D246*
X0229122Y0288315D03*
X0229240Y0288492D03*
X0229299Y0288610D03*
X0229358Y0288728D03*
X0229417Y0288906D03*
X0229417Y0288965D03*
X0229417Y0289024D03*
X0229476Y0289260D03*
X0229417Y0289496D03*
X0229417Y0289555D03*
X0229417Y0289614D03*
X0229417Y0289673D03*
X0229358Y0289791D03*
X0229299Y0289969D03*
X0229181Y0290146D03*
X0226583Y0290087D03*
X0226524Y0289969D03*
X0226465Y0289850D03*
X0226406Y0289732D03*
X0226406Y0289673D03*
X0226406Y0289614D03*
X0226346Y0289496D03*
X0226346Y0289437D03*
X0226346Y0289378D03*
X0226346Y0289319D03*
X0226346Y0289260D03*
X0226346Y0289201D03*
X0226346Y0289142D03*
X0226346Y0289083D03*
X0226406Y0288906D03*
X0226406Y0288846D03*
X0226465Y0288728D03*
X0226465Y0288669D03*
X0226524Y0288551D03*
X0222272Y0290382D03*
X0222154Y0290205D03*
X0222094Y0290146D03*
X0221563Y0289614D03*
X0221504Y0289555D03*
X0221445Y0289496D03*
X0221386Y0289437D03*
X0221327Y0289378D03*
X0221209Y0289319D03*
X0221150Y0289260D03*
X0221091Y0289201D03*
X0220913Y0289083D03*
X0220854Y0289024D03*
X0220736Y0288965D03*
X0220677Y0288906D03*
X0220500Y0288787D03*
X0220441Y0288728D03*
X0220264Y0288610D03*
X0220087Y0288492D03*
X0220028Y0288433D03*
X0219909Y0288374D03*
X0219850Y0288315D03*
X0219732Y0288256D03*
X0219673Y0288197D03*
X0219496Y0288079D03*
X0219319Y0287961D03*
X0219142Y0287843D03*
X0218965Y0287724D03*
X0218787Y0287606D03*
X0218610Y0287488D03*
X0218492Y0287429D03*
X0218315Y0287311D03*
X0217902Y0287075D03*
X0216898Y0290913D03*
X0217075Y0291031D03*
X0217252Y0291150D03*
X0217429Y0291268D03*
X0217488Y0291327D03*
X0217547Y0291386D03*
X0217665Y0291445D03*
X0217724Y0291504D03*
X0217783Y0291563D03*
X0217902Y0291622D03*
X0217961Y0291681D03*
X0218020Y0291740D03*
X0218197Y0291858D03*
X0218256Y0291917D03*
X0218374Y0291976D03*
X0217606Y0292508D03*
X0217429Y0292390D03*
X0217252Y0292272D03*
X0217193Y0292213D03*
X0217075Y0292154D03*
X0217016Y0292094D03*
X0216957Y0292035D03*
X0216898Y0291976D03*
X0216780Y0291917D03*
X0216720Y0291858D03*
X0216661Y0291799D03*
X0216602Y0291740D03*
X0216543Y0291681D03*
X0216484Y0291622D03*
X0216425Y0291563D03*
X0216248Y0291327D03*
X0212114Y0286780D03*
X0211937Y0286898D03*
X0211760Y0287016D03*
X0211701Y0287075D03*
X0211583Y0287134D03*
X0211524Y0287193D03*
X0211465Y0287252D03*
X0211406Y0287311D03*
X0211346Y0287370D03*
X0211110Y0287547D03*
X0211051Y0287606D03*
X0210992Y0287665D03*
X0210933Y0287724D03*
X0210579Y0288138D03*
X0210520Y0288197D03*
X0210461Y0288256D03*
X0210224Y0288551D03*
X0210047Y0288787D03*
X0209988Y0288846D03*
X0209870Y0289024D03*
X0209693Y0289260D03*
X0209575Y0289437D03*
X0209516Y0289496D03*
X0209398Y0289673D03*
X0209280Y0289850D03*
X0209161Y0290028D03*
X0209043Y0290205D03*
X0208925Y0290382D03*
X0208807Y0290559D03*
X0208689Y0290736D03*
X0208276Y0291327D03*
X0208157Y0291504D03*
X0208039Y0291681D03*
X0207921Y0291858D03*
X0207744Y0292094D03*
X0207626Y0292272D03*
X0207567Y0292331D03*
X0207449Y0292508D03*
X0207390Y0292567D03*
X0207213Y0292803D03*
X0207154Y0292862D03*
X0207094Y0292921D03*
X0206917Y0293157D03*
X0206858Y0293217D03*
X0206799Y0293276D03*
X0206740Y0293335D03*
X0206681Y0293394D03*
X0206622Y0293453D03*
X0206563Y0293512D03*
X0206504Y0293571D03*
X0206445Y0293630D03*
X0206386Y0293689D03*
X0206327Y0293748D03*
X0206268Y0293807D03*
X0206209Y0293866D03*
X0206150Y0293925D03*
X0206091Y0293984D03*
X0205913Y0294102D03*
X0205854Y0294161D03*
X0205795Y0294220D03*
X0205677Y0294280D03*
X0205618Y0294339D03*
X0205441Y0294457D03*
X0204201Y0295047D03*
X0205146Y0291091D03*
X0205087Y0291031D03*
X0205028Y0290913D03*
X0205146Y0289496D03*
X0205500Y0288787D03*
X0205559Y0288669D03*
X0205677Y0288492D03*
X0205736Y0288433D03*
X0205795Y0288374D03*
X0206150Y0288020D03*
X0206209Y0287961D03*
X0206268Y0287902D03*
X0206327Y0287843D03*
X0206386Y0287783D03*
X0206504Y0287724D03*
X0206563Y0287665D03*
X0206622Y0287606D03*
X0206799Y0287488D03*
X0206858Y0287429D03*
X0206976Y0287370D03*
X0207035Y0287311D03*
X0207213Y0287193D03*
X0207390Y0287075D03*
X0207508Y0287016D03*
X0210638Y0278984D03*
X0222390Y0291622D03*
X0222094Y0291917D03*
X0222035Y0291976D03*
X0221858Y0292094D03*
D247*
X0212232Y0279988D03*
X0237508Y0287134D03*
X0247488Y0287016D03*
X0247429Y0283354D03*
X0247429Y0283295D03*
X0247429Y0281051D03*
X0247488Y0291504D03*
D248*
X0247459Y0291445D03*
X0247459Y0287134D03*
X0247459Y0287075D03*
X0247400Y0283236D03*
X0247400Y0281169D03*
X0247400Y0281110D03*
X0212203Y0280638D03*
X0212203Y0280579D03*
X0212203Y0280520D03*
X0212203Y0280461D03*
X0212203Y0280402D03*
X0212203Y0280343D03*
X0212203Y0280283D03*
X0212203Y0280224D03*
X0212203Y0280165D03*
X0212203Y0280106D03*
X0212203Y0280047D03*
D249*
X0205441Y0280638D03*
X0204614Y0280047D03*
D250*
X0203699Y0281642D03*
X0207360Y0282587D03*
X0206061Y0288079D03*
X0206002Y0288138D03*
X0205943Y0288197D03*
X0205884Y0288256D03*
X0205825Y0288315D03*
X0205648Y0288551D03*
X0205589Y0288610D03*
X0205530Y0288728D03*
X0205470Y0288846D03*
X0205411Y0288906D03*
X0205411Y0288965D03*
X0205352Y0289024D03*
X0205352Y0289083D03*
X0205293Y0289142D03*
X0205293Y0289201D03*
X0205234Y0289260D03*
X0205234Y0289319D03*
X0205175Y0289378D03*
X0205175Y0289437D03*
X0205116Y0289555D03*
X0205116Y0289614D03*
X0205057Y0289673D03*
X0205057Y0289732D03*
X0205057Y0289791D03*
X0205057Y0289850D03*
X0204998Y0289909D03*
X0204998Y0289969D03*
X0204998Y0290028D03*
X0204998Y0290087D03*
X0204939Y0290205D03*
X0204939Y0290264D03*
X0204939Y0290323D03*
X0204939Y0290382D03*
X0204939Y0290441D03*
X0204939Y0290500D03*
X0204939Y0290559D03*
X0204939Y0290618D03*
X0204939Y0290677D03*
X0204998Y0290736D03*
X0204998Y0290795D03*
X0204998Y0290854D03*
X0205057Y0290972D03*
X0207242Y0292744D03*
X0207301Y0292685D03*
X0207360Y0292626D03*
X0207478Y0292449D03*
X0207537Y0292390D03*
X0207656Y0292213D03*
X0207715Y0292154D03*
X0207774Y0292035D03*
X0207833Y0291976D03*
X0207892Y0291917D03*
X0207951Y0291799D03*
X0208010Y0291740D03*
X0208069Y0291622D03*
X0208128Y0291563D03*
X0208187Y0291445D03*
X0208246Y0291386D03*
X0208305Y0291268D03*
X0208364Y0291209D03*
X0208423Y0291150D03*
X0208423Y0291091D03*
X0208482Y0291031D03*
X0208541Y0290972D03*
X0208541Y0290913D03*
X0208600Y0290854D03*
X0208659Y0290795D03*
X0208719Y0290677D03*
X0208778Y0290618D03*
X0208837Y0290500D03*
X0208896Y0290441D03*
X0208955Y0290323D03*
X0209014Y0290264D03*
X0209073Y0290146D03*
X0209132Y0290087D03*
X0209191Y0289969D03*
X0209250Y0289909D03*
X0209309Y0289791D03*
X0209368Y0289732D03*
X0209427Y0289614D03*
X0209486Y0289555D03*
X0209604Y0289378D03*
X0209663Y0289319D03*
X0209722Y0289201D03*
X0209781Y0289142D03*
X0209841Y0289083D03*
X0209900Y0288965D03*
X0209959Y0288906D03*
X0210077Y0288728D03*
X0210136Y0288669D03*
X0210195Y0288610D03*
X0210254Y0288492D03*
X0210313Y0288433D03*
X0210372Y0288374D03*
X0210431Y0288315D03*
X0210608Y0288079D03*
X0210667Y0288020D03*
X0210726Y0287961D03*
X0210785Y0287902D03*
X0210844Y0287843D03*
X0210904Y0287783D03*
X0211199Y0287488D03*
X0211258Y0287429D03*
X0216159Y0290795D03*
X0216100Y0290913D03*
X0216100Y0290972D03*
X0216100Y0291031D03*
X0216159Y0291091D03*
X0216159Y0291150D03*
X0216159Y0291209D03*
X0216219Y0291268D03*
X0216278Y0291386D03*
X0216337Y0291445D03*
X0216396Y0291504D03*
X0221652Y0289673D03*
X0221711Y0289732D03*
X0221770Y0289791D03*
X0221829Y0289850D03*
X0221888Y0289909D03*
X0221947Y0289969D03*
X0222006Y0290028D03*
X0222065Y0290087D03*
X0222183Y0290264D03*
X0222242Y0290323D03*
X0222301Y0290441D03*
X0222360Y0290500D03*
X0222360Y0290559D03*
X0222419Y0290618D03*
X0222419Y0290677D03*
X0222478Y0290736D03*
X0222478Y0290795D03*
X0222478Y0290854D03*
X0222537Y0290913D03*
X0222537Y0290972D03*
X0222537Y0291031D03*
X0222537Y0291091D03*
X0222537Y0291150D03*
X0222537Y0291209D03*
X0222537Y0291268D03*
X0222537Y0291327D03*
X0222478Y0291386D03*
X0222478Y0291445D03*
X0222478Y0291504D03*
X0222419Y0291563D03*
X0222360Y0291681D03*
X0222301Y0291740D03*
X0222242Y0291799D03*
X0222183Y0291858D03*
X0225667Y0288433D03*
X0227911Y0287134D03*
X0228915Y0282587D03*
X0247518Y0280343D03*
X0207065Y0292980D03*
X0207006Y0293039D03*
X0206947Y0293098D03*
X0206002Y0294043D03*
D251*
X0204909Y0282291D03*
X0212232Y0282114D03*
X0237921Y0280579D03*
X0238453Y0282291D03*
X0242705Y0282114D03*
D252*
X0237508Y0287016D03*
X0247547Y0286898D03*
X0247488Y0283472D03*
X0247488Y0280933D03*
X0247547Y0291622D03*
D253*
X0247518Y0291563D03*
X0247518Y0286957D03*
X0247459Y0283413D03*
X0247459Y0280992D03*
X0237537Y0287075D03*
D254*
X0247429Y0287193D03*
X0247370Y0283177D03*
X0247370Y0283118D03*
X0247370Y0281228D03*
X0247429Y0291386D03*
D255*
X0230539Y0289555D03*
X0230539Y0288965D03*
X0230126Y0287724D03*
X0230126Y0290795D03*
X0229181Y0291268D03*
X0227882Y0291622D03*
X0225638Y0290795D03*
X0225283Y0289555D03*
X0225283Y0288965D03*
X0225638Y0287724D03*
X0221386Y0287961D03*
X0222862Y0282528D03*
X0214417Y0285657D03*
X0211228Y0285657D03*
X0203965Y0281701D03*
X0219791Y0292508D03*
X0221268Y0293157D03*
D256*
X0237508Y0286543D03*
X0238512Y0282350D03*
X0242705Y0282173D03*
D257*
X0242705Y0282291D03*
X0238571Y0282469D03*
D258*
X0237537Y0286425D03*
X0242675Y0282350D03*
X0227852Y0292154D03*
X0220293Y0293217D03*
X0212203Y0282350D03*
D259*
X0207508Y0282528D03*
X0219319Y0293157D03*
X0225638Y0287665D03*
X0229181Y0287311D03*
X0230126Y0287665D03*
X0230598Y0289673D03*
X0229181Y0291209D03*
X0227882Y0291563D03*
X0229063Y0282528D03*
D260*
X0225785Y0286484D03*
X0225608Y0286543D03*
X0225431Y0286602D03*
X0227085Y0287961D03*
X0228620Y0287902D03*
X0228738Y0287961D03*
X0228738Y0290559D03*
X0229152Y0291091D03*
X0230156Y0290146D03*
X0226612Y0291091D03*
X0225667Y0290146D03*
X0223010Y0287606D03*
X0222833Y0287665D03*
X0219821Y0287665D03*
X0219644Y0287606D03*
X0219467Y0287547D03*
X0219289Y0287488D03*
X0216396Y0286366D03*
X0216219Y0286307D03*
X0216041Y0286248D03*
X0216100Y0286071D03*
X0215923Y0286012D03*
X0215746Y0285953D03*
X0213207Y0286248D03*
X0212203Y0282587D03*
X0209309Y0286130D03*
X0216337Y0290677D03*
X0218640Y0292980D03*
X0218817Y0293039D03*
X0219230Y0292390D03*
X0221238Y0292390D03*
X0204644Y0294870D03*
X0204467Y0294929D03*
X0204289Y0294988D03*
X0205057Y0282587D03*
X0242675Y0282587D03*
D261*
X0238364Y0282587D03*
X0230156Y0287547D03*
X0230096Y0287488D03*
X0230037Y0287429D03*
X0230628Y0288492D03*
X0230687Y0288728D03*
X0230687Y0288787D03*
X0230687Y0289732D03*
X0230687Y0289791D03*
X0230628Y0290028D03*
X0230156Y0290972D03*
X0228502Y0290677D03*
X0227321Y0290677D03*
X0225195Y0290087D03*
X0225136Y0289909D03*
X0225136Y0289850D03*
X0225136Y0288669D03*
X0225136Y0288610D03*
X0225195Y0288433D03*
X0226612Y0287429D03*
X0226199Y0286366D03*
X0227911Y0287075D03*
X0222419Y0287783D03*
X0223600Y0292626D03*
X0223069Y0292744D03*
X0222833Y0292803D03*
X0222596Y0292862D03*
X0222124Y0292980D03*
X0219053Y0293098D03*
X0215805Y0286189D03*
X0215333Y0285835D03*
X0247636Y0292272D03*
D262*
X0228886Y0290441D03*
X0228827Y0290500D03*
X0227055Y0290559D03*
X0226996Y0290500D03*
X0226878Y0290441D03*
X0226819Y0290382D03*
X0226760Y0290323D03*
X0226937Y0288079D03*
X0226996Y0288020D03*
X0228827Y0288020D03*
X0228886Y0288079D03*
X0225283Y0286661D03*
X0225106Y0286720D03*
X0224988Y0286780D03*
X0224870Y0286839D03*
X0224575Y0286957D03*
X0224457Y0287016D03*
X0224161Y0287134D03*
X0224043Y0287193D03*
X0223866Y0287252D03*
X0223748Y0287311D03*
X0223630Y0287370D03*
X0223453Y0287429D03*
X0223335Y0287488D03*
X0223157Y0287547D03*
X0219142Y0287429D03*
X0218965Y0287370D03*
X0218846Y0287311D03*
X0218728Y0287252D03*
X0218610Y0287193D03*
X0217961Y0286898D03*
X0217843Y0286839D03*
X0216839Y0286543D03*
X0216720Y0286484D03*
X0216839Y0286366D03*
X0216543Y0286425D03*
X0216543Y0286248D03*
X0216425Y0286189D03*
X0216248Y0286130D03*
X0213059Y0286307D03*
X0212882Y0286366D03*
X0212764Y0286425D03*
X0209457Y0286071D03*
X0209161Y0286189D03*
X0208984Y0286248D03*
X0208866Y0286307D03*
X0216366Y0282587D03*
X0221031Y0282587D03*
X0216661Y0290795D03*
X0218669Y0292154D03*
X0218787Y0292213D03*
X0218906Y0292272D03*
X0219083Y0292331D03*
X0218433Y0292921D03*
X0218315Y0292862D03*
X0221386Y0292331D03*
X0205028Y0294693D03*
X0204909Y0294752D03*
X0204791Y0294811D03*
D263*
X0210844Y0285717D03*
X0214801Y0285717D03*
X0216396Y0290736D03*
X0221593Y0293098D03*
X0223837Y0292567D03*
X0224132Y0292508D03*
X0224427Y0292449D03*
X0225785Y0291150D03*
X0225844Y0291209D03*
X0226612Y0291150D03*
X0225195Y0289673D03*
X0225195Y0288846D03*
X0225608Y0287606D03*
X0225726Y0287429D03*
X0225785Y0287370D03*
X0225844Y0287311D03*
X0226612Y0287370D03*
X0227911Y0287016D03*
X0230156Y0287606D03*
X0230628Y0288846D03*
X0230156Y0290913D03*
X0229919Y0291268D03*
X0222124Y0287843D03*
D264*
X0220264Y0287783D03*
X0215539Y0286130D03*
X0215067Y0285776D03*
X0213650Y0286130D03*
X0210520Y0285776D03*
X0210283Y0285835D03*
X0205382Y0291150D03*
X0221858Y0293039D03*
X0223335Y0292685D03*
X0225638Y0290972D03*
X0225638Y0290913D03*
X0225697Y0291031D03*
X0225756Y0291091D03*
X0227882Y0291504D03*
X0229181Y0291150D03*
X0229949Y0291209D03*
X0230008Y0291150D03*
X0230067Y0291091D03*
X0230126Y0291031D03*
X0228472Y0287843D03*
X0229181Y0287370D03*
X0229949Y0287311D03*
X0230008Y0287370D03*
X0227350Y0287843D03*
X0225697Y0287488D03*
X0225638Y0287547D03*
D265*
X0224722Y0286898D03*
X0224309Y0287075D03*
X0226612Y0288374D03*
X0226612Y0288433D03*
X0226553Y0288492D03*
X0226494Y0288610D03*
X0226435Y0288787D03*
X0226376Y0288965D03*
X0226376Y0289024D03*
X0226376Y0289555D03*
X0226435Y0289791D03*
X0226494Y0289909D03*
X0226553Y0290028D03*
X0226612Y0290146D03*
X0226671Y0290205D03*
X0226730Y0290264D03*
X0226671Y0288315D03*
X0226730Y0288256D03*
X0226789Y0288197D03*
X0226848Y0288138D03*
X0228974Y0288138D03*
X0229033Y0288197D03*
X0229093Y0288256D03*
X0229152Y0288374D03*
X0229211Y0288433D03*
X0229270Y0288551D03*
X0229329Y0288669D03*
X0229388Y0288787D03*
X0229388Y0288846D03*
X0229447Y0289083D03*
X0229447Y0289142D03*
X0229447Y0289201D03*
X0229447Y0289319D03*
X0229447Y0289378D03*
X0229447Y0289437D03*
X0229388Y0289732D03*
X0229329Y0289850D03*
X0229329Y0289909D03*
X0229270Y0290028D03*
X0229211Y0290087D03*
X0229152Y0290205D03*
X0229093Y0290264D03*
X0229033Y0290323D03*
X0228974Y0290382D03*
X0221947Y0292035D03*
X0221770Y0292154D03*
X0221652Y0292213D03*
X0221533Y0292272D03*
X0218581Y0292094D03*
X0218463Y0292035D03*
X0218108Y0291799D03*
X0217695Y0292567D03*
X0217813Y0292626D03*
X0217931Y0292685D03*
X0218049Y0292744D03*
X0218167Y0292803D03*
X0217518Y0292449D03*
X0217341Y0292331D03*
X0217341Y0291209D03*
X0217163Y0291091D03*
X0216986Y0290972D03*
X0216809Y0290854D03*
X0218876Y0287665D03*
X0218699Y0287547D03*
X0218404Y0287370D03*
X0218226Y0287252D03*
X0218108Y0287193D03*
X0217990Y0287134D03*
X0217813Y0287016D03*
X0217695Y0286957D03*
X0217577Y0286898D03*
X0217459Y0286839D03*
X0217341Y0286780D03*
X0217222Y0286720D03*
X0217104Y0286661D03*
X0216986Y0286602D03*
X0217104Y0286484D03*
X0216986Y0286425D03*
X0217222Y0286543D03*
X0217341Y0286602D03*
X0217459Y0286661D03*
X0217577Y0286720D03*
X0217695Y0286780D03*
X0218108Y0286957D03*
X0218226Y0287016D03*
X0218344Y0287075D03*
X0218463Y0287134D03*
X0219053Y0287783D03*
X0219230Y0287902D03*
X0219407Y0288020D03*
X0219585Y0288138D03*
X0220175Y0288551D03*
X0220352Y0288669D03*
X0220589Y0288846D03*
X0221002Y0289142D03*
X0216691Y0286307D03*
X0212616Y0286484D03*
X0212498Y0286543D03*
X0212439Y0286602D03*
X0212321Y0286661D03*
X0212203Y0286720D03*
X0212026Y0286839D03*
X0211848Y0286957D03*
X0208719Y0286366D03*
X0208600Y0286425D03*
X0208482Y0286484D03*
X0208364Y0286543D03*
X0208246Y0286602D03*
X0208128Y0286661D03*
X0208010Y0286720D03*
X0207892Y0286780D03*
X0207774Y0286839D03*
X0207715Y0286898D03*
X0207596Y0286957D03*
X0207301Y0287134D03*
X0207124Y0287252D03*
X0206711Y0287547D03*
X0205530Y0294398D03*
X0205352Y0294516D03*
X0205234Y0294575D03*
X0205116Y0294634D03*
D266*
X0204969Y0290146D03*
X0216130Y0290854D03*
X0226583Y0287488D03*
X0227882Y0290913D03*
D267*
X0242528Y0291327D03*
X0242528Y0292154D03*
D268*
X0242528Y0292094D03*
X0242528Y0292035D03*
X0242528Y0291976D03*
X0242528Y0291917D03*
X0242528Y0291858D03*
X0242528Y0291799D03*
X0242528Y0291740D03*
X0242528Y0291681D03*
X0242528Y0291622D03*
X0242528Y0291563D03*
X0242528Y0291504D03*
X0242528Y0291445D03*
X0242528Y0291386D03*
D269*
X0242528Y0292213D03*
D270*
X0087362Y0278181D02*
X0087362Y0275819D01*
X0082638Y0275819D02*
X0082638Y0278181D01*
X0077362Y0278181D02*
X0077362Y0275819D01*
X0072638Y0275819D02*
X0072638Y0278181D01*
X0072638Y0256181D02*
X0072638Y0253819D01*
X0077362Y0253819D02*
X0077362Y0256181D01*
X0082638Y0256181D02*
X0082638Y0253819D01*
X0087362Y0253819D02*
X0087362Y0256181D01*
M02*
