G75*
%MOIN*%
%OFA0B0*%
%FSLAX25Y25*%
%IPPOS*%
%LPD*%
%AMOC8*
5,1,8,0,0,1.08239X$1,22.5*
%
%ADD10C,0.12612*%
%ADD11R,0.07216X0.07216*%
%ADD12C,0.07216*%
%ADD13C,0.12611*%
%ADD14C,0.07000*%
%ADD15R,0.07531X0.07531*%
%ADD16C,0.08400*%
%ADD17C,0.14643*%
%ADD18OC8,0.08000*%
%ADD19C,0.07137*%
%ADD20C,0.07200*%
%ADD21C,0.13005*%
%ADD22C,0.08200*%
%ADD23C,0.06940*%
%ADD24C,0.13855*%
%ADD25OC8,0.06737*%
D10*
X0028000Y0037000D03*
X0028000Y0288465D03*
X0330000Y0288465D03*
X0330000Y0037000D03*
D11*
X0310992Y0084906D03*
X0310992Y0127906D03*
X0184906Y0057008D03*
X0048008Y0073094D03*
X0048008Y0116094D03*
X0048008Y0159094D03*
D12*
X0059819Y0159094D03*
X0059819Y0170906D03*
X0048008Y0170906D03*
X0048008Y0127906D03*
X0059819Y0127906D03*
X0059819Y0116094D03*
X0059819Y0084906D03*
X0048008Y0084906D03*
X0059819Y0073094D03*
X0173094Y0068819D03*
X0173094Y0057008D03*
X0184906Y0068819D03*
X0299181Y0073094D03*
X0310992Y0073094D03*
X0299181Y0084906D03*
X0299181Y0116094D03*
X0310992Y0116094D03*
X0299181Y0127906D03*
D13*
X0328000Y0122000D03*
X0328000Y0079000D03*
X0179000Y0040000D03*
X0031000Y0079000D03*
X0031000Y0122000D03*
X0031000Y0165000D03*
D14*
X0035000Y0206000D03*
X0045000Y0206000D03*
X0055000Y0206000D03*
X0065000Y0206000D03*
X0075000Y0206000D03*
X0085000Y0206000D03*
X0095000Y0206000D03*
X0105000Y0206000D03*
X0115000Y0206000D03*
X0125000Y0206000D03*
X0135000Y0206000D03*
X0145000Y0206000D03*
X0155000Y0206000D03*
X0165000Y0206000D03*
X0175000Y0206000D03*
X0185000Y0206000D03*
X0195000Y0206000D03*
X0205000Y0206000D03*
X0215000Y0206000D03*
X0225000Y0206000D03*
X0235000Y0206000D03*
X0245000Y0206000D03*
X0255000Y0206000D03*
X0255000Y0266000D03*
X0245000Y0266000D03*
X0235000Y0266000D03*
X0225000Y0266000D03*
X0215000Y0266000D03*
X0205000Y0266000D03*
X0195000Y0266000D03*
X0185000Y0266000D03*
X0175000Y0266000D03*
X0165000Y0266000D03*
X0155000Y0266000D03*
X0145000Y0266000D03*
X0135000Y0266000D03*
X0125000Y0266000D03*
X0115000Y0266000D03*
X0105000Y0266000D03*
X0095000Y0266000D03*
X0085000Y0266000D03*
X0075000Y0266000D03*
X0065000Y0266000D03*
X0055000Y0266000D03*
X0045000Y0266000D03*
X0035000Y0266000D03*
X0025000Y0266000D03*
X0025000Y0206000D03*
D15*
X0224000Y0046000D03*
X0234000Y0046000D03*
X0244000Y0046000D03*
X0294000Y0046000D03*
X0304000Y0046000D03*
D16*
X0299000Y0261000D03*
X0289000Y0261000D03*
X0279000Y0261000D03*
X0269000Y0261000D03*
X0309000Y0261000D03*
X0319000Y0261000D03*
X0329000Y0261000D03*
X0339000Y0261000D03*
D17*
X0336000Y0156000D03*
X0272000Y0156000D03*
D18*
X0161000Y0279000D03*
X0161000Y0289000D03*
X0151000Y0289000D03*
X0141000Y0289000D03*
X0141000Y0279000D03*
X0151000Y0279000D03*
D19*
X0142000Y0062169D02*
X0142000Y0055831D01*
X0132000Y0055831D02*
X0132000Y0062169D01*
X0122000Y0062169D02*
X0122000Y0055831D01*
X0112000Y0055831D02*
X0112000Y0062169D01*
D20*
X0120800Y0086000D02*
X0127200Y0086000D01*
X0127200Y0096000D02*
X0120800Y0096000D01*
X0120800Y0106000D02*
X0127200Y0106000D01*
X0127200Y0116000D02*
X0120800Y0116000D01*
X0120800Y0126000D02*
X0127200Y0126000D01*
X0127200Y0136000D02*
X0120800Y0136000D01*
X0120800Y0146000D02*
X0127200Y0146000D01*
X0127200Y0156000D02*
X0120800Y0156000D01*
X0120800Y0166000D02*
X0127200Y0166000D01*
X0127200Y0176000D02*
X0120800Y0176000D01*
D21*
X0079000Y0170488D03*
X0079000Y0091748D03*
D22*
X0080000Y0218500D03*
X0090000Y0218500D03*
X0070000Y0218500D03*
X0060000Y0218500D03*
X0050000Y0218500D03*
X0193000Y0279000D03*
X0193000Y0289000D03*
D23*
X0292261Y0214780D02*
X0298401Y0214780D01*
X0298401Y0204937D02*
X0292261Y0204937D01*
X0292261Y0197063D02*
X0298401Y0197063D01*
X0298401Y0187220D02*
X0292261Y0187220D01*
D24*
X0306000Y0175134D03*
X0306000Y0226866D03*
D25*
X0237000Y0142000D03*
M02*
