G75*
%MOIN*%
%OFA0B0*%
%FSLAX25Y25*%
%IPPOS*%
%LPD*%
%AMOC8*
5,1,8,0,0,1.08239X$1,22.5*
%
%ADD10R,0.04724X0.07874*%
%ADD11R,0.03150X0.04724*%
%ADD12R,0.05512X0.11811*%
%ADD13R,0.07874X0.04724*%
%ADD14R,0.05000X0.05787*%
%ADD15R,0.03150X0.03543*%
%ADD16R,0.05512X0.04724*%
%ADD17R,0.16700X0.15000*%
%ADD18R,0.02362X0.08661*%
%ADD19R,0.04724X0.03150*%
%ADD20R,0.04724X0.05512*%
%ADD21R,0.03543X0.03150*%
%ADD22R,0.05512X0.05512*%
%ADD23R,0.06299X0.15354*%
D10*
X0171701Y0191000D03*
X0184299Y0191000D03*
X0060299Y0279000D03*
X0047701Y0279000D03*
D11*
X0048457Y0291000D03*
X0055543Y0291000D03*
X0149457Y0191000D03*
X0156543Y0191000D03*
X0186457Y0166000D03*
X0193543Y0166000D03*
X0163543Y0148000D03*
X0156457Y0148000D03*
X0170457Y0141000D03*
X0177543Y0141000D03*
X0183457Y0141000D03*
X0190543Y0141000D03*
X0221457Y0164000D03*
X0228543Y0164000D03*
X0228543Y0173000D03*
X0221457Y0173000D03*
X0221457Y0182000D03*
X0228543Y0182000D03*
X0248457Y0182000D03*
X0255543Y0182000D03*
X0255543Y0173000D03*
X0248457Y0173000D03*
X0248457Y0164000D03*
X0255543Y0164000D03*
X0277457Y0169000D03*
X0284543Y0169000D03*
X0284543Y0178000D03*
X0277457Y0178000D03*
X0280543Y0216000D03*
X0273457Y0216000D03*
X0273457Y0225000D03*
X0280543Y0225000D03*
X0273543Y0234000D03*
X0266457Y0234000D03*
X0302457Y0245000D03*
X0309543Y0245000D03*
X0316457Y0245000D03*
X0323543Y0245000D03*
X0257543Y0277000D03*
X0250457Y0277000D03*
X0244543Y0277000D03*
X0237457Y0277000D03*
X0108543Y0158000D03*
X0101457Y0158000D03*
X0088543Y0158000D03*
X0081457Y0158000D03*
X0084457Y0132000D03*
X0091543Y0132000D03*
X0099457Y0132000D03*
X0106543Y0132000D03*
X0159457Y0091000D03*
X0166543Y0091000D03*
X0166543Y0082000D03*
X0159457Y0082000D03*
X0190457Y0082000D03*
X0197543Y0082000D03*
X0197543Y0091000D03*
X0190457Y0091000D03*
X0193457Y0104000D03*
X0200543Y0104000D03*
X0223457Y0053000D03*
X0230543Y0053000D03*
X0271457Y0128000D03*
X0278543Y0128000D03*
X0279457Y0138000D03*
X0286543Y0138000D03*
X0294457Y0138000D03*
X0301543Y0138000D03*
D12*
X0278000Y0076449D03*
X0278000Y0057551D03*
D13*
X0257000Y0053701D03*
X0257000Y0066299D03*
D14*
X0232465Y0091000D03*
X0215535Y0091000D03*
D15*
X0182740Y0089937D03*
X0175260Y0089937D03*
X0179000Y0081669D03*
X0160000Y0131669D03*
X0156260Y0139937D03*
X0163740Y0139937D03*
X0186260Y0157937D03*
X0193740Y0157937D03*
X0190000Y0149669D03*
X0108740Y0148937D03*
X0101260Y0148937D03*
X0105000Y0140669D03*
X0088740Y0148937D03*
X0081260Y0148937D03*
X0085000Y0140669D03*
D16*
X0206000Y0053906D03*
X0206000Y0042094D03*
D17*
X0211400Y0070000D03*
X0236500Y0070000D03*
D18*
X0186500Y0103890D03*
X0181500Y0103890D03*
X0176500Y0103890D03*
X0171500Y0103890D03*
X0171500Y0130110D03*
X0176500Y0130110D03*
X0181500Y0130110D03*
X0186500Y0130110D03*
D19*
X0162000Y0124543D03*
X0162000Y0117457D03*
X0156000Y0159457D03*
X0156000Y0166543D03*
X0156000Y0173457D03*
X0156000Y0180543D03*
X0215000Y0156543D03*
X0215000Y0149457D03*
X0288000Y0113543D03*
X0288000Y0106457D03*
X0214000Y0046543D03*
X0214000Y0039457D03*
X0214000Y0033543D03*
X0214000Y0026457D03*
X0205000Y0026457D03*
X0205000Y0033543D03*
D20*
X0212094Y0288000D03*
X0223906Y0288000D03*
X0239094Y0288000D03*
X0250906Y0288000D03*
D21*
X0282937Y0204740D03*
X0282937Y0197260D03*
X0274669Y0201000D03*
X0222063Y0156740D03*
X0222063Y0149260D03*
X0230331Y0153000D03*
X0172331Y0163000D03*
X0164063Y0159260D03*
X0164063Y0166740D03*
X0164063Y0173260D03*
X0172331Y0177000D03*
X0164063Y0180740D03*
D22*
X0217520Y0192000D03*
X0232480Y0192000D03*
X0244520Y0192000D03*
X0259480Y0192000D03*
X0269520Y0244000D03*
X0284480Y0244000D03*
X0173000Y0276520D03*
X0173000Y0291480D03*
X0127480Y0290000D03*
X0127480Y0279000D03*
X0112520Y0279000D03*
X0112520Y0290000D03*
D23*
X0076000Y0032268D03*
X0076000Y0065732D03*
X0258000Y0087268D03*
X0258000Y0120732D03*
M02*
