%
M48
M72
T01C0.02362
T02C0.03740
T03C0.03800
T04C0.03937
T05C0.04000
T06C0.04016
T07C0.04331
T08C0.04724
T09C0.09055
T10C0.09843
T11C0.11811
T12C0.11812
T13C0.12205
%
T01
X89000Y66000
X99000Y74000
X105000Y72000
X105000Y93000
X100000Y110000
X93094Y116094
X80000Y104000
X74000Y132000
X74000Y145000
X95000Y145000
X96000Y138000
X95000Y161000
X110000Y165000
X106000Y179000
X85000Y181000
X75000Y189000
X128500Y185500
X144000Y186000
X149000Y174000
X144000Y166000
X137000Y166000
X164000Y189000
X177000Y182000
X180000Y175000
X180000Y167000
X170000Y170000
X179000Y152000
X169000Y150000
X145000Y141000
X162000Y107000
X173000Y79000
X206000Y87000
X250000Y109000
X264000Y105000
X277000Y100000
X268000Y87000
X257000Y74000
X287000Y62000
X234000Y27000
X199000Y27000
X290500Y126500
X272000Y138000
X265000Y134000
X253000Y156000
X236000Y153000
X215000Y144000
X210000Y137000
X212000Y171000
X210000Y181000
X194000Y181000
X194000Y173000
X200000Y196000
X178000Y220000
X170000Y219000
X163000Y219000
X163000Y237000
X145000Y248000
X170000Y253000
X200000Y248000
X220000Y248000
X227000Y248000
X240000Y258000
X261000Y243000
X240000Y229000
X227000Y229000
X220000Y229000
X210000Y229000
X200000Y229000
X241000Y183000
X235000Y174000
X262000Y182000
X268000Y169000
X279000Y190000
X267000Y207000
X278000Y210000
X267000Y221000
X294000Y245000
X300000Y238000
X313000Y251000
X331000Y235000
X306000Y198000
X295000Y146000
X138000Y220000
X105000Y243000
X97000Y243000
X134000Y285000
T02
X295331Y214780
X295331Y204937
X295331Y197063
X295331Y187220
T03
X255000Y206000
X245000Y206000
X235000Y206000
X225000Y206000
X215000Y206000
X205000Y206000
X195000Y206000
X185000Y206000
X175000Y206000
X165000Y206000
X155000Y206000
X145000Y206000
X135000Y206000
X125000Y206000
X115000Y206000
X105000Y206000
X95000Y206000
X85000Y206000
X75000Y206000
X65000Y206000
X55000Y206000
X45000Y206000
X35000Y206000
X25000Y206000
X25000Y266000
X35000Y266000
X45000Y266000
X55000Y266000
X65000Y266000
X75000Y266000
X85000Y266000
X95000Y266000
X105000Y266000
X115000Y266000
X125000Y266000
X135000Y266000
X145000Y266000
X155000Y266000
X165000Y266000
X175000Y266000
X185000Y266000
X195000Y266000
X205000Y266000
X215000Y266000
X225000Y266000
X235000Y266000
X245000Y266000
X255000Y266000
T04
X269000Y261000
X279000Y261000
X289000Y261000
X299000Y261000
X309000Y261000
X319000Y261000
X329000Y261000
X339000Y261000
X237000Y142000
X142000Y59000
X132000Y59000
X122000Y59000
X112000Y59000
T05
X124000Y86000
X124000Y96000
X124000Y106000
X124000Y116000
X124000Y126000
X124000Y136000
X124000Y146000
X124000Y156000
X124000Y166000
X124000Y176000
X90000Y218500
X80000Y218500
X70000Y218500
X60000Y218500
X50000Y218500
X193000Y279000
X193000Y289000
T06
X59819Y170906
X48008Y170906
X48008Y159094
X59819Y159094
X59819Y127906
X48008Y127906
X48008Y116094
X59819Y116094
X59819Y84906
X48008Y84906
X48008Y73094
X59819Y73094
X173094Y68819
X173094Y57008
X184906Y57008
X184906Y68819
X299181Y73094
X310992Y73094
X310992Y84906
X299181Y84906
X299181Y116094
X310992Y116094
X310992Y127906
X299181Y127906
T07
X304000Y46000
X294000Y46000
X244000Y46000
X234000Y46000
X224000Y46000
T08
X161000Y279000
X161000Y289000
X151000Y289000
X141000Y289000
X141000Y279000
X151000Y279000
T09
X306000Y226866
X306000Y175134
T10
X336000Y156000
X272000Y156000
T11
X328000Y122000
X328000Y79000
X179000Y40000
X31000Y79000
X31000Y122000
X31000Y165000
T12
X28000Y37000
X28000Y288465
X330000Y288465
X330000Y37000
T13
X79000Y91748
X79000Y170488
M30
