G75*
%MOIN*%
%OFA0B0*%
%FSLAX25Y25*%
%IPPOS*%
%LPD*%
%AMOC8*
5,1,8,0,0,1.08239X$1,22.5*
%
%ADD10C,0.12612*%
%ADD11R,0.05524X0.08674*%
%ADD12R,0.03950X0.05524*%
%ADD13R,0.06312X0.12611*%
%ADD14R,0.08674X0.05524*%
%ADD15R,0.05800X0.06587*%
%ADD16R,0.03950X0.04343*%
%ADD17R,0.06312X0.05524*%
%ADD18R,0.17500X0.15800*%
%ADD19R,0.03162X0.09461*%
%ADD20R,0.07216X0.07216*%
%ADD21C,0.07216*%
%ADD22C,0.12611*%
%ADD23R,0.05524X0.03950*%
%ADD24C,0.07000*%
%ADD25R,0.05524X0.06312*%
%ADD26R,0.07531X0.07531*%
%ADD27C,0.08400*%
%ADD28C,0.14643*%
%ADD29R,0.04343X0.03950*%
%ADD30R,0.06312X0.06312*%
%ADD31OC8,0.08000*%
%ADD32C,0.07137*%
%ADD33R,0.07099X0.16154*%
%ADD34C,0.07200*%
%ADD35C,0.13005*%
%ADD36C,0.08200*%
%ADD37C,0.06940*%
%ADD38C,0.13855*%
%ADD39OC8,0.06737*%
D10*
X0028000Y0037000D03*
X0028000Y0288465D03*
X0330000Y0288465D03*
X0330000Y0037000D03*
D11*
X0184299Y0191000D03*
X0171701Y0191000D03*
X0060299Y0279000D03*
X0047701Y0279000D03*
D12*
X0048457Y0291000D03*
X0055543Y0291000D03*
X0149457Y0191000D03*
X0156543Y0191000D03*
X0186457Y0166000D03*
X0193543Y0166000D03*
X0163543Y0148000D03*
X0156457Y0148000D03*
X0170457Y0141000D03*
X0177543Y0141000D03*
X0183457Y0141000D03*
X0190543Y0141000D03*
X0221457Y0164000D03*
X0228543Y0164000D03*
X0228543Y0173000D03*
X0221457Y0173000D03*
X0221457Y0182000D03*
X0228543Y0182000D03*
X0248457Y0182000D03*
X0255543Y0182000D03*
X0255543Y0173000D03*
X0248457Y0173000D03*
X0248457Y0164000D03*
X0255543Y0164000D03*
X0277457Y0169000D03*
X0284543Y0169000D03*
X0284543Y0178000D03*
X0277457Y0178000D03*
X0280543Y0216000D03*
X0273457Y0216000D03*
X0273457Y0225000D03*
X0280543Y0225000D03*
X0273543Y0234000D03*
X0266457Y0234000D03*
X0302457Y0245000D03*
X0309543Y0245000D03*
X0316457Y0245000D03*
X0323543Y0245000D03*
X0257543Y0277000D03*
X0250457Y0277000D03*
X0244543Y0277000D03*
X0237457Y0277000D03*
X0108543Y0158000D03*
X0101457Y0158000D03*
X0088543Y0158000D03*
X0081457Y0158000D03*
X0084457Y0132000D03*
X0091543Y0132000D03*
X0099457Y0132000D03*
X0106543Y0132000D03*
X0159457Y0091000D03*
X0166543Y0091000D03*
X0166543Y0082000D03*
X0159457Y0082000D03*
X0190457Y0082000D03*
X0197543Y0082000D03*
X0197543Y0091000D03*
X0190457Y0091000D03*
X0193457Y0104000D03*
X0200543Y0104000D03*
X0223457Y0053000D03*
X0230543Y0053000D03*
X0271457Y0128000D03*
X0278543Y0128000D03*
X0279457Y0138000D03*
X0286543Y0138000D03*
X0294457Y0138000D03*
X0301543Y0138000D03*
D13*
X0278000Y0076449D03*
X0278000Y0057551D03*
D14*
X0257000Y0053701D03*
X0257000Y0066299D03*
D15*
X0232465Y0091000D03*
X0215535Y0091000D03*
D16*
X0182740Y0089937D03*
X0175260Y0089937D03*
X0179000Y0081669D03*
X0160000Y0131669D03*
X0156260Y0139937D03*
X0163740Y0139937D03*
X0186260Y0157937D03*
X0193740Y0157937D03*
X0190000Y0149669D03*
X0108740Y0148937D03*
X0101260Y0148937D03*
X0105000Y0140669D03*
X0088740Y0148937D03*
X0081260Y0148937D03*
X0085000Y0140669D03*
D17*
X0206000Y0053906D03*
X0206000Y0042094D03*
D18*
X0211400Y0070000D03*
X0236500Y0070000D03*
D19*
X0186500Y0103890D03*
X0181500Y0103890D03*
X0176500Y0103890D03*
X0171500Y0103890D03*
X0171500Y0130110D03*
X0176500Y0130110D03*
X0181500Y0130110D03*
X0186500Y0130110D03*
D20*
X0184906Y0057008D03*
X0310992Y0084906D03*
X0310992Y0127906D03*
X0048008Y0116094D03*
X0048008Y0073094D03*
X0048008Y0159094D03*
D21*
X0059819Y0159094D03*
X0059819Y0170906D03*
X0048008Y0170906D03*
X0048008Y0127906D03*
X0059819Y0127906D03*
X0059819Y0116094D03*
X0059819Y0084906D03*
X0048008Y0084906D03*
X0059819Y0073094D03*
X0173094Y0068819D03*
X0173094Y0057008D03*
X0184906Y0068819D03*
X0299181Y0073094D03*
X0310992Y0073094D03*
X0299181Y0084906D03*
X0299181Y0116094D03*
X0310992Y0116094D03*
X0299181Y0127906D03*
D22*
X0328000Y0122000D03*
X0328000Y0079000D03*
X0179000Y0040000D03*
X0031000Y0079000D03*
X0031000Y0122000D03*
X0031000Y0165000D03*
D23*
X0156000Y0166543D03*
X0156000Y0173457D03*
X0156000Y0180543D03*
X0156000Y0159457D03*
X0162000Y0124543D03*
X0162000Y0117457D03*
X0215000Y0149457D03*
X0215000Y0156543D03*
X0288000Y0113543D03*
X0288000Y0106457D03*
X0214000Y0046543D03*
X0214000Y0039457D03*
X0214000Y0033543D03*
X0214000Y0026457D03*
X0205000Y0026457D03*
X0205000Y0033543D03*
D24*
X0205000Y0206000D03*
X0195000Y0206000D03*
X0185000Y0206000D03*
X0175000Y0206000D03*
X0165000Y0206000D03*
X0155000Y0206000D03*
X0145000Y0206000D03*
X0135000Y0206000D03*
X0125000Y0206000D03*
X0115000Y0206000D03*
X0105000Y0206000D03*
X0095000Y0206000D03*
X0085000Y0206000D03*
X0075000Y0206000D03*
X0065000Y0206000D03*
X0055000Y0206000D03*
X0045000Y0206000D03*
X0035000Y0206000D03*
X0025000Y0206000D03*
X0025000Y0266000D03*
X0035000Y0266000D03*
X0045000Y0266000D03*
X0055000Y0266000D03*
X0065000Y0266000D03*
X0075000Y0266000D03*
X0085000Y0266000D03*
X0095000Y0266000D03*
X0105000Y0266000D03*
X0115000Y0266000D03*
X0125000Y0266000D03*
X0135000Y0266000D03*
X0145000Y0266000D03*
X0155000Y0266000D03*
X0165000Y0266000D03*
X0175000Y0266000D03*
X0185000Y0266000D03*
X0195000Y0266000D03*
X0205000Y0266000D03*
X0215000Y0266000D03*
X0225000Y0266000D03*
X0235000Y0266000D03*
X0245000Y0266000D03*
X0255000Y0266000D03*
X0255000Y0206000D03*
X0245000Y0206000D03*
X0235000Y0206000D03*
X0225000Y0206000D03*
X0215000Y0206000D03*
D25*
X0212094Y0288000D03*
X0223906Y0288000D03*
X0239094Y0288000D03*
X0250906Y0288000D03*
D26*
X0244000Y0046000D03*
X0234000Y0046000D03*
X0224000Y0046000D03*
X0294000Y0046000D03*
X0304000Y0046000D03*
D27*
X0299000Y0261000D03*
X0289000Y0261000D03*
X0279000Y0261000D03*
X0269000Y0261000D03*
X0309000Y0261000D03*
X0319000Y0261000D03*
X0329000Y0261000D03*
X0339000Y0261000D03*
D28*
X0336000Y0156000D03*
X0272000Y0156000D03*
D29*
X0230331Y0153000D03*
X0222063Y0149260D03*
X0222063Y0156740D03*
X0172331Y0163000D03*
X0164063Y0159260D03*
X0164063Y0166740D03*
X0164063Y0173260D03*
X0172331Y0177000D03*
X0164063Y0180740D03*
X0274669Y0201000D03*
X0282937Y0197260D03*
X0282937Y0204740D03*
D30*
X0259480Y0192000D03*
X0244520Y0192000D03*
X0232480Y0192000D03*
X0217520Y0192000D03*
X0269520Y0244000D03*
X0284480Y0244000D03*
X0173000Y0276520D03*
X0173000Y0291480D03*
X0127480Y0290000D03*
X0127480Y0279000D03*
X0112520Y0279000D03*
X0112520Y0290000D03*
D31*
X0141000Y0289000D03*
X0151000Y0289000D03*
X0151000Y0279000D03*
X0141000Y0279000D03*
X0161000Y0279000D03*
X0161000Y0289000D03*
D32*
X0142000Y0062169D02*
X0142000Y0055831D01*
X0132000Y0055831D02*
X0132000Y0062169D01*
X0122000Y0062169D02*
X0122000Y0055831D01*
X0112000Y0055831D02*
X0112000Y0062169D01*
D33*
X0076000Y0065732D03*
X0076000Y0032268D03*
X0258000Y0087268D03*
X0258000Y0120732D03*
D34*
X0127200Y0116000D02*
X0120800Y0116000D01*
X0120800Y0106000D02*
X0127200Y0106000D01*
X0127200Y0096000D02*
X0120800Y0096000D01*
X0120800Y0086000D02*
X0127200Y0086000D01*
X0127200Y0126000D02*
X0120800Y0126000D01*
X0120800Y0136000D02*
X0127200Y0136000D01*
X0127200Y0146000D02*
X0120800Y0146000D01*
X0120800Y0156000D02*
X0127200Y0156000D01*
X0127200Y0166000D02*
X0120800Y0166000D01*
X0120800Y0176000D02*
X0127200Y0176000D01*
D35*
X0079000Y0170488D03*
X0079000Y0091748D03*
D36*
X0080000Y0218500D03*
X0090000Y0218500D03*
X0070000Y0218500D03*
X0060000Y0218500D03*
X0050000Y0218500D03*
X0193000Y0279000D03*
X0193000Y0289000D03*
D37*
X0292261Y0214780D02*
X0298401Y0214780D01*
X0298401Y0204937D02*
X0292261Y0204937D01*
X0292261Y0197063D02*
X0298401Y0197063D01*
X0298401Y0187220D02*
X0292261Y0187220D01*
D38*
X0306000Y0175134D03*
X0306000Y0226866D03*
D39*
X0237000Y0142000D03*
M02*
