G75*
%MOIN*%
%OFA0B0*%
%FSLAX25Y25*%
%IPPOS*%
%LPD*%
%AMOC8*
5,1,8,0,0,1.08239X$1,22.5*
%
%ADD10R,0.06416X0.06416*%
%ADD11C,0.06416*%
%ADD12C,0.06200*%
%ADD13OC8,0.07200*%
%ADD14C,0.06337*%
%ADD15C,0.06400*%
%ADD16C,0.07400*%
%ADD17R,0.04724X0.03150*%
%ADD18C,0.06337*%
%ADD19R,0.06337X0.06337*%
%ADD20R,0.07400X0.07400*%
%ADD21C,0.02000*%
%ADD22OC8,0.04165*%
%ADD23OC8,0.06600*%
%ADD24C,0.06000*%
%ADD25C,0.04165*%
%ADD26C,0.03000*%
%ADD27C,0.05000*%
D10*
X0048008Y0073094D03*
X0048008Y0116094D03*
X0048008Y0159094D03*
X0184906Y0057008D03*
X0310992Y0084906D03*
X0310992Y0127906D03*
X0310992Y0170906D03*
D11*
X0299181Y0170906D03*
X0299181Y0159094D03*
X0310992Y0159094D03*
X0299181Y0127906D03*
X0299181Y0116094D03*
X0310992Y0116094D03*
X0299181Y0084906D03*
X0299181Y0073094D03*
X0310992Y0073094D03*
X0184906Y0068819D03*
X0173094Y0068819D03*
X0173094Y0057008D03*
X0059819Y0073094D03*
X0059819Y0084906D03*
X0048008Y0084906D03*
X0059819Y0116094D03*
X0059819Y0127906D03*
X0048008Y0127906D03*
X0059819Y0159094D03*
X0059819Y0170906D03*
X0048008Y0170906D03*
D12*
X0045000Y0206000D03*
X0035000Y0206000D03*
X0025000Y0206000D03*
X0055000Y0206000D03*
X0065000Y0206000D03*
X0075000Y0206000D03*
X0085000Y0206000D03*
X0095000Y0206000D03*
X0105000Y0206000D03*
X0115000Y0206000D03*
X0125000Y0206000D03*
X0135000Y0206000D03*
X0145000Y0206000D03*
X0155000Y0206000D03*
X0165000Y0206000D03*
X0175000Y0206000D03*
X0185000Y0206000D03*
X0195000Y0206000D03*
X0205000Y0206000D03*
X0215000Y0206000D03*
X0225000Y0206000D03*
X0235000Y0206000D03*
X0245000Y0206000D03*
X0255000Y0206000D03*
X0255000Y0266000D03*
X0245000Y0266000D03*
X0235000Y0266000D03*
X0225000Y0266000D03*
X0215000Y0266000D03*
X0205000Y0266000D03*
X0195000Y0266000D03*
X0185000Y0266000D03*
X0175000Y0266000D03*
X0165000Y0266000D03*
X0155000Y0266000D03*
X0145000Y0266000D03*
X0135000Y0266000D03*
X0125000Y0266000D03*
X0115000Y0266000D03*
X0105000Y0266000D03*
X0095000Y0266000D03*
X0085000Y0266000D03*
X0075000Y0266000D03*
X0065000Y0266000D03*
X0055000Y0266000D03*
X0045000Y0266000D03*
X0035000Y0266000D03*
X0025000Y0266000D03*
D13*
X0141000Y0279000D03*
X0151000Y0279000D03*
X0151000Y0289000D03*
X0141000Y0289000D03*
X0161000Y0289000D03*
X0161000Y0279000D03*
D14*
X0066000Y0227169D02*
X0066000Y0220831D01*
X0056000Y0220831D02*
X0056000Y0227169D01*
X0046000Y0227169D02*
X0046000Y0220831D01*
X0036000Y0220831D02*
X0036000Y0227169D01*
X0026000Y0227169D02*
X0026000Y0220831D01*
X0109000Y0068169D02*
X0109000Y0061831D01*
X0119000Y0061831D02*
X0119000Y0068169D01*
X0129000Y0068169D02*
X0129000Y0061831D01*
X0139000Y0061831D02*
X0139000Y0068169D01*
X0139000Y0041169D02*
X0139000Y0034831D01*
X0129000Y0034831D02*
X0129000Y0041169D01*
X0119000Y0041169D02*
X0119000Y0034831D01*
X0109000Y0034831D02*
X0109000Y0041169D01*
D15*
X0120800Y0086000D02*
X0127200Y0086000D01*
X0127200Y0096000D02*
X0120800Y0096000D01*
X0120800Y0106000D02*
X0127200Y0106000D01*
X0127200Y0116000D02*
X0120800Y0116000D01*
X0120800Y0126000D02*
X0127200Y0126000D01*
X0127200Y0136000D02*
X0120800Y0136000D01*
X0120800Y0146000D02*
X0127200Y0146000D01*
X0127200Y0156000D02*
X0120800Y0156000D01*
X0120800Y0166000D02*
X0127200Y0166000D01*
X0127200Y0176000D02*
X0120800Y0176000D01*
D16*
X0193000Y0279000D03*
X0193000Y0289000D03*
X0085000Y0292000D03*
X0075000Y0292000D03*
X0333000Y0236000D03*
X0333000Y0226000D03*
X0333000Y0216000D03*
D17*
X0085000Y0251457D03*
X0085000Y0258543D03*
X0075000Y0258543D03*
X0075000Y0251457D03*
X0075000Y0273457D03*
X0075000Y0280543D03*
X0085000Y0280543D03*
X0085000Y0273457D03*
D18*
X0217035Y0123898D03*
X0217035Y0108150D03*
X0217035Y0100276D03*
X0236996Y0100276D03*
X0236996Y0116024D03*
D19*
X0236996Y0108150D03*
D20*
X0333000Y0206000D03*
D21*
X0016000Y0060212D02*
X0016000Y0025000D01*
X0090212Y0025000D01*
X0084931Y0030281D01*
X0084200Y0032045D01*
X0084200Y0033955D01*
X0084200Y0055200D01*
X0022045Y0055200D01*
X0020281Y0055931D01*
X0016000Y0060212D01*
X0016000Y0058972D02*
X0017240Y0058972D01*
X0016000Y0056973D02*
X0019239Y0056973D01*
X0016000Y0054975D02*
X0084200Y0054975D01*
X0084200Y0052976D02*
X0016000Y0052976D01*
X0016000Y0050978D02*
X0084200Y0050978D01*
X0084200Y0048979D02*
X0016000Y0048979D01*
X0016000Y0046981D02*
X0084200Y0046981D01*
X0084200Y0044982D02*
X0034027Y0044982D01*
X0033611Y0045398D02*
X0029970Y0046906D01*
X0026030Y0046906D01*
X0022389Y0045398D01*
X0019602Y0042611D01*
X0018094Y0038970D01*
X0018094Y0035030D01*
X0019602Y0031389D01*
X0022389Y0028602D01*
X0026030Y0027094D01*
X0029970Y0027094D01*
X0033611Y0028602D01*
X0036398Y0031389D01*
X0037906Y0035030D01*
X0037906Y0038970D01*
X0036398Y0042611D01*
X0033611Y0045398D01*
X0036026Y0042984D02*
X0084200Y0042984D01*
X0084200Y0040985D02*
X0037071Y0040985D01*
X0037899Y0038987D02*
X0084200Y0038987D01*
X0084200Y0036988D02*
X0037906Y0036988D01*
X0037889Y0034990D02*
X0084200Y0034990D01*
X0084200Y0032991D02*
X0037062Y0032991D01*
X0036002Y0030993D02*
X0084636Y0030993D01*
X0086218Y0028994D02*
X0034003Y0028994D01*
X0021997Y0028994D02*
X0016000Y0028994D01*
X0016000Y0026996D02*
X0088216Y0026996D01*
X0095797Y0032991D02*
X0104384Y0032991D01*
X0104031Y0033843D02*
X0104788Y0032017D01*
X0105005Y0031800D01*
X0096988Y0031800D01*
X0093800Y0034988D01*
X0093800Y0072955D01*
X0093400Y0073922D01*
X0102178Y0082700D01*
X0117029Y0082700D01*
X0117968Y0081761D01*
X0119805Y0081000D01*
X0128195Y0081000D01*
X0130032Y0081761D01*
X0131439Y0083168D01*
X0131452Y0083200D01*
X0140557Y0083200D01*
X0141586Y0083626D01*
X0151374Y0093414D01*
X0151800Y0094443D01*
X0151800Y0104309D01*
X0152292Y0104801D01*
X0152883Y0106228D01*
X0152883Y0107772D01*
X0152292Y0109199D01*
X0151199Y0110292D01*
X0149772Y0110883D01*
X0148228Y0110883D01*
X0146801Y0110292D01*
X0145708Y0109199D01*
X0145117Y0107772D01*
X0145117Y0106228D01*
X0145708Y0104801D01*
X0146200Y0104309D01*
X0146200Y0096160D01*
X0138840Y0088800D01*
X0131452Y0088800D01*
X0131439Y0088832D01*
X0130032Y0090239D01*
X0128382Y0090922D01*
X0128418Y0090928D01*
X0129196Y0091181D01*
X0129925Y0091553D01*
X0130588Y0092034D01*
X0131166Y0092612D01*
X0131647Y0093275D01*
X0132019Y0094004D01*
X0132272Y0094782D01*
X0132400Y0095591D01*
X0132400Y0096000D01*
X0132400Y0096409D01*
X0132272Y0097218D01*
X0132019Y0097996D01*
X0131647Y0098725D01*
X0131166Y0099388D01*
X0130588Y0099966D01*
X0129925Y0100447D01*
X0129196Y0100819D01*
X0128418Y0101072D01*
X0128382Y0101078D01*
X0130032Y0101761D01*
X0131439Y0103168D01*
X0132200Y0105005D01*
X0132200Y0106995D01*
X0131439Y0108832D01*
X0130032Y0110239D01*
X0128195Y0111000D01*
X0130032Y0111761D01*
X0131439Y0113168D01*
X0132200Y0115005D01*
X0132200Y0116995D01*
X0131701Y0118200D01*
X0196557Y0118200D01*
X0197586Y0118626D01*
X0198374Y0119414D01*
X0205586Y0126626D01*
X0206374Y0127414D01*
X0206800Y0128443D01*
X0206800Y0171309D01*
X0207292Y0171801D01*
X0207883Y0173228D01*
X0207883Y0174772D01*
X0207292Y0176199D01*
X0206800Y0176691D01*
X0206800Y0182840D01*
X0221586Y0197626D01*
X0222374Y0198414D01*
X0222800Y0199443D01*
X0222800Y0201608D01*
X0224025Y0201100D01*
X0225975Y0201100D01*
X0227200Y0201608D01*
X0227200Y0184160D01*
X0225414Y0182374D01*
X0224626Y0181586D01*
X0224200Y0180557D01*
X0224200Y0146160D01*
X0223840Y0145800D01*
X0217691Y0145800D01*
X0217199Y0146292D01*
X0215772Y0146883D01*
X0214228Y0146883D01*
X0212801Y0146292D01*
X0211708Y0145199D01*
X0211117Y0143772D01*
X0211117Y0142228D01*
X0211708Y0140801D01*
X0212801Y0139708D01*
X0214228Y0139117D01*
X0215772Y0139117D01*
X0217199Y0139708D01*
X0217691Y0140200D01*
X0225557Y0140200D01*
X0226586Y0140626D01*
X0227374Y0141414D01*
X0229374Y0143414D01*
X0229800Y0144443D01*
X0229800Y0178840D01*
X0232374Y0181414D01*
X0232800Y0182443D01*
X0232800Y0201608D01*
X0234025Y0201100D01*
X0235975Y0201100D01*
X0237776Y0201846D01*
X0239154Y0203224D01*
X0239900Y0205025D01*
X0239900Y0206975D01*
X0239154Y0208776D01*
X0237776Y0210154D01*
X0235975Y0210900D01*
X0234025Y0210900D01*
X0232800Y0210392D01*
X0232800Y0211557D01*
X0232374Y0212586D01*
X0229800Y0215160D01*
X0229800Y0227309D01*
X0230292Y0227801D01*
X0230883Y0229228D01*
X0230883Y0230772D01*
X0230292Y0232199D01*
X0229199Y0233292D01*
X0227772Y0233883D01*
X0226228Y0233883D01*
X0224801Y0233292D01*
X0223708Y0232199D01*
X0223117Y0230772D01*
X0223117Y0229228D01*
X0223708Y0227801D01*
X0224200Y0227309D01*
X0224200Y0213443D01*
X0224626Y0212414D01*
X0226257Y0210783D01*
X0225975Y0210900D01*
X0224025Y0210900D01*
X0222800Y0210392D01*
X0222800Y0223309D01*
X0223292Y0223801D01*
X0223883Y0225228D01*
X0223883Y0226772D01*
X0223292Y0228199D01*
X0222199Y0229292D01*
X0220772Y0229883D01*
X0219228Y0229883D01*
X0217801Y0229292D01*
X0216708Y0228199D01*
X0216117Y0226772D01*
X0216117Y0225228D01*
X0216708Y0223801D01*
X0217200Y0223309D01*
X0217200Y0210392D01*
X0215975Y0210900D01*
X0214025Y0210900D01*
X0212800Y0210392D01*
X0212800Y0226309D01*
X0213292Y0226801D01*
X0213883Y0228228D01*
X0213883Y0229772D01*
X0213292Y0231199D01*
X0212199Y0232292D01*
X0210772Y0232883D01*
X0209228Y0232883D01*
X0207801Y0232292D01*
X0206708Y0231199D01*
X0206117Y0229772D01*
X0206117Y0228228D01*
X0206708Y0226801D01*
X0207200Y0226309D01*
X0207200Y0210392D01*
X0205975Y0210900D01*
X0204025Y0210900D01*
X0202224Y0210154D01*
X0200846Y0208776D01*
X0200100Y0206975D01*
X0200100Y0205025D01*
X0200846Y0203224D01*
X0202224Y0201846D01*
X0204025Y0201100D01*
X0205975Y0201100D01*
X0207200Y0201608D01*
X0207200Y0199160D01*
X0198414Y0190374D01*
X0197626Y0189586D01*
X0197200Y0188557D01*
X0197200Y0173191D01*
X0196708Y0172699D01*
X0196117Y0171272D01*
X0196117Y0169728D01*
X0196708Y0168301D01*
X0197200Y0167809D01*
X0197200Y0139160D01*
X0191840Y0133800D01*
X0131701Y0133800D01*
X0132200Y0135005D01*
X0132200Y0136995D01*
X0131439Y0138832D01*
X0130032Y0140239D01*
X0128195Y0141000D01*
X0130032Y0141761D01*
X0131439Y0143168D01*
X0132200Y0145005D01*
X0132200Y0146995D01*
X0131439Y0148832D01*
X0130032Y0150239D01*
X0128195Y0151000D01*
X0130032Y0151761D01*
X0131439Y0153168D01*
X0132200Y0155005D01*
X0132200Y0156995D01*
X0131439Y0158832D01*
X0130032Y0160239D01*
X0128195Y0161000D01*
X0130032Y0161761D01*
X0131439Y0163168D01*
X0132200Y0165005D01*
X0132200Y0166995D01*
X0131439Y0168832D01*
X0130032Y0170239D01*
X0128195Y0171000D01*
X0130032Y0171761D01*
X0131439Y0173168D01*
X0132200Y0175005D01*
X0132200Y0176995D01*
X0131439Y0178832D01*
X0130032Y0180239D01*
X0128195Y0181000D01*
X0119805Y0181000D01*
X0117968Y0180239D01*
X0116561Y0178832D01*
X0115800Y0176995D01*
X0115800Y0175005D01*
X0116561Y0173168D01*
X0117968Y0171761D01*
X0119805Y0171000D01*
X0128195Y0171000D01*
X0119805Y0171000D01*
X0117968Y0170239D01*
X0116561Y0168832D01*
X0115800Y0166995D01*
X0115800Y0165005D01*
X0116561Y0163168D01*
X0117968Y0161761D01*
X0119805Y0161000D01*
X0128195Y0161000D01*
X0119805Y0161000D01*
X0117968Y0160239D01*
X0116561Y0158832D01*
X0115800Y0156995D01*
X0115800Y0155005D01*
X0116561Y0153168D01*
X0117968Y0151761D01*
X0119805Y0151000D01*
X0128195Y0151000D01*
X0119805Y0151000D01*
X0117968Y0150239D01*
X0116561Y0148832D01*
X0115800Y0146995D01*
X0115800Y0145005D01*
X0116561Y0143168D01*
X0117968Y0141761D01*
X0119805Y0141000D01*
X0128195Y0141000D01*
X0119805Y0141000D01*
X0117968Y0140239D01*
X0116561Y0138832D01*
X0115800Y0136995D01*
X0115800Y0135005D01*
X0116299Y0133800D01*
X0077262Y0133800D01*
X0053016Y0158046D01*
X0053016Y0163048D01*
X0051961Y0164102D01*
X0044054Y0164102D01*
X0043000Y0163048D01*
X0043000Y0158046D01*
X0040414Y0155460D01*
X0039626Y0154673D01*
X0039200Y0153644D01*
X0039200Y0127808D01*
X0036611Y0130397D01*
X0032970Y0131905D01*
X0029030Y0131905D01*
X0025389Y0130397D01*
X0022800Y0127808D01*
X0022800Y0159192D01*
X0025389Y0156603D01*
X0029030Y0155094D01*
X0032970Y0155094D01*
X0036611Y0156603D01*
X0039397Y0159389D01*
X0040905Y0163030D01*
X0040905Y0166970D01*
X0039397Y0170611D01*
X0036611Y0173397D01*
X0032970Y0174905D01*
X0029030Y0174905D01*
X0025389Y0173397D01*
X0022800Y0170808D01*
X0022800Y0188700D01*
X0048821Y0188700D01*
X0050228Y0188117D01*
X0051772Y0188117D01*
X0053199Y0188708D01*
X0054292Y0189801D01*
X0054883Y0191228D01*
X0054883Y0192772D01*
X0054292Y0194199D01*
X0053199Y0195292D01*
X0051772Y0195883D01*
X0050228Y0195883D01*
X0048821Y0195300D01*
X0022800Y0195300D01*
X0022800Y0201397D01*
X0023042Y0201274D01*
X0023806Y0201026D01*
X0024599Y0200900D01*
X0025000Y0200900D01*
X0025401Y0200900D01*
X0026194Y0201026D01*
X0026958Y0201274D01*
X0027673Y0201638D01*
X0028136Y0201975D01*
X0028514Y0201597D01*
X0030597Y0199514D01*
X0031384Y0198726D01*
X0032413Y0198300D01*
X0058740Y0198300D01*
X0065117Y0191923D01*
X0065117Y0191228D01*
X0065708Y0189801D01*
X0066801Y0188708D01*
X0068228Y0188117D01*
X0069772Y0188117D01*
X0071117Y0188674D01*
X0071117Y0188228D01*
X0071708Y0186801D01*
X0072801Y0185708D01*
X0074228Y0185117D01*
X0075772Y0185117D01*
X0077199Y0185708D01*
X0078292Y0186801D01*
X0078457Y0187200D01*
X0131840Y0187200D01*
X0134200Y0184840D01*
X0134200Y0168691D01*
X0133708Y0168199D01*
X0133117Y0166772D01*
X0133117Y0165228D01*
X0133708Y0163801D01*
X0134801Y0162708D01*
X0136228Y0162117D01*
X0137772Y0162117D01*
X0139199Y0162708D01*
X0140292Y0163801D01*
X0140883Y0165228D01*
X0140883Y0166772D01*
X0140292Y0168199D01*
X0139800Y0168691D01*
X0139800Y0186557D01*
X0139374Y0187586D01*
X0138586Y0188374D01*
X0134586Y0192374D01*
X0133557Y0192800D01*
X0075972Y0192800D01*
X0075772Y0192883D01*
X0074228Y0192883D01*
X0072883Y0192326D01*
X0072883Y0192772D01*
X0072292Y0194199D01*
X0071291Y0195200D01*
X0162840Y0195200D01*
X0165430Y0192610D01*
X0164772Y0192883D01*
X0163228Y0192883D01*
X0161801Y0192292D01*
X0160708Y0191199D01*
X0160117Y0189772D01*
X0160117Y0188228D01*
X0160708Y0186801D01*
X0161200Y0186309D01*
X0161200Y0159160D01*
X0155923Y0153883D01*
X0155228Y0153883D01*
X0153801Y0153292D01*
X0152708Y0152199D01*
X0152117Y0150772D01*
X0152117Y0149228D01*
X0152708Y0147801D01*
X0153801Y0146708D01*
X0155228Y0146117D01*
X0156772Y0146117D01*
X0158199Y0146708D01*
X0159292Y0147801D01*
X0159883Y0149228D01*
X0159883Y0149923D01*
X0165586Y0155626D01*
X0166374Y0156414D01*
X0166800Y0157443D01*
X0166800Y0166200D01*
X0176557Y0166200D01*
X0177586Y0166626D01*
X0178374Y0167414D01*
X0181077Y0170117D01*
X0181772Y0170117D01*
X0183199Y0170708D01*
X0184292Y0171801D01*
X0184883Y0173228D01*
X0184883Y0174772D01*
X0184292Y0176199D01*
X0183199Y0177292D01*
X0181772Y0177883D01*
X0180228Y0177883D01*
X0178801Y0177292D01*
X0177708Y0176199D01*
X0177117Y0174772D01*
X0177117Y0174077D01*
X0174840Y0171800D01*
X0174291Y0171800D01*
X0174292Y0171801D01*
X0174883Y0173228D01*
X0174883Y0174772D01*
X0174292Y0176199D01*
X0173199Y0177292D01*
X0171800Y0177871D01*
X0171800Y0193557D01*
X0171374Y0194586D01*
X0170586Y0195374D01*
X0165586Y0200374D01*
X0164557Y0200800D01*
X0071160Y0200800D01*
X0068945Y0203015D01*
X0069154Y0203224D01*
X0069900Y0205025D01*
X0069900Y0206975D01*
X0069154Y0208776D01*
X0067776Y0210154D01*
X0065975Y0210900D01*
X0064025Y0210900D01*
X0063743Y0210783D01*
X0067586Y0214626D01*
X0068374Y0215414D01*
X0068800Y0216443D01*
X0068800Y0216613D01*
X0068814Y0216619D01*
X0070212Y0218017D01*
X0070968Y0219843D01*
X0070968Y0228157D01*
X0070212Y0229983D01*
X0068814Y0231381D01*
X0066988Y0232137D01*
X0065012Y0232137D01*
X0063186Y0231381D01*
X0061788Y0229983D01*
X0061031Y0228157D01*
X0061031Y0219843D01*
X0061788Y0218017D01*
X0062423Y0217382D01*
X0060840Y0215800D01*
X0052760Y0215800D01*
X0053464Y0216504D01*
X0055012Y0215863D01*
X0056988Y0215863D01*
X0058814Y0216619D01*
X0060212Y0218017D01*
X0060968Y0219843D01*
X0060968Y0228157D01*
X0060212Y0229983D01*
X0058814Y0231381D01*
X0056988Y0232137D01*
X0055012Y0232137D01*
X0053186Y0231381D01*
X0051788Y0229983D01*
X0051031Y0228157D01*
X0051031Y0221991D01*
X0050968Y0221928D01*
X0050968Y0228157D01*
X0050212Y0229983D01*
X0048814Y0231381D01*
X0046988Y0232137D01*
X0045012Y0232137D01*
X0043186Y0231381D01*
X0041788Y0229983D01*
X0041064Y0228235D01*
X0041041Y0228379D01*
X0040790Y0229153D01*
X0040420Y0229877D01*
X0039942Y0230536D01*
X0039367Y0231111D01*
X0038709Y0231589D01*
X0037984Y0231958D01*
X0037210Y0232210D01*
X0036407Y0232337D01*
X0036000Y0232337D01*
X0036000Y0224000D01*
X0036000Y0224000D01*
X0036000Y0215663D01*
X0036407Y0215663D01*
X0036807Y0215726D01*
X0034780Y0213700D01*
X0032413Y0213700D01*
X0031384Y0213274D01*
X0030597Y0212486D01*
X0028136Y0210025D01*
X0027673Y0210362D01*
X0026958Y0210726D01*
X0026194Y0210974D01*
X0025401Y0211100D01*
X0025000Y0211100D01*
X0025000Y0206000D01*
X0025000Y0206000D01*
X0025000Y0211100D01*
X0024599Y0211100D01*
X0023806Y0210974D01*
X0023042Y0210726D01*
X0022800Y0210603D01*
X0022800Y0217005D01*
X0023186Y0216619D01*
X0025012Y0215863D01*
X0026988Y0215863D01*
X0028814Y0216619D01*
X0030212Y0218017D01*
X0030936Y0219765D01*
X0030959Y0219621D01*
X0031210Y0218847D01*
X0031580Y0218123D01*
X0032058Y0217464D01*
X0032633Y0216889D01*
X0033291Y0216411D01*
X0034016Y0216042D01*
X0034790Y0215790D01*
X0035593Y0215663D01*
X0036000Y0215663D01*
X0036000Y0224000D01*
X0036000Y0224000D01*
X0036000Y0232337D01*
X0035593Y0232337D01*
X0034790Y0232210D01*
X0034016Y0231958D01*
X0033291Y0231589D01*
X0032633Y0231111D01*
X0032058Y0230536D01*
X0031580Y0229877D01*
X0031210Y0229153D01*
X0030959Y0228379D01*
X0030936Y0228235D01*
X0030212Y0229983D01*
X0028814Y0231381D01*
X0026988Y0232137D01*
X0025012Y0232137D01*
X0023186Y0231381D01*
X0022800Y0230995D01*
X0022800Y0257012D01*
X0027534Y0261746D01*
X0027776Y0261846D01*
X0029154Y0263224D01*
X0029900Y0265025D01*
X0029900Y0266940D01*
X0030001Y0267042D01*
X0029900Y0266401D01*
X0029900Y0266000D01*
X0035000Y0266000D01*
X0035000Y0266000D01*
X0035000Y0271100D01*
X0035401Y0271100D01*
X0036194Y0270974D01*
X0036958Y0270726D01*
X0037673Y0270362D01*
X0038322Y0269890D01*
X0038890Y0269322D01*
X0039362Y0268673D01*
X0039726Y0267958D01*
X0039974Y0267194D01*
X0040100Y0266401D01*
X0040100Y0266000D01*
X0035000Y0266000D01*
X0035000Y0266000D01*
X0035000Y0271100D01*
X0034599Y0271100D01*
X0033958Y0270999D01*
X0059160Y0296200D01*
X0071422Y0296200D01*
X0070337Y0295115D01*
X0069500Y0293094D01*
X0069500Y0290906D01*
X0070337Y0288884D01*
X0071884Y0287337D01*
X0073906Y0286500D01*
X0076094Y0286500D01*
X0078115Y0287337D01*
X0079663Y0288884D01*
X0080000Y0289699D01*
X0080337Y0288884D01*
X0081884Y0287337D01*
X0083906Y0286500D01*
X0086094Y0286500D01*
X0088115Y0287337D01*
X0089663Y0288884D01*
X0090500Y0290906D01*
X0090500Y0293094D01*
X0089663Y0295115D01*
X0088578Y0296200D01*
X0129840Y0296200D01*
X0135600Y0290440D01*
X0135600Y0288540D01*
X0134772Y0288883D01*
X0133228Y0288883D01*
X0131801Y0288292D01*
X0131309Y0287800D01*
X0122443Y0287800D01*
X0121414Y0287374D01*
X0120626Y0286586D01*
X0117626Y0283586D01*
X0117200Y0282557D01*
X0117200Y0270392D01*
X0115975Y0270900D01*
X0114025Y0270900D01*
X0112224Y0270154D01*
X0110846Y0268776D01*
X0110100Y0266975D01*
X0110100Y0265025D01*
X0110846Y0263224D01*
X0112200Y0261870D01*
X0112200Y0248443D01*
X0112626Y0247414D01*
X0113414Y0246626D01*
X0119158Y0240883D01*
X0118728Y0240883D01*
X0117301Y0240292D01*
X0116809Y0239800D01*
X0107291Y0239800D01*
X0108292Y0240801D01*
X0108883Y0242228D01*
X0108883Y0243772D01*
X0108292Y0245199D01*
X0107800Y0245691D01*
X0107800Y0261870D01*
X0109154Y0263224D01*
X0109900Y0265025D01*
X0109900Y0266975D01*
X0109154Y0268776D01*
X0107776Y0270154D01*
X0105975Y0270900D01*
X0104025Y0270900D01*
X0102224Y0270154D01*
X0100846Y0268776D01*
X0100100Y0266975D01*
X0100100Y0265025D01*
X0100846Y0263224D01*
X0102200Y0261870D01*
X0102200Y0245691D01*
X0101708Y0245199D01*
X0101117Y0243772D01*
X0101117Y0242228D01*
X0101708Y0240801D01*
X0102709Y0239800D01*
X0099291Y0239800D01*
X0100292Y0240801D01*
X0100883Y0242228D01*
X0100883Y0243772D01*
X0100292Y0245199D01*
X0099800Y0245691D01*
X0099800Y0264557D01*
X0099753Y0264670D01*
X0099900Y0265025D01*
X0099900Y0266975D01*
X0099154Y0268776D01*
X0097776Y0270154D01*
X0095975Y0270900D01*
X0094025Y0270900D01*
X0092224Y0270154D01*
X0090846Y0268776D01*
X0090100Y0266975D01*
X0090100Y0265025D01*
X0090846Y0263224D01*
X0092224Y0261846D01*
X0094025Y0261100D01*
X0094200Y0261100D01*
X0094200Y0245691D01*
X0093708Y0245199D01*
X0093117Y0243772D01*
X0093117Y0242228D01*
X0093708Y0240801D01*
X0094709Y0239800D01*
X0084691Y0239800D01*
X0084199Y0240292D01*
X0082772Y0240883D01*
X0081228Y0240883D01*
X0079801Y0240292D01*
X0079309Y0239800D01*
X0050160Y0239800D01*
X0047800Y0242160D01*
X0047800Y0261870D01*
X0049154Y0263224D01*
X0049900Y0265025D01*
X0049900Y0266975D01*
X0049154Y0268776D01*
X0047776Y0270154D01*
X0045975Y0270900D01*
X0044025Y0270900D01*
X0042224Y0270154D01*
X0040846Y0268776D01*
X0040100Y0266975D01*
X0040100Y0265025D01*
X0040846Y0263224D01*
X0042200Y0261870D01*
X0042200Y0240443D01*
X0042626Y0239414D01*
X0046626Y0235414D01*
X0047414Y0234626D01*
X0048443Y0234200D01*
X0079309Y0234200D01*
X0079801Y0233708D01*
X0081228Y0233117D01*
X0082772Y0233117D01*
X0084199Y0233708D01*
X0084691Y0234200D01*
X0116809Y0234200D01*
X0117301Y0233708D01*
X0118728Y0233117D01*
X0120272Y0233117D01*
X0121699Y0233708D01*
X0122191Y0234200D01*
X0160309Y0234200D01*
X0160801Y0233708D01*
X0162228Y0233117D01*
X0163772Y0233117D01*
X0165199Y0233708D01*
X0166292Y0234801D01*
X0166883Y0236228D01*
X0166883Y0237772D01*
X0166292Y0239199D01*
X0165291Y0240200D01*
X0258309Y0240200D01*
X0258801Y0239708D01*
X0260228Y0239117D01*
X0261772Y0239117D01*
X0263199Y0239708D01*
X0264292Y0240801D01*
X0264883Y0242228D01*
X0264883Y0243772D01*
X0264292Y0245199D01*
X0263199Y0246292D01*
X0261772Y0246883D01*
X0260228Y0246883D01*
X0258801Y0246292D01*
X0258309Y0245800D01*
X0148291Y0245800D01*
X0148292Y0245801D01*
X0148883Y0247228D01*
X0148883Y0248772D01*
X0148292Y0250199D01*
X0147199Y0251292D01*
X0145772Y0251883D01*
X0144228Y0251883D01*
X0142801Y0251292D01*
X0142309Y0250800D01*
X0126160Y0250800D01*
X0122800Y0254160D01*
X0122800Y0261608D01*
X0124025Y0261100D01*
X0125975Y0261100D01*
X0127776Y0261846D01*
X0129154Y0263224D01*
X0129900Y0265025D01*
X0129900Y0266975D01*
X0129154Y0268776D01*
X0127776Y0270154D01*
X0125975Y0270900D01*
X0124025Y0270900D01*
X0122800Y0270392D01*
X0122800Y0280840D01*
X0124160Y0282200D01*
X0131309Y0282200D01*
X0131801Y0281708D01*
X0133228Y0281117D01*
X0134772Y0281117D01*
X0135981Y0281618D01*
X0135600Y0281237D01*
X0135600Y0276763D01*
X0138763Y0273600D01*
X0143237Y0273600D01*
X0146000Y0276363D01*
X0148200Y0274163D01*
X0148200Y0269730D01*
X0147776Y0270154D01*
X0145975Y0270900D01*
X0144025Y0270900D01*
X0142224Y0270154D01*
X0140846Y0268776D01*
X0140100Y0266975D01*
X0140100Y0265025D01*
X0140846Y0263224D01*
X0142224Y0261846D01*
X0144025Y0261100D01*
X0145975Y0261100D01*
X0147776Y0261846D01*
X0149154Y0263224D01*
X0149900Y0265025D01*
X0149900Y0266975D01*
X0149783Y0267257D01*
X0150100Y0266940D01*
X0150100Y0265025D01*
X0150846Y0263224D01*
X0152224Y0261846D01*
X0154025Y0261100D01*
X0155975Y0261100D01*
X0157776Y0261846D01*
X0159154Y0263224D01*
X0159900Y0265025D01*
X0159900Y0266975D01*
X0159154Y0268776D01*
X0157776Y0270154D01*
X0155975Y0270900D01*
X0154060Y0270900D01*
X0153800Y0271160D01*
X0153800Y0274163D01*
X0156000Y0276363D01*
X0158763Y0273600D01*
X0163237Y0273600D01*
X0166400Y0276763D01*
X0166400Y0281237D01*
X0163778Y0283859D01*
X0166600Y0286680D01*
X0166600Y0288819D01*
X0161181Y0288819D01*
X0161181Y0289181D01*
X0160819Y0289181D01*
X0160819Y0294600D01*
X0158680Y0294600D01*
X0155859Y0291778D01*
X0153237Y0294400D01*
X0148763Y0294400D01*
X0146000Y0291637D01*
X0143237Y0294400D01*
X0139560Y0294400D01*
X0133495Y0300465D01*
X0342646Y0300465D01*
X0342646Y0025000D01*
X0260788Y0025000D01*
X0282069Y0046281D01*
X0282800Y0048045D01*
X0282800Y0073868D01*
X0289037Y0080106D01*
X0297683Y0080106D01*
X0298185Y0079898D01*
X0300177Y0079898D01*
X0301389Y0080400D01*
X0301389Y0079262D01*
X0300214Y0078087D01*
X0300177Y0078102D01*
X0298185Y0078102D01*
X0296344Y0077340D01*
X0294936Y0075931D01*
X0294173Y0074091D01*
X0294173Y0072098D01*
X0294936Y0070258D01*
X0296344Y0068849D01*
X0298185Y0068087D01*
X0300177Y0068087D01*
X0302018Y0068849D01*
X0303427Y0070258D01*
X0304189Y0072098D01*
X0304189Y0074091D01*
X0304174Y0074127D01*
X0305775Y0075729D01*
X0306563Y0076516D01*
X0306989Y0077545D01*
X0306989Y0079947D01*
X0307039Y0079898D01*
X0314946Y0079898D01*
X0316000Y0080952D01*
X0316000Y0088859D01*
X0314946Y0089913D01*
X0313792Y0089913D01*
X0313792Y0099565D01*
X0313366Y0100594D01*
X0302374Y0111586D01*
X0302064Y0111895D01*
X0303427Y0113258D01*
X0304189Y0115098D01*
X0304189Y0117091D01*
X0303427Y0118931D01*
X0302018Y0120340D01*
X0300177Y0121102D01*
X0298185Y0121102D01*
X0296344Y0120340D01*
X0294936Y0118931D01*
X0294173Y0117091D01*
X0294173Y0115098D01*
X0294677Y0113883D01*
X0294228Y0113883D01*
X0292801Y0113292D01*
X0291849Y0112340D01*
X0291849Y0112906D01*
X0291800Y0113024D01*
X0291800Y0121012D01*
X0292219Y0121431D01*
X0293988Y0123200D01*
X0297455Y0123200D01*
X0298185Y0122898D01*
X0300177Y0122898D01*
X0302018Y0123660D01*
X0303427Y0125069D01*
X0304189Y0126909D01*
X0304189Y0128902D01*
X0303427Y0130742D01*
X0302018Y0132151D01*
X0300177Y0132913D01*
X0298185Y0132913D01*
X0297911Y0132800D01*
X0291800Y0132800D01*
X0291800Y0161012D01*
X0296894Y0166106D01*
X0297683Y0166106D01*
X0298185Y0165898D01*
X0300177Y0165898D01*
X0302018Y0166660D01*
X0302200Y0166842D01*
X0302200Y0166073D01*
X0300214Y0164087D01*
X0300177Y0164102D01*
X0298185Y0164102D01*
X0296344Y0163340D01*
X0294936Y0161931D01*
X0294173Y0160091D01*
X0294173Y0158098D01*
X0294936Y0156258D01*
X0296344Y0154849D01*
X0298185Y0154087D01*
X0300177Y0154087D01*
X0302018Y0154849D01*
X0303427Y0156258D01*
X0304189Y0158098D01*
X0304189Y0160091D01*
X0304174Y0160127D01*
X0306586Y0162540D01*
X0307374Y0163327D01*
X0307800Y0164356D01*
X0307800Y0165898D01*
X0314946Y0165898D01*
X0316000Y0166952D01*
X0316000Y0174859D01*
X0314946Y0175913D01*
X0313792Y0175913D01*
X0313792Y0193832D01*
X0315077Y0195117D01*
X0315772Y0195117D01*
X0317199Y0195708D01*
X0318292Y0196801D01*
X0318883Y0198228D01*
X0318883Y0199772D01*
X0318292Y0201199D01*
X0317199Y0202292D01*
X0315772Y0202883D01*
X0314228Y0202883D01*
X0312801Y0202292D01*
X0311708Y0201199D01*
X0311117Y0199772D01*
X0311117Y0199077D01*
X0308618Y0196578D01*
X0308192Y0195549D01*
X0308192Y0175913D01*
X0307800Y0175913D01*
X0307800Y0186557D01*
X0307374Y0187586D01*
X0300883Y0194077D01*
X0300883Y0194772D01*
X0300292Y0196199D01*
X0299199Y0197292D01*
X0297772Y0197883D01*
X0296228Y0197883D01*
X0294801Y0197292D01*
X0293708Y0196199D01*
X0293117Y0194772D01*
X0293117Y0193228D01*
X0293708Y0191801D01*
X0294801Y0190708D01*
X0296228Y0190117D01*
X0296923Y0190117D01*
X0302200Y0184840D01*
X0302200Y0174969D01*
X0302018Y0175151D01*
X0300177Y0175913D01*
X0298185Y0175913D01*
X0297683Y0175705D01*
X0296183Y0175705D01*
X0295955Y0175800D01*
X0294045Y0175800D01*
X0292281Y0175069D01*
X0290931Y0173719D01*
X0284281Y0167069D01*
X0282931Y0165719D01*
X0282200Y0163955D01*
X0282200Y0162760D01*
X0280883Y0164077D01*
X0280883Y0164772D01*
X0280292Y0166199D01*
X0279199Y0167292D01*
X0277772Y0167883D01*
X0276228Y0167883D01*
X0274801Y0167292D01*
X0273708Y0166199D01*
X0273117Y0164772D01*
X0273117Y0163228D01*
X0273708Y0161801D01*
X0274801Y0160708D01*
X0276228Y0160117D01*
X0276923Y0160117D01*
X0278200Y0158840D01*
X0278200Y0148291D01*
X0277199Y0149292D01*
X0275772Y0149883D01*
X0275077Y0149883D01*
X0269800Y0155160D01*
X0269800Y0218309D01*
X0270292Y0218801D01*
X0270883Y0220228D01*
X0270883Y0221772D01*
X0270292Y0223199D01*
X0270291Y0223200D01*
X0276840Y0223200D01*
X0289117Y0210923D01*
X0289117Y0210228D01*
X0289708Y0208801D01*
X0290801Y0207708D01*
X0292228Y0207117D01*
X0293772Y0207117D01*
X0295199Y0207708D01*
X0296292Y0208801D01*
X0296883Y0210228D01*
X0296883Y0211772D01*
X0296292Y0213199D01*
X0295199Y0214292D01*
X0293772Y0214883D01*
X0293077Y0214883D01*
X0279586Y0228374D01*
X0278557Y0228800D01*
X0250443Y0228800D01*
X0249414Y0228374D01*
X0248626Y0227586D01*
X0243414Y0222374D01*
X0242626Y0221586D01*
X0242200Y0220557D01*
X0242200Y0210130D01*
X0240846Y0208776D01*
X0240100Y0206975D01*
X0240100Y0205025D01*
X0240846Y0203224D01*
X0242224Y0201846D01*
X0244025Y0201100D01*
X0245975Y0201100D01*
X0247776Y0201846D01*
X0249154Y0203224D01*
X0249900Y0205025D01*
X0249900Y0206975D01*
X0249154Y0208776D01*
X0247800Y0210130D01*
X0247800Y0218840D01*
X0252160Y0223200D01*
X0263709Y0223200D01*
X0263708Y0223199D01*
X0263117Y0221772D01*
X0263117Y0220228D01*
X0263708Y0218801D01*
X0264200Y0218309D01*
X0264200Y0185291D01*
X0264199Y0185292D01*
X0262772Y0185883D01*
X0261228Y0185883D01*
X0259801Y0185292D01*
X0258708Y0184199D01*
X0258117Y0182772D01*
X0258117Y0182077D01*
X0257626Y0181586D01*
X0257200Y0180557D01*
X0257200Y0149443D01*
X0257626Y0148414D01*
X0258414Y0147626D01*
X0268117Y0137923D01*
X0268117Y0137228D01*
X0268708Y0135801D01*
X0269801Y0134708D01*
X0271228Y0134117D01*
X0271923Y0134117D01*
X0274200Y0131840D01*
X0274200Y0112691D01*
X0273800Y0112291D01*
X0273800Y0128557D01*
X0273374Y0129586D01*
X0268883Y0134077D01*
X0268883Y0134772D01*
X0268292Y0136199D01*
X0267199Y0137292D01*
X0265772Y0137883D01*
X0265077Y0137883D01*
X0237800Y0165160D01*
X0237800Y0171309D01*
X0238292Y0171801D01*
X0238883Y0173228D01*
X0238883Y0174772D01*
X0238292Y0176199D01*
X0237199Y0177292D01*
X0235772Y0177883D01*
X0234228Y0177883D01*
X0232801Y0177292D01*
X0231708Y0176199D01*
X0231117Y0174772D01*
X0231117Y0173228D01*
X0231708Y0171801D01*
X0232200Y0171309D01*
X0232200Y0163443D01*
X0232626Y0162414D01*
X0233414Y0161626D01*
X0261117Y0133923D01*
X0261117Y0133228D01*
X0261708Y0131801D01*
X0262801Y0130708D01*
X0264228Y0130117D01*
X0264923Y0130117D01*
X0268200Y0126840D01*
X0268200Y0107691D01*
X0267708Y0107199D01*
X0267117Y0105772D01*
X0267117Y0104228D01*
X0267708Y0102801D01*
X0268801Y0101708D01*
X0270228Y0101117D01*
X0271772Y0101117D01*
X0273199Y0101708D01*
X0274292Y0102801D01*
X0274883Y0104228D01*
X0274883Y0105772D01*
X0274292Y0107199D01*
X0273800Y0107691D01*
X0273800Y0107709D01*
X0274801Y0106708D01*
X0276228Y0106117D01*
X0277772Y0106117D01*
X0278200Y0106294D01*
X0278200Y0105160D01*
X0274923Y0101883D01*
X0274228Y0101883D01*
X0272801Y0101292D01*
X0271708Y0100199D01*
X0271117Y0098772D01*
X0271117Y0097228D01*
X0271708Y0095801D01*
X0272801Y0094708D01*
X0274228Y0094117D01*
X0275772Y0094117D01*
X0277199Y0094708D01*
X0278292Y0095801D01*
X0278883Y0097228D01*
X0278883Y0097923D01*
X0282249Y0101289D01*
X0282249Y0086894D01*
X0281000Y0085645D01*
X0280719Y0085926D01*
X0246552Y0120093D01*
X0244788Y0120824D01*
X0238391Y0120824D01*
X0237984Y0120992D01*
X0236008Y0120992D01*
X0234182Y0120236D01*
X0232784Y0118838D01*
X0232028Y0117012D01*
X0232028Y0115035D01*
X0232784Y0113209D01*
X0232901Y0113092D01*
X0232600Y0112919D01*
X0232227Y0112546D01*
X0231964Y0112090D01*
X0231828Y0111581D01*
X0231828Y0108150D01*
X0236996Y0108150D01*
X0236996Y0108150D01*
X0242165Y0108150D01*
X0242165Y0110904D01*
X0273200Y0079868D01*
X0273200Y0050988D01*
X0254012Y0031800D01*
X0184808Y0031800D01*
X0187397Y0034389D01*
X0188905Y0038030D01*
X0188905Y0041970D01*
X0187397Y0045611D01*
X0184611Y0048397D01*
X0180970Y0049905D01*
X0177030Y0049905D01*
X0173389Y0048397D01*
X0170603Y0045611D01*
X0169094Y0041970D01*
X0169094Y0038030D01*
X0170603Y0034389D01*
X0173192Y0031800D01*
X0143800Y0031800D01*
X0143800Y0033436D01*
X0143968Y0033843D01*
X0143968Y0042157D01*
X0143800Y0042564D01*
X0143800Y0060436D01*
X0143968Y0060843D01*
X0143968Y0069157D01*
X0143212Y0070983D01*
X0141814Y0072381D01*
X0139988Y0073137D01*
X0138012Y0073137D01*
X0136186Y0072381D01*
X0134788Y0070983D01*
X0134064Y0069235D01*
X0134041Y0069379D01*
X0133790Y0070153D01*
X0133420Y0070877D01*
X0132942Y0071536D01*
X0132367Y0072111D01*
X0131709Y0072589D01*
X0130984Y0072958D01*
X0130210Y0073210D01*
X0129407Y0073337D01*
X0129000Y0073337D01*
X0129000Y0065000D01*
X0129000Y0065000D01*
X0129000Y0073337D01*
X0128593Y0073337D01*
X0127790Y0073210D01*
X0127016Y0072958D01*
X0126291Y0072589D01*
X0125633Y0072111D01*
X0125058Y0071536D01*
X0124580Y0070877D01*
X0124210Y0070153D01*
X0123959Y0069379D01*
X0123936Y0069235D01*
X0123212Y0070983D01*
X0121814Y0072381D01*
X0119988Y0073137D01*
X0118012Y0073137D01*
X0116186Y0072381D01*
X0114788Y0070983D01*
X0114031Y0069157D01*
X0114031Y0060843D01*
X0114788Y0059017D01*
X0116186Y0057619D01*
X0116200Y0057613D01*
X0116200Y0045387D01*
X0116186Y0045381D01*
X0114788Y0043983D01*
X0114031Y0042157D01*
X0114031Y0033843D01*
X0114788Y0032017D01*
X0115005Y0031800D01*
X0112995Y0031800D01*
X0113212Y0032017D01*
X0113968Y0033843D01*
X0113968Y0042157D01*
X0113212Y0043983D01*
X0111814Y0045381D01*
X0111800Y0045387D01*
X0111800Y0057613D01*
X0111814Y0057619D01*
X0113212Y0059017D01*
X0113968Y0060843D01*
X0113968Y0069157D01*
X0113212Y0070983D01*
X0111814Y0072381D01*
X0109988Y0073137D01*
X0108012Y0073137D01*
X0106186Y0072381D01*
X0104788Y0070983D01*
X0104031Y0069157D01*
X0104031Y0060843D01*
X0104788Y0059017D01*
X0106186Y0057619D01*
X0106200Y0057613D01*
X0106200Y0045387D01*
X0106186Y0045381D01*
X0104788Y0043983D01*
X0104031Y0042157D01*
X0104031Y0033843D01*
X0104031Y0034990D02*
X0093800Y0034990D01*
X0093800Y0036988D02*
X0104031Y0036988D01*
X0104031Y0038987D02*
X0093800Y0038987D01*
X0093800Y0040985D02*
X0104031Y0040985D01*
X0104374Y0042984D02*
X0093800Y0042984D01*
X0093800Y0044982D02*
X0105787Y0044982D01*
X0106200Y0046981D02*
X0093800Y0046981D01*
X0093800Y0048979D02*
X0106200Y0048979D01*
X0106200Y0050978D02*
X0093800Y0050978D01*
X0093800Y0052976D02*
X0106200Y0052976D01*
X0106200Y0054975D02*
X0093800Y0054975D01*
X0093800Y0056973D02*
X0106200Y0056973D01*
X0104833Y0058972D02*
X0093800Y0058972D01*
X0093800Y0060970D02*
X0104031Y0060970D01*
X0104031Y0062969D02*
X0093800Y0062969D01*
X0093800Y0064967D02*
X0104031Y0064967D01*
X0104031Y0066966D02*
X0093800Y0066966D01*
X0093800Y0068964D02*
X0104031Y0068964D01*
X0104780Y0070963D02*
X0093800Y0070963D01*
X0093797Y0072961D02*
X0107588Y0072961D01*
X0110412Y0072961D02*
X0117588Y0072961D01*
X0120412Y0072961D02*
X0127025Y0072961D01*
X0129000Y0072961D02*
X0129000Y0072961D01*
X0130975Y0072961D02*
X0137588Y0072961D01*
X0140412Y0072961D02*
X0170155Y0072961D01*
X0170258Y0073064D02*
X0168849Y0071656D01*
X0168087Y0069815D01*
X0168087Y0067823D01*
X0168849Y0065982D01*
X0170258Y0064573D01*
X0172098Y0063811D01*
X0174091Y0063811D01*
X0175931Y0064573D01*
X0177340Y0065982D01*
X0178102Y0067823D01*
X0178102Y0069815D01*
X0177340Y0071656D01*
X0175931Y0073064D01*
X0174091Y0073827D01*
X0172098Y0073827D01*
X0170258Y0073064D01*
X0168562Y0070963D02*
X0143220Y0070963D01*
X0143968Y0068964D02*
X0168087Y0068964D01*
X0168442Y0066966D02*
X0143968Y0066966D01*
X0143968Y0064967D02*
X0169864Y0064967D01*
X0171095Y0061834D02*
X0170365Y0061462D01*
X0169702Y0060980D01*
X0169122Y0060401D01*
X0168640Y0059737D01*
X0168268Y0059007D01*
X0168015Y0058227D01*
X0167887Y0057418D01*
X0167887Y0057012D01*
X0173090Y0057012D01*
X0173090Y0057004D01*
X0167887Y0057004D01*
X0167887Y0056598D01*
X0168015Y0055788D01*
X0168268Y0055009D01*
X0168640Y0054278D01*
X0169122Y0053615D01*
X0169702Y0053036D01*
X0170365Y0052554D01*
X0171095Y0052182D01*
X0171875Y0051928D01*
X0172685Y0051800D01*
X0173091Y0051800D01*
X0173091Y0057004D01*
X0173098Y0057004D01*
X0173098Y0051800D01*
X0173504Y0051800D01*
X0174314Y0051928D01*
X0175094Y0052182D01*
X0175824Y0052554D01*
X0176487Y0053036D01*
X0177067Y0053615D01*
X0177549Y0054278D01*
X0177921Y0055009D01*
X0178174Y0055788D01*
X0178302Y0056598D01*
X0178302Y0057004D01*
X0173098Y0057004D01*
X0173098Y0057012D01*
X0173091Y0057012D01*
X0173091Y0062216D01*
X0172685Y0062216D01*
X0171875Y0062087D01*
X0171095Y0061834D01*
X0169692Y0060970D02*
X0143968Y0060970D01*
X0143968Y0062969D02*
X0251950Y0062969D01*
X0249952Y0064967D02*
X0188136Y0064967D01*
X0187742Y0064573D02*
X0189151Y0065982D01*
X0189913Y0067823D01*
X0189913Y0069815D01*
X0189151Y0071656D01*
X0187742Y0073064D01*
X0185902Y0073827D01*
X0183909Y0073827D01*
X0182069Y0073064D01*
X0180660Y0071656D01*
X0179898Y0069815D01*
X0179898Y0067823D01*
X0180660Y0065982D01*
X0182069Y0064573D01*
X0183909Y0063811D01*
X0185902Y0063811D01*
X0187742Y0064573D01*
X0188859Y0062016D02*
X0180952Y0062016D01*
X0179898Y0060961D01*
X0179898Y0053054D01*
X0180952Y0052000D01*
X0188859Y0052000D01*
X0189913Y0053054D01*
X0189913Y0060961D01*
X0188859Y0062016D01*
X0189904Y0060970D02*
X0253949Y0060970D01*
X0255947Y0058972D02*
X0189913Y0058972D01*
X0189913Y0056973D02*
X0257946Y0056973D01*
X0259944Y0054975D02*
X0189913Y0054975D01*
X0189835Y0052976D02*
X0261943Y0052976D01*
X0262564Y0052355D02*
X0264145Y0051700D01*
X0265855Y0051700D01*
X0267436Y0052355D01*
X0268645Y0053564D01*
X0269300Y0055145D01*
X0269300Y0056855D01*
X0268645Y0058436D01*
X0224370Y0102711D01*
X0223160Y0103921D01*
X0221580Y0104576D01*
X0220771Y0104576D01*
X0220978Y0104783D01*
X0221456Y0105441D01*
X0221825Y0106166D01*
X0222077Y0106939D01*
X0222204Y0107743D01*
X0222204Y0108150D01*
X0222204Y0108556D01*
X0222077Y0109360D01*
X0221825Y0110134D01*
X0221456Y0110858D01*
X0220978Y0111517D01*
X0220402Y0112092D01*
X0219744Y0112570D01*
X0219019Y0112939D01*
X0218246Y0113191D01*
X0217442Y0113318D01*
X0217035Y0113318D01*
X0216629Y0113318D01*
X0215825Y0113191D01*
X0215051Y0112939D01*
X0214327Y0112570D01*
X0213668Y0112092D01*
X0213093Y0111517D01*
X0212615Y0110858D01*
X0212246Y0110134D01*
X0211994Y0109360D01*
X0211867Y0108556D01*
X0211867Y0108150D01*
X0217035Y0108150D01*
X0217035Y0108150D01*
X0217035Y0113318D01*
X0217035Y0108150D01*
X0217035Y0108150D01*
X0211867Y0108150D01*
X0211867Y0107743D01*
X0211994Y0106939D01*
X0212246Y0106166D01*
X0212615Y0105441D01*
X0213093Y0104783D01*
X0213668Y0104207D01*
X0213826Y0104093D01*
X0212823Y0103090D01*
X0212067Y0101264D01*
X0212067Y0099287D01*
X0212823Y0097461D01*
X0214221Y0096063D01*
X0216047Y0095307D01*
X0218024Y0095307D01*
X0219147Y0095772D01*
X0262564Y0052355D01*
X0268057Y0052976D02*
X0273200Y0052976D01*
X0273189Y0050978D02*
X0143800Y0050978D01*
X0143800Y0052976D02*
X0169783Y0052976D01*
X0168285Y0054975D02*
X0143800Y0054975D01*
X0143800Y0056973D02*
X0167887Y0056973D01*
X0168257Y0058972D02*
X0143800Y0058972D01*
X0134200Y0058972D02*
X0133311Y0058972D01*
X0133420Y0059123D02*
X0133790Y0059847D01*
X0134041Y0060621D01*
X0134064Y0060765D01*
X0134200Y0060436D01*
X0134200Y0042564D01*
X0134064Y0042235D01*
X0134041Y0042379D01*
X0133790Y0043153D01*
X0133420Y0043877D01*
X0132942Y0044536D01*
X0132367Y0045111D01*
X0131709Y0045589D01*
X0130984Y0045958D01*
X0130210Y0046210D01*
X0129407Y0046337D01*
X0129000Y0046337D01*
X0129000Y0038000D01*
X0129000Y0038000D01*
X0129000Y0046337D01*
X0128593Y0046337D01*
X0127790Y0046210D01*
X0127016Y0045958D01*
X0126291Y0045589D01*
X0125633Y0045111D01*
X0125058Y0044536D01*
X0124580Y0043877D01*
X0124210Y0043153D01*
X0123959Y0042379D01*
X0123936Y0042235D01*
X0123212Y0043983D01*
X0121814Y0045381D01*
X0121800Y0045387D01*
X0121800Y0057613D01*
X0121814Y0057619D01*
X0123212Y0059017D01*
X0123936Y0060765D01*
X0123959Y0060621D01*
X0124210Y0059847D01*
X0124580Y0059123D01*
X0125058Y0058464D01*
X0125633Y0057889D01*
X0126291Y0057411D01*
X0127016Y0057042D01*
X0127790Y0056790D01*
X0128593Y0056663D01*
X0129000Y0056663D01*
X0129407Y0056663D01*
X0130210Y0056790D01*
X0130984Y0057042D01*
X0131709Y0057411D01*
X0132367Y0057889D01*
X0132942Y0058464D01*
X0133420Y0059123D01*
X0134200Y0056973D02*
X0130773Y0056973D01*
X0129000Y0056973D02*
X0129000Y0056973D01*
X0129000Y0056663D02*
X0129000Y0065000D01*
X0129000Y0065000D01*
X0129000Y0056663D01*
X0127227Y0056973D02*
X0121800Y0056973D01*
X0121800Y0054975D02*
X0134200Y0054975D01*
X0134200Y0052976D02*
X0121800Y0052976D01*
X0121800Y0050978D02*
X0134200Y0050978D01*
X0134200Y0048979D02*
X0121800Y0048979D01*
X0121800Y0046981D02*
X0134200Y0046981D01*
X0134200Y0044982D02*
X0132496Y0044982D01*
X0133845Y0042984D02*
X0134200Y0042984D01*
X0129000Y0042984D02*
X0129000Y0042984D01*
X0129000Y0044982D02*
X0129000Y0044982D01*
X0125504Y0044982D02*
X0122213Y0044982D01*
X0123626Y0042984D02*
X0124155Y0042984D01*
X0129000Y0040985D02*
X0129000Y0040985D01*
X0129000Y0038987D02*
X0129000Y0038987D01*
X0119000Y0038000D02*
X0119000Y0065000D01*
X0114031Y0064967D02*
X0113968Y0064967D01*
X0113968Y0062969D02*
X0114031Y0062969D01*
X0113968Y0060970D02*
X0114031Y0060970D01*
X0114833Y0058972D02*
X0113167Y0058972D01*
X0111800Y0056973D02*
X0116200Y0056973D01*
X0116200Y0054975D02*
X0111800Y0054975D01*
X0111800Y0052976D02*
X0116200Y0052976D01*
X0116200Y0050978D02*
X0111800Y0050978D01*
X0111800Y0048979D02*
X0116200Y0048979D01*
X0116200Y0046981D02*
X0111800Y0046981D01*
X0112213Y0044982D02*
X0115787Y0044982D01*
X0114374Y0042984D02*
X0113626Y0042984D01*
X0113968Y0040985D02*
X0114031Y0040985D01*
X0113968Y0038987D02*
X0114031Y0038987D01*
X0113968Y0036988D02*
X0114031Y0036988D01*
X0113968Y0034990D02*
X0114031Y0034990D01*
X0114384Y0032991D02*
X0113616Y0032991D01*
X0109000Y0038000D02*
X0109000Y0065000D01*
X0113968Y0066966D02*
X0114031Y0066966D01*
X0113968Y0068964D02*
X0114031Y0068964D01*
X0114780Y0070963D02*
X0113220Y0070963D01*
X0123220Y0070963D02*
X0124642Y0070963D01*
X0129000Y0070963D02*
X0129000Y0070963D01*
X0129000Y0068964D02*
X0129000Y0068964D01*
X0129000Y0066966D02*
X0129000Y0066966D01*
X0129000Y0064967D02*
X0129000Y0064967D01*
X0129000Y0062969D02*
X0129000Y0062969D01*
X0129000Y0060970D02*
X0129000Y0060970D01*
X0129000Y0058972D02*
X0129000Y0058972D01*
X0124689Y0058972D02*
X0123167Y0058972D01*
X0133358Y0070963D02*
X0134780Y0070963D01*
X0131225Y0082954D02*
X0231965Y0082954D01*
X0229967Y0084952D02*
X0142912Y0084952D01*
X0144911Y0086951D02*
X0227968Y0086951D01*
X0225969Y0088949D02*
X0146909Y0088949D01*
X0148908Y0090948D02*
X0223971Y0090948D01*
X0221972Y0092946D02*
X0150906Y0092946D01*
X0151800Y0094945D02*
X0219974Y0094945D01*
X0213341Y0096943D02*
X0151800Y0096943D01*
X0151800Y0098942D02*
X0212210Y0098942D01*
X0212067Y0100940D02*
X0151800Y0100940D01*
X0151800Y0102939D02*
X0212761Y0102939D01*
X0212981Y0104937D02*
X0152348Y0104937D01*
X0152883Y0106936D02*
X0211995Y0106936D01*
X0211927Y0108934D02*
X0152401Y0108934D01*
X0149000Y0107000D02*
X0149000Y0095000D01*
X0140000Y0086000D01*
X0124000Y0086000D01*
X0119618Y0090922D02*
X0117968Y0090239D01*
X0117029Y0089300D01*
X0114498Y0089300D01*
X0114883Y0090228D01*
X0114883Y0091772D01*
X0114292Y0093199D01*
X0113199Y0094292D01*
X0111772Y0094883D01*
X0110228Y0094883D01*
X0108801Y0094292D01*
X0108309Y0093800D01*
X0097443Y0093800D01*
X0096414Y0093374D01*
X0084840Y0081800D01*
X0080906Y0081800D01*
X0082899Y0082334D01*
X0085203Y0083664D01*
X0087084Y0085545D01*
X0088414Y0087849D01*
X0089102Y0090418D01*
X0089102Y0093078D01*
X0088414Y0095647D01*
X0087084Y0097951D01*
X0085203Y0099832D01*
X0082899Y0101162D01*
X0080330Y0101850D01*
X0077670Y0101850D01*
X0075101Y0101162D01*
X0072797Y0099832D01*
X0070916Y0097951D01*
X0069586Y0095647D01*
X0068898Y0093078D01*
X0068898Y0090418D01*
X0069586Y0087849D01*
X0070916Y0085545D01*
X0072797Y0083664D01*
X0075101Y0082334D01*
X0077094Y0081800D01*
X0066884Y0081800D01*
X0064812Y0083873D01*
X0064827Y0083909D01*
X0064827Y0085902D01*
X0064064Y0087742D01*
X0062656Y0089151D01*
X0060815Y0089913D01*
X0058823Y0089913D01*
X0056982Y0089151D01*
X0055573Y0087742D01*
X0054811Y0085902D01*
X0054811Y0083909D01*
X0055573Y0082069D01*
X0056982Y0080660D01*
X0058823Y0079898D01*
X0060815Y0079898D01*
X0060852Y0079913D01*
X0062870Y0077894D01*
X0061317Y0077894D01*
X0060815Y0078102D01*
X0058823Y0078102D01*
X0056982Y0077340D01*
X0055573Y0075931D01*
X0054811Y0074091D01*
X0054811Y0072098D01*
X0055573Y0070258D01*
X0056531Y0069300D01*
X0053660Y0069300D01*
X0053016Y0069944D01*
X0053016Y0077048D01*
X0051961Y0078102D01*
X0044054Y0078102D01*
X0043000Y0077048D01*
X0043000Y0069141D01*
X0044054Y0068087D01*
X0046954Y0068087D01*
X0050240Y0064800D01*
X0024988Y0064800D01*
X0022800Y0066988D01*
X0022800Y0073192D01*
X0025389Y0070603D01*
X0029030Y0069094D01*
X0032970Y0069094D01*
X0036611Y0070603D01*
X0039397Y0073389D01*
X0040905Y0077030D01*
X0040905Y0080970D01*
X0039397Y0084611D01*
X0036611Y0087397D01*
X0032970Y0088905D01*
X0029030Y0088905D01*
X0025389Y0087397D01*
X0022800Y0084808D01*
X0022800Y0096200D01*
X0057955Y0096200D01*
X0059719Y0096931D01*
X0063888Y0101100D01*
X0064619Y0102864D01*
X0064619Y0114597D01*
X0064827Y0115098D01*
X0064827Y0117091D01*
X0064064Y0118931D01*
X0062656Y0120340D01*
X0060815Y0121102D01*
X0058823Y0121102D01*
X0056982Y0120340D01*
X0055573Y0118931D01*
X0054811Y0117091D01*
X0054811Y0115098D01*
X0055019Y0114597D01*
X0055019Y0105807D01*
X0055012Y0105800D01*
X0022800Y0105800D01*
X0022800Y0116192D01*
X0025389Y0113603D01*
X0029030Y0112094D01*
X0032970Y0112094D01*
X0036611Y0113603D01*
X0039397Y0116389D01*
X0040673Y0119469D01*
X0043000Y0117143D01*
X0043000Y0112141D01*
X0044054Y0111087D01*
X0051961Y0111087D01*
X0053016Y0112141D01*
X0053016Y0120048D01*
X0051961Y0121102D01*
X0046960Y0121102D01*
X0044800Y0123262D01*
X0044800Y0123799D01*
X0045278Y0123451D01*
X0046009Y0123079D01*
X0046788Y0122826D01*
X0047598Y0122698D01*
X0048004Y0122698D01*
X0048004Y0127901D01*
X0048012Y0127901D01*
X0048012Y0122698D01*
X0048418Y0122698D01*
X0049227Y0122826D01*
X0050007Y0123079D01*
X0050737Y0123451D01*
X0051401Y0123933D01*
X0051980Y0124513D01*
X0052462Y0125176D01*
X0052834Y0125906D01*
X0053087Y0126686D01*
X0053216Y0127496D01*
X0053216Y0127902D01*
X0048012Y0127902D01*
X0048012Y0127909D01*
X0053216Y0127909D01*
X0053216Y0128315D01*
X0053087Y0129125D01*
X0052834Y0129905D01*
X0052462Y0130635D01*
X0051980Y0131298D01*
X0051401Y0131878D01*
X0050737Y0132360D01*
X0050007Y0132732D01*
X0049227Y0132985D01*
X0048418Y0133113D01*
X0048012Y0133113D01*
X0048012Y0127910D01*
X0048004Y0127910D01*
X0048004Y0133113D01*
X0047598Y0133113D01*
X0046788Y0132985D01*
X0046009Y0132732D01*
X0045278Y0132360D01*
X0044800Y0132012D01*
X0044800Y0151927D01*
X0046960Y0154087D01*
X0049056Y0154087D01*
X0074516Y0128626D01*
X0075545Y0128200D01*
X0116299Y0128200D01*
X0115800Y0126995D01*
X0115800Y0125005D01*
X0116299Y0123800D01*
X0084691Y0123800D01*
X0084199Y0124292D01*
X0082772Y0124883D01*
X0081228Y0124883D01*
X0079801Y0124292D01*
X0079309Y0123800D01*
X0067884Y0123800D01*
X0064812Y0126873D01*
X0064827Y0126909D01*
X0064827Y0128902D01*
X0064064Y0130742D01*
X0062656Y0132151D01*
X0060815Y0132913D01*
X0058823Y0132913D01*
X0056982Y0132151D01*
X0055573Y0130742D01*
X0054811Y0128902D01*
X0054811Y0126909D01*
X0055573Y0125069D01*
X0056982Y0123660D01*
X0058823Y0122898D01*
X0060815Y0122898D01*
X0060852Y0122913D01*
X0064351Y0119414D01*
X0065138Y0118626D01*
X0066167Y0118200D01*
X0079309Y0118200D01*
X0079801Y0117708D01*
X0081228Y0117117D01*
X0082772Y0117117D01*
X0084199Y0117708D01*
X0084691Y0118200D01*
X0100709Y0118200D01*
X0100708Y0118199D01*
X0100117Y0116772D01*
X0100117Y0115228D01*
X0100708Y0113801D01*
X0101801Y0112708D01*
X0103228Y0112117D01*
X0104772Y0112117D01*
X0106199Y0112708D01*
X0106691Y0113200D01*
X0116548Y0113200D01*
X0116561Y0113168D01*
X0117968Y0111761D01*
X0119805Y0111000D01*
X0128195Y0111000D01*
X0119805Y0111000D01*
X0117968Y0110239D01*
X0116561Y0108832D01*
X0116548Y0108800D01*
X0113691Y0108800D01*
X0113199Y0109292D01*
X0111772Y0109883D01*
X0110228Y0109883D01*
X0108801Y0109292D01*
X0108309Y0108800D01*
X0095691Y0108800D01*
X0095199Y0109292D01*
X0093772Y0109883D01*
X0092228Y0109883D01*
X0090801Y0109292D01*
X0089708Y0108199D01*
X0089117Y0106772D01*
X0089117Y0105228D01*
X0089708Y0103801D01*
X0090801Y0102708D01*
X0092228Y0102117D01*
X0093772Y0102117D01*
X0095199Y0102708D01*
X0095691Y0103200D01*
X0108309Y0103200D01*
X0108801Y0102708D01*
X0110228Y0102117D01*
X0111772Y0102117D01*
X0113199Y0102708D01*
X0113691Y0103200D01*
X0116548Y0103200D01*
X0116561Y0103168D01*
X0117968Y0101761D01*
X0119618Y0101078D01*
X0119582Y0101072D01*
X0118804Y0100819D01*
X0118075Y0100447D01*
X0117412Y0099966D01*
X0116834Y0099388D01*
X0116353Y0098725D01*
X0115981Y0097996D01*
X0115728Y0097218D01*
X0115600Y0096409D01*
X0115600Y0096000D01*
X0124000Y0096000D01*
X0132400Y0096000D01*
X0124000Y0096000D01*
X0124000Y0096000D01*
X0124000Y0096000D01*
X0115600Y0096000D01*
X0115600Y0095591D01*
X0115728Y0094782D01*
X0115981Y0094004D01*
X0116353Y0093275D01*
X0116834Y0092612D01*
X0117412Y0092034D01*
X0118075Y0091553D01*
X0118804Y0091181D01*
X0119582Y0090928D01*
X0119618Y0090922D01*
X0119521Y0090948D02*
X0114883Y0090948D01*
X0114396Y0092946D02*
X0116591Y0092946D01*
X0115702Y0094945D02*
X0088602Y0094945D01*
X0089102Y0092946D02*
X0095987Y0092946D01*
X0098000Y0091000D02*
X0086000Y0079000D01*
X0065724Y0079000D01*
X0059819Y0084906D01*
X0054811Y0084952D02*
X0053216Y0084952D01*
X0053216Y0084909D02*
X0053216Y0085315D01*
X0053087Y0086125D01*
X0052834Y0086905D01*
X0052462Y0087635D01*
X0051980Y0088298D01*
X0051401Y0088878D01*
X0050737Y0089360D01*
X0050007Y0089732D01*
X0049227Y0089985D01*
X0048418Y0090113D01*
X0048012Y0090113D01*
X0048012Y0084910D01*
X0048004Y0084910D01*
X0048004Y0090113D01*
X0047598Y0090113D01*
X0046788Y0089985D01*
X0046009Y0089732D01*
X0045278Y0089360D01*
X0044615Y0088878D01*
X0044036Y0088298D01*
X0043554Y0087635D01*
X0043182Y0086905D01*
X0042928Y0086125D01*
X0042800Y0085315D01*
X0042800Y0084909D01*
X0048004Y0084909D01*
X0048004Y0084902D01*
X0042800Y0084902D01*
X0042800Y0084496D01*
X0042928Y0083686D01*
X0043182Y0082906D01*
X0043554Y0082176D01*
X0044036Y0081513D01*
X0044615Y0080933D01*
X0045278Y0080451D01*
X0046009Y0080079D01*
X0046788Y0079826D01*
X0047598Y0079698D01*
X0048004Y0079698D01*
X0048004Y0084901D01*
X0048012Y0084901D01*
X0048012Y0079698D01*
X0048418Y0079698D01*
X0049227Y0079826D01*
X0050007Y0080079D01*
X0050737Y0080451D01*
X0051401Y0080933D01*
X0051980Y0081513D01*
X0052462Y0082176D01*
X0052834Y0082906D01*
X0053087Y0083686D01*
X0053216Y0084496D01*
X0053216Y0084902D01*
X0048012Y0084902D01*
X0048012Y0084909D01*
X0053216Y0084909D01*
X0052850Y0082954D02*
X0055207Y0082954D01*
X0056687Y0080955D02*
X0051423Y0080955D01*
X0048012Y0080955D02*
X0048004Y0080955D01*
X0048004Y0082954D02*
X0048012Y0082954D01*
X0048004Y0084952D02*
X0048012Y0084952D01*
X0048004Y0086951D02*
X0048012Y0086951D01*
X0048004Y0088949D02*
X0048012Y0088949D01*
X0051302Y0088949D02*
X0056781Y0088949D01*
X0055246Y0086951D02*
X0052811Y0086951D01*
X0044714Y0088949D02*
X0022800Y0088949D01*
X0022800Y0086951D02*
X0024942Y0086951D01*
X0022944Y0084952D02*
X0022800Y0084952D01*
X0022800Y0090948D02*
X0068898Y0090948D01*
X0068898Y0092946D02*
X0022800Y0092946D01*
X0022800Y0094945D02*
X0069398Y0094945D01*
X0070334Y0096943D02*
X0059732Y0096943D01*
X0061730Y0098942D02*
X0071907Y0098942D01*
X0074717Y0100940D02*
X0063729Y0100940D01*
X0064619Y0102939D02*
X0090570Y0102939D01*
X0089238Y0104937D02*
X0064619Y0104937D01*
X0064619Y0106936D02*
X0089185Y0106936D01*
X0090444Y0108934D02*
X0064619Y0108934D01*
X0064619Y0110933D02*
X0119644Y0110933D01*
X0116797Y0112932D02*
X0106422Y0112932D01*
X0104000Y0116000D02*
X0124000Y0116000D01*
X0128356Y0110933D02*
X0212669Y0110933D01*
X0215036Y0112932D02*
X0131203Y0112932D01*
X0132169Y0114930D02*
X0232071Y0114930D01*
X0232028Y0116929D02*
X0132200Y0116929D01*
X0131337Y0108934D02*
X0145599Y0108934D01*
X0145117Y0106936D02*
X0132200Y0106936D01*
X0132172Y0104937D02*
X0145652Y0104937D01*
X0146200Y0102939D02*
X0131210Y0102939D01*
X0128822Y0100940D02*
X0146200Y0100940D01*
X0146200Y0098942D02*
X0131490Y0098942D01*
X0132315Y0096943D02*
X0146200Y0096943D01*
X0144985Y0094945D02*
X0132298Y0094945D01*
X0131409Y0092946D02*
X0142987Y0092946D01*
X0140988Y0090948D02*
X0128479Y0090948D01*
X0131322Y0088949D02*
X0138990Y0088949D01*
X0124000Y0106000D02*
X0111000Y0106000D01*
X0093000Y0106000D01*
X0095556Y0108934D02*
X0108444Y0108934D01*
X0113556Y0108934D02*
X0116663Y0108934D01*
X0116790Y0102939D02*
X0113430Y0102939D01*
X0108570Y0102939D02*
X0095430Y0102939D01*
X0087666Y0096943D02*
X0115685Y0096943D01*
X0116510Y0098942D02*
X0086093Y0098942D01*
X0083283Y0100940D02*
X0119178Y0100940D01*
X0111000Y0091000D02*
X0098000Y0091000D01*
X0093988Y0090948D02*
X0089102Y0090948D01*
X0088709Y0088949D02*
X0091990Y0088949D01*
X0089991Y0086951D02*
X0087896Y0086951D01*
X0087993Y0084952D02*
X0086491Y0084952D01*
X0085994Y0082954D02*
X0083973Y0082954D01*
X0094438Y0074960D02*
X0239959Y0074960D01*
X0237961Y0076958D02*
X0096436Y0076958D01*
X0098435Y0078957D02*
X0235962Y0078957D01*
X0233964Y0080955D02*
X0100433Y0080955D01*
X0082500Y0066500D02*
X0052500Y0066500D01*
X0048008Y0070992D01*
X0048008Y0073094D01*
X0053016Y0072961D02*
X0054811Y0072961D01*
X0055171Y0074960D02*
X0053016Y0074960D01*
X0053016Y0076958D02*
X0056601Y0076958D01*
X0061808Y0078957D02*
X0040905Y0078957D01*
X0040905Y0080955D02*
X0044593Y0080955D01*
X0043166Y0082954D02*
X0040084Y0082954D01*
X0039056Y0084952D02*
X0042800Y0084952D01*
X0043205Y0086951D02*
X0037058Y0086951D01*
X0040876Y0076958D02*
X0043000Y0076958D01*
X0043000Y0074960D02*
X0040048Y0074960D01*
X0038970Y0072961D02*
X0043000Y0072961D01*
X0043000Y0070963D02*
X0036971Y0070963D01*
X0043177Y0068964D02*
X0022800Y0068964D01*
X0022822Y0066966D02*
X0048074Y0066966D01*
X0050073Y0064967D02*
X0024821Y0064967D01*
X0025029Y0070963D02*
X0022800Y0070963D01*
X0022800Y0072961D02*
X0023030Y0072961D01*
X0053016Y0070963D02*
X0055281Y0070963D01*
X0065730Y0082954D02*
X0074027Y0082954D01*
X0071509Y0084952D02*
X0064827Y0084952D01*
X0064392Y0086951D02*
X0070104Y0086951D01*
X0069291Y0088949D02*
X0062857Y0088949D01*
X0055019Y0106936D02*
X0022800Y0106936D01*
X0022800Y0108934D02*
X0055019Y0108934D01*
X0055019Y0110933D02*
X0022800Y0110933D01*
X0022800Y0112932D02*
X0027009Y0112932D01*
X0024061Y0114930D02*
X0022800Y0114930D01*
X0034991Y0112932D02*
X0043000Y0112932D01*
X0043000Y0114930D02*
X0037939Y0114930D01*
X0039621Y0116929D02*
X0043000Y0116929D01*
X0041216Y0118927D02*
X0040449Y0118927D01*
X0042000Y0122102D02*
X0042000Y0153087D01*
X0048008Y0159094D01*
X0076102Y0131000D01*
X0193000Y0131000D01*
X0200000Y0138000D01*
X0200000Y0170500D01*
X0200000Y0188000D01*
X0210000Y0198000D01*
X0210000Y0229000D01*
X0213883Y0228845D02*
X0217354Y0228845D01*
X0216148Y0226847D02*
X0213311Y0226847D01*
X0212800Y0224848D02*
X0216275Y0224848D01*
X0217200Y0222850D02*
X0212800Y0222850D01*
X0212800Y0220851D02*
X0217200Y0220851D01*
X0217200Y0218853D02*
X0212800Y0218853D01*
X0212800Y0216854D02*
X0217200Y0216854D01*
X0217200Y0214856D02*
X0212800Y0214856D01*
X0212800Y0212857D02*
X0217200Y0212857D01*
X0217200Y0210859D02*
X0216075Y0210859D01*
X0213925Y0210859D02*
X0212800Y0210859D01*
X0207200Y0210859D02*
X0206075Y0210859D01*
X0203925Y0210859D02*
X0196075Y0210859D01*
X0195975Y0210900D02*
X0194025Y0210900D01*
X0192224Y0210154D01*
X0190846Y0208776D01*
X0190100Y0206975D01*
X0190100Y0205025D01*
X0190846Y0203224D01*
X0192224Y0201846D01*
X0194025Y0201100D01*
X0195975Y0201100D01*
X0197776Y0201846D01*
X0199154Y0203224D01*
X0199900Y0205025D01*
X0199900Y0206975D01*
X0199154Y0208776D01*
X0197776Y0210154D01*
X0195975Y0210900D01*
X0193925Y0210859D02*
X0186075Y0210859D01*
X0185975Y0210900D02*
X0184025Y0210900D01*
X0182224Y0210154D01*
X0180846Y0208776D01*
X0180100Y0206975D01*
X0180100Y0205025D01*
X0180846Y0203224D01*
X0182224Y0201846D01*
X0184025Y0201100D01*
X0185975Y0201100D01*
X0187776Y0201846D01*
X0189154Y0203224D01*
X0189900Y0205025D01*
X0189900Y0206975D01*
X0189154Y0208776D01*
X0187776Y0210154D01*
X0185975Y0210900D01*
X0183925Y0210859D02*
X0176075Y0210859D01*
X0175975Y0210900D02*
X0174025Y0210900D01*
X0172224Y0210154D01*
X0170846Y0208776D01*
X0170100Y0206975D01*
X0170100Y0205025D01*
X0170846Y0203224D01*
X0172224Y0201846D01*
X0174025Y0201100D01*
X0175975Y0201100D01*
X0177776Y0201846D01*
X0179154Y0203224D01*
X0179900Y0205025D01*
X0179900Y0206975D01*
X0179154Y0208776D01*
X0177776Y0210154D01*
X0175975Y0210900D01*
X0173925Y0210859D02*
X0167800Y0210859D01*
X0167800Y0210130D02*
X0167800Y0215557D01*
X0167374Y0216586D01*
X0166586Y0217374D01*
X0166546Y0217414D01*
X0166883Y0218228D01*
X0166883Y0219772D01*
X0166292Y0221199D01*
X0165199Y0222292D01*
X0163772Y0222883D01*
X0162228Y0222883D01*
X0160801Y0222292D01*
X0159708Y0221199D01*
X0159117Y0219772D01*
X0159117Y0218228D01*
X0159708Y0216801D01*
X0160295Y0216214D01*
X0160626Y0215414D01*
X0162200Y0213840D01*
X0162200Y0210130D01*
X0160846Y0208776D01*
X0160100Y0206975D01*
X0160100Y0205025D01*
X0160846Y0203224D01*
X0162224Y0201846D01*
X0164025Y0201100D01*
X0165975Y0201100D01*
X0167776Y0201846D01*
X0169154Y0203224D01*
X0169900Y0205025D01*
X0169900Y0206975D01*
X0169154Y0208776D01*
X0167800Y0210130D01*
X0169070Y0208860D02*
X0170930Y0208860D01*
X0170100Y0206862D02*
X0169900Y0206862D01*
X0169833Y0204863D02*
X0170167Y0204863D01*
X0171206Y0202865D02*
X0168794Y0202865D01*
X0165000Y0206000D02*
X0165000Y0215000D01*
X0163000Y0217000D01*
X0163000Y0219000D01*
X0166883Y0218853D02*
X0207200Y0218853D01*
X0207200Y0220851D02*
X0166436Y0220851D01*
X0163852Y0222850D02*
X0207200Y0222850D01*
X0207200Y0224848D02*
X0070968Y0224848D01*
X0070968Y0222850D02*
X0162148Y0222850D01*
X0159564Y0220851D02*
X0070968Y0220851D01*
X0070558Y0218853D02*
X0159117Y0218853D01*
X0159686Y0216854D02*
X0069049Y0216854D01*
X0067815Y0214856D02*
X0161185Y0214856D01*
X0162200Y0212857D02*
X0065817Y0212857D01*
X0066075Y0210859D02*
X0073925Y0210859D01*
X0074025Y0210900D02*
X0072224Y0210154D01*
X0070846Y0208776D01*
X0070100Y0206975D01*
X0070100Y0205025D01*
X0070846Y0203224D01*
X0072224Y0201846D01*
X0074025Y0201100D01*
X0075975Y0201100D01*
X0077776Y0201846D01*
X0079154Y0203224D01*
X0079900Y0205025D01*
X0079900Y0206975D01*
X0079154Y0208776D01*
X0077776Y0210154D01*
X0075975Y0210900D01*
X0074025Y0210900D01*
X0076075Y0210859D02*
X0083925Y0210859D01*
X0084025Y0210900D02*
X0082224Y0210154D01*
X0080846Y0208776D01*
X0080100Y0206975D01*
X0080100Y0205025D01*
X0080846Y0203224D01*
X0082224Y0201846D01*
X0084025Y0201100D01*
X0085975Y0201100D01*
X0087776Y0201846D01*
X0089154Y0203224D01*
X0089900Y0205025D01*
X0089900Y0206975D01*
X0089154Y0208776D01*
X0087776Y0210154D01*
X0085975Y0210900D01*
X0084025Y0210900D01*
X0086075Y0210859D02*
X0093925Y0210859D01*
X0094025Y0210900D02*
X0092224Y0210154D01*
X0090846Y0208776D01*
X0090100Y0206975D01*
X0090100Y0205025D01*
X0090846Y0203224D01*
X0092224Y0201846D01*
X0094025Y0201100D01*
X0095975Y0201100D01*
X0097776Y0201846D01*
X0099154Y0203224D01*
X0099900Y0205025D01*
X0099900Y0206975D01*
X0099154Y0208776D01*
X0097776Y0210154D01*
X0095975Y0210900D01*
X0094025Y0210900D01*
X0096075Y0210859D02*
X0103925Y0210859D01*
X0104025Y0210900D02*
X0102224Y0210154D01*
X0100846Y0208776D01*
X0100100Y0206975D01*
X0100100Y0205025D01*
X0100846Y0203224D01*
X0102224Y0201846D01*
X0104025Y0201100D01*
X0105975Y0201100D01*
X0107776Y0201846D01*
X0109154Y0203224D01*
X0109900Y0205025D01*
X0109900Y0206975D01*
X0109154Y0208776D01*
X0107776Y0210154D01*
X0105975Y0210900D01*
X0104025Y0210900D01*
X0106075Y0210859D02*
X0113925Y0210859D01*
X0114025Y0210900D02*
X0112224Y0210154D01*
X0110846Y0208776D01*
X0110100Y0206975D01*
X0110100Y0205025D01*
X0110846Y0203224D01*
X0112224Y0201846D01*
X0114025Y0201100D01*
X0115975Y0201100D01*
X0117776Y0201846D01*
X0119154Y0203224D01*
X0119900Y0205025D01*
X0119900Y0206975D01*
X0119154Y0208776D01*
X0117776Y0210154D01*
X0115975Y0210900D01*
X0114025Y0210900D01*
X0116075Y0210859D02*
X0123925Y0210859D01*
X0124025Y0210900D02*
X0122224Y0210154D01*
X0120846Y0208776D01*
X0120100Y0206975D01*
X0120100Y0205025D01*
X0120846Y0203224D01*
X0122224Y0201846D01*
X0124025Y0201100D01*
X0125975Y0201100D01*
X0127776Y0201846D01*
X0129154Y0203224D01*
X0129900Y0205025D01*
X0129900Y0206975D01*
X0129154Y0208776D01*
X0127776Y0210154D01*
X0125975Y0210900D01*
X0124025Y0210900D01*
X0126075Y0210859D02*
X0133925Y0210859D01*
X0134025Y0210900D02*
X0132224Y0210154D01*
X0130846Y0208776D01*
X0130100Y0206975D01*
X0130100Y0205025D01*
X0130846Y0203224D01*
X0132224Y0201846D01*
X0134025Y0201100D01*
X0135975Y0201100D01*
X0137776Y0201846D01*
X0139154Y0203224D01*
X0139900Y0205025D01*
X0139900Y0206975D01*
X0139154Y0208776D01*
X0137776Y0210154D01*
X0135975Y0210900D01*
X0134025Y0210900D01*
X0136075Y0210859D02*
X0143925Y0210859D01*
X0144025Y0210900D02*
X0142224Y0210154D01*
X0140846Y0208776D01*
X0140100Y0206975D01*
X0140100Y0205025D01*
X0140846Y0203224D01*
X0142224Y0201846D01*
X0144025Y0201100D01*
X0145975Y0201100D01*
X0147776Y0201846D01*
X0149154Y0203224D01*
X0149900Y0205025D01*
X0149900Y0206975D01*
X0149154Y0208776D01*
X0147776Y0210154D01*
X0145975Y0210900D01*
X0144025Y0210900D01*
X0146075Y0210859D02*
X0153925Y0210859D01*
X0154025Y0210900D02*
X0152224Y0210154D01*
X0150846Y0208776D01*
X0150100Y0206975D01*
X0150100Y0205025D01*
X0150846Y0203224D01*
X0152224Y0201846D01*
X0154025Y0201100D01*
X0155975Y0201100D01*
X0157776Y0201846D01*
X0159154Y0203224D01*
X0159900Y0205025D01*
X0159900Y0206975D01*
X0159154Y0208776D01*
X0157776Y0210154D01*
X0155975Y0210900D01*
X0154025Y0210900D01*
X0156075Y0210859D02*
X0162200Y0210859D01*
X0160930Y0208860D02*
X0159070Y0208860D01*
X0159900Y0206862D02*
X0160100Y0206862D01*
X0160167Y0204863D02*
X0159833Y0204863D01*
X0158794Y0202865D02*
X0161206Y0202865D01*
X0164000Y0198000D02*
X0169000Y0193000D01*
X0169000Y0176000D01*
X0171000Y0174000D01*
X0173607Y0176884D02*
X0178393Y0176884D01*
X0177164Y0174885D02*
X0174836Y0174885D01*
X0174741Y0172887D02*
X0175927Y0172887D01*
X0176000Y0169000D02*
X0164000Y0169000D01*
X0164000Y0158000D01*
X0156000Y0150000D01*
X0153411Y0152902D02*
X0131173Y0152902D01*
X0132156Y0154900D02*
X0156940Y0154900D01*
X0158939Y0156899D02*
X0132200Y0156899D01*
X0131374Y0158897D02*
X0160937Y0158897D01*
X0161200Y0160896D02*
X0128446Y0160896D01*
X0131165Y0162894D02*
X0134615Y0162894D01*
X0133256Y0164893D02*
X0132153Y0164893D01*
X0132200Y0166891D02*
X0133167Y0166891D01*
X0134200Y0168890D02*
X0131381Y0168890D01*
X0134200Y0170888D02*
X0128464Y0170888D01*
X0131158Y0172887D02*
X0134200Y0172887D01*
X0134200Y0174885D02*
X0132150Y0174885D01*
X0132200Y0176884D02*
X0134200Y0176884D01*
X0134200Y0178882D02*
X0131389Y0178882D01*
X0134200Y0180881D02*
X0128482Y0180881D01*
X0134200Y0182879D02*
X0022800Y0182879D01*
X0022800Y0180881D02*
X0119518Y0180881D01*
X0116611Y0178882D02*
X0084666Y0178882D01*
X0085203Y0178572D02*
X0082899Y0179902D01*
X0080330Y0180591D01*
X0077670Y0180591D01*
X0075101Y0179902D01*
X0072797Y0178572D01*
X0070916Y0176691D01*
X0069586Y0174388D01*
X0068898Y0171818D01*
X0068898Y0169158D01*
X0069586Y0166589D01*
X0070916Y0164285D01*
X0072797Y0162404D01*
X0075101Y0161074D01*
X0077670Y0160386D01*
X0080330Y0160386D01*
X0082899Y0161074D01*
X0085203Y0162404D01*
X0087084Y0164285D01*
X0088414Y0166589D01*
X0089102Y0169158D01*
X0089102Y0171818D01*
X0088414Y0174388D01*
X0087084Y0176691D01*
X0085203Y0178572D01*
X0086891Y0176884D02*
X0115800Y0176884D01*
X0115850Y0174885D02*
X0088126Y0174885D01*
X0088816Y0172887D02*
X0116842Y0172887D01*
X0119536Y0170888D02*
X0089102Y0170888D01*
X0089030Y0168890D02*
X0116619Y0168890D01*
X0115800Y0166891D02*
X0088495Y0166891D01*
X0087435Y0164893D02*
X0115847Y0164893D01*
X0116835Y0162894D02*
X0085693Y0162894D01*
X0082233Y0160896D02*
X0119554Y0160896D01*
X0116626Y0158897D02*
X0075787Y0158897D01*
X0075767Y0160896D02*
X0073788Y0160896D01*
X0072307Y0162894D02*
X0071790Y0162894D01*
X0070565Y0164893D02*
X0069791Y0164893D01*
X0069505Y0166891D02*
X0067793Y0166891D01*
X0068970Y0168890D02*
X0065794Y0168890D01*
X0064812Y0169873D02*
X0064827Y0169909D01*
X0064827Y0171902D01*
X0064064Y0173742D01*
X0062656Y0175151D01*
X0060815Y0175913D01*
X0058823Y0175913D01*
X0056982Y0175151D01*
X0055573Y0173742D01*
X0054811Y0171902D01*
X0054811Y0169909D01*
X0055573Y0168069D01*
X0056982Y0166660D01*
X0058823Y0165898D01*
X0060815Y0165898D01*
X0060852Y0165913D01*
X0079200Y0147565D01*
X0079200Y0142691D01*
X0078708Y0142199D01*
X0078117Y0140772D01*
X0078117Y0139228D01*
X0078708Y0137801D01*
X0079801Y0136708D01*
X0081228Y0136117D01*
X0082772Y0136117D01*
X0084199Y0136708D01*
X0085292Y0137801D01*
X0085883Y0139228D01*
X0085883Y0140772D01*
X0085292Y0142199D01*
X0084800Y0142691D01*
X0084800Y0149281D01*
X0084374Y0150310D01*
X0064812Y0169873D01*
X0064827Y0170888D02*
X0068898Y0170888D01*
X0069184Y0172887D02*
X0064419Y0172887D01*
X0062921Y0174885D02*
X0069874Y0174885D01*
X0071109Y0176884D02*
X0022800Y0176884D01*
X0022800Y0178882D02*
X0073334Y0178882D01*
X0071677Y0186876D02*
X0022800Y0186876D01*
X0022800Y0184878D02*
X0134162Y0184878D01*
X0132164Y0186876D02*
X0078323Y0186876D01*
X0076000Y0190000D02*
X0075000Y0189000D01*
X0076000Y0190000D02*
X0133000Y0190000D01*
X0137000Y0186000D01*
X0137000Y0166000D01*
X0140744Y0164893D02*
X0161200Y0164893D01*
X0161200Y0166891D02*
X0140833Y0166891D01*
X0139800Y0168890D02*
X0161200Y0168890D01*
X0161200Y0170888D02*
X0139800Y0170888D01*
X0139800Y0172887D02*
X0161200Y0172887D01*
X0161200Y0174885D02*
X0139800Y0174885D01*
X0139800Y0176884D02*
X0161200Y0176884D01*
X0161200Y0178882D02*
X0139800Y0178882D01*
X0139800Y0180881D02*
X0161200Y0180881D01*
X0161200Y0182879D02*
X0139800Y0182879D01*
X0139800Y0184878D02*
X0161200Y0184878D01*
X0160677Y0186876D02*
X0139668Y0186876D01*
X0138085Y0188875D02*
X0160117Y0188875D01*
X0160573Y0190873D02*
X0136086Y0190873D01*
X0138794Y0202865D02*
X0141206Y0202865D01*
X0140167Y0204863D02*
X0139833Y0204863D01*
X0139900Y0206862D02*
X0140100Y0206862D01*
X0140930Y0208860D02*
X0139070Y0208860D01*
X0130930Y0208860D02*
X0129070Y0208860D01*
X0129900Y0206862D02*
X0130100Y0206862D01*
X0130167Y0204863D02*
X0129833Y0204863D01*
X0128794Y0202865D02*
X0131206Y0202865D01*
X0121206Y0202865D02*
X0118794Y0202865D01*
X0119833Y0204863D02*
X0120167Y0204863D01*
X0120100Y0206862D02*
X0119900Y0206862D01*
X0119070Y0208860D02*
X0120930Y0208860D01*
X0110930Y0208860D02*
X0109070Y0208860D01*
X0109900Y0206862D02*
X0110100Y0206862D01*
X0110167Y0204863D02*
X0109833Y0204863D01*
X0108794Y0202865D02*
X0111206Y0202865D01*
X0101206Y0202865D02*
X0098794Y0202865D01*
X0099833Y0204863D02*
X0100167Y0204863D01*
X0100100Y0206862D02*
X0099900Y0206862D01*
X0099070Y0208860D02*
X0100930Y0208860D01*
X0091206Y0202865D02*
X0088794Y0202865D01*
X0089833Y0204863D02*
X0090167Y0204863D01*
X0090100Y0206862D02*
X0089900Y0206862D01*
X0089070Y0208860D02*
X0090930Y0208860D01*
X0080930Y0208860D02*
X0079070Y0208860D01*
X0079900Y0206862D02*
X0080100Y0206862D01*
X0080167Y0204863D02*
X0079833Y0204863D01*
X0078794Y0202865D02*
X0081206Y0202865D01*
X0071206Y0202865D02*
X0069095Y0202865D01*
X0069833Y0204863D02*
X0070167Y0204863D01*
X0070100Y0206862D02*
X0069900Y0206862D01*
X0069070Y0208860D02*
X0070930Y0208860D01*
X0065000Y0206000D02*
X0065000Y0203000D01*
X0070000Y0198000D01*
X0164000Y0198000D01*
X0167092Y0198868D02*
X0206908Y0198868D01*
X0207200Y0200866D02*
X0071094Y0200866D01*
X0071620Y0194870D02*
X0163170Y0194870D01*
X0163202Y0192872D02*
X0075798Y0192872D01*
X0074202Y0192872D02*
X0072841Y0192872D01*
X0069000Y0192000D02*
X0059900Y0201100D01*
X0032970Y0201100D01*
X0030100Y0203970D01*
X0030100Y0208030D01*
X0032970Y0210900D01*
X0035940Y0210900D01*
X0046000Y0220960D01*
X0046000Y0224000D01*
X0050968Y0224848D02*
X0051031Y0224848D01*
X0050968Y0222850D02*
X0051031Y0222850D01*
X0050968Y0226847D02*
X0051031Y0226847D01*
X0051317Y0228845D02*
X0050683Y0228845D01*
X0049351Y0230844D02*
X0052649Y0230844D01*
X0059351Y0230844D02*
X0062649Y0230844D01*
X0061317Y0228845D02*
X0060683Y0228845D01*
X0060968Y0226847D02*
X0061031Y0226847D01*
X0060968Y0224848D02*
X0061031Y0224848D01*
X0060968Y0222850D02*
X0061031Y0222850D01*
X0060968Y0220851D02*
X0061031Y0220851D01*
X0061442Y0218853D02*
X0060558Y0218853D01*
X0061894Y0216854D02*
X0059049Y0216854D01*
X0062000Y0213000D02*
X0052000Y0213000D01*
X0045000Y0206000D01*
X0043000Y0214000D02*
X0035000Y0206000D01*
X0030597Y0199514D02*
X0030597Y0199514D01*
X0031243Y0198868D02*
X0022800Y0198868D01*
X0022800Y0200866D02*
X0029245Y0200866D01*
X0025000Y0200900D02*
X0025000Y0206000D01*
X0025000Y0206000D01*
X0025000Y0200900D01*
X0025000Y0202865D02*
X0025000Y0202865D01*
X0025000Y0204863D02*
X0025000Y0204863D01*
X0025000Y0206862D02*
X0025000Y0206862D01*
X0025000Y0208860D02*
X0025000Y0208860D01*
X0025000Y0210859D02*
X0025000Y0210859D01*
X0026551Y0210859D02*
X0028969Y0210859D01*
X0030968Y0212857D02*
X0022800Y0212857D01*
X0022800Y0210859D02*
X0023449Y0210859D01*
X0022800Y0214856D02*
X0035936Y0214856D01*
X0036000Y0216854D02*
X0036000Y0216854D01*
X0036000Y0218853D02*
X0036000Y0218853D01*
X0036000Y0220851D02*
X0036000Y0220851D01*
X0036000Y0222850D02*
X0036000Y0222850D01*
X0036000Y0224848D02*
X0036000Y0224848D01*
X0036000Y0226847D02*
X0036000Y0226847D01*
X0036000Y0228845D02*
X0036000Y0228845D01*
X0036000Y0230844D02*
X0036000Y0230844D01*
X0039634Y0230844D02*
X0042649Y0230844D01*
X0041317Y0228845D02*
X0040890Y0228845D01*
X0047199Y0234841D02*
X0022800Y0234841D01*
X0022800Y0236839D02*
X0045201Y0236839D01*
X0043202Y0238838D02*
X0022800Y0238838D01*
X0022800Y0240836D02*
X0042200Y0240836D01*
X0042200Y0242835D02*
X0022800Y0242835D01*
X0022800Y0244833D02*
X0042200Y0244833D01*
X0042200Y0246832D02*
X0022800Y0246832D01*
X0022800Y0248830D02*
X0042200Y0248830D01*
X0042200Y0250829D02*
X0022800Y0250829D01*
X0022800Y0252827D02*
X0042200Y0252827D01*
X0042200Y0254826D02*
X0022800Y0254826D01*
X0022800Y0256824D02*
X0042200Y0256824D01*
X0042200Y0258823D02*
X0024611Y0258823D01*
X0026610Y0260821D02*
X0042200Y0260821D01*
X0041250Y0262820D02*
X0038993Y0262820D01*
X0038890Y0262678D02*
X0039362Y0263327D01*
X0039726Y0264042D01*
X0039974Y0264806D01*
X0040100Y0265599D01*
X0040100Y0266000D01*
X0035000Y0266000D01*
X0035000Y0260900D01*
X0035401Y0260900D01*
X0036194Y0261026D01*
X0036958Y0261274D01*
X0037673Y0261638D01*
X0038322Y0262110D01*
X0038890Y0262678D01*
X0039976Y0264818D02*
X0040186Y0264818D01*
X0040100Y0266817D02*
X0040034Y0266817D01*
X0039258Y0268815D02*
X0040886Y0268815D01*
X0043818Y0270814D02*
X0036688Y0270814D01*
X0035000Y0270814D02*
X0035000Y0270814D01*
X0035000Y0268815D02*
X0035000Y0268815D01*
X0035000Y0266817D02*
X0035000Y0266817D01*
X0035000Y0266000D02*
X0035000Y0266000D01*
X0035000Y0266000D01*
X0035000Y0260900D01*
X0034599Y0260900D01*
X0033806Y0261026D01*
X0033042Y0261274D01*
X0032327Y0261638D01*
X0031678Y0262110D01*
X0031110Y0262678D01*
X0030638Y0263327D01*
X0030274Y0264042D01*
X0030026Y0264806D01*
X0029900Y0265599D01*
X0029900Y0266000D01*
X0035000Y0266000D01*
X0035000Y0264818D02*
X0035000Y0264818D01*
X0035000Y0262820D02*
X0035000Y0262820D01*
X0031007Y0262820D02*
X0028750Y0262820D01*
X0029814Y0264818D02*
X0030024Y0264818D01*
X0029966Y0266817D02*
X0029900Y0266817D01*
X0025000Y0266000D02*
X0058000Y0299000D01*
X0131000Y0299000D01*
X0141000Y0289000D01*
X0144839Y0292798D02*
X0147161Y0292798D01*
X0154839Y0292798D02*
X0156878Y0292798D01*
X0160819Y0292798D02*
X0161181Y0292798D01*
X0161181Y0294600D02*
X0161181Y0289181D01*
X0166600Y0289181D01*
X0166600Y0291320D01*
X0163320Y0294600D01*
X0161181Y0294600D01*
X0161181Y0290799D02*
X0160819Y0290799D01*
X0165122Y0292798D02*
X0188737Y0292798D01*
X0188652Y0292713D02*
X0188125Y0291987D01*
X0187718Y0291188D01*
X0187440Y0290335D01*
X0187300Y0289449D01*
X0187300Y0289000D01*
X0193000Y0289000D01*
X0198700Y0289000D01*
X0198700Y0289449D01*
X0198560Y0290335D01*
X0198282Y0291188D01*
X0197875Y0291987D01*
X0197348Y0292713D01*
X0196713Y0293348D01*
X0195987Y0293875D01*
X0195188Y0294282D01*
X0194335Y0294560D01*
X0193449Y0294700D01*
X0193000Y0294700D01*
X0193000Y0289000D01*
X0193000Y0289000D01*
X0193000Y0289000D01*
X0198700Y0289000D01*
X0198700Y0288551D01*
X0198560Y0287665D01*
X0198282Y0286812D01*
X0197875Y0286013D01*
X0197348Y0285287D01*
X0196713Y0284652D01*
X0195987Y0284125D01*
X0195544Y0283899D01*
X0196115Y0283663D01*
X0197663Y0282115D01*
X0198500Y0280094D01*
X0198500Y0277906D01*
X0197663Y0275884D01*
X0196115Y0274337D01*
X0194094Y0273500D01*
X0191906Y0273500D01*
X0189884Y0274337D01*
X0188337Y0275884D01*
X0187500Y0277906D01*
X0187500Y0280094D01*
X0188337Y0282115D01*
X0189884Y0283663D01*
X0190456Y0283899D01*
X0190013Y0284125D01*
X0189287Y0284652D01*
X0188652Y0285287D01*
X0188125Y0286013D01*
X0187718Y0286812D01*
X0187440Y0287665D01*
X0187300Y0288551D01*
X0187300Y0289000D01*
X0193000Y0289000D01*
X0193000Y0289000D01*
X0193000Y0294700D01*
X0192551Y0294700D01*
X0191665Y0294560D01*
X0190812Y0294282D01*
X0190013Y0293875D01*
X0189287Y0293348D01*
X0188652Y0292713D01*
X0187591Y0290799D02*
X0166600Y0290799D01*
X0166600Y0288801D02*
X0187300Y0288801D01*
X0187723Y0286802D02*
X0166600Y0286802D01*
X0164723Y0284803D02*
X0189135Y0284803D01*
X0189027Y0282805D02*
X0164832Y0282805D01*
X0166400Y0280806D02*
X0187795Y0280806D01*
X0187500Y0278808D02*
X0166400Y0278808D01*
X0166400Y0276809D02*
X0187954Y0276809D01*
X0189411Y0274811D02*
X0164448Y0274811D01*
X0164599Y0271100D02*
X0163806Y0270974D01*
X0163042Y0270726D01*
X0162327Y0270362D01*
X0161678Y0269890D01*
X0161110Y0269322D01*
X0160638Y0268673D01*
X0160274Y0267958D01*
X0160026Y0267194D01*
X0159900Y0266401D01*
X0159900Y0266000D01*
X0165000Y0266000D01*
X0165000Y0266000D01*
X0165000Y0271100D01*
X0165401Y0271100D01*
X0166194Y0270974D01*
X0166958Y0270726D01*
X0167673Y0270362D01*
X0168322Y0269890D01*
X0168890Y0269322D01*
X0169362Y0268673D01*
X0169726Y0267958D01*
X0169974Y0267194D01*
X0170100Y0266401D01*
X0170100Y0266000D01*
X0165000Y0266000D01*
X0165000Y0266000D01*
X0165000Y0266000D01*
X0165000Y0271100D01*
X0164599Y0271100D01*
X0165000Y0270814D02*
X0165000Y0270814D01*
X0166688Y0270814D02*
X0173818Y0270814D01*
X0174025Y0270900D02*
X0172224Y0270154D01*
X0170846Y0268776D01*
X0170100Y0266975D01*
X0170100Y0265025D01*
X0170846Y0263224D01*
X0172224Y0261846D01*
X0174025Y0261100D01*
X0175975Y0261100D01*
X0177776Y0261846D01*
X0179154Y0263224D01*
X0179900Y0265025D01*
X0179900Y0266975D01*
X0179154Y0268776D01*
X0177776Y0270154D01*
X0175975Y0270900D01*
X0174025Y0270900D01*
X0176182Y0270814D02*
X0183818Y0270814D01*
X0184025Y0270900D02*
X0182224Y0270154D01*
X0180846Y0268776D01*
X0180100Y0266975D01*
X0180100Y0265025D01*
X0180846Y0263224D01*
X0182224Y0261846D01*
X0184025Y0261100D01*
X0185975Y0261100D01*
X0187776Y0261846D01*
X0189154Y0263224D01*
X0189900Y0265025D01*
X0189900Y0266975D01*
X0189154Y0268776D01*
X0187776Y0270154D01*
X0185975Y0270900D01*
X0184025Y0270900D01*
X0186182Y0270814D02*
X0193818Y0270814D01*
X0194025Y0270900D02*
X0192224Y0270154D01*
X0190846Y0268776D01*
X0190100Y0266975D01*
X0190100Y0265025D01*
X0190846Y0263224D01*
X0192224Y0261846D01*
X0194025Y0261100D01*
X0195975Y0261100D01*
X0197776Y0261846D01*
X0199154Y0263224D01*
X0199900Y0265025D01*
X0199900Y0266975D01*
X0199154Y0268776D01*
X0197776Y0270154D01*
X0195975Y0270900D01*
X0194025Y0270900D01*
X0196182Y0270814D02*
X0203818Y0270814D01*
X0204025Y0270900D02*
X0202224Y0270154D01*
X0200846Y0268776D01*
X0200100Y0266975D01*
X0200100Y0265025D01*
X0200846Y0263224D01*
X0202224Y0261846D01*
X0204025Y0261100D01*
X0205975Y0261100D01*
X0207776Y0261846D01*
X0209154Y0263224D01*
X0209900Y0265025D01*
X0209900Y0266975D01*
X0209154Y0268776D01*
X0207776Y0270154D01*
X0205975Y0270900D01*
X0204025Y0270900D01*
X0206182Y0270814D02*
X0213818Y0270814D01*
X0214025Y0270900D02*
X0212224Y0270154D01*
X0210846Y0268776D01*
X0210100Y0266975D01*
X0210100Y0265025D01*
X0210846Y0263224D01*
X0212224Y0261846D01*
X0214025Y0261100D01*
X0215975Y0261100D01*
X0217776Y0261846D01*
X0219154Y0263224D01*
X0219900Y0265025D01*
X0219900Y0266975D01*
X0219154Y0268776D01*
X0217776Y0270154D01*
X0215975Y0270900D01*
X0214025Y0270900D01*
X0216182Y0270814D02*
X0223818Y0270814D01*
X0224025Y0270900D02*
X0222224Y0270154D01*
X0220846Y0268776D01*
X0220100Y0266975D01*
X0220100Y0265025D01*
X0220846Y0263224D01*
X0222224Y0261846D01*
X0224025Y0261100D01*
X0225975Y0261100D01*
X0227776Y0261846D01*
X0229154Y0263224D01*
X0229900Y0265025D01*
X0229900Y0266975D01*
X0229154Y0268776D01*
X0227776Y0270154D01*
X0225975Y0270900D01*
X0224025Y0270900D01*
X0226182Y0270814D02*
X0233818Y0270814D01*
X0234025Y0270900D02*
X0232224Y0270154D01*
X0230846Y0268776D01*
X0230100Y0266975D01*
X0230100Y0265025D01*
X0230846Y0263224D01*
X0232224Y0261846D01*
X0234025Y0261100D01*
X0235940Y0261100D01*
X0248626Y0248414D01*
X0249414Y0247626D01*
X0250443Y0247200D01*
X0313557Y0247200D01*
X0314586Y0247626D01*
X0315374Y0248414D01*
X0338077Y0271117D01*
X0338772Y0271117D01*
X0340199Y0271708D01*
X0341292Y0272801D01*
X0341883Y0274228D01*
X0341883Y0275772D01*
X0341292Y0277199D01*
X0340199Y0278292D01*
X0338772Y0278883D01*
X0337228Y0278883D01*
X0335801Y0278292D01*
X0334708Y0277199D01*
X0334117Y0275772D01*
X0334117Y0275077D01*
X0311840Y0252800D01*
X0307705Y0252800D01*
X0307883Y0253228D01*
X0307883Y0254772D01*
X0307292Y0256199D01*
X0306199Y0257292D01*
X0304772Y0257883D01*
X0303228Y0257883D01*
X0301801Y0257292D01*
X0301309Y0256800D01*
X0258160Y0256800D01*
X0253743Y0261217D01*
X0254025Y0261100D01*
X0255975Y0261100D01*
X0257776Y0261846D01*
X0259154Y0263224D01*
X0259900Y0265025D01*
X0259900Y0266975D01*
X0259154Y0268776D01*
X0257776Y0270154D01*
X0255975Y0270900D01*
X0254025Y0270900D01*
X0252224Y0270154D01*
X0250846Y0268776D01*
X0250100Y0266975D01*
X0250100Y0265025D01*
X0250217Y0264743D01*
X0249900Y0265060D01*
X0249900Y0266975D01*
X0249154Y0268776D01*
X0247776Y0270154D01*
X0245975Y0270900D01*
X0244025Y0270900D01*
X0242224Y0270154D01*
X0240846Y0268776D01*
X0240100Y0266975D01*
X0240100Y0265025D01*
X0240217Y0264743D01*
X0239900Y0265060D01*
X0239900Y0266975D01*
X0239154Y0268776D01*
X0237776Y0270154D01*
X0235975Y0270900D01*
X0234025Y0270900D01*
X0236182Y0270814D02*
X0243818Y0270814D01*
X0246182Y0270814D02*
X0253818Y0270814D01*
X0256182Y0270814D02*
X0329854Y0270814D01*
X0327856Y0268815D02*
X0259114Y0268815D01*
X0259900Y0266817D02*
X0325857Y0266817D01*
X0323859Y0264818D02*
X0259814Y0264818D01*
X0258750Y0262820D02*
X0321860Y0262820D01*
X0319862Y0260821D02*
X0254138Y0260821D01*
X0256137Y0258823D02*
X0317863Y0258823D01*
X0315865Y0256824D02*
X0306667Y0256824D01*
X0307861Y0254826D02*
X0313866Y0254826D01*
X0311868Y0252827D02*
X0307717Y0252827D01*
X0304000Y0254000D02*
X0257000Y0254000D01*
X0245000Y0266000D01*
X0240186Y0264818D02*
X0240141Y0264818D01*
X0240100Y0266817D02*
X0239900Y0266817D01*
X0239114Y0268815D02*
X0240886Y0268815D01*
X0235000Y0266000D02*
X0251000Y0250000D01*
X0313000Y0250000D01*
X0338000Y0275000D01*
X0341883Y0274811D02*
X0342646Y0274811D01*
X0342646Y0276809D02*
X0341453Y0276809D01*
X0342646Y0278808D02*
X0338953Y0278808D01*
X0337047Y0278808D02*
X0332571Y0278808D01*
X0331970Y0278559D02*
X0335611Y0280067D01*
X0338398Y0282854D01*
X0339906Y0286495D01*
X0339906Y0290435D01*
X0338398Y0294076D01*
X0335611Y0296863D01*
X0331970Y0298371D01*
X0328030Y0298371D01*
X0324389Y0296863D01*
X0321602Y0294076D01*
X0320094Y0290435D01*
X0320094Y0286495D01*
X0321602Y0282854D01*
X0324389Y0280067D01*
X0328030Y0278559D01*
X0331970Y0278559D01*
X0334547Y0276809D02*
X0198046Y0276809D01*
X0198500Y0278808D02*
X0327429Y0278808D01*
X0323649Y0280806D02*
X0198205Y0280806D01*
X0196973Y0282805D02*
X0321651Y0282805D01*
X0320794Y0284803D02*
X0196865Y0284803D01*
X0198277Y0286802D02*
X0320094Y0286802D01*
X0320094Y0288801D02*
X0198700Y0288801D01*
X0198409Y0290799D02*
X0320245Y0290799D01*
X0321072Y0292798D02*
X0197263Y0292798D01*
X0193000Y0292798D02*
X0193000Y0292798D01*
X0193000Y0290799D02*
X0193000Y0290799D01*
X0196589Y0274811D02*
X0333851Y0274811D01*
X0331853Y0272812D02*
X0153800Y0272812D01*
X0154448Y0274811D02*
X0157552Y0274811D01*
X0156182Y0270814D02*
X0163312Y0270814D01*
X0165000Y0268815D02*
X0165000Y0268815D01*
X0165000Y0266817D02*
X0165000Y0266817D01*
X0165000Y0266000D02*
X0159900Y0266000D01*
X0159900Y0265599D01*
X0160026Y0264806D01*
X0160274Y0264042D01*
X0160638Y0263327D01*
X0161110Y0262678D01*
X0161678Y0262110D01*
X0162327Y0261638D01*
X0163042Y0261274D01*
X0163806Y0261026D01*
X0164599Y0260900D01*
X0165000Y0260900D01*
X0165401Y0260900D01*
X0166194Y0261026D01*
X0166958Y0261274D01*
X0167673Y0261638D01*
X0168322Y0262110D01*
X0168890Y0262678D01*
X0169362Y0263327D01*
X0169726Y0264042D01*
X0169974Y0264806D01*
X0170100Y0265599D01*
X0170100Y0266000D01*
X0165000Y0266000D01*
X0165000Y0260900D01*
X0165000Y0266000D01*
X0165000Y0266000D01*
X0165000Y0264818D02*
X0165000Y0264818D01*
X0165000Y0262820D02*
X0165000Y0262820D01*
X0168993Y0262820D02*
X0171250Y0262820D01*
X0170186Y0264818D02*
X0169976Y0264818D01*
X0170034Y0266817D02*
X0170100Y0266817D01*
X0170886Y0268815D02*
X0169258Y0268815D01*
X0160742Y0268815D02*
X0159114Y0268815D01*
X0159900Y0266817D02*
X0159966Y0266817D01*
X0160024Y0264818D02*
X0159814Y0264818D01*
X0158750Y0262820D02*
X0161007Y0262820D01*
X0155000Y0266000D02*
X0151000Y0270000D01*
X0151000Y0279000D01*
X0147552Y0274811D02*
X0144448Y0274811D01*
X0143818Y0270814D02*
X0136182Y0270814D01*
X0135975Y0270900D02*
X0134025Y0270900D01*
X0132224Y0270154D01*
X0130846Y0268776D01*
X0130100Y0266975D01*
X0130100Y0265025D01*
X0130846Y0263224D01*
X0132224Y0261846D01*
X0134025Y0261100D01*
X0135975Y0261100D01*
X0137776Y0261846D01*
X0139154Y0263224D01*
X0139900Y0265025D01*
X0139900Y0266975D01*
X0139154Y0268776D01*
X0137776Y0270154D01*
X0135975Y0270900D01*
X0133818Y0270814D02*
X0126182Y0270814D01*
X0123818Y0270814D02*
X0122800Y0270814D01*
X0122800Y0272812D02*
X0148200Y0272812D01*
X0148200Y0270814D02*
X0146182Y0270814D01*
X0149900Y0266817D02*
X0150100Y0266817D01*
X0150186Y0264818D02*
X0149814Y0264818D01*
X0148750Y0262820D02*
X0151250Y0262820D01*
X0141250Y0262820D02*
X0138750Y0262820D01*
X0139814Y0264818D02*
X0140186Y0264818D01*
X0140100Y0266817D02*
X0139900Y0266817D01*
X0139114Y0268815D02*
X0140886Y0268815D01*
X0137552Y0274811D02*
X0122800Y0274811D01*
X0122800Y0276809D02*
X0135600Y0276809D01*
X0135600Y0278808D02*
X0122800Y0278808D01*
X0122800Y0280806D02*
X0135600Y0280806D01*
X0134000Y0285000D02*
X0123000Y0285000D01*
X0120000Y0282000D01*
X0120000Y0253000D01*
X0125000Y0248000D01*
X0145000Y0248000D01*
X0147662Y0250829D02*
X0246211Y0250829D01*
X0244213Y0252827D02*
X0124132Y0252827D01*
X0122800Y0254826D02*
X0242214Y0254826D01*
X0240216Y0256824D02*
X0122800Y0256824D01*
X0122800Y0258823D02*
X0238217Y0258823D01*
X0236219Y0260821D02*
X0122800Y0260821D01*
X0128750Y0262820D02*
X0131250Y0262820D01*
X0130186Y0264818D02*
X0129814Y0264818D01*
X0129900Y0266817D02*
X0130100Y0266817D01*
X0130886Y0268815D02*
X0129114Y0268815D01*
X0117200Y0270814D02*
X0116182Y0270814D01*
X0117200Y0272812D02*
X0089162Y0272812D01*
X0089162Y0271136D02*
X0089162Y0275777D01*
X0088108Y0276831D01*
X0081892Y0276831D01*
X0080838Y0275777D01*
X0080838Y0271136D01*
X0081892Y0270082D01*
X0082152Y0270082D01*
X0080846Y0268776D01*
X0080100Y0266975D01*
X0080100Y0265025D01*
X0080846Y0263224D01*
X0082152Y0261918D01*
X0081892Y0261918D01*
X0080838Y0260864D01*
X0080838Y0256223D01*
X0081892Y0255169D01*
X0088108Y0255169D01*
X0089162Y0256223D01*
X0089162Y0260864D01*
X0088108Y0261918D01*
X0087848Y0261918D01*
X0089154Y0263224D01*
X0089900Y0265025D01*
X0089900Y0266975D01*
X0089154Y0268776D01*
X0087848Y0270082D01*
X0088108Y0270082D01*
X0089162Y0271136D01*
X0088840Y0270814D02*
X0093818Y0270814D01*
X0096182Y0270814D02*
X0103818Y0270814D01*
X0106182Y0270814D02*
X0113818Y0270814D01*
X0110886Y0268815D02*
X0109114Y0268815D01*
X0109900Y0266817D02*
X0110100Y0266817D01*
X0110186Y0264818D02*
X0109814Y0264818D01*
X0108750Y0262820D02*
X0111250Y0262820D01*
X0112200Y0260821D02*
X0107800Y0260821D01*
X0107800Y0258823D02*
X0112200Y0258823D01*
X0112200Y0256824D02*
X0107800Y0256824D01*
X0107800Y0254826D02*
X0112200Y0254826D01*
X0112200Y0252827D02*
X0107800Y0252827D01*
X0107800Y0250829D02*
X0112200Y0250829D01*
X0112200Y0248830D02*
X0107800Y0248830D01*
X0107800Y0246832D02*
X0113208Y0246832D01*
X0115000Y0249000D02*
X0115000Y0266000D01*
X0117200Y0274811D02*
X0089162Y0274811D01*
X0088130Y0276809D02*
X0117200Y0276809D01*
X0117200Y0278808D02*
X0089362Y0278808D01*
X0089362Y0278705D02*
X0089362Y0280543D01*
X0085000Y0280543D01*
X0085000Y0276969D01*
X0087626Y0276969D01*
X0088134Y0277105D01*
X0088590Y0277368D01*
X0088963Y0277740D01*
X0089226Y0278197D01*
X0089362Y0278705D01*
X0089362Y0280543D02*
X0089362Y0282381D01*
X0089226Y0282890D01*
X0088963Y0283346D01*
X0088590Y0283719D01*
X0088134Y0283982D01*
X0087626Y0284118D01*
X0085000Y0284118D01*
X0085000Y0280543D01*
X0085000Y0280543D01*
X0085000Y0276968D01*
X0082374Y0276969D01*
X0081866Y0277105D01*
X0081410Y0277368D01*
X0081037Y0277740D01*
X0080774Y0278197D01*
X0080638Y0278705D01*
X0080638Y0280543D01*
X0085000Y0280543D01*
X0085000Y0280543D01*
X0085000Y0280543D01*
X0089362Y0280543D01*
X0089362Y0280806D02*
X0117200Y0280806D01*
X0117303Y0282805D02*
X0089249Y0282805D01*
X0085000Y0282805D02*
X0085000Y0282805D01*
X0085000Y0284118D02*
X0082374Y0284118D01*
X0081866Y0283982D01*
X0081410Y0283719D01*
X0081037Y0283346D01*
X0080774Y0282890D01*
X0080638Y0282381D01*
X0080638Y0280543D01*
X0085000Y0280543D01*
X0085000Y0284118D01*
X0086823Y0286802D02*
X0120842Y0286802D01*
X0120626Y0286586D02*
X0120626Y0286586D01*
X0118844Y0284803D02*
X0047763Y0284803D01*
X0045765Y0282805D02*
X0070751Y0282805D01*
X0070774Y0282890D02*
X0070638Y0282381D01*
X0070638Y0280543D01*
X0070638Y0278705D01*
X0070774Y0278197D01*
X0071037Y0277740D01*
X0071410Y0277368D01*
X0071866Y0277105D01*
X0072374Y0276969D01*
X0075000Y0276968D01*
X0075000Y0280543D01*
X0075000Y0276969D01*
X0077626Y0276969D01*
X0078134Y0277105D01*
X0078590Y0277368D01*
X0078963Y0277740D01*
X0079226Y0278197D01*
X0079362Y0278705D01*
X0079362Y0280543D01*
X0075000Y0280543D01*
X0075000Y0280543D01*
X0075000Y0280543D01*
X0070638Y0280543D01*
X0075000Y0280543D01*
X0075000Y0280543D01*
X0079362Y0280543D01*
X0079362Y0282381D01*
X0079226Y0282890D01*
X0078963Y0283346D01*
X0078590Y0283719D01*
X0078134Y0283982D01*
X0077626Y0284118D01*
X0075000Y0284118D01*
X0075000Y0280543D01*
X0075000Y0284118D01*
X0072374Y0284118D01*
X0071866Y0283982D01*
X0071410Y0283719D01*
X0071037Y0283346D01*
X0070774Y0282890D01*
X0070638Y0280806D02*
X0043766Y0280806D01*
X0041768Y0278808D02*
X0070638Y0278808D01*
X0071892Y0276831D02*
X0070838Y0275777D01*
X0070838Y0271136D01*
X0071892Y0270082D01*
X0072152Y0270082D01*
X0070846Y0268776D01*
X0070100Y0266975D01*
X0070100Y0265025D01*
X0070846Y0263224D01*
X0072152Y0261918D01*
X0071892Y0261918D01*
X0070838Y0260864D01*
X0070838Y0256223D01*
X0071892Y0255169D01*
X0078108Y0255169D01*
X0079162Y0256223D01*
X0079162Y0260864D01*
X0078108Y0261918D01*
X0077848Y0261918D01*
X0079154Y0263224D01*
X0079900Y0265025D01*
X0079900Y0266975D01*
X0079154Y0268776D01*
X0077848Y0270082D01*
X0078108Y0270082D01*
X0079162Y0271136D01*
X0079162Y0275777D01*
X0078108Y0276831D01*
X0071892Y0276831D01*
X0071870Y0276809D02*
X0039769Y0276809D01*
X0037771Y0274811D02*
X0070838Y0274811D01*
X0070838Y0272812D02*
X0035772Y0272812D01*
X0045000Y0266000D02*
X0045000Y0241000D01*
X0049000Y0237000D01*
X0082000Y0237000D01*
X0119500Y0237000D01*
X0163000Y0237000D01*
X0166883Y0236839D02*
X0327500Y0236839D01*
X0327500Y0237094D02*
X0327500Y0234906D01*
X0328337Y0232884D01*
X0329884Y0231337D01*
X0330699Y0231000D01*
X0329884Y0230663D01*
X0328337Y0229115D01*
X0327500Y0227094D01*
X0327500Y0224906D01*
X0328337Y0222884D01*
X0329884Y0221337D01*
X0330699Y0221000D01*
X0329884Y0220663D01*
X0328337Y0219115D01*
X0327500Y0217094D01*
X0327500Y0214906D01*
X0328337Y0212884D01*
X0329722Y0211500D01*
X0328554Y0211500D01*
X0327500Y0210446D01*
X0327500Y0201554D01*
X0328554Y0200500D01*
X0337446Y0200500D01*
X0338500Y0201554D01*
X0338500Y0210446D01*
X0337446Y0211500D01*
X0336278Y0211500D01*
X0337663Y0212884D01*
X0338500Y0214906D01*
X0338500Y0217094D01*
X0337663Y0219115D01*
X0336115Y0220663D01*
X0335301Y0221000D01*
X0336115Y0221337D01*
X0337663Y0222884D01*
X0338500Y0224906D01*
X0338500Y0227094D01*
X0337663Y0229115D01*
X0336115Y0230663D01*
X0335301Y0231000D01*
X0336115Y0231337D01*
X0337663Y0232884D01*
X0338500Y0234906D01*
X0338500Y0237094D01*
X0337663Y0239115D01*
X0336115Y0240663D01*
X0334094Y0241500D01*
X0331906Y0241500D01*
X0329884Y0240663D01*
X0328337Y0239115D01*
X0327500Y0237094D01*
X0328222Y0238838D02*
X0166441Y0238838D01*
X0166308Y0234841D02*
X0327527Y0234841D01*
X0328380Y0232842D02*
X0229649Y0232842D01*
X0230853Y0230844D02*
X0330322Y0230844D01*
X0328225Y0228845D02*
X0230724Y0228845D01*
X0229800Y0226847D02*
X0247887Y0226847D01*
X0248626Y0227586D02*
X0248626Y0227586D01*
X0251000Y0226000D02*
X0278000Y0226000D01*
X0293000Y0211000D01*
X0296883Y0210859D02*
X0327913Y0210859D01*
X0327500Y0208860D02*
X0296316Y0208860D01*
X0296433Y0212857D02*
X0328365Y0212857D01*
X0327521Y0214856D02*
X0293838Y0214856D01*
X0291106Y0216854D02*
X0327500Y0216854D01*
X0328228Y0218853D02*
X0289107Y0218853D01*
X0287109Y0220851D02*
X0330340Y0220851D01*
X0328372Y0222850D02*
X0285110Y0222850D01*
X0283112Y0224848D02*
X0327524Y0224848D01*
X0327500Y0226847D02*
X0281113Y0226847D01*
X0277191Y0222850D02*
X0270436Y0222850D01*
X0270883Y0220851D02*
X0279189Y0220851D01*
X0281188Y0218853D02*
X0270313Y0218853D01*
X0269800Y0216854D02*
X0283186Y0216854D01*
X0285185Y0214856D02*
X0269800Y0214856D01*
X0269800Y0212857D02*
X0287183Y0212857D01*
X0289117Y0210859D02*
X0269800Y0210859D01*
X0269800Y0208860D02*
X0289684Y0208860D01*
X0294378Y0196869D02*
X0269800Y0196869D01*
X0269800Y0198868D02*
X0310908Y0198868D01*
X0311570Y0200866D02*
X0269800Y0200866D01*
X0269800Y0202865D02*
X0314184Y0202865D01*
X0315816Y0202865D02*
X0327500Y0202865D01*
X0327500Y0204863D02*
X0269800Y0204863D01*
X0269800Y0206862D02*
X0327500Y0206862D01*
X0328188Y0200866D02*
X0318430Y0200866D01*
X0318883Y0198868D02*
X0342646Y0198868D01*
X0342646Y0200866D02*
X0337812Y0200866D01*
X0338500Y0202865D02*
X0342646Y0202865D01*
X0342646Y0204863D02*
X0338500Y0204863D01*
X0338500Y0206862D02*
X0342646Y0206862D01*
X0342646Y0208860D02*
X0338500Y0208860D01*
X0338087Y0210859D02*
X0342646Y0210859D01*
X0342646Y0212857D02*
X0337635Y0212857D01*
X0338479Y0214856D02*
X0342646Y0214856D01*
X0342646Y0216854D02*
X0338500Y0216854D01*
X0337772Y0218853D02*
X0342646Y0218853D01*
X0342646Y0220851D02*
X0335660Y0220851D01*
X0337628Y0222850D02*
X0342646Y0222850D01*
X0342646Y0224848D02*
X0338476Y0224848D01*
X0338500Y0226847D02*
X0342646Y0226847D01*
X0342646Y0228845D02*
X0337775Y0228845D01*
X0335678Y0230844D02*
X0342646Y0230844D01*
X0342646Y0232842D02*
X0337620Y0232842D01*
X0338473Y0234841D02*
X0342646Y0234841D01*
X0342646Y0236839D02*
X0338500Y0236839D01*
X0337778Y0238838D02*
X0342646Y0238838D01*
X0342646Y0240836D02*
X0335696Y0240836D01*
X0330304Y0240836D02*
X0264306Y0240836D01*
X0264883Y0242835D02*
X0342646Y0242835D01*
X0342646Y0244833D02*
X0264443Y0244833D01*
X0261895Y0246832D02*
X0342646Y0246832D01*
X0342646Y0248830D02*
X0315790Y0248830D01*
X0317789Y0250829D02*
X0342646Y0250829D01*
X0342646Y0252827D02*
X0319787Y0252827D01*
X0321786Y0254826D02*
X0342646Y0254826D01*
X0342646Y0256824D02*
X0323784Y0256824D01*
X0325783Y0258823D02*
X0342646Y0258823D01*
X0342646Y0260821D02*
X0327781Y0260821D01*
X0329780Y0262820D02*
X0342646Y0262820D01*
X0342646Y0264818D02*
X0331778Y0264818D01*
X0333777Y0266817D02*
X0342646Y0266817D01*
X0342646Y0268815D02*
X0335775Y0268815D01*
X0337774Y0270814D02*
X0342646Y0270814D01*
X0342646Y0272812D02*
X0341296Y0272812D01*
X0342646Y0280806D02*
X0336351Y0280806D01*
X0338349Y0282805D02*
X0342646Y0282805D01*
X0342646Y0284803D02*
X0339206Y0284803D01*
X0339906Y0286802D02*
X0342646Y0286802D01*
X0342646Y0288801D02*
X0339906Y0288801D01*
X0339755Y0290799D02*
X0342646Y0290799D01*
X0342646Y0292798D02*
X0338928Y0292798D01*
X0337678Y0294796D02*
X0342646Y0294796D01*
X0342646Y0296795D02*
X0335680Y0296795D01*
X0342646Y0298793D02*
X0135167Y0298793D01*
X0137165Y0296795D02*
X0324320Y0296795D01*
X0322322Y0294796D02*
X0139164Y0294796D01*
X0135241Y0290799D02*
X0090456Y0290799D01*
X0090500Y0292798D02*
X0133243Y0292798D01*
X0131244Y0294796D02*
X0089795Y0294796D01*
X0089579Y0288801D02*
X0133029Y0288801D01*
X0134971Y0288801D02*
X0135600Y0288801D01*
X0105000Y0266000D02*
X0105000Y0243000D01*
X0108883Y0242835D02*
X0117205Y0242835D01*
X0118616Y0240836D02*
X0108306Y0240836D01*
X0108443Y0244833D02*
X0115207Y0244833D01*
X0115000Y0249000D02*
X0121000Y0243000D01*
X0261000Y0243000D01*
X0260105Y0246832D02*
X0148719Y0246832D01*
X0148859Y0248830D02*
X0248210Y0248830D01*
X0258135Y0256824D02*
X0301333Y0256824D01*
X0267000Y0221000D02*
X0267000Y0154000D01*
X0275000Y0146000D01*
X0277586Y0148905D02*
X0278200Y0148905D01*
X0278200Y0150903D02*
X0274057Y0150903D01*
X0272058Y0152902D02*
X0278200Y0152902D01*
X0278200Y0154900D02*
X0270060Y0154900D01*
X0269800Y0156899D02*
X0278200Y0156899D01*
X0278143Y0158897D02*
X0269800Y0158897D01*
X0269800Y0160896D02*
X0274613Y0160896D01*
X0273255Y0162894D02*
X0269800Y0162894D01*
X0269800Y0164893D02*
X0273167Y0164893D01*
X0274400Y0166891D02*
X0269800Y0166891D01*
X0269800Y0168890D02*
X0286102Y0168890D01*
X0288100Y0170888D02*
X0269800Y0170888D01*
X0269800Y0172887D02*
X0290099Y0172887D01*
X0292097Y0174885D02*
X0269800Y0174885D01*
X0269800Y0176884D02*
X0302200Y0176884D01*
X0302200Y0178882D02*
X0269800Y0178882D01*
X0269800Y0180881D02*
X0302200Y0180881D01*
X0302200Y0182879D02*
X0269800Y0182879D01*
X0269800Y0184878D02*
X0302162Y0184878D01*
X0300164Y0186876D02*
X0269800Y0186876D01*
X0269800Y0188875D02*
X0298165Y0188875D01*
X0294636Y0190873D02*
X0269800Y0190873D01*
X0269800Y0192872D02*
X0293265Y0192872D01*
X0293158Y0194870D02*
X0269800Y0194870D01*
X0264200Y0194870D02*
X0232800Y0194870D01*
X0232800Y0192872D02*
X0264200Y0192872D01*
X0264200Y0190873D02*
X0232800Y0190873D01*
X0232800Y0188875D02*
X0264200Y0188875D01*
X0264200Y0186876D02*
X0232800Y0186876D01*
X0232800Y0184878D02*
X0259387Y0184878D01*
X0258162Y0182879D02*
X0232800Y0182879D01*
X0231841Y0180881D02*
X0257334Y0180881D01*
X0257200Y0178882D02*
X0229842Y0178882D01*
X0229800Y0176884D02*
X0232393Y0176884D01*
X0231164Y0174885D02*
X0229800Y0174885D01*
X0229800Y0172887D02*
X0231258Y0172887D01*
X0232200Y0170888D02*
X0229800Y0170888D01*
X0229800Y0168890D02*
X0232200Y0168890D01*
X0232200Y0166891D02*
X0229800Y0166891D01*
X0229800Y0164893D02*
X0232200Y0164893D01*
X0232427Y0162894D02*
X0229800Y0162894D01*
X0229800Y0160896D02*
X0234144Y0160896D01*
X0236143Y0158897D02*
X0229800Y0158897D01*
X0229800Y0156899D02*
X0238141Y0156899D01*
X0238772Y0154883D02*
X0237228Y0154883D01*
X0235801Y0154292D01*
X0234708Y0153199D01*
X0234117Y0151772D01*
X0234117Y0150228D01*
X0234708Y0148801D01*
X0235801Y0147708D01*
X0237228Y0147117D01*
X0237923Y0147117D01*
X0261200Y0123840D01*
X0261200Y0120691D01*
X0260708Y0120199D01*
X0260117Y0118772D01*
X0260117Y0117228D01*
X0260708Y0115801D01*
X0261801Y0114708D01*
X0263228Y0114117D01*
X0264772Y0114117D01*
X0266199Y0114708D01*
X0267292Y0115801D01*
X0267883Y0117228D01*
X0267883Y0118772D01*
X0267292Y0120199D01*
X0266800Y0120691D01*
X0266800Y0125557D01*
X0266374Y0126586D01*
X0241883Y0151077D01*
X0241883Y0151772D01*
X0241292Y0153199D01*
X0240199Y0154292D01*
X0238772Y0154883D01*
X0240140Y0154900D02*
X0229800Y0154900D01*
X0229800Y0152902D02*
X0234585Y0152902D01*
X0234117Y0150903D02*
X0229800Y0150903D01*
X0229800Y0148905D02*
X0234665Y0148905D01*
X0238000Y0151000D02*
X0264000Y0125000D01*
X0264000Y0118000D01*
X0267759Y0116929D02*
X0268200Y0116929D01*
X0268200Y0118927D02*
X0267819Y0118927D01*
X0268200Y0120926D02*
X0266800Y0120926D01*
X0266800Y0122924D02*
X0268200Y0122924D01*
X0268200Y0124923D02*
X0266800Y0124923D01*
X0266039Y0126921D02*
X0268119Y0126921D01*
X0266121Y0128920D02*
X0264040Y0128920D01*
X0262591Y0130918D02*
X0262042Y0130918D01*
X0261246Y0132917D02*
X0260043Y0132917D01*
X0260125Y0134915D02*
X0258045Y0134915D01*
X0258127Y0136914D02*
X0256046Y0136914D01*
X0256128Y0138912D02*
X0254048Y0138912D01*
X0254130Y0140911D02*
X0252049Y0140911D01*
X0252131Y0142909D02*
X0250051Y0142909D01*
X0250132Y0144908D02*
X0248052Y0144908D01*
X0248134Y0146906D02*
X0246054Y0146906D01*
X0246135Y0148905D02*
X0244055Y0148905D01*
X0244137Y0150903D02*
X0242057Y0150903D01*
X0242138Y0152902D02*
X0241415Y0152902D01*
X0238134Y0146906D02*
X0229800Y0146906D01*
X0229800Y0144908D02*
X0240132Y0144908D01*
X0242131Y0142909D02*
X0228869Y0142909D01*
X0227000Y0145000D02*
X0225000Y0143000D01*
X0215000Y0143000D01*
X0211117Y0142909D02*
X0206800Y0142909D01*
X0206800Y0140911D02*
X0211663Y0140911D01*
X0211588Y0144908D02*
X0206800Y0144908D01*
X0206800Y0146906D02*
X0224200Y0146906D01*
X0224200Y0148905D02*
X0206800Y0148905D01*
X0206800Y0150903D02*
X0224200Y0150903D01*
X0224200Y0152902D02*
X0206800Y0152902D01*
X0206800Y0154900D02*
X0224200Y0154900D01*
X0224200Y0156899D02*
X0206800Y0156899D01*
X0206800Y0158897D02*
X0224200Y0158897D01*
X0224200Y0160896D02*
X0206800Y0160896D01*
X0206800Y0162894D02*
X0224200Y0162894D01*
X0224200Y0164893D02*
X0206800Y0164893D01*
X0206800Y0166891D02*
X0224200Y0166891D01*
X0224200Y0168890D02*
X0206800Y0168890D01*
X0206800Y0170888D02*
X0224200Y0170888D01*
X0224200Y0172887D02*
X0207741Y0172887D01*
X0207836Y0174885D02*
X0224200Y0174885D01*
X0224200Y0176884D02*
X0206800Y0176884D01*
X0206800Y0178882D02*
X0224200Y0178882D01*
X0224334Y0180881D02*
X0206800Y0180881D01*
X0206839Y0182879D02*
X0225920Y0182879D01*
X0227200Y0184878D02*
X0208838Y0184878D01*
X0210836Y0186876D02*
X0227200Y0186876D01*
X0227200Y0188875D02*
X0212835Y0188875D01*
X0214833Y0190873D02*
X0227200Y0190873D01*
X0227200Y0192872D02*
X0216832Y0192872D01*
X0218830Y0194870D02*
X0227200Y0194870D01*
X0227200Y0196869D02*
X0220829Y0196869D01*
X0222562Y0198868D02*
X0227200Y0198868D01*
X0227200Y0200866D02*
X0222800Y0200866D01*
X0220000Y0200000D02*
X0220000Y0226000D01*
X0222646Y0228845D02*
X0223276Y0228845D01*
X0223147Y0230844D02*
X0213439Y0230844D01*
X0210870Y0232842D02*
X0224351Y0232842D01*
X0227000Y0230000D02*
X0227000Y0214000D01*
X0230000Y0211000D01*
X0230000Y0183000D01*
X0227000Y0180000D01*
X0227000Y0145000D01*
X0226870Y0140911D02*
X0244130Y0140911D01*
X0246128Y0138912D02*
X0206800Y0138912D01*
X0206800Y0136914D02*
X0248127Y0136914D01*
X0250125Y0134915D02*
X0206800Y0134915D01*
X0206800Y0132917D02*
X0252124Y0132917D01*
X0254122Y0130918D02*
X0206800Y0130918D01*
X0206800Y0128920D02*
X0256121Y0128920D01*
X0258119Y0126921D02*
X0221038Y0126921D01*
X0221248Y0126712D02*
X0219850Y0128110D01*
X0218024Y0128866D01*
X0216047Y0128866D01*
X0214221Y0128110D01*
X0212823Y0126712D01*
X0212067Y0124886D01*
X0212067Y0122909D01*
X0212823Y0121083D01*
X0214221Y0119686D01*
X0216047Y0118929D01*
X0218024Y0118929D01*
X0219850Y0119686D01*
X0221248Y0121083D01*
X0222004Y0122909D01*
X0222004Y0124886D01*
X0221248Y0126712D01*
X0221989Y0124923D02*
X0260118Y0124923D01*
X0261200Y0122924D02*
X0222004Y0122924D01*
X0221090Y0120926D02*
X0235847Y0120926D01*
X0238145Y0120926D02*
X0261200Y0120926D01*
X0260181Y0118927D02*
X0247718Y0118927D01*
X0249716Y0116929D02*
X0260241Y0116929D01*
X0261579Y0114930D02*
X0251715Y0114930D01*
X0253713Y0112932D02*
X0268200Y0112932D01*
X0268200Y0114930D02*
X0266421Y0114930D01*
X0268200Y0110933D02*
X0255712Y0110933D01*
X0257710Y0108934D02*
X0268200Y0108934D01*
X0267599Y0106936D02*
X0259709Y0106936D01*
X0261707Y0104937D02*
X0267117Y0104937D01*
X0267651Y0102939D02*
X0263706Y0102939D01*
X0265704Y0100940D02*
X0272450Y0100940D01*
X0271188Y0098942D02*
X0267703Y0098942D01*
X0269701Y0096943D02*
X0271235Y0096943D01*
X0271700Y0094945D02*
X0272564Y0094945D01*
X0273698Y0092946D02*
X0282249Y0092946D01*
X0282249Y0090948D02*
X0275697Y0090948D01*
X0277696Y0088949D02*
X0282249Y0088949D01*
X0282249Y0086951D02*
X0279694Y0086951D01*
X0277436Y0094945D02*
X0282249Y0094945D01*
X0282249Y0096943D02*
X0278765Y0096943D01*
X0279902Y0098942D02*
X0282249Y0098942D01*
X0282249Y0100940D02*
X0281900Y0100940D01*
X0281000Y0104000D02*
X0281000Y0160000D01*
X0277000Y0164000D01*
X0279600Y0166891D02*
X0284103Y0166891D01*
X0282589Y0164893D02*
X0280833Y0164893D01*
X0282065Y0162894D02*
X0282200Y0162894D01*
X0291800Y0160896D02*
X0294507Y0160896D01*
X0294173Y0158897D02*
X0291800Y0158897D01*
X0291800Y0156899D02*
X0294670Y0156899D01*
X0296293Y0154900D02*
X0291800Y0154900D01*
X0291800Y0152902D02*
X0342646Y0152902D01*
X0342646Y0154900D02*
X0314079Y0154900D01*
X0314385Y0155122D02*
X0314964Y0155702D01*
X0315446Y0156365D01*
X0315818Y0157095D01*
X0316072Y0157875D01*
X0316200Y0158685D01*
X0316200Y0159091D01*
X0310996Y0159091D01*
X0310996Y0159098D01*
X0316200Y0159098D01*
X0316200Y0159504D01*
X0316072Y0160314D01*
X0315818Y0161094D01*
X0315446Y0161824D01*
X0314964Y0162487D01*
X0314385Y0163067D01*
X0313722Y0163549D01*
X0312991Y0163921D01*
X0312212Y0164174D01*
X0311402Y0164302D01*
X0310996Y0164302D01*
X0310996Y0159098D01*
X0310988Y0159098D01*
X0310988Y0159091D01*
X0305784Y0159091D01*
X0305784Y0158685D01*
X0305912Y0157875D01*
X0306166Y0157095D01*
X0306538Y0156365D01*
X0307020Y0155702D01*
X0307599Y0155122D01*
X0308263Y0154640D01*
X0308993Y0154268D01*
X0309773Y0154015D01*
X0310582Y0153887D01*
X0310988Y0153887D01*
X0310988Y0159090D01*
X0310996Y0159090D01*
X0310996Y0153887D01*
X0311402Y0153887D01*
X0312212Y0154015D01*
X0312991Y0154268D01*
X0313722Y0154640D01*
X0314385Y0155122D01*
X0315718Y0156899D02*
X0322093Y0156899D01*
X0322389Y0156603D02*
X0326030Y0155094D01*
X0329970Y0155094D01*
X0333611Y0156603D01*
X0336397Y0159389D01*
X0337905Y0163030D01*
X0337905Y0166970D01*
X0336397Y0170611D01*
X0333611Y0173397D01*
X0329970Y0174905D01*
X0326030Y0174905D01*
X0322389Y0173397D01*
X0319603Y0170611D01*
X0318094Y0166970D01*
X0318094Y0163030D01*
X0319603Y0159389D01*
X0322389Y0156603D01*
X0320094Y0158897D02*
X0316200Y0158897D01*
X0315883Y0160896D02*
X0318978Y0160896D01*
X0318151Y0162894D02*
X0314557Y0162894D01*
X0310996Y0162894D02*
X0310988Y0162894D01*
X0310988Y0164302D02*
X0310988Y0159098D01*
X0305784Y0159098D01*
X0305784Y0159504D01*
X0305912Y0160314D01*
X0306166Y0161094D01*
X0306538Y0161824D01*
X0307020Y0162487D01*
X0307599Y0163067D01*
X0308263Y0163549D01*
X0308993Y0163921D01*
X0309773Y0164174D01*
X0310582Y0164302D01*
X0310988Y0164302D01*
X0307800Y0164893D02*
X0318094Y0164893D01*
X0318094Y0166891D02*
X0315939Y0166891D01*
X0316000Y0168890D02*
X0318890Y0168890D01*
X0319880Y0170888D02*
X0316000Y0170888D01*
X0316000Y0172887D02*
X0321878Y0172887D01*
X0325981Y0174885D02*
X0315974Y0174885D01*
X0313792Y0176884D02*
X0342646Y0176884D01*
X0342646Y0178882D02*
X0313792Y0178882D01*
X0313792Y0180881D02*
X0342646Y0180881D01*
X0342646Y0182879D02*
X0313792Y0182879D01*
X0313792Y0184878D02*
X0342646Y0184878D01*
X0342646Y0186876D02*
X0313792Y0186876D01*
X0313792Y0188875D02*
X0342646Y0188875D01*
X0342646Y0190873D02*
X0313792Y0190873D01*
X0313792Y0192872D02*
X0342646Y0192872D01*
X0342646Y0194870D02*
X0314830Y0194870D01*
X0310992Y0194992D02*
X0315000Y0199000D01*
X0318320Y0196869D02*
X0342646Y0196869D01*
X0342646Y0174885D02*
X0330019Y0174885D01*
X0334122Y0172887D02*
X0342646Y0172887D01*
X0342646Y0170888D02*
X0336120Y0170888D01*
X0337110Y0168890D02*
X0342646Y0168890D01*
X0342646Y0166891D02*
X0337905Y0166891D01*
X0337905Y0164893D02*
X0342646Y0164893D01*
X0342646Y0162894D02*
X0337849Y0162894D01*
X0337022Y0160896D02*
X0342646Y0160896D01*
X0342646Y0158897D02*
X0335906Y0158897D01*
X0333907Y0156899D02*
X0342646Y0156899D01*
X0342646Y0150903D02*
X0291800Y0150903D01*
X0291800Y0148905D02*
X0342646Y0148905D01*
X0342646Y0146906D02*
X0291800Y0146906D01*
X0291800Y0144908D02*
X0342646Y0144908D01*
X0342646Y0142909D02*
X0291800Y0142909D01*
X0291800Y0140911D02*
X0342646Y0140911D01*
X0342646Y0138912D02*
X0291800Y0138912D01*
X0291800Y0136914D02*
X0342646Y0136914D01*
X0342646Y0134915D02*
X0291800Y0134915D01*
X0291800Y0132917D02*
X0342646Y0132917D01*
X0342646Y0130918D02*
X0332354Y0130918D01*
X0333611Y0130397D02*
X0329970Y0131905D01*
X0326030Y0131905D01*
X0322389Y0130397D01*
X0319603Y0127611D01*
X0318094Y0123970D01*
X0318094Y0120030D01*
X0319603Y0116389D01*
X0322389Y0113603D01*
X0326030Y0112094D01*
X0329970Y0112094D01*
X0333611Y0113603D01*
X0336397Y0116389D01*
X0337905Y0120030D01*
X0337905Y0123970D01*
X0336397Y0127611D01*
X0333611Y0130397D01*
X0335089Y0128920D02*
X0342646Y0128920D01*
X0342646Y0126921D02*
X0336683Y0126921D01*
X0337511Y0124923D02*
X0342646Y0124923D01*
X0342646Y0122924D02*
X0337905Y0122924D01*
X0337905Y0120926D02*
X0342646Y0120926D01*
X0342646Y0118927D02*
X0337449Y0118927D01*
X0336621Y0116929D02*
X0342646Y0116929D01*
X0342646Y0114930D02*
X0334939Y0114930D01*
X0331991Y0112932D02*
X0342646Y0112932D01*
X0342646Y0110933D02*
X0311695Y0110933D01*
X0311402Y0110887D02*
X0312212Y0111015D01*
X0312991Y0111268D01*
X0313722Y0111640D01*
X0314385Y0112122D01*
X0314964Y0112702D01*
X0315446Y0113365D01*
X0315818Y0114095D01*
X0316072Y0114875D01*
X0316200Y0115685D01*
X0316200Y0116091D01*
X0310996Y0116091D01*
X0310996Y0116098D01*
X0316200Y0116098D01*
X0316200Y0116504D01*
X0316072Y0117314D01*
X0315818Y0118094D01*
X0315446Y0118824D01*
X0314964Y0119487D01*
X0314385Y0120067D01*
X0313722Y0120549D01*
X0312991Y0120921D01*
X0312212Y0121174D01*
X0311402Y0121302D01*
X0310996Y0121302D01*
X0310996Y0116098D01*
X0310988Y0116098D01*
X0310988Y0116091D01*
X0305784Y0116091D01*
X0305784Y0115685D01*
X0305912Y0114875D01*
X0306166Y0114095D01*
X0306538Y0113365D01*
X0307020Y0112702D01*
X0307599Y0112122D01*
X0308263Y0111640D01*
X0308993Y0111268D01*
X0309773Y0111015D01*
X0310582Y0110887D01*
X0310988Y0110887D01*
X0310988Y0116090D01*
X0310996Y0116090D01*
X0310996Y0110887D01*
X0311402Y0110887D01*
X0310996Y0110933D02*
X0310988Y0110933D01*
X0310289Y0110933D02*
X0303027Y0110933D01*
X0303100Y0112932D02*
X0306853Y0112932D01*
X0305904Y0114930D02*
X0304119Y0114930D01*
X0304189Y0116929D02*
X0305851Y0116929D01*
X0305912Y0117314D02*
X0305784Y0116504D01*
X0305784Y0116098D01*
X0310988Y0116098D01*
X0310988Y0121302D01*
X0310582Y0121302D01*
X0309773Y0121174D01*
X0308993Y0120921D01*
X0308263Y0120549D01*
X0307599Y0120067D01*
X0307020Y0119487D01*
X0306538Y0118824D01*
X0306166Y0118094D01*
X0305912Y0117314D01*
X0306613Y0118927D02*
X0303428Y0118927D01*
X0300604Y0120926D02*
X0309008Y0120926D01*
X0310988Y0120926D02*
X0310996Y0120926D01*
X0312977Y0120926D02*
X0318094Y0120926D01*
X0318094Y0122924D02*
X0314972Y0122924D01*
X0314946Y0122898D02*
X0316000Y0123952D01*
X0316000Y0131859D01*
X0314946Y0132913D01*
X0307039Y0132913D01*
X0305984Y0131859D01*
X0305984Y0123952D01*
X0307039Y0122898D01*
X0314946Y0122898D01*
X0316000Y0124923D02*
X0318489Y0124923D01*
X0319317Y0126921D02*
X0316000Y0126921D01*
X0316000Y0128920D02*
X0320911Y0128920D01*
X0323646Y0130918D02*
X0316000Y0130918D01*
X0305984Y0130918D02*
X0303251Y0130918D01*
X0304182Y0128920D02*
X0305984Y0128920D01*
X0305984Y0126921D02*
X0304189Y0126921D01*
X0303280Y0124923D02*
X0305984Y0124923D01*
X0307012Y0122924D02*
X0300241Y0122924D01*
X0298121Y0122924D02*
X0293712Y0122924D01*
X0291800Y0120926D02*
X0297758Y0120926D01*
X0294934Y0118927D02*
X0291800Y0118927D01*
X0291800Y0116929D02*
X0294173Y0116929D01*
X0294243Y0114930D02*
X0291800Y0114930D01*
X0291838Y0112932D02*
X0292441Y0112932D01*
X0295000Y0110000D02*
X0300000Y0110000D01*
X0310992Y0099008D01*
X0310992Y0084906D01*
X0310988Y0078302D02*
X0310582Y0078302D01*
X0309773Y0078174D01*
X0308993Y0077921D01*
X0308263Y0077549D01*
X0307599Y0077067D01*
X0307020Y0076487D01*
X0306538Y0075824D01*
X0306166Y0075094D01*
X0305912Y0074314D01*
X0305784Y0073504D01*
X0305784Y0073098D01*
X0310988Y0073098D01*
X0310988Y0073091D01*
X0305784Y0073091D01*
X0305784Y0072685D01*
X0305912Y0071875D01*
X0306166Y0071095D01*
X0306538Y0070365D01*
X0307020Y0069702D01*
X0307599Y0069122D01*
X0308263Y0068640D01*
X0308993Y0068268D01*
X0309773Y0068015D01*
X0310582Y0067887D01*
X0310988Y0067887D01*
X0310988Y0073090D01*
X0310996Y0073090D01*
X0310996Y0067887D01*
X0311402Y0067887D01*
X0312212Y0068015D01*
X0312991Y0068268D01*
X0313722Y0068640D01*
X0314385Y0069122D01*
X0314964Y0069702D01*
X0315446Y0070365D01*
X0315818Y0071095D01*
X0316072Y0071875D01*
X0316200Y0072685D01*
X0316200Y0073091D01*
X0310996Y0073091D01*
X0310996Y0073098D01*
X0316200Y0073098D01*
X0316200Y0073504D01*
X0316072Y0074314D01*
X0315818Y0075094D01*
X0315446Y0075824D01*
X0314964Y0076487D01*
X0314385Y0077067D01*
X0313722Y0077549D01*
X0312991Y0077921D01*
X0312212Y0078174D01*
X0311402Y0078302D01*
X0310996Y0078302D01*
X0310996Y0073098D01*
X0310988Y0073098D01*
X0310988Y0078302D01*
X0310988Y0076958D02*
X0310996Y0076958D01*
X0310988Y0074960D02*
X0310996Y0074960D01*
X0310988Y0072961D02*
X0310996Y0072961D01*
X0310988Y0070963D02*
X0310996Y0070963D01*
X0310988Y0068964D02*
X0310996Y0068964D01*
X0314168Y0068964D02*
X0342646Y0068964D01*
X0342646Y0066966D02*
X0282800Y0066966D01*
X0282800Y0068964D02*
X0296229Y0068964D01*
X0294644Y0070963D02*
X0282800Y0070963D01*
X0282800Y0072961D02*
X0294173Y0072961D01*
X0294533Y0074960D02*
X0283891Y0074960D01*
X0285890Y0076958D02*
X0295963Y0076958D01*
X0299181Y0073094D02*
X0304189Y0078102D01*
X0304189Y0086980D01*
X0304000Y0087169D01*
X0304000Y0096000D01*
X0295000Y0105000D01*
X0287049Y0111951D02*
X0286000Y0113000D01*
X0281000Y0104000D02*
X0275000Y0098000D01*
X0274349Y0102939D02*
X0275979Y0102939D01*
X0274883Y0104937D02*
X0277978Y0104937D01*
X0274573Y0106936D02*
X0274401Y0106936D01*
X0271000Y0105000D02*
X0271000Y0128000D01*
X0265000Y0134000D01*
X0235000Y0164000D01*
X0235000Y0174000D01*
X0237607Y0176884D02*
X0257200Y0176884D01*
X0257200Y0174885D02*
X0238836Y0174885D01*
X0238741Y0172887D02*
X0257200Y0172887D01*
X0257200Y0170888D02*
X0237800Y0170888D01*
X0237800Y0168890D02*
X0257200Y0168890D01*
X0257200Y0166891D02*
X0237800Y0166891D01*
X0238067Y0164893D02*
X0257200Y0164893D01*
X0257200Y0162894D02*
X0240065Y0162894D01*
X0242064Y0160896D02*
X0257200Y0160896D01*
X0257200Y0158897D02*
X0244062Y0158897D01*
X0246061Y0156899D02*
X0257200Y0156899D01*
X0257200Y0154900D02*
X0248060Y0154900D01*
X0250058Y0152902D02*
X0257200Y0152902D01*
X0257200Y0150903D02*
X0252057Y0150903D01*
X0254055Y0148905D02*
X0257423Y0148905D01*
X0256054Y0146906D02*
X0259134Y0146906D01*
X0258052Y0144908D02*
X0261132Y0144908D01*
X0260051Y0142909D02*
X0263131Y0142909D01*
X0262049Y0140911D02*
X0265130Y0140911D01*
X0264048Y0138912D02*
X0267128Y0138912D01*
X0267577Y0136914D02*
X0268247Y0136914D01*
X0268823Y0134915D02*
X0269594Y0134915D01*
X0270043Y0132917D02*
X0273124Y0132917D01*
X0274200Y0130918D02*
X0272042Y0130918D01*
X0273650Y0128920D02*
X0274200Y0128920D01*
X0274200Y0126921D02*
X0273800Y0126921D01*
X0273800Y0124923D02*
X0274200Y0124923D01*
X0274200Y0122924D02*
X0273800Y0122924D01*
X0273800Y0120926D02*
X0274200Y0120926D01*
X0274200Y0118927D02*
X0273800Y0118927D01*
X0273800Y0116929D02*
X0274200Y0116929D01*
X0274200Y0114930D02*
X0273800Y0114930D01*
X0273800Y0112932D02*
X0274200Y0112932D01*
X0277000Y0110000D02*
X0277000Y0133000D01*
X0272000Y0138000D01*
X0260000Y0150000D01*
X0260000Y0180000D01*
X0262000Y0182000D01*
X0264200Y0196869D02*
X0232800Y0196869D01*
X0232800Y0198868D02*
X0264200Y0198868D01*
X0264200Y0200866D02*
X0232800Y0200866D01*
X0238794Y0202865D02*
X0241206Y0202865D01*
X0240167Y0204863D02*
X0239833Y0204863D01*
X0239900Y0206862D02*
X0240100Y0206862D01*
X0240930Y0208860D02*
X0239070Y0208860D01*
X0236075Y0210859D02*
X0242200Y0210859D01*
X0242200Y0212857D02*
X0232103Y0212857D01*
X0232800Y0210859D02*
X0233925Y0210859D01*
X0230104Y0214856D02*
X0242200Y0214856D01*
X0242200Y0216854D02*
X0229800Y0216854D01*
X0229800Y0218853D02*
X0242200Y0218853D01*
X0242322Y0220851D02*
X0229800Y0220851D01*
X0229800Y0222850D02*
X0243890Y0222850D01*
X0243414Y0222374D02*
X0243414Y0222374D01*
X0245000Y0220000D02*
X0251000Y0226000D01*
X0251809Y0222850D02*
X0263564Y0222850D01*
X0263117Y0220851D02*
X0249811Y0220851D01*
X0247812Y0218853D02*
X0263687Y0218853D01*
X0264200Y0216854D02*
X0247800Y0216854D01*
X0247800Y0214856D02*
X0264200Y0214856D01*
X0264200Y0212857D02*
X0247800Y0212857D01*
X0247800Y0210859D02*
X0253925Y0210859D01*
X0254025Y0210900D02*
X0252224Y0210154D01*
X0250846Y0208776D01*
X0250100Y0206975D01*
X0250100Y0205025D01*
X0250846Y0203224D01*
X0252224Y0201846D01*
X0254025Y0201100D01*
X0255975Y0201100D01*
X0257776Y0201846D01*
X0259154Y0203224D01*
X0259900Y0205025D01*
X0259900Y0206975D01*
X0259154Y0208776D01*
X0257776Y0210154D01*
X0255975Y0210900D01*
X0254025Y0210900D01*
X0256075Y0210859D02*
X0264200Y0210859D01*
X0264200Y0208860D02*
X0259070Y0208860D01*
X0259900Y0206862D02*
X0264200Y0206862D01*
X0264200Y0204863D02*
X0259833Y0204863D01*
X0258794Y0202865D02*
X0264200Y0202865D01*
X0251206Y0202865D02*
X0248794Y0202865D01*
X0249833Y0204863D02*
X0250167Y0204863D01*
X0250100Y0206862D02*
X0249900Y0206862D01*
X0249070Y0208860D02*
X0250930Y0208860D01*
X0245000Y0206000D02*
X0245000Y0220000D01*
X0245888Y0224848D02*
X0229800Y0224848D01*
X0224200Y0224848D02*
X0223725Y0224848D01*
X0223852Y0226847D02*
X0224200Y0226847D01*
X0224200Y0222850D02*
X0222800Y0222850D01*
X0222800Y0220851D02*
X0224200Y0220851D01*
X0224200Y0218853D02*
X0222800Y0218853D01*
X0222800Y0216854D02*
X0224200Y0216854D01*
X0224200Y0214856D02*
X0222800Y0214856D01*
X0222800Y0212857D02*
X0224443Y0212857D01*
X0223925Y0210859D02*
X0222800Y0210859D01*
X0226075Y0210859D02*
X0226182Y0210859D01*
X0220000Y0200000D02*
X0204000Y0184000D01*
X0204000Y0174000D01*
X0204000Y0129000D01*
X0196000Y0121000D01*
X0082000Y0121000D01*
X0066724Y0121000D01*
X0059819Y0127906D01*
X0063888Y0130918D02*
X0072224Y0130918D01*
X0070226Y0132917D02*
X0049438Y0132917D01*
X0048012Y0132917D02*
X0048004Y0132917D01*
X0046578Y0132917D02*
X0044800Y0132917D01*
X0044800Y0134915D02*
X0068227Y0134915D01*
X0066229Y0136914D02*
X0044800Y0136914D01*
X0044800Y0138912D02*
X0064230Y0138912D01*
X0062232Y0140911D02*
X0044800Y0140911D01*
X0044800Y0142909D02*
X0060233Y0142909D01*
X0058235Y0144908D02*
X0044800Y0144908D01*
X0044800Y0146906D02*
X0056236Y0146906D01*
X0054238Y0148905D02*
X0044800Y0148905D01*
X0044800Y0150903D02*
X0052239Y0150903D01*
X0050241Y0152902D02*
X0045775Y0152902D01*
X0041852Y0156899D02*
X0036907Y0156899D01*
X0038906Y0158897D02*
X0043000Y0158897D01*
X0043000Y0160896D02*
X0040022Y0160896D01*
X0040849Y0162894D02*
X0043000Y0162894D01*
X0040905Y0164893D02*
X0061872Y0164893D01*
X0060815Y0164102D02*
X0058823Y0164102D01*
X0056982Y0163340D01*
X0055573Y0161931D01*
X0054811Y0160091D01*
X0054811Y0158098D01*
X0055573Y0156258D01*
X0056982Y0154849D01*
X0058823Y0154087D01*
X0060815Y0154087D01*
X0062656Y0154849D01*
X0064064Y0156258D01*
X0064827Y0158098D01*
X0064827Y0160091D01*
X0064064Y0161931D01*
X0062656Y0163340D01*
X0060815Y0164102D01*
X0063101Y0162894D02*
X0063870Y0162894D01*
X0064493Y0160896D02*
X0065869Y0160896D01*
X0064827Y0158897D02*
X0067867Y0158897D01*
X0069866Y0156899D02*
X0064330Y0156899D01*
X0062707Y0154900D02*
X0071864Y0154900D01*
X0073863Y0152902D02*
X0058160Y0152902D01*
X0056931Y0154900D02*
X0056162Y0154900D01*
X0055308Y0156899D02*
X0054163Y0156899D01*
X0054811Y0158897D02*
X0053016Y0158897D01*
X0053016Y0160896D02*
X0055145Y0160896D01*
X0056537Y0162894D02*
X0053016Y0162894D01*
X0050737Y0166451D02*
X0051401Y0166933D01*
X0051980Y0167513D01*
X0052462Y0168176D01*
X0052834Y0168906D01*
X0053087Y0169686D01*
X0053216Y0170496D01*
X0053216Y0170902D01*
X0048012Y0170902D01*
X0048012Y0170909D01*
X0053216Y0170909D01*
X0053216Y0171315D01*
X0053087Y0172125D01*
X0052834Y0172905D01*
X0052462Y0173635D01*
X0051980Y0174298D01*
X0051401Y0174878D01*
X0050737Y0175360D01*
X0050007Y0175732D01*
X0049227Y0175985D01*
X0048418Y0176113D01*
X0048012Y0176113D01*
X0048012Y0170910D01*
X0048004Y0170910D01*
X0048004Y0176113D01*
X0047598Y0176113D01*
X0046788Y0175985D01*
X0046009Y0175732D01*
X0045278Y0175360D01*
X0044615Y0174878D01*
X0044036Y0174298D01*
X0043554Y0173635D01*
X0043182Y0172905D01*
X0042928Y0172125D01*
X0042800Y0171315D01*
X0042800Y0170909D01*
X0048004Y0170909D01*
X0048004Y0170902D01*
X0042800Y0170902D01*
X0042800Y0170496D01*
X0042928Y0169686D01*
X0043182Y0168906D01*
X0043554Y0168176D01*
X0044036Y0167513D01*
X0044615Y0166933D01*
X0045278Y0166451D01*
X0046009Y0166079D01*
X0046788Y0165826D01*
X0047598Y0165698D01*
X0048004Y0165698D01*
X0048004Y0170901D01*
X0048012Y0170901D01*
X0048012Y0165698D01*
X0048418Y0165698D01*
X0049227Y0165826D01*
X0050007Y0166079D01*
X0050737Y0166451D01*
X0051343Y0166891D02*
X0056751Y0166891D01*
X0055233Y0168890D02*
X0052826Y0168890D01*
X0053216Y0170888D02*
X0054811Y0170888D01*
X0055219Y0172887D02*
X0052840Y0172887D01*
X0051390Y0174885D02*
X0056717Y0174885D01*
X0059819Y0170906D02*
X0082000Y0148724D01*
X0082000Y0140000D01*
X0085752Y0138912D02*
X0116641Y0138912D01*
X0115800Y0136914D02*
X0084405Y0136914D01*
X0085825Y0140911D02*
X0119590Y0140911D01*
X0116820Y0142909D02*
X0084800Y0142909D01*
X0084800Y0144908D02*
X0115840Y0144908D01*
X0115800Y0146906D02*
X0084800Y0146906D01*
X0084800Y0148905D02*
X0116634Y0148905D01*
X0119572Y0150903D02*
X0083781Y0150903D01*
X0081782Y0152902D02*
X0116827Y0152902D01*
X0115844Y0154900D02*
X0079784Y0154900D01*
X0077785Y0156899D02*
X0115800Y0156899D01*
X0128428Y0150903D02*
X0152172Y0150903D01*
X0152251Y0148905D02*
X0131366Y0148905D01*
X0132200Y0146906D02*
X0153603Y0146906D01*
X0158397Y0146906D02*
X0197200Y0146906D01*
X0197200Y0144908D02*
X0132159Y0144908D01*
X0131180Y0142909D02*
X0197200Y0142909D01*
X0197200Y0140911D02*
X0128410Y0140911D01*
X0131359Y0138912D02*
X0196952Y0138912D01*
X0194954Y0136914D02*
X0132200Y0136914D01*
X0132163Y0134915D02*
X0192955Y0134915D01*
X0203882Y0124923D02*
X0212082Y0124923D01*
X0212067Y0122924D02*
X0201884Y0122924D01*
X0199885Y0120926D02*
X0212981Y0120926D01*
X0213032Y0126921D02*
X0205881Y0126921D01*
X0205586Y0126626D02*
X0205586Y0126626D01*
X0198374Y0119414D02*
X0198374Y0119414D01*
X0197887Y0118927D02*
X0232873Y0118927D01*
X0232622Y0112932D02*
X0219035Y0112932D01*
X0217035Y0112932D02*
X0217035Y0112932D01*
X0217035Y0110933D02*
X0217035Y0110933D01*
X0217035Y0108934D02*
X0217035Y0108934D01*
X0217036Y0108150D02*
X0222204Y0108150D01*
X0217036Y0108150D01*
X0217036Y0108150D01*
X0222144Y0108934D02*
X0231828Y0108934D01*
X0231828Y0108150D02*
X0231828Y0104718D01*
X0231964Y0104209D01*
X0232227Y0103753D01*
X0232600Y0103381D01*
X0232901Y0103207D01*
X0232784Y0103090D01*
X0232028Y0101264D01*
X0232028Y0099287D01*
X0232784Y0097461D01*
X0234182Y0096063D01*
X0236008Y0095307D01*
X0237984Y0095307D01*
X0239810Y0096063D01*
X0241208Y0097461D01*
X0241965Y0099287D01*
X0241965Y0101264D01*
X0241208Y0103090D01*
X0241091Y0103207D01*
X0241393Y0103381D01*
X0241765Y0103753D01*
X0242028Y0104209D01*
X0242165Y0104718D01*
X0242165Y0108150D01*
X0236996Y0108150D01*
X0236996Y0108150D01*
X0231828Y0108150D01*
X0231828Y0106936D02*
X0222076Y0106936D01*
X0221090Y0104937D02*
X0231828Y0104937D01*
X0232721Y0102939D02*
X0224142Y0102939D01*
X0226141Y0100940D02*
X0232028Y0100940D01*
X0232171Y0098942D02*
X0228139Y0098942D01*
X0230138Y0096943D02*
X0233302Y0096943D01*
X0232136Y0094945D02*
X0258124Y0094945D01*
X0260122Y0092946D02*
X0234135Y0092946D01*
X0236133Y0090948D02*
X0262121Y0090948D01*
X0264119Y0088949D02*
X0238132Y0088949D01*
X0240130Y0086951D02*
X0266118Y0086951D01*
X0268116Y0084952D02*
X0242129Y0084952D01*
X0244127Y0082954D02*
X0270115Y0082954D01*
X0272113Y0080955D02*
X0246126Y0080955D01*
X0248124Y0078957D02*
X0273200Y0078957D01*
X0273200Y0076958D02*
X0250123Y0076958D01*
X0252121Y0074960D02*
X0273200Y0074960D01*
X0273200Y0072961D02*
X0254120Y0072961D01*
X0256118Y0070963D02*
X0273200Y0070963D01*
X0273200Y0068964D02*
X0258117Y0068964D01*
X0260115Y0066966D02*
X0273200Y0066966D01*
X0273200Y0064967D02*
X0262114Y0064967D01*
X0264112Y0062969D02*
X0273200Y0062969D01*
X0273200Y0060970D02*
X0266111Y0060970D01*
X0268109Y0058972D02*
X0273200Y0058972D01*
X0273200Y0056973D02*
X0269251Y0056973D01*
X0269230Y0054975D02*
X0273200Y0054975D01*
X0271191Y0048979D02*
X0183207Y0048979D01*
X0186028Y0046981D02*
X0269192Y0046981D01*
X0267194Y0044982D02*
X0187658Y0044982D01*
X0188486Y0042984D02*
X0265195Y0042984D01*
X0263197Y0040985D02*
X0188905Y0040985D01*
X0188905Y0038987D02*
X0261198Y0038987D01*
X0259200Y0036988D02*
X0188474Y0036988D01*
X0187646Y0034990D02*
X0257201Y0034990D01*
X0255203Y0032991D02*
X0186000Y0032991D01*
X0172000Y0032991D02*
X0143800Y0032991D01*
X0143968Y0034990D02*
X0170354Y0034990D01*
X0169526Y0036988D02*
X0143968Y0036988D01*
X0143968Y0038987D02*
X0169094Y0038987D01*
X0169094Y0040985D02*
X0143968Y0040985D01*
X0143800Y0042984D02*
X0169514Y0042984D01*
X0170342Y0044982D02*
X0143800Y0044982D01*
X0143800Y0046981D02*
X0171972Y0046981D01*
X0174793Y0048979D02*
X0143800Y0048979D01*
X0173091Y0052976D02*
X0173098Y0052976D01*
X0173091Y0054975D02*
X0173098Y0054975D01*
X0173091Y0056973D02*
X0173098Y0056973D01*
X0173098Y0057012D02*
X0178302Y0057012D01*
X0178302Y0057418D01*
X0178174Y0058227D01*
X0177921Y0059007D01*
X0177549Y0059737D01*
X0177067Y0060401D01*
X0176487Y0060980D01*
X0175824Y0061462D01*
X0175094Y0061834D01*
X0174314Y0062087D01*
X0173504Y0062216D01*
X0173098Y0062216D01*
X0173098Y0057012D01*
X0173091Y0058972D02*
X0173098Y0058972D01*
X0173091Y0060970D02*
X0173098Y0060970D01*
X0176497Y0060970D02*
X0179907Y0060970D01*
X0179898Y0058972D02*
X0177932Y0058972D01*
X0178302Y0056973D02*
X0179898Y0056973D01*
X0179898Y0054975D02*
X0177903Y0054975D01*
X0176405Y0052976D02*
X0179976Y0052976D01*
X0181675Y0064967D02*
X0176325Y0064967D01*
X0177747Y0066966D02*
X0180253Y0066966D01*
X0179898Y0068964D02*
X0178102Y0068964D01*
X0177627Y0070963D02*
X0180373Y0070963D01*
X0181966Y0072961D02*
X0176034Y0072961D01*
X0187845Y0072961D02*
X0241958Y0072961D01*
X0243956Y0070963D02*
X0189438Y0070963D01*
X0189913Y0068964D02*
X0245955Y0068964D01*
X0247953Y0066966D02*
X0189558Y0066966D01*
X0221402Y0110933D02*
X0231828Y0110933D01*
X0242165Y0108934D02*
X0244134Y0108934D01*
X0242165Y0106936D02*
X0246132Y0106936D01*
X0248131Y0104937D02*
X0242165Y0104937D01*
X0241271Y0102939D02*
X0250130Y0102939D01*
X0252128Y0100940D02*
X0241965Y0100940D01*
X0241822Y0098942D02*
X0254127Y0098942D01*
X0256125Y0096943D02*
X0240690Y0096943D01*
X0282800Y0064967D02*
X0342646Y0064967D01*
X0342646Y0062969D02*
X0282800Y0062969D01*
X0282800Y0060970D02*
X0342646Y0060970D01*
X0342646Y0058972D02*
X0282800Y0058972D01*
X0282800Y0056973D02*
X0342646Y0056973D01*
X0342646Y0054975D02*
X0282800Y0054975D01*
X0282800Y0052976D02*
X0342646Y0052976D01*
X0342646Y0050978D02*
X0282800Y0050978D01*
X0282800Y0048979D02*
X0342646Y0048979D01*
X0342646Y0046981D02*
X0282359Y0046981D01*
X0280770Y0044982D02*
X0323973Y0044982D01*
X0324389Y0045398D02*
X0321602Y0042611D01*
X0320094Y0038970D01*
X0320094Y0035030D01*
X0321602Y0031389D01*
X0324389Y0028602D01*
X0328030Y0027094D01*
X0331970Y0027094D01*
X0335611Y0028602D01*
X0338398Y0031389D01*
X0339906Y0035030D01*
X0339906Y0038970D01*
X0338398Y0042611D01*
X0335611Y0045398D01*
X0331970Y0046906D01*
X0328030Y0046906D01*
X0324389Y0045398D01*
X0321974Y0042984D02*
X0278772Y0042984D01*
X0276773Y0040985D02*
X0320929Y0040985D01*
X0320101Y0038987D02*
X0274775Y0038987D01*
X0272776Y0036988D02*
X0320094Y0036988D01*
X0320111Y0034990D02*
X0270778Y0034990D01*
X0268779Y0032991D02*
X0320938Y0032991D01*
X0321998Y0030993D02*
X0266781Y0030993D01*
X0264782Y0028994D02*
X0323997Y0028994D01*
X0336003Y0028994D02*
X0342646Y0028994D01*
X0342646Y0026996D02*
X0262784Y0026996D01*
X0302133Y0068964D02*
X0307817Y0068964D01*
X0306233Y0070963D02*
X0303719Y0070963D01*
X0304189Y0072961D02*
X0305784Y0072961D01*
X0306122Y0074960D02*
X0305006Y0074960D01*
X0306746Y0076958D02*
X0307491Y0076958D01*
X0306989Y0078957D02*
X0318094Y0078957D01*
X0318094Y0077030D02*
X0318094Y0080970D01*
X0319603Y0084611D01*
X0322389Y0087397D01*
X0326030Y0088905D01*
X0329970Y0088905D01*
X0333611Y0087397D01*
X0336397Y0084611D01*
X0337905Y0080970D01*
X0337905Y0077030D01*
X0336397Y0073389D01*
X0333611Y0070603D01*
X0329970Y0069094D01*
X0326030Y0069094D01*
X0322389Y0070603D01*
X0319603Y0073389D01*
X0318094Y0077030D01*
X0318124Y0076958D02*
X0314493Y0076958D01*
X0315862Y0074960D02*
X0318952Y0074960D01*
X0320030Y0072961D02*
X0316200Y0072961D01*
X0315751Y0070963D02*
X0322029Y0070963D01*
X0318094Y0080955D02*
X0316000Y0080955D01*
X0316000Y0082954D02*
X0318916Y0082954D01*
X0319944Y0084952D02*
X0316000Y0084952D01*
X0316000Y0086951D02*
X0321942Y0086951D01*
X0315910Y0088949D02*
X0342646Y0088949D01*
X0342646Y0086951D02*
X0334058Y0086951D01*
X0336056Y0084952D02*
X0342646Y0084952D01*
X0342646Y0082954D02*
X0337084Y0082954D01*
X0337905Y0080955D02*
X0342646Y0080955D01*
X0342646Y0078957D02*
X0337905Y0078957D01*
X0337876Y0076958D02*
X0342646Y0076958D01*
X0342646Y0074960D02*
X0337048Y0074960D01*
X0335970Y0072961D02*
X0342646Y0072961D01*
X0342646Y0070963D02*
X0333971Y0070963D01*
X0342646Y0090948D02*
X0313792Y0090948D01*
X0313792Y0092946D02*
X0342646Y0092946D01*
X0342646Y0094945D02*
X0313792Y0094945D01*
X0313792Y0096943D02*
X0342646Y0096943D01*
X0342646Y0098942D02*
X0313792Y0098942D01*
X0313019Y0100940D02*
X0342646Y0100940D01*
X0342646Y0102939D02*
X0311021Y0102939D01*
X0309022Y0104937D02*
X0342646Y0104937D01*
X0342646Y0106936D02*
X0307024Y0106936D01*
X0305025Y0108934D02*
X0342646Y0108934D01*
X0324009Y0112932D02*
X0315131Y0112932D01*
X0316080Y0114930D02*
X0321061Y0114930D01*
X0319379Y0116929D02*
X0316133Y0116929D01*
X0315371Y0118927D02*
X0318551Y0118927D01*
X0310996Y0118927D02*
X0310988Y0118927D01*
X0310988Y0116929D02*
X0310996Y0116929D01*
X0310988Y0114930D02*
X0310996Y0114930D01*
X0310988Y0112932D02*
X0310996Y0112932D01*
X0301084Y0078957D02*
X0287888Y0078957D01*
X0336027Y0044982D02*
X0342646Y0044982D01*
X0342646Y0042984D02*
X0338026Y0042984D01*
X0339071Y0040985D02*
X0342646Y0040985D01*
X0342646Y0038987D02*
X0339899Y0038987D01*
X0339906Y0036988D02*
X0342646Y0036988D01*
X0342646Y0034990D02*
X0339889Y0034990D01*
X0339062Y0032991D02*
X0342646Y0032991D01*
X0342646Y0030993D02*
X0338002Y0030993D01*
X0310996Y0154900D02*
X0310988Y0154900D01*
X0310988Y0156899D02*
X0310996Y0156899D01*
X0310988Y0158897D02*
X0310996Y0158897D01*
X0310988Y0160896D02*
X0310996Y0160896D01*
X0307427Y0162894D02*
X0306941Y0162894D01*
X0306102Y0160896D02*
X0304942Y0160896D01*
X0304189Y0158897D02*
X0305784Y0158897D01*
X0306266Y0156899D02*
X0303692Y0156899D01*
X0302069Y0154900D02*
X0307905Y0154900D01*
X0299181Y0159094D02*
X0305000Y0164913D01*
X0305000Y0186000D01*
X0297000Y0194000D01*
X0299622Y0196869D02*
X0308909Y0196869D01*
X0308192Y0194870D02*
X0300842Y0194870D01*
X0302088Y0192872D02*
X0308192Y0192872D01*
X0308192Y0190873D02*
X0304086Y0190873D01*
X0306085Y0188875D02*
X0308192Y0188875D01*
X0308192Y0186876D02*
X0307668Y0186876D01*
X0307800Y0184878D02*
X0308192Y0184878D01*
X0308192Y0182879D02*
X0307800Y0182879D01*
X0307800Y0180881D02*
X0308192Y0180881D01*
X0308192Y0178882D02*
X0307800Y0178882D01*
X0307800Y0176884D02*
X0308192Y0176884D01*
X0310992Y0170906D02*
X0310992Y0194992D01*
X0301020Y0164893D02*
X0295681Y0164893D01*
X0295899Y0162894D02*
X0293683Y0162894D01*
X0209130Y0232842D02*
X0022800Y0232842D01*
X0029351Y0230844D02*
X0032366Y0230844D01*
X0031110Y0228845D02*
X0030683Y0228845D01*
X0030558Y0218853D02*
X0031208Y0218853D01*
X0032681Y0216854D02*
X0029049Y0216854D01*
X0022951Y0216854D02*
X0022800Y0216854D01*
X0022800Y0196869D02*
X0060171Y0196869D01*
X0062170Y0194870D02*
X0053620Y0194870D01*
X0054841Y0192872D02*
X0064168Y0192872D01*
X0065264Y0190873D02*
X0054736Y0190873D01*
X0053366Y0188875D02*
X0066634Y0188875D01*
X0048012Y0174885D02*
X0048004Y0174885D01*
X0048004Y0172887D02*
X0048012Y0172887D01*
X0048004Y0170888D02*
X0048012Y0170888D01*
X0048004Y0168890D02*
X0048012Y0168890D01*
X0048004Y0166891D02*
X0048012Y0166891D01*
X0044673Y0166891D02*
X0040905Y0166891D01*
X0040110Y0168890D02*
X0043190Y0168890D01*
X0042800Y0170888D02*
X0039120Y0170888D01*
X0037122Y0172887D02*
X0043176Y0172887D01*
X0044626Y0174885D02*
X0033019Y0174885D01*
X0028981Y0174885D02*
X0022800Y0174885D01*
X0022800Y0172887D02*
X0024878Y0172887D01*
X0022880Y0170888D02*
X0022800Y0170888D01*
X0022800Y0158897D02*
X0023094Y0158897D01*
X0022800Y0156899D02*
X0025093Y0156899D01*
X0022800Y0154900D02*
X0039854Y0154900D01*
X0039200Y0152902D02*
X0022800Y0152902D01*
X0022800Y0150903D02*
X0039200Y0150903D01*
X0039200Y0148905D02*
X0022800Y0148905D01*
X0022800Y0146906D02*
X0039200Y0146906D01*
X0039200Y0144908D02*
X0022800Y0144908D01*
X0022800Y0142909D02*
X0039200Y0142909D01*
X0039200Y0140911D02*
X0022800Y0140911D01*
X0022800Y0138912D02*
X0039200Y0138912D01*
X0039200Y0136914D02*
X0022800Y0136914D01*
X0022800Y0134915D02*
X0039200Y0134915D01*
X0039200Y0132917D02*
X0022800Y0132917D01*
X0022800Y0130918D02*
X0026646Y0130918D01*
X0023911Y0128920D02*
X0022800Y0128920D01*
X0035354Y0130918D02*
X0039200Y0130918D01*
X0039200Y0128920D02*
X0038089Y0128920D01*
X0042000Y0122102D02*
X0048008Y0116094D01*
X0053016Y0116929D02*
X0054811Y0116929D01*
X0054881Y0114930D02*
X0053016Y0114930D01*
X0053016Y0112932D02*
X0055019Y0112932D01*
X0055572Y0118927D02*
X0053016Y0118927D01*
X0052138Y0120926D02*
X0058396Y0120926D01*
X0058759Y0122924D02*
X0049530Y0122924D01*
X0048012Y0122924D02*
X0048004Y0122924D01*
X0046486Y0122924D02*
X0045138Y0122924D01*
X0048004Y0124923D02*
X0048012Y0124923D01*
X0048004Y0126921D02*
X0048012Y0126921D01*
X0048004Y0128920D02*
X0048012Y0128920D01*
X0048004Y0130918D02*
X0048012Y0130918D01*
X0052256Y0130918D02*
X0055749Y0130918D01*
X0054818Y0128920D02*
X0053120Y0128920D01*
X0053125Y0126921D02*
X0054811Y0126921D01*
X0055720Y0124923D02*
X0052278Y0124923D01*
X0061242Y0120926D02*
X0062839Y0120926D01*
X0064066Y0118927D02*
X0064838Y0118927D01*
X0064827Y0116929D02*
X0100182Y0116929D01*
X0100241Y0114930D02*
X0064757Y0114930D01*
X0064619Y0112932D02*
X0101578Y0112932D01*
X0115834Y0124923D02*
X0066762Y0124923D01*
X0064827Y0126921D02*
X0115800Y0126921D01*
X0115837Y0134915D02*
X0076147Y0134915D01*
X0074148Y0136914D02*
X0079595Y0136914D01*
X0078248Y0138912D02*
X0072150Y0138912D01*
X0070151Y0140911D02*
X0078175Y0140911D01*
X0079200Y0142909D02*
X0068153Y0142909D01*
X0066154Y0144908D02*
X0079200Y0144908D01*
X0079200Y0146906D02*
X0064156Y0146906D01*
X0062157Y0148905D02*
X0077860Y0148905D01*
X0075861Y0150903D02*
X0060159Y0150903D01*
X0064819Y0128920D02*
X0074223Y0128920D01*
X0139385Y0162894D02*
X0161200Y0162894D01*
X0166800Y0162894D02*
X0197200Y0162894D01*
X0197200Y0160896D02*
X0166800Y0160896D01*
X0166800Y0158897D02*
X0197200Y0158897D01*
X0197200Y0156899D02*
X0166575Y0156899D01*
X0164860Y0154900D02*
X0197200Y0154900D01*
X0197200Y0152902D02*
X0162862Y0152902D01*
X0160863Y0150903D02*
X0197200Y0150903D01*
X0197200Y0148905D02*
X0159749Y0148905D01*
X0166800Y0164893D02*
X0197200Y0164893D01*
X0197200Y0166891D02*
X0177851Y0166891D01*
X0178374Y0167414D02*
X0178374Y0167414D01*
X0179850Y0168890D02*
X0196464Y0168890D01*
X0196117Y0170888D02*
X0183379Y0170888D01*
X0184741Y0172887D02*
X0196896Y0172887D01*
X0197200Y0174885D02*
X0184836Y0174885D01*
X0183607Y0176884D02*
X0197200Y0176884D01*
X0197200Y0178882D02*
X0171800Y0178882D01*
X0171800Y0180881D02*
X0197200Y0180881D01*
X0197200Y0182879D02*
X0171800Y0182879D01*
X0171800Y0184878D02*
X0197200Y0184878D01*
X0197200Y0186876D02*
X0171800Y0186876D01*
X0171800Y0188875D02*
X0197332Y0188875D01*
X0198914Y0190873D02*
X0171800Y0190873D01*
X0171800Y0192872D02*
X0200912Y0192872D01*
X0202911Y0194870D02*
X0171089Y0194870D01*
X0169091Y0196869D02*
X0204909Y0196869D01*
X0201206Y0202865D02*
X0198794Y0202865D01*
X0199833Y0204863D02*
X0200167Y0204863D01*
X0200100Y0206862D02*
X0199900Y0206862D01*
X0199070Y0208860D02*
X0200930Y0208860D01*
X0207200Y0212857D02*
X0167800Y0212857D01*
X0167800Y0214856D02*
X0207200Y0214856D01*
X0207200Y0216854D02*
X0167106Y0216854D01*
X0179070Y0208860D02*
X0180930Y0208860D01*
X0180100Y0206862D02*
X0179900Y0206862D01*
X0179833Y0204863D02*
X0180167Y0204863D01*
X0181206Y0202865D02*
X0178794Y0202865D01*
X0188794Y0202865D02*
X0191206Y0202865D01*
X0190167Y0204863D02*
X0189833Y0204863D01*
X0189900Y0206862D02*
X0190100Y0206862D01*
X0190930Y0208860D02*
X0189070Y0208860D01*
X0206689Y0226847D02*
X0070968Y0226847D01*
X0070683Y0228845D02*
X0206117Y0228845D01*
X0206561Y0230844D02*
X0069351Y0230844D01*
X0066000Y0224000D02*
X0066000Y0217000D01*
X0062000Y0213000D01*
X0063818Y0210859D02*
X0063925Y0210859D01*
X0056000Y0223000D02*
X0056000Y0224000D01*
X0056000Y0223000D02*
X0047000Y0214000D01*
X0043000Y0214000D01*
X0049124Y0240836D02*
X0081116Y0240836D01*
X0082884Y0240836D02*
X0093694Y0240836D01*
X0093117Y0242835D02*
X0047800Y0242835D01*
X0047800Y0244833D02*
X0093557Y0244833D01*
X0094200Y0246832D02*
X0047800Y0246832D01*
X0047800Y0248830D02*
X0070936Y0248830D01*
X0071037Y0248654D02*
X0071410Y0248281D01*
X0071866Y0248018D01*
X0072374Y0247882D01*
X0075000Y0247882D01*
X0077626Y0247882D01*
X0078134Y0248018D01*
X0078590Y0248281D01*
X0078963Y0248654D01*
X0079226Y0249110D01*
X0079362Y0249619D01*
X0079362Y0251457D01*
X0079362Y0253295D01*
X0079226Y0253803D01*
X0078963Y0254260D01*
X0078590Y0254632D01*
X0078134Y0254895D01*
X0077626Y0255031D01*
X0075000Y0255031D01*
X0072374Y0255031D01*
X0071866Y0254895D01*
X0071410Y0254632D01*
X0071037Y0254260D01*
X0070774Y0253803D01*
X0070638Y0253295D01*
X0070638Y0251457D01*
X0075000Y0251457D01*
X0075000Y0251457D01*
X0075000Y0255031D01*
X0075000Y0251457D01*
X0079362Y0251457D01*
X0075000Y0251457D01*
X0075000Y0251457D01*
X0075000Y0251457D01*
X0070638Y0251457D01*
X0070638Y0249619D01*
X0070774Y0249110D01*
X0071037Y0248654D01*
X0070638Y0250829D02*
X0047800Y0250829D01*
X0047800Y0252827D02*
X0070638Y0252827D01*
X0071746Y0254826D02*
X0047800Y0254826D01*
X0047800Y0256824D02*
X0070838Y0256824D01*
X0070838Y0258823D02*
X0047800Y0258823D01*
X0047800Y0260821D02*
X0070838Y0260821D01*
X0071250Y0262820D02*
X0068750Y0262820D01*
X0069154Y0263224D02*
X0069900Y0265025D01*
X0069900Y0266975D01*
X0069154Y0268776D01*
X0067776Y0270154D01*
X0065975Y0270900D01*
X0064025Y0270900D01*
X0062224Y0270154D01*
X0060846Y0268776D01*
X0060100Y0266975D01*
X0060100Y0265025D01*
X0060846Y0263224D01*
X0062224Y0261846D01*
X0064025Y0261100D01*
X0065975Y0261100D01*
X0067776Y0261846D01*
X0069154Y0263224D01*
X0069814Y0264818D02*
X0070186Y0264818D01*
X0070100Y0266817D02*
X0069900Y0266817D01*
X0069114Y0268815D02*
X0070886Y0268815D01*
X0071160Y0270814D02*
X0066182Y0270814D01*
X0063818Y0270814D02*
X0056182Y0270814D01*
X0055975Y0270900D02*
X0054025Y0270900D01*
X0052224Y0270154D01*
X0050846Y0268776D01*
X0050100Y0266975D01*
X0050100Y0265025D01*
X0050846Y0263224D01*
X0052224Y0261846D01*
X0054025Y0261100D01*
X0055975Y0261100D01*
X0057776Y0261846D01*
X0059154Y0263224D01*
X0059900Y0265025D01*
X0059900Y0266975D01*
X0059154Y0268776D01*
X0057776Y0270154D01*
X0055975Y0270900D01*
X0053818Y0270814D02*
X0046182Y0270814D01*
X0049114Y0268815D02*
X0050886Y0268815D01*
X0050100Y0266817D02*
X0049900Y0266817D01*
X0049814Y0264818D02*
X0050186Y0264818D01*
X0051250Y0262820D02*
X0048749Y0262820D01*
X0058750Y0262820D02*
X0061250Y0262820D01*
X0060186Y0264818D02*
X0059814Y0264818D01*
X0059900Y0266817D02*
X0060100Y0266817D01*
X0060886Y0268815D02*
X0059114Y0268815D01*
X0075000Y0266000D02*
X0075000Y0258543D01*
X0075000Y0254826D02*
X0075000Y0254826D01*
X0075000Y0252827D02*
X0075000Y0252827D01*
X0075000Y0251457D02*
X0075000Y0247882D01*
X0075000Y0251457D01*
X0075000Y0251457D01*
X0075000Y0250829D02*
X0075000Y0250829D01*
X0075000Y0248830D02*
X0075000Y0248830D01*
X0079064Y0248830D02*
X0080936Y0248830D01*
X0081037Y0248654D02*
X0081410Y0248281D01*
X0081866Y0248018D01*
X0082374Y0247882D01*
X0085000Y0247882D01*
X0087626Y0247882D01*
X0088134Y0248018D01*
X0088590Y0248281D01*
X0088963Y0248654D01*
X0089226Y0249110D01*
X0089362Y0249619D01*
X0089362Y0251457D01*
X0089362Y0253295D01*
X0089226Y0253803D01*
X0088963Y0254260D01*
X0088590Y0254632D01*
X0088134Y0254895D01*
X0087626Y0255031D01*
X0085000Y0255031D01*
X0082374Y0255031D01*
X0081866Y0254895D01*
X0081410Y0254632D01*
X0081037Y0254260D01*
X0080774Y0253803D01*
X0080638Y0253295D01*
X0080638Y0251457D01*
X0085000Y0251457D01*
X0085000Y0251457D01*
X0085000Y0255031D01*
X0085000Y0251457D01*
X0089362Y0251457D01*
X0085000Y0251457D01*
X0085000Y0251457D01*
X0085000Y0251457D01*
X0080638Y0251457D01*
X0080638Y0249619D01*
X0080774Y0249110D01*
X0081037Y0248654D01*
X0080638Y0250829D02*
X0079362Y0250829D01*
X0079362Y0252827D02*
X0080638Y0252827D01*
X0081746Y0254826D02*
X0078254Y0254826D01*
X0079162Y0256824D02*
X0080838Y0256824D01*
X0080838Y0258823D02*
X0079162Y0258823D01*
X0079162Y0260821D02*
X0080838Y0260821D01*
X0081250Y0262820D02*
X0078749Y0262820D01*
X0079814Y0264818D02*
X0080186Y0264818D01*
X0080100Y0266817D02*
X0079900Y0266817D01*
X0079114Y0268815D02*
X0080886Y0268815D01*
X0081160Y0270814D02*
X0078840Y0270814D01*
X0079162Y0272812D02*
X0080838Y0272812D01*
X0080838Y0274811D02*
X0079162Y0274811D01*
X0078130Y0276809D02*
X0081870Y0276809D01*
X0080638Y0278808D02*
X0079362Y0278808D01*
X0079362Y0280806D02*
X0080638Y0280806D01*
X0080751Y0282805D02*
X0079249Y0282805D01*
X0075000Y0282805D02*
X0075000Y0282805D01*
X0075000Y0280806D02*
X0075000Y0280806D01*
X0075000Y0280543D02*
X0075000Y0280543D01*
X0075000Y0278808D02*
X0075000Y0278808D01*
X0075000Y0273457D02*
X0075000Y0266000D01*
X0085000Y0266000D02*
X0085000Y0258543D01*
X0085000Y0254826D02*
X0085000Y0254826D01*
X0085000Y0252827D02*
X0085000Y0252827D01*
X0085000Y0251457D02*
X0085000Y0247882D01*
X0085000Y0251457D01*
X0085000Y0251457D01*
X0085000Y0250829D02*
X0085000Y0250829D01*
X0085000Y0248830D02*
X0085000Y0248830D01*
X0089064Y0248830D02*
X0094200Y0248830D01*
X0094200Y0250829D02*
X0089362Y0250829D01*
X0089362Y0252827D02*
X0094200Y0252827D01*
X0094200Y0254826D02*
X0088254Y0254826D01*
X0089162Y0256824D02*
X0094200Y0256824D01*
X0094200Y0258823D02*
X0089162Y0258823D01*
X0089162Y0260821D02*
X0094200Y0260821D01*
X0091250Y0262820D02*
X0088749Y0262820D01*
X0089814Y0264818D02*
X0090186Y0264818D01*
X0090100Y0266817D02*
X0089900Y0266817D01*
X0089114Y0268815D02*
X0090886Y0268815D01*
X0085000Y0266000D02*
X0085000Y0273457D01*
X0085000Y0278808D02*
X0085000Y0278808D01*
X0085000Y0280543D02*
X0085000Y0280543D01*
X0085000Y0280806D02*
X0085000Y0280806D01*
X0083177Y0286802D02*
X0076823Y0286802D01*
X0079579Y0288801D02*
X0080421Y0288801D01*
X0073177Y0286802D02*
X0049762Y0286802D01*
X0051760Y0288801D02*
X0070421Y0288801D01*
X0069544Y0290799D02*
X0053759Y0290799D01*
X0055757Y0292798D02*
X0069500Y0292798D01*
X0070205Y0294796D02*
X0057756Y0294796D01*
X0095000Y0266000D02*
X0097000Y0264000D01*
X0097000Y0243000D01*
X0100883Y0242835D02*
X0101117Y0242835D01*
X0101557Y0244833D02*
X0100443Y0244833D01*
X0099800Y0246832D02*
X0102200Y0246832D01*
X0102200Y0248830D02*
X0099800Y0248830D01*
X0099800Y0250829D02*
X0102200Y0250829D01*
X0102200Y0252827D02*
X0099800Y0252827D01*
X0099800Y0254826D02*
X0102200Y0254826D01*
X0102200Y0256824D02*
X0099800Y0256824D01*
X0099800Y0258823D02*
X0102200Y0258823D01*
X0102200Y0260821D02*
X0099800Y0260821D01*
X0099800Y0262820D02*
X0101250Y0262820D01*
X0100186Y0264818D02*
X0099814Y0264818D01*
X0099900Y0266817D02*
X0100100Y0266817D01*
X0100886Y0268815D02*
X0099114Y0268815D01*
X0126131Y0250829D02*
X0142338Y0250829D01*
X0178750Y0262820D02*
X0181250Y0262820D01*
X0180186Y0264818D02*
X0179814Y0264818D01*
X0179900Y0266817D02*
X0180100Y0266817D01*
X0180886Y0268815D02*
X0179114Y0268815D01*
X0189114Y0268815D02*
X0190886Y0268815D01*
X0190100Y0266817D02*
X0189900Y0266817D01*
X0189814Y0264818D02*
X0190186Y0264818D01*
X0191250Y0262820D02*
X0188750Y0262820D01*
X0198750Y0262820D02*
X0201250Y0262820D01*
X0200186Y0264818D02*
X0199814Y0264818D01*
X0199900Y0266817D02*
X0200100Y0266817D01*
X0200886Y0268815D02*
X0199114Y0268815D01*
X0208750Y0262820D02*
X0211250Y0262820D01*
X0210186Y0264818D02*
X0209814Y0264818D01*
X0209900Y0266817D02*
X0210100Y0266817D01*
X0210886Y0268815D02*
X0209114Y0268815D01*
X0219114Y0268815D02*
X0220886Y0268815D01*
X0220100Y0266817D02*
X0219900Y0266817D01*
X0219814Y0264818D02*
X0220186Y0264818D01*
X0221250Y0262820D02*
X0218750Y0262820D01*
X0228750Y0262820D02*
X0231250Y0262820D01*
X0230186Y0264818D02*
X0229814Y0264818D01*
X0229900Y0266817D02*
X0230100Y0266817D01*
X0230886Y0268815D02*
X0229114Y0268815D01*
X0249114Y0268815D02*
X0250886Y0268815D01*
X0250100Y0266817D02*
X0249900Y0266817D01*
X0250141Y0264818D02*
X0250186Y0264818D01*
X0165168Y0192872D02*
X0164798Y0192872D01*
X0164000Y0189000D02*
X0164000Y0169000D01*
X0176000Y0169000D02*
X0181000Y0174000D01*
X0151206Y0202865D02*
X0148794Y0202865D01*
X0149833Y0204863D02*
X0150167Y0204863D01*
X0150100Y0206862D02*
X0149900Y0206862D01*
X0149070Y0208860D02*
X0150930Y0208860D01*
X0101694Y0240836D02*
X0100306Y0240836D01*
X0021973Y0044982D02*
X0016000Y0044982D01*
X0016000Y0042984D02*
X0019974Y0042984D01*
X0018929Y0040985D02*
X0016000Y0040985D01*
X0016000Y0038987D02*
X0018101Y0038987D01*
X0018094Y0036988D02*
X0016000Y0036988D01*
X0016000Y0034990D02*
X0018111Y0034990D01*
X0018938Y0032991D02*
X0016000Y0032991D01*
X0016000Y0030993D02*
X0019998Y0030993D01*
D22*
X0094000Y0096000D03*
X0099000Y0075000D03*
X0096000Y0116000D03*
X0106000Y0126000D03*
X0095000Y0136000D03*
X0086000Y0153000D03*
X0105000Y0153000D03*
X0136000Y0135000D03*
X0137000Y0117000D03*
X0142000Y0100000D03*
X0141000Y0081000D03*
X0159000Y0080000D03*
X0151000Y0064000D03*
X0193000Y0102000D03*
X0182000Y0116000D03*
X0194000Y0138000D03*
X0210000Y0137000D03*
X0190000Y0157000D03*
X0193000Y0176000D03*
X0193000Y0190000D03*
X0174000Y0181000D03*
X0159000Y0181000D03*
X0139000Y0193000D03*
X0140000Y0212000D03*
X0150000Y0232000D03*
X0150000Y0248000D03*
X0160000Y0248000D03*
X0169000Y0239000D03*
X0178000Y0220000D03*
X0204000Y0238000D03*
X0202000Y0249000D03*
X0231000Y0238000D03*
X0244000Y0249000D03*
X0265000Y0259000D03*
X0291000Y0259000D03*
X0292000Y0246000D03*
X0287000Y0225000D03*
X0291000Y0198000D03*
X0285000Y0173000D03*
X0273000Y0156000D03*
X0253000Y0156000D03*
X0237000Y0142000D03*
X0249000Y0133000D03*
X0263000Y0109000D03*
X0260000Y0089000D03*
X0265000Y0065000D03*
X0290000Y0055000D03*
X0287000Y0028000D03*
X0238000Y0062000D03*
X0206000Y0060000D03*
X0216000Y0092000D03*
X0294000Y0151000D03*
X0321000Y0187000D03*
X0252000Y0220000D03*
X0245000Y0227000D03*
X0230000Y0274000D03*
X0133000Y0273000D03*
X0129000Y0253000D03*
X0110000Y0252000D03*
X0126000Y0232000D03*
X0110000Y0231000D03*
X0092000Y0231000D03*
X0080000Y0212000D03*
X0085000Y0185000D03*
X0095000Y0185000D03*
X0105000Y0185000D03*
X0110000Y0212000D03*
X0073000Y0243000D03*
X0050000Y0259000D03*
X0057000Y0289000D03*
X0094000Y0293000D03*
X0110000Y0272000D03*
X0049000Y0197000D03*
X0025000Y0186000D03*
X0076000Y0126000D03*
X0100000Y0035000D03*
X0216000Y0172000D03*
D23*
X0059000Y0035000D03*
D24*
X0087000Y0060000D02*
X0089000Y0058000D01*
X0089000Y0033000D01*
X0095000Y0027000D01*
X0139000Y0027000D01*
X0139000Y0038000D01*
X0139000Y0065000D01*
X0139000Y0027000D02*
X0146000Y0027000D01*
X0256000Y0027000D01*
X0278000Y0049000D01*
X0278000Y0075857D01*
X0278000Y0081857D01*
X0243833Y0116024D01*
X0236996Y0116024D01*
X0278000Y0075857D02*
X0287049Y0084906D01*
X0287049Y0111951D01*
X0287000Y0112000D01*
X0287000Y0123000D01*
X0287000Y0163000D01*
X0295000Y0171000D01*
X0295094Y0170906D01*
X0299181Y0170906D01*
X0299087Y0128000D02*
X0292000Y0128000D01*
X0289500Y0125500D01*
X0287000Y0123000D01*
X0299087Y0128000D02*
X0299181Y0127906D01*
X0299181Y0084906D02*
X0287049Y0084906D01*
X0089000Y0072000D02*
X0089000Y0058000D01*
X0087000Y0060000D02*
X0023000Y0060000D01*
X0018000Y0065000D01*
X0018000Y0101000D01*
X0057000Y0101000D01*
X0059819Y0103819D01*
X0059819Y0116094D01*
X0018000Y0101000D02*
X0018000Y0192000D01*
X0018000Y0224000D01*
X0018000Y0259000D01*
X0025000Y0266000D01*
X0059819Y0073094D02*
X0087906Y0073094D01*
X0089000Y0072000D01*
D25*
X0082500Y0066500D03*
X0111000Y0091000D03*
X0111000Y0106000D03*
X0104000Y0116000D03*
X0093000Y0106000D03*
X0082000Y0121000D03*
X0082000Y0140000D03*
X0075000Y0189000D03*
X0069000Y0192000D03*
X0051000Y0192000D03*
X0082000Y0237000D03*
X0097000Y0243000D03*
X0105000Y0243000D03*
X0119500Y0237000D03*
X0145000Y0248000D03*
X0163000Y0237000D03*
X0163000Y0219000D03*
X0164000Y0189000D03*
X0171000Y0174000D03*
X0181000Y0174000D03*
X0200000Y0170500D03*
X0204000Y0174000D03*
X0235000Y0174000D03*
X0238000Y0151000D03*
X0215000Y0143000D03*
X0262000Y0182000D03*
X0277000Y0164000D03*
X0275000Y0146000D03*
X0272000Y0138000D03*
X0265000Y0134000D03*
X0264000Y0118000D03*
X0277000Y0110000D03*
X0271000Y0105000D03*
X0275000Y0098000D03*
X0295000Y0105000D03*
X0295000Y0110000D03*
X0289500Y0125500D03*
X0297000Y0194000D03*
X0315000Y0199000D03*
X0293000Y0211000D03*
X0267000Y0221000D03*
X0261000Y0243000D03*
X0227000Y0230000D03*
X0220000Y0226000D03*
X0210000Y0229000D03*
X0137000Y0166000D03*
X0156000Y0150000D03*
X0149000Y0107000D03*
X0146000Y0027000D03*
X0265000Y0056000D03*
X0304000Y0254000D03*
X0338000Y0275000D03*
X0134000Y0285000D03*
D26*
X0051000Y0192000D02*
X0018000Y0192000D01*
X0018000Y0224000D02*
X0026000Y0224000D01*
X0100811Y0086000D02*
X0087906Y0073094D01*
X0100811Y0086000D02*
X0124000Y0086000D01*
D27*
X0217035Y0100276D02*
X0220724Y0100276D01*
X0265000Y0056000D01*
M02*
