G75*
%MOIN*%
%OFA0B0*%
%FSLAX25Y25*%
%IPPOS*%
%LPD*%
%AMOC8*
5,1,8,0,0,1.08239X$1,22.5*
%
%ADD10C,0.12612*%
%ADD11R,0.05524X0.08674*%
%ADD12R,0.03950X0.05524*%
%ADD13R,0.03950X0.04343*%
%ADD14R,0.06312X0.05524*%
%ADD15R,0.17500X0.15800*%
%ADD16R,0.03162X0.09461*%
%ADD17R,0.07216X0.07216*%
%ADD18C,0.07216*%
%ADD19C,0.12611*%
%ADD20R,0.05524X0.03950*%
%ADD21C,0.07000*%
%ADD22R,0.05524X0.06312*%
%ADD23R,0.04343X0.03950*%
%ADD24R,0.06312X0.06312*%
%ADD25OC8,0.08000*%
%ADD26C,0.07137*%
%ADD27C,0.07200*%
%ADD28C,0.13005*%
%ADD29C,0.08200*%
%ADD30R,0.06312X0.12611*%
%ADD31R,0.11824X0.15761*%
%ADD32R,0.19811X0.14580*%
%ADD33C,0.07137*%
%ADD34R,0.07137X0.07137*%
%ADD35R,0.03000X0.05800*%
%ADD36R,0.08200X0.08200*%
%ADD37OC8,0.07400*%
D10*
X0028000Y0037000D03*
X0028000Y0288465D03*
X0330000Y0288465D03*
X0330000Y0037000D03*
D11*
X0326701Y0191000D03*
X0339299Y0191000D03*
X0184299Y0191000D03*
X0171701Y0191000D03*
X0083299Y0110000D03*
X0070701Y0110000D03*
X0071299Y0145000D03*
X0058701Y0145000D03*
X0043299Y0191000D03*
X0030701Y0191000D03*
X0043701Y0279000D03*
X0056299Y0279000D03*
X0059701Y0057000D03*
X0072299Y0057000D03*
D12*
X0146457Y0082000D03*
X0153543Y0082000D03*
X0153543Y0091000D03*
X0146457Y0091000D03*
X0156457Y0072000D03*
X0163543Y0072000D03*
X0177457Y0082000D03*
X0184543Y0082000D03*
X0184543Y0091000D03*
X0177457Y0091000D03*
X0177543Y0141000D03*
X0170457Y0141000D03*
X0164543Y0141000D03*
X0157457Y0141000D03*
X0150543Y0148000D03*
X0143457Y0148000D03*
X0173457Y0166000D03*
X0180543Y0166000D03*
X0156543Y0191000D03*
X0149457Y0191000D03*
X0119543Y0243000D03*
X0112457Y0243000D03*
X0089543Y0243000D03*
X0082457Y0243000D03*
X0051543Y0291000D03*
X0044457Y0291000D03*
X0058457Y0178000D03*
X0065543Y0178000D03*
X0206457Y0277000D03*
X0213543Y0277000D03*
X0250457Y0277000D03*
X0257543Y0277000D03*
X0266457Y0234000D03*
X0273543Y0234000D03*
X0273457Y0225000D03*
X0280543Y0225000D03*
X0280543Y0216000D03*
X0273457Y0216000D03*
X0293457Y0218000D03*
X0300543Y0218000D03*
X0308457Y0215000D03*
X0315543Y0215000D03*
X0315543Y0205000D03*
X0308457Y0205000D03*
X0308543Y0194000D03*
X0301457Y0194000D03*
X0283543Y0195000D03*
X0276457Y0195000D03*
X0276457Y0186000D03*
X0283543Y0186000D03*
X0255543Y0182000D03*
X0248457Y0182000D03*
X0248457Y0173000D03*
X0255543Y0173000D03*
X0255543Y0164000D03*
X0248457Y0164000D03*
X0228543Y0164000D03*
X0221457Y0164000D03*
X0221457Y0173000D03*
X0228543Y0173000D03*
X0228543Y0182000D03*
X0221457Y0182000D03*
X0279457Y0138000D03*
X0286543Y0138000D03*
X0294457Y0138000D03*
X0301543Y0138000D03*
X0286543Y0119000D03*
X0279457Y0119000D03*
X0278543Y0128000D03*
X0271457Y0128000D03*
X0293457Y0227000D03*
X0300543Y0227000D03*
X0308457Y0225000D03*
X0315543Y0225000D03*
X0315543Y0234000D03*
X0308457Y0234000D03*
D13*
X0334000Y0258669D03*
X0330260Y0266937D03*
X0337740Y0266937D03*
X0180740Y0157937D03*
X0173260Y0157937D03*
X0177000Y0149669D03*
X0150740Y0139937D03*
X0143260Y0139937D03*
X0147000Y0131669D03*
X0162260Y0089937D03*
X0169740Y0089937D03*
X0166000Y0081669D03*
D14*
X0153000Y0053906D03*
X0153000Y0042094D03*
D15*
X0199400Y0076000D03*
X0224500Y0076000D03*
D16*
X0173500Y0103890D03*
X0168500Y0103890D03*
X0163500Y0103890D03*
X0158500Y0103890D03*
X0158500Y0130110D03*
X0163500Y0130110D03*
X0168500Y0130110D03*
X0173500Y0130110D03*
D17*
X0184906Y0057008D03*
X0310992Y0084906D03*
X0310992Y0127906D03*
X0310992Y0170906D03*
X0048008Y0159094D03*
X0048008Y0116094D03*
X0048008Y0073094D03*
D18*
X0059819Y0073094D03*
X0059819Y0084906D03*
X0048008Y0084906D03*
X0059819Y0116094D03*
X0059819Y0127906D03*
X0048008Y0127906D03*
X0059819Y0159094D03*
X0059819Y0170906D03*
X0048008Y0170906D03*
X0173094Y0068819D03*
X0173094Y0057008D03*
X0184906Y0068819D03*
X0299181Y0073094D03*
X0310992Y0073094D03*
X0299181Y0084906D03*
X0299181Y0116094D03*
X0310992Y0116094D03*
X0299181Y0127906D03*
X0299181Y0159094D03*
X0310992Y0159094D03*
X0299181Y0170906D03*
D19*
X0328000Y0165000D03*
X0328000Y0122000D03*
X0328000Y0079000D03*
X0179000Y0040000D03*
X0031000Y0079000D03*
X0031000Y0122000D03*
X0031000Y0165000D03*
D20*
X0137000Y0093543D03*
X0137000Y0086457D03*
X0149000Y0117457D03*
X0149000Y0124543D03*
X0183000Y0110543D03*
X0183000Y0103457D03*
X0215000Y0147457D03*
X0215000Y0154543D03*
X0209000Y0163457D03*
X0209000Y0170543D03*
X0193000Y0170543D03*
X0193000Y0163457D03*
X0276500Y0170457D03*
X0276500Y0177543D03*
X0299000Y0178457D03*
X0299000Y0185543D03*
X0301000Y0203457D03*
X0301000Y0210543D03*
X0337000Y0244457D03*
X0337000Y0251543D03*
X0237000Y0250457D03*
X0237000Y0257543D03*
X0092000Y0277457D03*
X0092000Y0284543D03*
X0066000Y0285457D03*
X0066000Y0292543D03*
X0299000Y0099543D03*
X0299000Y0092457D03*
X0153000Y0033543D03*
X0153000Y0026457D03*
D21*
X0155000Y0206000D03*
X0145000Y0206000D03*
X0135000Y0206000D03*
X0125000Y0206000D03*
X0115000Y0206000D03*
X0105000Y0206000D03*
X0095000Y0206000D03*
X0085000Y0206000D03*
X0075000Y0206000D03*
X0065000Y0206000D03*
X0055000Y0206000D03*
X0045000Y0206000D03*
X0035000Y0206000D03*
X0025000Y0206000D03*
X0025000Y0266000D03*
X0035000Y0266000D03*
X0045000Y0266000D03*
X0055000Y0266000D03*
X0065000Y0266000D03*
X0075000Y0266000D03*
X0085000Y0266000D03*
X0095000Y0266000D03*
X0105000Y0266000D03*
X0115000Y0266000D03*
X0125000Y0266000D03*
X0135000Y0266000D03*
X0145000Y0266000D03*
X0155000Y0266000D03*
X0165000Y0266000D03*
X0175000Y0266000D03*
X0185000Y0266000D03*
X0195000Y0266000D03*
X0205000Y0266000D03*
X0215000Y0266000D03*
X0225000Y0266000D03*
X0235000Y0266000D03*
X0245000Y0266000D03*
X0255000Y0266000D03*
X0255000Y0206000D03*
X0245000Y0206000D03*
X0235000Y0206000D03*
X0225000Y0206000D03*
X0215000Y0206000D03*
X0205000Y0206000D03*
X0195000Y0206000D03*
X0185000Y0206000D03*
X0175000Y0206000D03*
X0165000Y0206000D03*
D22*
X0212094Y0288000D03*
X0223906Y0288000D03*
X0239094Y0288000D03*
X0250906Y0288000D03*
D23*
X0222063Y0154740D03*
X0222063Y0147260D03*
X0230331Y0151000D03*
D24*
X0232480Y0192000D03*
X0244520Y0192000D03*
X0259480Y0192000D03*
X0272520Y0205000D03*
X0287480Y0205000D03*
X0283520Y0237000D03*
X0284480Y0247000D03*
X0269520Y0247000D03*
X0298480Y0237000D03*
X0309520Y0246000D03*
X0324480Y0246000D03*
X0217520Y0192000D03*
X0173000Y0276520D03*
X0173000Y0291480D03*
X0127480Y0290000D03*
X0127480Y0279000D03*
X0112520Y0279000D03*
X0102000Y0277520D03*
X0112520Y0290000D03*
X0102000Y0292480D03*
X0081480Y0277000D03*
X0066520Y0277000D03*
D25*
X0141000Y0279000D03*
X0151000Y0279000D03*
X0151000Y0289000D03*
X0141000Y0289000D03*
X0161000Y0289000D03*
X0161000Y0279000D03*
D26*
X0066000Y0227169D02*
X0066000Y0220831D01*
X0056000Y0220831D02*
X0056000Y0227169D01*
X0046000Y0227169D02*
X0046000Y0220831D01*
X0036000Y0220831D02*
X0036000Y0227169D01*
X0026000Y0227169D02*
X0026000Y0220831D01*
X0109000Y0068169D02*
X0109000Y0061831D01*
X0119000Y0061831D02*
X0119000Y0068169D01*
X0129000Y0068169D02*
X0129000Y0061831D01*
X0139000Y0061831D02*
X0139000Y0068169D01*
X0139000Y0041169D02*
X0139000Y0034831D01*
X0129000Y0034831D02*
X0129000Y0041169D01*
X0119000Y0041169D02*
X0119000Y0034831D01*
X0109000Y0034831D02*
X0109000Y0041169D01*
D27*
X0120800Y0086000D02*
X0127200Y0086000D01*
X0127200Y0096000D02*
X0120800Y0096000D01*
X0120800Y0106000D02*
X0127200Y0106000D01*
X0127200Y0116000D02*
X0120800Y0116000D01*
X0120800Y0126000D02*
X0127200Y0126000D01*
X0127200Y0136000D02*
X0120800Y0136000D01*
X0120800Y0146000D02*
X0127200Y0146000D01*
X0127200Y0156000D02*
X0120800Y0156000D01*
X0120800Y0166000D02*
X0127200Y0166000D01*
X0127200Y0176000D02*
X0120800Y0176000D01*
D28*
X0079000Y0170488D03*
X0079000Y0091748D03*
D29*
X0193000Y0279000D03*
X0193000Y0289000D03*
X0085000Y0292000D03*
X0075000Y0292000D03*
X0333000Y0236000D03*
X0333000Y0226000D03*
X0333000Y0216000D03*
D30*
X0279000Y0084449D03*
X0279000Y0065551D03*
X0251000Y0064551D03*
X0251000Y0083449D03*
X0304000Y0050449D03*
X0304000Y0031551D03*
D31*
X0234567Y0043000D03*
X0205433Y0043000D03*
D32*
X0251173Y0043000D03*
X0278827Y0043000D03*
D33*
X0236996Y0100276D03*
X0236996Y0116024D03*
X0217035Y0123898D03*
X0217035Y0108150D03*
X0217035Y0100276D03*
D34*
X0236996Y0108150D03*
D35*
X0065700Y0186900D03*
X0058300Y0186900D03*
X0062000Y0195100D03*
D36*
X0333000Y0206000D03*
D37*
X0059000Y0035000D03*
M02*
