%
M48
M72
T01C0.02165
T02C0.03800
T03C0.03937
T04C0.04000
T05C0.04016
T06C0.04724
T07C0.11811
T08C0.11812
T09C0.12205
%
T01
X82500Y66500
X99000Y75000
X111000Y91000
X111000Y106000
X104000Y116000
X96000Y116000
X93000Y106000
X94000Y96000
X82000Y121000
X76000Y126000
X82000Y140000
X86000Y153000
X105000Y153000
X95000Y136000
X106000Y126000
X136000Y135000
X137000Y117000
X149000Y107000
X142000Y100000
X141000Y81000
X159000Y80000
X151000Y64000
X146000Y27000
X100000Y35000
X182000Y116000
X193000Y102000
X216000Y92000
X238000Y62000
X265000Y65000
X265000Y56000
X290000Y55000
X287000Y28000
X260000Y89000
X275000Y98000
X271000Y105000
X277000Y110000
X263000Y109000
X264000Y118000
X265000Y134000
X272000Y138000
X275000Y146000
X273000Y156000
X277000Y164000
X285000Y173000
X294000Y151000
X289500Y125500
X295000Y110000
X295000Y105000
X249000Y133000
X237000Y142000
X238000Y151000
X253000Y156000
X235000Y174000
X216000Y172000
X204000Y174000
X200000Y170500
X193000Y176000
X181000Y174000
X174000Y181000
X171000Y174000
X159000Y181000
X164000Y189000
X139000Y193000
X140000Y212000
X150000Y232000
X163000Y237000
X169000Y239000
X160000Y248000
X150000Y248000
X145000Y248000
X129000Y253000
X119500Y237000
X126000Y232000
X110000Y231000
X105000Y243000
X97000Y243000
X110000Y252000
X110000Y272000
X94000Y293000
X57000Y289000
X50000Y259000
X73000Y243000
X82000Y237000
X92000Y231000
X80000Y212000
X69000Y192000
X75000Y189000
X85000Y185000
X95000Y185000
X105000Y185000
X110000Y212000
X137000Y166000
X156000Y150000
X190000Y157000
X194000Y138000
X210000Y137000
X215000Y143000
X262000Y182000
X291000Y198000
X297000Y194000
X315000Y199000
X321000Y187000
X293000Y211000
X287000Y225000
X267000Y221000
X252000Y220000
X245000Y227000
X231000Y238000
X227000Y230000
X220000Y226000
X210000Y229000
X204000Y238000
X202000Y249000
X230000Y274000
X244000Y249000
X261000Y243000
X265000Y259000
X291000Y259000
X292000Y246000
X304000Y254000
X338000Y275000
X193000Y190000
X178000Y220000
X163000Y219000
X133000Y273000
X134000Y285000
X49000Y197000
X51000Y192000
X25000Y186000
X206000Y60000
T02
X205000Y206000
X195000Y206000
X185000Y206000
X175000Y206000
X165000Y206000
X155000Y206000
X145000Y206000
X135000Y206000
X125000Y206000
X115000Y206000
X105000Y206000
X95000Y206000
X85000Y206000
X75000Y206000
X65000Y206000
X55000Y206000
X45000Y206000
X35000Y206000
X25000Y206000
X25000Y266000
X35000Y266000
X45000Y266000
X55000Y266000
X65000Y266000
X75000Y266000
X85000Y266000
X95000Y266000
X105000Y266000
X115000Y266000
X125000Y266000
X135000Y266000
X145000Y266000
X155000Y266000
X165000Y266000
X175000Y266000
X185000Y266000
X195000Y266000
X205000Y266000
X215000Y266000
X225000Y266000
X235000Y266000
X245000Y266000
X255000Y266000
X255000Y206000
X245000Y206000
X235000Y206000
X225000Y206000
X215000Y206000
T03
X217035Y123898
X217035Y108150
X217035Y100276
X236996Y100276
X236996Y108150
X236996Y116024
X139000Y65000
X129000Y65000
X119000Y65000
X109000Y65000
X109000Y38000
X119000Y38000
X129000Y38000
X139000Y38000
X59000Y35000
X56000Y224000
X46000Y224000
X36000Y224000
X26000Y224000
X66000Y224000
T04
X124000Y176000
X124000Y166000
X124000Y156000
X124000Y146000
X124000Y136000
X124000Y126000
X124000Y116000
X124000Y106000
X124000Y96000
X124000Y86000
X193000Y279000
X193000Y289000
X85000Y292000
X75000Y292000
X333000Y236000
X333000Y226000
X333000Y216000
X333000Y206000
T05
X310992Y170906
X299181Y170906
X299181Y159094
X310992Y159094
X310992Y127906
X299181Y127906
X299181Y116094
X310992Y116094
X310992Y84906
X299181Y84906
X299181Y73094
X310992Y73094
X184906Y68819
X184906Y57008
X173094Y57008
X173094Y68819
X59819Y73094
X48008Y73094
X48008Y84906
X59819Y84906
X59819Y116094
X48008Y116094
X48008Y127906
X59819Y127906
X59819Y159094
X48008Y159094
X48008Y170906
X59819Y170906
T06
X141000Y279000
X151000Y279000
X151000Y289000
X141000Y289000
X161000Y289000
X161000Y279000
T07
X31000Y165000
X31000Y122000
X31000Y79000
X179000Y40000
X328000Y79000
X328000Y122000
X328000Y165000
T08
X28000Y37000
X28000Y288465
X330000Y288465
X330000Y37000
T09
X79000Y91748
X79000Y170488
M30
