G75*
%MOIN*%
%OFA0B0*%
%FSLAX25Y25*%
%IPPOS*%
%LPD*%
%AMOC8*
5,1,8,0,0,1.08239X$1,22.5*
%
%ADD10R,0.04724X0.07874*%
%ADD11R,0.03150X0.04724*%
%ADD12R,0.03150X0.03543*%
%ADD13R,0.05512X0.04724*%
%ADD14R,0.16700X0.15000*%
%ADD15R,0.02362X0.08661*%
%ADD16R,0.04724X0.03150*%
%ADD17R,0.04724X0.05512*%
%ADD18R,0.03543X0.03150*%
%ADD19R,0.05512X0.05512*%
%ADD20R,0.05512X0.11811*%
%ADD21R,0.11024X0.14961*%
%ADD22R,0.19011X0.13780*%
%ADD23R,0.02200X0.05000*%
D10*
X0059701Y0057000D03*
X0072299Y0057000D03*
X0070701Y0110000D03*
X0083299Y0110000D03*
X0071299Y0145000D03*
X0058701Y0145000D03*
X0043299Y0191000D03*
X0030701Y0191000D03*
X0043701Y0279000D03*
X0056299Y0279000D03*
X0171701Y0191000D03*
X0184299Y0191000D03*
X0326701Y0191000D03*
X0339299Y0191000D03*
D11*
X0315543Y0205000D03*
X0308457Y0205000D03*
X0308457Y0215000D03*
X0315543Y0215000D03*
X0315543Y0225000D03*
X0308457Y0225000D03*
X0300543Y0227000D03*
X0293457Y0227000D03*
X0293457Y0218000D03*
X0300543Y0218000D03*
X0308457Y0234000D03*
X0315543Y0234000D03*
X0280543Y0225000D03*
X0273457Y0225000D03*
X0273543Y0234000D03*
X0266457Y0234000D03*
X0273457Y0216000D03*
X0280543Y0216000D03*
X0283543Y0195000D03*
X0276457Y0195000D03*
X0276457Y0186000D03*
X0283543Y0186000D03*
X0301457Y0194000D03*
X0308543Y0194000D03*
X0255543Y0182000D03*
X0248457Y0182000D03*
X0248457Y0173000D03*
X0255543Y0173000D03*
X0255543Y0164000D03*
X0248457Y0164000D03*
X0228543Y0164000D03*
X0221457Y0164000D03*
X0221457Y0173000D03*
X0228543Y0173000D03*
X0228543Y0182000D03*
X0221457Y0182000D03*
X0180543Y0166000D03*
X0173457Y0166000D03*
X0150543Y0148000D03*
X0143457Y0148000D03*
X0157457Y0141000D03*
X0164543Y0141000D03*
X0170457Y0141000D03*
X0177543Y0141000D03*
X0177457Y0091000D03*
X0184543Y0091000D03*
X0184543Y0082000D03*
X0177457Y0082000D03*
X0163543Y0072000D03*
X0156457Y0072000D03*
X0153543Y0082000D03*
X0146457Y0082000D03*
X0146457Y0091000D03*
X0153543Y0091000D03*
X0065543Y0178000D03*
X0058457Y0178000D03*
X0082457Y0243000D03*
X0089543Y0243000D03*
X0112457Y0243000D03*
X0119543Y0243000D03*
X0149457Y0191000D03*
X0156543Y0191000D03*
X0206457Y0277000D03*
X0213543Y0277000D03*
X0250457Y0277000D03*
X0257543Y0277000D03*
X0279457Y0138000D03*
X0286543Y0138000D03*
X0294457Y0138000D03*
X0301543Y0138000D03*
X0286543Y0119000D03*
X0279457Y0119000D03*
X0278543Y0128000D03*
X0271457Y0128000D03*
X0051543Y0291000D03*
X0044457Y0291000D03*
D12*
X0173260Y0157937D03*
X0180740Y0157937D03*
X0177000Y0149669D03*
X0150740Y0139937D03*
X0143260Y0139937D03*
X0147000Y0131669D03*
X0162260Y0089937D03*
X0169740Y0089937D03*
X0166000Y0081669D03*
X0334000Y0258669D03*
X0330260Y0266937D03*
X0337740Y0266937D03*
D13*
X0153000Y0053906D03*
X0153000Y0042094D03*
D14*
X0199400Y0076000D03*
X0224500Y0076000D03*
D15*
X0173500Y0103890D03*
X0168500Y0103890D03*
X0163500Y0103890D03*
X0158500Y0103890D03*
X0158500Y0130110D03*
X0163500Y0130110D03*
X0168500Y0130110D03*
X0173500Y0130110D03*
D16*
X0183000Y0110543D03*
X0183000Y0103457D03*
X0149000Y0117457D03*
X0149000Y0124543D03*
X0137000Y0093543D03*
X0137000Y0086457D03*
X0153000Y0033543D03*
X0153000Y0026457D03*
X0215000Y0147457D03*
X0215000Y0154543D03*
X0209000Y0163457D03*
X0209000Y0170543D03*
X0193000Y0170543D03*
X0193000Y0163457D03*
X0276500Y0170457D03*
X0276500Y0177543D03*
X0299000Y0178457D03*
X0299000Y0185543D03*
X0301000Y0203457D03*
X0301000Y0210543D03*
X0337000Y0244457D03*
X0337000Y0251543D03*
X0237000Y0250457D03*
X0237000Y0257543D03*
X0092000Y0277457D03*
X0092000Y0284543D03*
X0066000Y0285457D03*
X0066000Y0292543D03*
X0299000Y0099543D03*
X0299000Y0092457D03*
D17*
X0250906Y0288000D03*
X0239094Y0288000D03*
X0223906Y0288000D03*
X0212094Y0288000D03*
D18*
X0222063Y0154740D03*
X0222063Y0147260D03*
X0230331Y0151000D03*
D19*
X0232480Y0192000D03*
X0244520Y0192000D03*
X0259480Y0192000D03*
X0272520Y0205000D03*
X0287480Y0205000D03*
X0283520Y0237000D03*
X0284480Y0247000D03*
X0269520Y0247000D03*
X0298480Y0237000D03*
X0309520Y0246000D03*
X0324480Y0246000D03*
X0217520Y0192000D03*
X0173000Y0276520D03*
X0173000Y0291480D03*
X0127480Y0290000D03*
X0127480Y0279000D03*
X0112520Y0279000D03*
X0102000Y0277520D03*
X0112520Y0290000D03*
X0102000Y0292480D03*
X0081480Y0277000D03*
X0066520Y0277000D03*
D20*
X0251000Y0083449D03*
X0251000Y0064551D03*
X0279000Y0065551D03*
X0279000Y0084449D03*
X0304000Y0050449D03*
X0304000Y0031551D03*
D21*
X0234567Y0043000D03*
X0205433Y0043000D03*
D22*
X0251173Y0043000D03*
X0278827Y0043000D03*
D23*
X0065700Y0186900D03*
X0058300Y0186900D03*
X0062000Y0195100D03*
M02*
