solid OpenSCAD_Model
  facet normal 0 0 1
    outer loop
      vertex 0.620375 0.20193 0.5
      vertex 0 0.379999 0.5
      vertex 0.62 0.19 0.5
    endloop
  endfacet
  facet normal 0 0 1
    outer loop
      vertex 0.621498 0.213813 0.5
      vertex 0 0.379999 0.5
      vertex 0.620375 0.20193 0.5
    endloop
  endfacet
  facet normal 0 0 1
    outer loop
      vertex 0.623365 0.225602 0.5
      vertex 0 0.379999 0.5
      vertex 0.621498 0.213813 0.5
    endloop
  endfacet
  facet normal 0 0 1
    outer loop
      vertex 0.625969 0.23725 0.5
      vertex 0 0.379999 0.5
      vertex 0.623365 0.225602 0.5
    endloop
  endfacet
  facet normal 0 0 1
    outer loop
      vertex 0.629299 0.248713 0.5
      vertex 0 0.379999 0.5
      vertex 0.625969 0.23725 0.5
    endloop
  endfacet
  facet normal 0 0 1
    outer loop
      vertex 0.633342 0.259943 0.5
      vertex 0 0.379999 0.5
      vertex 0.629299 0.248713 0.5
    endloop
  endfacet
  facet normal 0 0 1
    outer loop
      vertex 0.638083 0.270898 0.5
      vertex 0 0.379999 0.5
      vertex 0.633342 0.259943 0.5
    endloop
  endfacet
  facet normal 0 0 1
    outer loop
      vertex 0.643501 0.281532 0.5
      vertex 0 0.379999 0.5
      vertex 0.638083 0.270898 0.5
    endloop
  endfacet
  facet normal 0 0 1
    outer loop
      vertex 0.649577 0.291806 0.5
      vertex 0 0.379999 0.5
      vertex 0.643501 0.281532 0.5
    endloop
  endfacet
  facet normal 0 0 1
    outer loop
      vertex 0.656286 0.301679 0.5
      vertex 0 0.379999 0.5
      vertex 0.649577 0.291806 0.5
    endloop
  endfacet
  facet normal 0 0 1
    outer loop
      vertex 0.663602 0.31111 0.5
      vertex 0 0.379999 0.5
      vertex 0.656286 0.301679 0.5
    endloop
  endfacet
  facet normal 0 0 1
    outer loop
      vertex 0.671495 0.320064 0.5
      vertex 0 0.379999 0.5
      vertex 0.663602 0.31111 0.5
    endloop
  endfacet
  facet normal 0 0 1
    outer loop
      vertex 0.679935 0.328504 0.5
      vertex 0 0.379999 0.5
      vertex 0.671495 0.320064 0.5
    endloop
  endfacet
  facet normal 0 0 1
    outer loop
      vertex 0.688889 0.336397 0.5
      vertex 0 0.379999 0.5
      vertex 0.679935 0.328504 0.5
    endloop
  endfacet
  facet normal 0 0 1
    outer loop
      vertex 0.69832 0.343713 0.5
      vertex 0 0.379999 0.5
      vertex 0.688889 0.336397 0.5
    endloop
  endfacet
  facet normal 0 0 1
    outer loop
      vertex 0.708193 0.350422 0.5
      vertex 0 0.379999 0.5
      vertex 0.69832 0.343713 0.5
    endloop
  endfacet
  facet normal 0 0 1
    outer loop
      vertex 0.718467 0.356498 0.5
      vertex 0 0.379999 0.5
      vertex 0.708193 0.350422 0.5
    endloop
  endfacet
  facet normal 0 0 1
    outer loop
      vertex 0.729101 0.361917 0.5
      vertex 0 0.379999 0.5
      vertex 0.718467 0.356498 0.5
    endloop
  endfacet
  facet normal 0 0 1
    outer loop
      vertex 0.740056 0.366657 0.5
      vertex 0 0.379999 0.5
      vertex 0.729101 0.361917 0.5
    endloop
  endfacet
  facet normal 0 0 1
    outer loop
      vertex 0.751287 0.3707 0.5
      vertex 0 0.379999 0.5
      vertex 0.740056 0.366657 0.5
    endloop
  endfacet
  facet normal 0 0 1
    outer loop
      vertex 0.762749 0.37403 0.5
      vertex 0 0.379999 0.5
      vertex 0.751287 0.3707 0.5
    endloop
  endfacet
  facet normal 0 0 1
    outer loop
      vertex 0.774397 0.376634 0.5
      vertex 0 0.379999 0.5
      vertex 0.762749 0.37403 0.5
    endloop
  endfacet
  facet normal 0 0 1
    outer loop
      vertex 0.786186 0.378501 0.5
      vertex 0 0.379999 0.5
      vertex 0.774397 0.376634 0.5
    endloop
  endfacet
  facet normal 0 0 1
    outer loop
      vertex 0.798069 0.379624 0.5
      vertex 0 0.379999 0.5
      vertex 0.786186 0.378501 0.5
    endloop
  endfacet
  facet normal -0 0 1
    outer loop
      vertex 0 0.379999 0.5
      vertex 0.798069 0.379624 0.5
      vertex 0.809999 0.379999 0.5
    endloop
  endfacet
  facet normal 0 0 1
    outer loop
      vertex 0 0 0.5
      vertex 0.62 0.19 0.5
      vertex 0 0.379999 0.5
    endloop
  endfacet
  facet normal 0 0 1
    outer loop
      vertex 0.62 0.19 0.5
      vertex 0 0 0.5
      vertex 0.620375 0.178069 0.5
    endloop
  endfacet
  facet normal 0 0 1
    outer loop
      vertex 0.620375 0.178069 0.5
      vertex 0 0 0.5
      vertex 0.621498 0.166186 0.5
    endloop
  endfacet
  facet normal 0 0 1
    outer loop
      vertex 0.621498 0.166186 0.5
      vertex 0 0 0.5
      vertex 0.623365 0.154397 0.5
    endloop
  endfacet
  facet normal 0 0 1
    outer loop
      vertex 0.623365 0.154397 0.5
      vertex 0 0 0.5
      vertex 0.625969 0.142749 0.5
    endloop
  endfacet
  facet normal 0 0 1
    outer loop
      vertex 0.625969 0.142749 0.5
      vertex 0 0 0.5
      vertex 0.629299 0.131287 0.5
    endloop
  endfacet
  facet normal 0 0 1
    outer loop
      vertex 0.629299 0.131287 0.5
      vertex 0 0 0.5
      vertex 0.633342 0.120056 0.5
    endloop
  endfacet
  facet normal 0 0 1
    outer loop
      vertex 0.633342 0.120056 0.5
      vertex 0 0 0.5
      vertex 0.638083 0.109101 0.5
    endloop
  endfacet
  facet normal 0 0 1
    outer loop
      vertex 0.638083 0.109101 0.5
      vertex 0 0 0.5
      vertex 0.643501 0.0984659 0.5
    endloop
  endfacet
  facet normal 0 0 1
    outer loop
      vertex 0.643501 0.0984659 0.5
      vertex 0 0 0.5
      vertex 0.649577 0.088192 0.5
    endloop
  endfacet
  facet normal 0 0 1
    outer loop
      vertex 0.649577 0.088192 0.5
      vertex 0 0 0.5
      vertex 0.656286 0.0783205 0.5
    endloop
  endfacet
  facet normal 0 0 1
    outer loop
      vertex 0.656286 0.0783205 0.5
      vertex 0 0 0.5
      vertex 0.663602 0.0688887 0.5
    endloop
  endfacet
  facet normal 0 0 1
    outer loop
      vertex 0.663602 0.0688887 0.5
      vertex 0 0 0.5
      vertex 0.671495 0.0599356 0.5
    endloop
  endfacet
  facet normal 0 0 1
    outer loop
      vertex 0.671495 0.0599356 0.5
      vertex 0 0 0.5
      vertex 0.679935 0.0514956 0.5
    endloop
  endfacet
  facet normal 0 0 1
    outer loop
      vertex 0.679935 0.0514956 0.5
      vertex 0 0 0.5
      vertex 0.688889 0.043602 0.5
    endloop
  endfacet
  facet normal 0 0 1
    outer loop
      vertex 0.688889 0.043602 0.5
      vertex 0 0 0.5
      vertex 0.69832 0.0362864 0.5
    endloop
  endfacet
  facet normal 0 0 1
    outer loop
      vertex 0.69832 0.0362864 0.5
      vertex 0 0 0.5
      vertex 0.708193 0.0295773 0.5
    endloop
  endfacet
  facet normal 0 0 1
    outer loop
      vertex 0.708193 0.0295773 0.5
      vertex 0 0 0.5
      vertex 0.718467 0.0235014 0.5
    endloop
  endfacet
  facet normal 0 0 1
    outer loop
      vertex 0.798069 0.000374794 0.5
      vertex 0 0 0.5
      vertex 0.809999 0 0.5
    endloop
  endfacet
  facet normal 0 0 1
    outer loop
      vertex 0.786186 0.00149727 0.5
      vertex 0 0 0.5
      vertex 0.798069 0.000374794 0.5
    endloop
  endfacet
  facet normal 0 0 1
    outer loop
      vertex 0.774397 0.00336456 0.5
      vertex 0 0 0.5
      vertex 0.786186 0.00149727 0.5
    endloop
  endfacet
  facet normal 0 0 1
    outer loop
      vertex 0.762749 0.00596905 0.5
      vertex 0 0 0.5
      vertex 0.774397 0.00336456 0.5
    endloop
  endfacet
  facet normal 0 0 1
    outer loop
      vertex 0.751287 0.00929832 0.5
      vertex 0 0 0.5
      vertex 0.762749 0.00596905 0.5
    endloop
  endfacet
  facet normal 0 0 1
    outer loop
      vertex 0.740056 0.0133419 0.5
      vertex 0 0 0.5
      vertex 0.751287 0.00929832 0.5
    endloop
  endfacet
  facet normal 0 0 1
    outer loop
      vertex 0.729101 0.0180826 0.5
      vertex 0 0 0.5
      vertex 0.740056 0.0133419 0.5
    endloop
  endfacet
  facet normal 0 0 1
    outer loop
      vertex 0.718467 0.0235014 0.5
      vertex 0 0 0.5
      vertex 0.729101 0.0180826 0.5
    endloop
  endfacet
  facet normal -0 0 1
    outer loop
      vertex -0.0119295 0.379624 0.5
      vertex 0 0 0.5
      vertex 0 0.379999 0.5
    endloop
  endfacet
  facet normal 0 0 1
    outer loop
      vertex -0.0119295 0.379624 0.5
      vertex -0.0119295 0.000374794 0.5
      vertex 0 0 0.5
    endloop
  endfacet
  facet normal -0 0 1
    outer loop
      vertex -0.0238132 0.378501 0.5
      vertex -0.0119295 0.000374794 0.5
      vertex -0.0119295 0.379624 0.5
    endloop
  endfacet
  facet normal 0 0 1
    outer loop
      vertex -0.0238132 0.378501 0.5
      vertex -0.0238132 0.00149727 0.5
      vertex -0.0119295 0.000374794 0.5
    endloop
  endfacet
  facet normal -0 0 1
    outer loop
      vertex -0.0356016 0.376634 0.5
      vertex -0.0238132 0.00149727 0.5
      vertex -0.0238132 0.378501 0.5
    endloop
  endfacet
  facet normal 0 0 1
    outer loop
      vertex -0.0356016 0.376634 0.5
      vertex -0.0356016 0.00336456 0.5
      vertex -0.0238132 0.00149727 0.5
    endloop
  endfacet
  facet normal -0 0 1
    outer loop
      vertex -0.0472507 0.37403 0.5
      vertex -0.0356016 0.00336456 0.5
      vertex -0.0356016 0.376634 0.5
    endloop
  endfacet
  facet normal 0 0 1
    outer loop
      vertex -0.0472507 0.37403 0.5
      vertex -0.0472507 0.00596905 0.5
      vertex -0.0356016 0.00336456 0.5
    endloop
  endfacet
  facet normal -0 0 1
    outer loop
      vertex -0.058713 0.3707 0.5
      vertex -0.0472507 0.00596905 0.5
      vertex -0.0472507 0.37403 0.5
    endloop
  endfacet
  facet normal 0 0 1
    outer loop
      vertex -0.058713 0.3707 0.5
      vertex -0.058713 0.00929832 0.5
      vertex -0.0472507 0.00596905 0.5
    endloop
  endfacet
  facet normal -0 0 1
    outer loop
      vertex -0.0699434 0.366657 0.5
      vertex -0.058713 0.00929832 0.5
      vertex -0.058713 0.3707 0.5
    endloop
  endfacet
  facet normal 0 0 1
    outer loop
      vertex -0.0699434 0.366657 0.5
      vertex -0.0699434 0.0133419 0.5
      vertex -0.058713 0.00929832 0.5
    endloop
  endfacet
  facet normal -0 0 1
    outer loop
      vertex -0.0808973 0.361917 0.5
      vertex -0.0699434 0.0133419 0.5
      vertex -0.0699434 0.366657 0.5
    endloop
  endfacet
  facet normal 0 0 1
    outer loop
      vertex -0.0808973 0.361917 0.5
      vertex -0.0808973 0.0180826 0.5
      vertex -0.0699434 0.0133419 0.5
    endloop
  endfacet
  facet normal -0 0 1
    outer loop
      vertex -0.0915327 0.356498 0.5
      vertex -0.0808973 0.0180826 0.5
      vertex -0.0808973 0.361917 0.5
    endloop
  endfacet
  facet normal 0 0 1
    outer loop
      vertex -0.0915327 0.356498 0.5
      vertex -0.0915327 0.0235014 0.5
      vertex -0.0808973 0.0180826 0.5
    endloop
  endfacet
  facet normal -0 0 1
    outer loop
      vertex -0.101807 0.350422 0.5
      vertex -0.0915327 0.0235014 0.5
      vertex -0.0915327 0.356498 0.5
    endloop
  endfacet
  facet normal 0 0 1
    outer loop
      vertex -0.101807 0.350422 0.5
      vertex -0.101807 0.0295773 0.5
      vertex -0.0915327 0.0235014 0.5
    endloop
  endfacet
  facet normal -0 0 1
    outer loop
      vertex -0.111679 0.343713 0.5
      vertex -0.101807 0.0295773 0.5
      vertex -0.101807 0.350422 0.5
    endloop
  endfacet
  facet normal 0 0 1
    outer loop
      vertex -0.111679 0.343713 0.5
      vertex -0.111679 0.0362864 0.5
      vertex -0.101807 0.0295773 0.5
    endloop
  endfacet
  facet normal -0 0 1
    outer loop
      vertex -0.12111 0.336397 0.5
      vertex -0.111679 0.0362864 0.5
      vertex -0.111679 0.343713 0.5
    endloop
  endfacet
  facet normal 0 0 1
    outer loop
      vertex -0.12111 0.336397 0.5
      vertex -0.12111 0.043602 0.5
      vertex -0.111679 0.0362864 0.5
    endloop
  endfacet
  facet normal -0 0 1
    outer loop
      vertex -0.130063 0.328504 0.5
      vertex -0.12111 0.043602 0.5
      vertex -0.12111 0.336397 0.5
    endloop
  endfacet
  facet normal 0 0 1
    outer loop
      vertex -0.130063 0.328504 0.5
      vertex -0.130063 0.0514956 0.5
      vertex -0.12111 0.043602 0.5
    endloop
  endfacet
  facet normal -0 0 1
    outer loop
      vertex -0.138504 0.320064 0.5
      vertex -0.130063 0.0514956 0.5
      vertex -0.130063 0.328504 0.5
    endloop
  endfacet
  facet normal 0 0 1
    outer loop
      vertex -0.138504 0.320064 0.5
      vertex -0.138504 0.0599356 0.5
      vertex -0.130063 0.0514956 0.5
    endloop
  endfacet
  facet normal -0 0 1
    outer loop
      vertex -0.146397 0.31111 0.5
      vertex -0.138504 0.0599356 0.5
      vertex -0.138504 0.320064 0.5
    endloop
  endfacet
  facet normal 0 0 1
    outer loop
      vertex -0.146397 0.31111 0.5
      vertex -0.146397 0.0688887 0.5
      vertex -0.138504 0.0599356 0.5
    endloop
  endfacet
  facet normal -0 0 1
    outer loop
      vertex -0.153713 0.301679 0.5
      vertex -0.146397 0.0688887 0.5
      vertex -0.146397 0.31111 0.5
    endloop
  endfacet
  facet normal 0 0 1
    outer loop
      vertex -0.153713 0.301679 0.5
      vertex -0.153713 0.0783205 0.5
      vertex -0.146397 0.0688887 0.5
    endloop
  endfacet
  facet normal -0 0 1
    outer loop
      vertex -0.160421 0.291806 0.5
      vertex -0.153713 0.0783205 0.5
      vertex -0.153713 0.301679 0.5
    endloop
  endfacet
  facet normal 0 0 1
    outer loop
      vertex -0.160421 0.291806 0.5
      vertex -0.160421 0.088192 0.5
      vertex -0.153713 0.0783205 0.5
    endloop
  endfacet
  facet normal -0 0 1
    outer loop
      vertex -0.166498 0.281532 0.5
      vertex -0.160421 0.088192 0.5
      vertex -0.160421 0.291806 0.5
    endloop
  endfacet
  facet normal 0 0 1
    outer loop
      vertex -0.166498 0.281532 0.5
      vertex -0.166498 0.0984659 0.5
      vertex -0.160421 0.088192 0.5
    endloop
  endfacet
  facet normal -0 0 1
    outer loop
      vertex -0.171917 0.270898 0.5
      vertex -0.166498 0.0984659 0.5
      vertex -0.166498 0.281532 0.5
    endloop
  endfacet
  facet normal 0 0 1
    outer loop
      vertex -0.171917 0.270898 0.5
      vertex -0.171917 0.109101 0.5
      vertex -0.166498 0.0984659 0.5
    endloop
  endfacet
  facet normal -0 0 1
    outer loop
      vertex -0.176657 0.259943 0.5
      vertex -0.171917 0.109101 0.5
      vertex -0.171917 0.270898 0.5
    endloop
  endfacet
  facet normal 0 0 1
    outer loop
      vertex -0.176657 0.259943 0.5
      vertex -0.176657 0.120056 0.5
      vertex -0.171917 0.109101 0.5
    endloop
  endfacet
  facet normal -0 0 1
    outer loop
      vertex -0.1807 0.248713 0.5
      vertex -0.176657 0.120056 0.5
      vertex -0.176657 0.259943 0.5
    endloop
  endfacet
  facet normal 0 0 1
    outer loop
      vertex -0.1807 0.248713 0.5
      vertex -0.1807 0.131287 0.5
      vertex -0.176657 0.120056 0.5
    endloop
  endfacet
  facet normal -0 0 1
    outer loop
      vertex -0.184031 0.23725 0.5
      vertex -0.1807 0.131287 0.5
      vertex -0.1807 0.248713 0.5
    endloop
  endfacet
  facet normal 0 0 1
    outer loop
      vertex -0.184031 0.23725 0.5
      vertex -0.184031 0.142749 0.5
      vertex -0.1807 0.131287 0.5
    endloop
  endfacet
  facet normal -0 0 1
    outer loop
      vertex -0.186634 0.225602 0.5
      vertex -0.184031 0.142749 0.5
      vertex -0.184031 0.23725 0.5
    endloop
  endfacet
  facet normal 0 0 1
    outer loop
      vertex -0.186634 0.225602 0.5
      vertex -0.186634 0.154397 0.5
      vertex -0.184031 0.142749 0.5
    endloop
  endfacet
  facet normal -0 0 1
    outer loop
      vertex -0.188501 0.213813 0.5
      vertex -0.186634 0.154397 0.5
      vertex -0.186634 0.225602 0.5
    endloop
  endfacet
  facet normal 0 0 1
    outer loop
      vertex -0.188501 0.213813 0.5
      vertex -0.188501 0.166186 0.5
      vertex -0.186634 0.154397 0.5
    endloop
  endfacet
  facet normal -0 0 1
    outer loop
      vertex -0.189625 0.20193 0.5
      vertex -0.188501 0.166186 0.5
      vertex -0.188501 0.213813 0.5
    endloop
  endfacet
  facet normal 0 0 1
    outer loop
      vertex -0.189625 0.20193 0.5
      vertex -0.189625 0.178069 0.5
      vertex -0.188501 0.166186 0.5
    endloop
  endfacet
  facet normal 0 -0 1
    outer loop
      vertex -0.189625 0.178069 0.5
      vertex -0.189625 0.20193 0.5
      vertex -0.19 0.19 0.5
    endloop
  endfacet
  facet normal 0 1 -0
    outer loop
      vertex 0.809999 0.379999 0
      vertex 0 0.379999 0.5
      vertex 0.809999 0.379999 0.5
    endloop
  endfacet
  facet normal 0 1 0
    outer loop
      vertex 0 0.379999 0.5
      vertex 0.809999 0.379999 0
      vertex 0 0.379999 0
    endloop
  endfacet
  facet normal -0 0 -1
    outer loop
      vertex 0.620375 0.178069 0
      vertex 0 0 0
      vertex 0.62 0.19 0
    endloop
  endfacet
  facet normal -0 0 -1
    outer loop
      vertex 0.621498 0.166186 0
      vertex 0 0 0
      vertex 0.620375 0.178069 0
    endloop
  endfacet
  facet normal -0 0 -1
    outer loop
      vertex 0.623365 0.154397 0
      vertex 0 0 0
      vertex 0.621498 0.166186 0
    endloop
  endfacet
  facet normal -0 0 -1
    outer loop
      vertex 0.625969 0.142749 0
      vertex 0 0 0
      vertex 0.623365 0.154397 0
    endloop
  endfacet
  facet normal -0 0 -1
    outer loop
      vertex 0.629299 0.131287 0
      vertex 0 0 0
      vertex 0.625969 0.142749 0
    endloop
  endfacet
  facet normal -0 0 -1
    outer loop
      vertex 0.633342 0.120056 0
      vertex 0 0 0
      vertex 0.629299 0.131287 0
    endloop
  endfacet
  facet normal -0 0 -1
    outer loop
      vertex 0.638083 0.109101 0
      vertex 0 0 0
      vertex 0.633342 0.120056 0
    endloop
  endfacet
  facet normal -0 0 -1
    outer loop
      vertex 0.643501 0.0984659 0
      vertex 0 0 0
      vertex 0.638083 0.109101 0
    endloop
  endfacet
  facet normal -0 0 -1
    outer loop
      vertex 0.649577 0.088192 0
      vertex 0 0 0
      vertex 0.643501 0.0984659 0
    endloop
  endfacet
  facet normal -0 0 -1
    outer loop
      vertex 0.656286 0.0783205 0
      vertex 0 0 0
      vertex 0.649577 0.088192 0
    endloop
  endfacet
  facet normal -0 0 -1
    outer loop
      vertex 0.663602 0.0688887 0
      vertex 0 0 0
      vertex 0.656286 0.0783205 0
    endloop
  endfacet
  facet normal -0 0 -1
    outer loop
      vertex 0.671495 0.0599356 0
      vertex 0 0 0
      vertex 0.663602 0.0688887 0
    endloop
  endfacet
  facet normal -0 0 -1
    outer loop
      vertex 0.679935 0.0514956 0
      vertex 0 0 0
      vertex 0.671495 0.0599356 0
    endloop
  endfacet
  facet normal -0 0 -1
    outer loop
      vertex 0.688889 0.043602 0
      vertex 0 0 0
      vertex 0.679935 0.0514956 0
    endloop
  endfacet
  facet normal -0 0 -1
    outer loop
      vertex 0.69832 0.0362864 0
      vertex 0 0 0
      vertex 0.688889 0.043602 0
    endloop
  endfacet
  facet normal -0 0 -1
    outer loop
      vertex 0.708193 0.0295773 0
      vertex 0 0 0
      vertex 0.69832 0.0362864 0
    endloop
  endfacet
  facet normal -0 0 -1
    outer loop
      vertex 0.718467 0.0235014 0
      vertex 0 0 0
      vertex 0.708193 0.0295773 0
    endloop
  endfacet
  facet normal -0 0 -1
    outer loop
      vertex 0.729101 0.0180826 0
      vertex 0 0 0
      vertex 0.718467 0.0235014 0
    endloop
  endfacet
  facet normal -0 0 -1
    outer loop
      vertex 0.740056 0.0133419 0
      vertex 0 0 0
      vertex 0.729101 0.0180826 0
    endloop
  endfacet
  facet normal -0 0 -1
    outer loop
      vertex 0.751287 0.00929832 0
      vertex 0 0 0
      vertex 0.740056 0.0133419 0
    endloop
  endfacet
  facet normal -0 0 -1
    outer loop
      vertex 0.762749 0.00596905 0
      vertex 0 0 0
      vertex 0.751287 0.00929832 0
    endloop
  endfacet
  facet normal -0 0 -1
    outer loop
      vertex 0.774397 0.00336456 0
      vertex 0 0 0
      vertex 0.762749 0.00596905 0
    endloop
  endfacet
  facet normal -0 0 -1
    outer loop
      vertex 0.786186 0.00149727 0
      vertex 0 0 0
      vertex 0.774397 0.00336456 0
    endloop
  endfacet
  facet normal -0 0 -1
    outer loop
      vertex 0.798069 0.000374794 0
      vertex 0 0 0
      vertex 0.786186 0.00149727 0
    endloop
  endfacet
  facet normal 0 0 -1
    outer loop
      vertex 0 0 0
      vertex 0.798069 0.000374794 0
      vertex 0.809999 0 0
    endloop
  endfacet
  facet normal 0 0 -1
    outer loop
      vertex 0 0.379999 0
      vertex 0.62 0.19 0
      vertex 0 0 0
    endloop
  endfacet
  facet normal 0 0 -1
    outer loop
      vertex 0.62 0.19 0
      vertex 0 0.379999 0
      vertex 0.620375 0.20193 0
    endloop
  endfacet
  facet normal 0 0 -1
    outer loop
      vertex 0.620375 0.20193 0
      vertex 0 0.379999 0
      vertex 0.621498 0.213813 0
    endloop
  endfacet
  facet normal 0 0 -1
    outer loop
      vertex 0.621498 0.213813 0
      vertex 0 0.379999 0
      vertex 0.623365 0.225602 0
    endloop
  endfacet
  facet normal 0 0 -1
    outer loop
      vertex 0.623365 0.225602 0
      vertex 0 0.379999 0
      vertex 0.625969 0.23725 0
    endloop
  endfacet
  facet normal 0 0 -1
    outer loop
      vertex 0.625969 0.23725 0
      vertex 0 0.379999 0
      vertex 0.629299 0.248713 0
    endloop
  endfacet
  facet normal 0 0 -1
    outer loop
      vertex 0.629299 0.248713 0
      vertex 0 0.379999 0
      vertex 0.633342 0.259943 0
    endloop
  endfacet
  facet normal 0 0 -1
    outer loop
      vertex 0.633342 0.259943 0
      vertex 0 0.379999 0
      vertex 0.638083 0.270898 0
    endloop
  endfacet
  facet normal 0 0 -1
    outer loop
      vertex 0.638083 0.270898 0
      vertex 0 0.379999 0
      vertex 0.643501 0.281532 0
    endloop
  endfacet
  facet normal 0 0 -1
    outer loop
      vertex 0.643501 0.281532 0
      vertex 0 0.379999 0
      vertex 0.649577 0.291806 0
    endloop
  endfacet
  facet normal 0 0 -1
    outer loop
      vertex 0.649577 0.291806 0
      vertex 0 0.379999 0
      vertex 0.656286 0.301679 0
    endloop
  endfacet
  facet normal 0 0 -1
    outer loop
      vertex 0.656286 0.301679 0
      vertex 0 0.379999 0
      vertex 0.663602 0.31111 0
    endloop
  endfacet
  facet normal 0 0 -1
    outer loop
      vertex 0.663602 0.31111 0
      vertex 0 0.379999 0
      vertex 0.671495 0.320064 0
    endloop
  endfacet
  facet normal 0 0 -1
    outer loop
      vertex 0.671495 0.320064 0
      vertex 0 0.379999 0
      vertex 0.679935 0.328504 0
    endloop
  endfacet
  facet normal 0 0 -1
    outer loop
      vertex 0.679935 0.328504 0
      vertex 0 0.379999 0
      vertex 0.688889 0.336397 0
    endloop
  endfacet
  facet normal 0 0 -1
    outer loop
      vertex 0.688889 0.336397 0
      vertex 0 0.379999 0
      vertex 0.69832 0.343713 0
    endloop
  endfacet
  facet normal 0 0 -1
    outer loop
      vertex 0.69832 0.343713 0
      vertex 0 0.379999 0
      vertex 0.708193 0.350422 0
    endloop
  endfacet
  facet normal 0 0 -1
    outer loop
      vertex 0.708193 0.350422 0
      vertex 0 0.379999 0
      vertex 0.718467 0.356498 0
    endloop
  endfacet
  facet normal 0 0 -1
    outer loop
      vertex 0.798069 0.379624 0
      vertex 0 0.379999 0
      vertex 0.809999 0.379999 0
    endloop
  endfacet
  facet normal 0 0 -1
    outer loop
      vertex 0.786186 0.378501 0
      vertex 0 0.379999 0
      vertex 0.798069 0.379624 0
    endloop
  endfacet
  facet normal 0 0 -1
    outer loop
      vertex 0.774397 0.376634 0
      vertex 0 0.379999 0
      vertex 0.786186 0.378501 0
    endloop
  endfacet
  facet normal 0 0 -1
    outer loop
      vertex 0.762749 0.37403 0
      vertex 0 0.379999 0
      vertex 0.774397 0.376634 0
    endloop
  endfacet
  facet normal 0 0 -1
    outer loop
      vertex 0.751287 0.3707 0
      vertex 0 0.379999 0
      vertex 0.762749 0.37403 0
    endloop
  endfacet
  facet normal 0 0 -1
    outer loop
      vertex 0.740056 0.366657 0
      vertex 0 0.379999 0
      vertex 0.751287 0.3707 0
    endloop
  endfacet
  facet normal 0 0 -1
    outer loop
      vertex 0.729101 0.361917 0
      vertex 0 0.379999 0
      vertex 0.740056 0.366657 0
    endloop
  endfacet
  facet normal 0 0 -1
    outer loop
      vertex 0.718467 0.356498 0
      vertex 0 0.379999 0
      vertex 0.729101 0.361917 0
    endloop
  endfacet
  facet normal 0 0 -1
    outer loop
      vertex -0.0119295 0.000374794 0
      vertex 0 0.379999 0
      vertex 0 0 0
    endloop
  endfacet
  facet normal 0 0 -1
    outer loop
      vertex -0.0119295 0.000374794 0
      vertex -0.0119295 0.379624 0
      vertex 0 0.379999 0
    endloop
  endfacet
  facet normal 0 0 -1
    outer loop
      vertex -0.0238132 0.00149727 0
      vertex -0.0119295 0.379624 0
      vertex -0.0119295 0.000374794 0
    endloop
  endfacet
  facet normal 0 0 -1
    outer loop
      vertex -0.0238132 0.00149727 0
      vertex -0.0238132 0.378501 0
      vertex -0.0119295 0.379624 0
    endloop
  endfacet
  facet normal 0 0 -1
    outer loop
      vertex -0.0356016 0.00336456 0
      vertex -0.0238132 0.378501 0
      vertex -0.0238132 0.00149727 0
    endloop
  endfacet
  facet normal 0 0 -1
    outer loop
      vertex -0.0356016 0.00336456 0
      vertex -0.0356016 0.376634 0
      vertex -0.0238132 0.378501 0
    endloop
  endfacet
  facet normal 0 0 -1
    outer loop
      vertex -0.0472507 0.00596905 0
      vertex -0.0356016 0.376634 0
      vertex -0.0356016 0.00336456 0
    endloop
  endfacet
  facet normal 0 0 -1
    outer loop
      vertex -0.0472507 0.00596905 0
      vertex -0.0472507 0.37403 0
      vertex -0.0356016 0.376634 0
    endloop
  endfacet
  facet normal 0 0 -1
    outer loop
      vertex -0.058713 0.00929832 0
      vertex -0.0472507 0.37403 0
      vertex -0.0472507 0.00596905 0
    endloop
  endfacet
  facet normal 0 0 -1
    outer loop
      vertex -0.058713 0.00929832 0
      vertex -0.058713 0.3707 0
      vertex -0.0472507 0.37403 0
    endloop
  endfacet
  facet normal 0 0 -1
    outer loop
      vertex -0.0699434 0.0133419 0
      vertex -0.058713 0.3707 0
      vertex -0.058713 0.00929832 0
    endloop
  endfacet
  facet normal 0 0 -1
    outer loop
      vertex -0.0699434 0.0133419 0
      vertex -0.0699434 0.366657 0
      vertex -0.058713 0.3707 0
    endloop
  endfacet
  facet normal 0 0 -1
    outer loop
      vertex -0.0808973 0.0180826 0
      vertex -0.0699434 0.366657 0
      vertex -0.0699434 0.0133419 0
    endloop
  endfacet
  facet normal 0 0 -1
    outer loop
      vertex -0.0808973 0.0180826 0
      vertex -0.0808973 0.361917 0
      vertex -0.0699434 0.366657 0
    endloop
  endfacet
  facet normal 0 0 -1
    outer loop
      vertex -0.0915327 0.0235014 0
      vertex -0.0808973 0.361917 0
      vertex -0.0808973 0.0180826 0
    endloop
  endfacet
  facet normal 0 0 -1
    outer loop
      vertex -0.0915327 0.0235014 0
      vertex -0.0915327 0.356498 0
      vertex -0.0808973 0.361917 0
    endloop
  endfacet
  facet normal 0 0 -1
    outer loop
      vertex -0.101807 0.0295773 0
      vertex -0.0915327 0.356498 0
      vertex -0.0915327 0.0235014 0
    endloop
  endfacet
  facet normal 0 0 -1
    outer loop
      vertex -0.101807 0.0295773 0
      vertex -0.101807 0.350422 0
      vertex -0.0915327 0.356498 0
    endloop
  endfacet
  facet normal 0 0 -1
    outer loop
      vertex -0.111679 0.0362864 0
      vertex -0.101807 0.350422 0
      vertex -0.101807 0.0295773 0
    endloop
  endfacet
  facet normal 0 0 -1
    outer loop
      vertex -0.111679 0.0362864 0
      vertex -0.111679 0.343713 0
      vertex -0.101807 0.350422 0
    endloop
  endfacet
  facet normal 0 0 -1
    outer loop
      vertex -0.12111 0.043602 0
      vertex -0.111679 0.343713 0
      vertex -0.111679 0.0362864 0
    endloop
  endfacet
  facet normal 0 0 -1
    outer loop
      vertex -0.12111 0.043602 0
      vertex -0.12111 0.336397 0
      vertex -0.111679 0.343713 0
    endloop
  endfacet
  facet normal 0 0 -1
    outer loop
      vertex -0.130063 0.0514956 0
      vertex -0.12111 0.336397 0
      vertex -0.12111 0.043602 0
    endloop
  endfacet
  facet normal 0 0 -1
    outer loop
      vertex -0.130063 0.0514956 0
      vertex -0.130063 0.328504 0
      vertex -0.12111 0.336397 0
    endloop
  endfacet
  facet normal 0 0 -1
    outer loop
      vertex -0.138504 0.0599356 0
      vertex -0.130063 0.328504 0
      vertex -0.130063 0.0514956 0
    endloop
  endfacet
  facet normal 0 0 -1
    outer loop
      vertex -0.138504 0.0599356 0
      vertex -0.138504 0.320064 0
      vertex -0.130063 0.328504 0
    endloop
  endfacet
  facet normal 0 0 -1
    outer loop
      vertex -0.146397 0.0688887 0
      vertex -0.138504 0.320064 0
      vertex -0.138504 0.0599356 0
    endloop
  endfacet
  facet normal 0 0 -1
    outer loop
      vertex -0.146397 0.0688887 0
      vertex -0.146397 0.31111 0
      vertex -0.138504 0.320064 0
    endloop
  endfacet
  facet normal 0 0 -1
    outer loop
      vertex -0.153713 0.0783205 0
      vertex -0.146397 0.31111 0
      vertex -0.146397 0.0688887 0
    endloop
  endfacet
  facet normal 0 0 -1
    outer loop
      vertex -0.153713 0.0783205 0
      vertex -0.153713 0.301679 0
      vertex -0.146397 0.31111 0
    endloop
  endfacet
  facet normal 0 0 -1
    outer loop
      vertex -0.160421 0.088192 0
      vertex -0.153713 0.301679 0
      vertex -0.153713 0.0783205 0
    endloop
  endfacet
  facet normal 0 0 -1
    outer loop
      vertex -0.160421 0.088192 0
      vertex -0.160421 0.291806 0
      vertex -0.153713 0.301679 0
    endloop
  endfacet
  facet normal 0 0 -1
    outer loop
      vertex -0.166498 0.0984659 0
      vertex -0.160421 0.291806 0
      vertex -0.160421 0.088192 0
    endloop
  endfacet
  facet normal 0 0 -1
    outer loop
      vertex -0.166498 0.0984659 0
      vertex -0.166498 0.281532 0
      vertex -0.160421 0.291806 0
    endloop
  endfacet
  facet normal 0 0 -1
    outer loop
      vertex -0.171917 0.109101 0
      vertex -0.166498 0.281532 0
      vertex -0.166498 0.0984659 0
    endloop
  endfacet
  facet normal 0 0 -1
    outer loop
      vertex -0.171917 0.109101 0
      vertex -0.171917 0.270898 0
      vertex -0.166498 0.281532 0
    endloop
  endfacet
  facet normal 0 0 -1
    outer loop
      vertex -0.176657 0.120056 0
      vertex -0.171917 0.270898 0
      vertex -0.171917 0.109101 0
    endloop
  endfacet
  facet normal 0 0 -1
    outer loop
      vertex -0.176657 0.120056 0
      vertex -0.176657 0.259943 0
      vertex -0.171917 0.270898 0
    endloop
  endfacet
  facet normal 0 0 -1
    outer loop
      vertex -0.1807 0.131287 0
      vertex -0.176657 0.259943 0
      vertex -0.176657 0.120056 0
    endloop
  endfacet
  facet normal 0 0 -1
    outer loop
      vertex -0.1807 0.131287 0
      vertex -0.1807 0.248713 0
      vertex -0.176657 0.259943 0
    endloop
  endfacet
  facet normal 0 0 -1
    outer loop
      vertex -0.184031 0.142749 0
      vertex -0.1807 0.248713 0
      vertex -0.1807 0.131287 0
    endloop
  endfacet
  facet normal 0 0 -1
    outer loop
      vertex -0.184031 0.142749 0
      vertex -0.184031 0.23725 0
      vertex -0.1807 0.248713 0
    endloop
  endfacet
  facet normal 0 0 -1
    outer loop
      vertex -0.186634 0.154397 0
      vertex -0.184031 0.23725 0
      vertex -0.184031 0.142749 0
    endloop
  endfacet
  facet normal 0 0 -1
    outer loop
      vertex -0.186634 0.154397 0
      vertex -0.186634 0.225602 0
      vertex -0.184031 0.23725 0
    endloop
  endfacet
  facet normal 0 0 -1
    outer loop
      vertex -0.188501 0.166186 0
      vertex -0.186634 0.225602 0
      vertex -0.186634 0.154397 0
    endloop
  endfacet
  facet normal 0 0 -1
    outer loop
      vertex -0.188501 0.166186 0
      vertex -0.188501 0.213813 0
      vertex -0.186634 0.225602 0
    endloop
  endfacet
  facet normal 0 0 -1
    outer loop
      vertex -0.189625 0.178069 0
      vertex -0.188501 0.213813 0
      vertex -0.188501 0.166186 0
    endloop
  endfacet
  facet normal 0 0 -1
    outer loop
      vertex -0.189625 0.178069 0
      vertex -0.189625 0.20193 0
      vertex -0.188501 0.213813 0
    endloop
  endfacet
  facet normal 0 -0 -1
    outer loop
      vertex -0.189625 0.20193 0
      vertex -0.189625 0.178069 0
      vertex -0.19 0.19 0
    endloop
  endfacet
  facet normal 0 -1 0
    outer loop
      vertex 0 0 0
      vertex 0.809999 0 0.5
      vertex 0 0 0.5
    endloop
  endfacet
  facet normal 0 -1 -0
    outer loop
      vertex 0.809999 0 0.5
      vertex 0 0 0
      vertex 0.809999 0 0
    endloop
  endfacet
  facet normal -0.397186 0.917738 0
    outer loop
      vertex -0.0699434 0.366657 0
      vertex -0.0808973 0.361917 0.5
      vertex -0.0699434 0.366657 0.5
    endloop
  endfacet
  facet normal -0.397186 0.917738 0
    outer loop
      vertex -0.0808973 0.361917 0.5
      vertex -0.0699434 0.366657 0
      vertex -0.0808973 0.361917 0
    endloop
  endfacet
  facet normal -0.91778 0.397089 0
    outer loop
      vertex -0.176657 0.259943 0
      vertex -0.171917 0.270898 0.5
      vertex -0.171917 0.270898 0
    endloop
  endfacet
  facet normal -0.91778 0.397089 0
    outer loop
      vertex -0.171917 0.270898 0.5
      vertex -0.176657 0.259943 0
      vertex -0.176657 0.259943 0.5
    endloop
  endfacet
  facet normal -0.750136 0.661283 0
    outer loop
      vertex -0.146397 0.31111 0
      vertex -0.138504 0.320064 0.5
      vertex -0.138504 0.320064 0
    endloop
  endfacet
  facet normal -0.750136 0.661283 0
    outer loop
      vertex -0.138504 0.320064 0.5
      vertex -0.146397 0.31111 0
      vertex -0.146397 0.31111 0.5
    endloop
  endfacet
  facet normal -0.218115 0.975923 0
    outer loop
      vertex -0.0356016 0.376634 0
      vertex -0.0472507 0.37403 0.5
      vertex -0.0356016 0.376634 0.5
    endloop
  endfacet
  facet normal -0.218115 0.975923 0
    outer loop
      vertex -0.0472507 0.37403 0.5
      vertex -0.0356016 0.376634 0
      vertex -0.0472507 0.37403 0
    endloop
  endfacet
  facet normal -0.999507 0.0313994 0
    outer loop
      vertex -0.19 0.19 0
      vertex -0.189625 0.20193 0.5
      vertex -0.189625 0.20193 0
    endloop
  endfacet
  facet normal -0.999507 0.0313994 0
    outer loop
      vertex -0.189625 0.20193 0.5
      vertex -0.19 0.19 0
      vertex -0.19 0.19 0.5
    endloop
  endfacet
  facet normal -0.975919 0.218132 0
    outer loop
      vertex -0.186634 0.225602 0
      vertex -0.184031 0.23725 0.5
      vertex -0.184031 0.23725 0
    endloop
  endfacet
  facet normal -0.975919 0.218132 0
    outer loop
      vertex -0.184031 0.23725 0.5
      vertex -0.186634 0.225602 0
      vertex -0.186634 0.225602 0.5
    endloop
  endfacet
  facet normal -0.827126 0.562017 0
    outer loop
      vertex -0.160421 0.291806 0
      vertex -0.153713 0.301679 0.5
      vertex -0.153713 0.301679 0
    endloop
  endfacet
  facet normal -0.827126 0.562017 0
    outer loop
      vertex -0.153713 0.301679 0.5
      vertex -0.160421 0.291806 0
      vertex -0.160421 0.291806 0.5
    endloop
  endfacet
  facet normal -0.0941153 0.995561 0
    outer loop
      vertex -0.0119295 0.379624 0
      vertex -0.0238132 0.378501 0.5
      vertex -0.0119295 0.379624 0.5
    endloop
  endfacet
  facet normal -0.0941153 0.995561 0
    outer loop
      vertex -0.0238132 0.378501 0.5
      vertex -0.0119295 0.379624 0
      vertex -0.0238132 0.378501 0
    endloop
  endfacet
  facet normal -0.562072 0.827088 0
    outer loop
      vertex -0.101807 0.350422 0
      vertex -0.111679 0.343713 0.5
      vertex -0.101807 0.350422 0.5
    endloop
  endfacet
  facet normal -0.562072 0.827088 0
    outer loop
      vertex -0.111679 0.343713 0.5
      vertex -0.101807 0.350422 0
      vertex -0.111679 0.343713 0
    endloop
  endfacet
  facet normal -0.612922 0.790143 0
    outer loop
      vertex -0.111679 0.343713 0
      vertex -0.12111 0.336397 0.5
      vertex -0.111679 0.343713 0.5
    endloop
  endfacet
  facet normal -0.612922 0.790143 0
    outer loop
      vertex -0.12111 0.336397 0.5
      vertex -0.111679 0.343713 0
      vertex -0.12111 0.336397 0
    endloop
  endfacet
  facet normal -0.453976 0.891014 0
    outer loop
      vertex -0.0808973 0.361917 0
      vertex -0.0915327 0.356498 0.5
      vertex -0.0808973 0.361917 0.5
    endloop
  endfacet
  facet normal -0.453976 0.891014 0
    outer loop
      vertex -0.0915327 0.356498 0.5
      vertex -0.0808973 0.361917 0
      vertex -0.0915327 0.356498 0
    endloop
  endfacet
  facet normal -0.0314019 0.999507 0
    outer loop
      vertex 0 0.379999 0
      vertex -0.0119295 0.379624 0.5
      vertex 0 0.379999 0.5
    endloop
  endfacet
  facet normal -0.0314019 0.999507 0
    outer loop
      vertex -0.0119295 0.379624 0.5
      vertex 0 0.379999 0
      vertex -0.0119295 0.379624 0
    endloop
  endfacet
  facet normal -0.96029 0.279003 0
    outer loop
      vertex -0.184031 0.23725 0
      vertex -0.1807 0.248713 0.5
      vertex -0.1807 0.248713 0
    endloop
  endfacet
  facet normal -0.96029 0.279003 0
    outer loop
      vertex -0.1807 0.248713 0.5
      vertex -0.184031 0.23725 0
      vertex -0.184031 0.23725 0.5
    endloop
  endfacet
  facet normal -0.940871 0.338765 0
    outer loop
      vertex -0.1807 0.248713 0
      vertex -0.176657 0.259943 0.5
      vertex -0.176657 0.259943 0
    endloop
  endfacet
  facet normal -0.940871 0.338765 0
    outer loop
      vertex -0.176657 0.259943 0.5
      vertex -0.1807 0.248713 0
      vertex -0.1807 0.248713 0.5
    endloop
  endfacet
  facet normal -0.987688 0.156438 0
    outer loop
      vertex -0.188501 0.213813 0
      vertex -0.186634 0.225602 0.5
      vertex -0.186634 0.225602 0
    endloop
  endfacet
  facet normal -0.987688 0.156438 0
    outer loop
      vertex -0.186634 0.225602 0.5
      vertex -0.188501 0.213813 0
      vertex -0.188501 0.213813 0.5
    endloop
  endfacet
  facet normal -0.995561 0.0941228 0
    outer loop
      vertex -0.189625 0.20193 0
      vertex -0.188501 0.213813 0.5
      vertex -0.188501 0.213813 0
    endloop
  endfacet
  facet normal -0.995561 0.0941228 0
    outer loop
      vertex -0.188501 0.213813 0.5
      vertex -0.189625 0.20193 0
      vertex -0.189625 0.20193 0.5
    endloop
  endfacet
  facet normal -0.860712 0.509093 0
    outer loop
      vertex -0.166498 0.281532 0
      vertex -0.160421 0.291806 0.5
      vertex -0.160421 0.291806 0
    endloop
  endfacet
  facet normal -0.860712 0.509093 0
    outer loop
      vertex -0.160421 0.291806 0.5
      vertex -0.166498 0.281532 0
      vertex -0.166498 0.281532 0.5
    endloop
  endfacet
  facet normal -0.890997 0.454008 0
    outer loop
      vertex -0.171917 0.270898 0
      vertex -0.166498 0.281532 0.5
      vertex -0.166498 0.281532 0
    endloop
  endfacet
  facet normal -0.890997 0.454008 0
    outer loop
      vertex -0.166498 0.281532 0.5
      vertex -0.171917 0.270898 0
      vertex -0.171917 0.270898 0.5
    endloop
  endfacet
  facet normal -0.790135 0.612933 0
    outer loop
      vertex -0.153713 0.301679 0
      vertex -0.146397 0.31111 0.5
      vertex -0.146397 0.31111 0
    endloop
  endfacet
  facet normal -0.790135 0.612933 0
    outer loop
      vertex -0.146397 0.31111 0.5
      vertex -0.153713 0.301679 0
      vertex -0.153713 0.301679 0.5
    endloop
  endfacet
  facet normal -0.279003 0.96029 0
    outer loop
      vertex -0.0472507 0.37403 0
      vertex -0.058713 0.3707 0.5
      vertex -0.0472507 0.37403 0.5
    endloop
  endfacet
  facet normal -0.279003 0.96029 0
    outer loop
      vertex -0.058713 0.3707 0.5
      vertex -0.0472507 0.37403 0
      vertex -0.058713 0.3707 0
    endloop
  endfacet
  facet normal -0.338694 0.940897 0
    outer loop
      vertex -0.058713 0.3707 0
      vertex -0.0699434 0.366657 0.5
      vertex -0.058713 0.3707 0.5
    endloop
  endfacet
  facet normal -0.338694 0.940897 0
    outer loop
      vertex -0.0699434 0.366657 0.5
      vertex -0.058713 0.3707 0
      vertex -0.0699434 0.366657 0
    endloop
  endfacet
  facet normal -0.156451 0.987686 0
    outer loop
      vertex -0.0238132 0.378501 0
      vertex -0.0356016 0.376634 0.5
      vertex -0.0238132 0.378501 0.5
    endloop
  endfacet
  facet normal -0.156451 0.987686 0
    outer loop
      vertex -0.0356016 0.376634 0.5
      vertex -0.0238132 0.378501 0
      vertex -0.0356016 0.376634 0
    endloop
  endfacet
  facet normal -0.509033 0.860747 0
    outer loop
      vertex -0.0915327 0.356498 0
      vertex -0.101807 0.350422 0.5
      vertex -0.0915327 0.356498 0.5
    endloop
  endfacet
  facet normal -0.509033 0.860747 0
    outer loop
      vertex -0.101807 0.350422 0.5
      vertex -0.0915327 0.356498 0
      vertex -0.101807 0.350422 0
    endloop
  endfacet
  facet normal -0.661328 0.750097 0
    outer loop
      vertex -0.12111 0.336397 0
      vertex -0.130063 0.328504 0.5
      vertex -0.12111 0.336397 0.5
    endloop
  endfacet
  facet normal -0.661328 0.750097 0
    outer loop
      vertex -0.130063 0.328504 0.5
      vertex -0.12111 0.336397 0
      vertex -0.130063 0.328504 0
    endloop
  endfacet
  facet normal -0.707067 0.707147 0
    outer loop
      vertex -0.130063 0.328504 0
      vertex -0.138504 0.320064 0.5
      vertex -0.130063 0.328504 0.5
    endloop
  endfacet
  facet normal -0.707067 0.707147 0
    outer loop
      vertex -0.138504 0.320064 0.5
      vertex -0.130063 0.328504 0
      vertex -0.138504 0.320064 0
    endloop
  endfacet
  facet normal -0.940871 -0.338765 0
    outer loop
      vertex -0.176657 0.120056 0
      vertex -0.1807 0.131287 0.5
      vertex -0.1807 0.131287 0
    endloop
  endfacet
  facet normal -0.940871 -0.338765 0
    outer loop
      vertex -0.1807 0.131287 0.5
      vertex -0.176657 0.120056 0
      vertex -0.176657 0.120056 0.5
    endloop
  endfacet
  facet normal -0.397186 -0.917738 0
    outer loop
      vertex -0.0808973 0.0180826 0
      vertex -0.0699434 0.0133419 0.5
      vertex -0.0808973 0.0180826 0.5
    endloop
  endfacet
  facet normal -0.397186 -0.917738 -0
    outer loop
      vertex -0.0699434 0.0133419 0.5
      vertex -0.0808973 0.0180826 0
      vertex -0.0699434 0.0133419 0
    endloop
  endfacet
  facet normal -0.0940361 -0.995569 0
    outer loop
      vertex -0.0238132 0.00149727 0
      vertex -0.0119295 0.000374794 0.5
      vertex -0.0238132 0.00149727 0.5
    endloop
  endfacet
  facet normal -0.0940361 -0.995569 -0
    outer loop
      vertex -0.0119295 0.000374794 0.5
      vertex -0.0238132 0.00149727 0
      vertex -0.0119295 0.000374794 0
    endloop
  endfacet
  facet normal -0.8271 -0.562054 0
    outer loop
      vertex -0.153713 0.0783205 0
      vertex -0.160421 0.088192 0.5
      vertex -0.160421 0.088192 0
    endloop
  endfacet
  facet normal -0.8271 -0.562054 0
    outer loop
      vertex -0.160421 0.088192 0.5
      vertex -0.153713 0.0783205 0
      vertex -0.153713 0.0783205 0.5
    endloop
  endfacet
  facet normal -0.750136 -0.661283 0
    outer loop
      vertex -0.138504 0.0599356 0
      vertex -0.146397 0.0688887 0.5
      vertex -0.146397 0.0688887 0
    endloop
  endfacet
  facet normal -0.750136 -0.661283 0
    outer loop
      vertex -0.146397 0.0688887 0.5
      vertex -0.138504 0.0599356 0
      vertex -0.138504 0.0599356 0.5
    endloop
  endfacet
  facet normal -0.96029 -0.279003 0
    outer loop
      vertex -0.1807 0.131287 0
      vertex -0.184031 0.142749 0.5
      vertex -0.184031 0.142749 0
    endloop
  endfacet
  facet normal -0.96029 -0.279003 0
    outer loop
      vertex -0.184031 0.142749 0.5
      vertex -0.1807 0.131287 0
      vertex -0.1807 0.131287 0.5
    endloop
  endfacet
  facet normal -0.661328 -0.750097 0
    outer loop
      vertex -0.130063 0.0514956 0
      vertex -0.12111 0.043602 0.5
      vertex -0.130063 0.0514956 0.5
    endloop
  endfacet
  facet normal -0.661328 -0.750097 -0
    outer loop
      vertex -0.12111 0.043602 0.5
      vertex -0.130063 0.0514956 0
      vertex -0.12111 0.043602 0
    endloop
  endfacet
  facet normal -0.453976 -0.891014 0
    outer loop
      vertex -0.0915327 0.0235014 0
      vertex -0.0808973 0.0180826 0.5
      vertex -0.0915327 0.0235014 0.5
    endloop
  endfacet
  facet normal -0.453976 -0.891014 -0
    outer loop
      vertex -0.0808973 0.0180826 0.5
      vertex -0.0915327 0.0235014 0
      vertex -0.0808973 0.0180826 0
    endloop
  endfacet
  facet normal -0.562072 -0.827088 0
    outer loop
      vertex -0.111679 0.0362864 0
      vertex -0.101807 0.0295773 0.5
      vertex -0.111679 0.0362864 0.5
    endloop
  endfacet
  facet normal -0.562072 -0.827088 -0
    outer loop
      vertex -0.101807 0.0295773 0.5
      vertex -0.111679 0.0362864 0
      vertex -0.101807 0.0295773 0
    endloop
  endfacet
  facet normal -0.612922 -0.790143 0
    outer loop
      vertex -0.12111 0.043602 0
      vertex -0.111679 0.0362864 0.5
      vertex -0.12111 0.043602 0.5
    endloop
  endfacet
  facet normal -0.612922 -0.790143 -0
    outer loop
      vertex -0.111679 0.0362864 0.5
      vertex -0.12111 0.043602 0
      vertex -0.111679 0.0362864 0
    endloop
  endfacet
  facet normal -0.156451 -0.987686 0
    outer loop
      vertex -0.0356016 0.00336456 0
      vertex -0.0238132 0.00149727 0.5
      vertex -0.0356016 0.00336456 0.5
    endloop
  endfacet
  facet normal -0.156451 -0.987686 -0
    outer loop
      vertex -0.0238132 0.00149727 0.5
      vertex -0.0356016 0.00336456 0
      vertex -0.0238132 0.00149727 0
    endloop
  endfacet
  facet normal -0.891014 -0.453976 0
    outer loop
      vertex -0.166498 0.0984659 0
      vertex -0.171917 0.109101 0.5
      vertex -0.171917 0.109101 0
    endloop
  endfacet
  facet normal -0.891014 -0.453976 0
    outer loop
      vertex -0.171917 0.109101 0.5
      vertex -0.166498 0.0984659 0
      vertex -0.166498 0.0984659 0.5
    endloop
  endfacet
  facet normal -0.790135 -0.612933 0
    outer loop
      vertex -0.146397 0.0688887 0
      vertex -0.153713 0.0783205 0.5
      vertex -0.153713 0.0783205 0
    endloop
  endfacet
  facet normal -0.790135 -0.612933 0
    outer loop
      vertex -0.153713 0.0783205 0.5
      vertex -0.146397 0.0688887 0
      vertex -0.146397 0.0688887 0.5
    endloop
  endfacet
  facet normal -0.860712 -0.509093 0
    outer loop
      vertex -0.160421 0.088192 0
      vertex -0.166498 0.0984659 0.5
      vertex -0.166498 0.0984659 0
    endloop
  endfacet
  facet normal -0.860712 -0.509093 0
    outer loop
      vertex -0.166498 0.0984659 0.5
      vertex -0.160421 0.088192 0
      vertex -0.160421 0.088192 0.5
    endloop
  endfacet
  facet normal -0.707067 -0.707147 0
    outer loop
      vertex -0.138504 0.0599356 0
      vertex -0.130063 0.0514956 0.5
      vertex -0.138504 0.0599356 0.5
    endloop
  endfacet
  facet normal -0.707067 -0.707147 -0
    outer loop
      vertex -0.130063 0.0514956 0.5
      vertex -0.138504 0.0599356 0
      vertex -0.130063 0.0514956 0
    endloop
  endfacet
  facet normal -0.987688 -0.156438 0
    outer loop
      vertex -0.186634 0.154397 0
      vertex -0.188501 0.166186 0.5
      vertex -0.188501 0.166186 0
    endloop
  endfacet
  facet normal -0.987688 -0.156438 0
    outer loop
      vertex -0.188501 0.166186 0.5
      vertex -0.186634 0.154397 0
      vertex -0.186634 0.154397 0.5
    endloop
  endfacet
  facet normal -0.995561 -0.0941228 0
    outer loop
      vertex -0.188501 0.166186 0
      vertex -0.189625 0.178069 0.5
      vertex -0.189625 0.178069 0
    endloop
  endfacet
  facet normal -0.995561 -0.0941228 0
    outer loop
      vertex -0.189625 0.178069 0.5
      vertex -0.188501 0.166186 0
      vertex -0.188501 0.166186 0.5
    endloop
  endfacet
  facet normal -0.999507 -0.0313994 0
    outer loop
      vertex -0.189625 0.178069 0
      vertex -0.19 0.19 0.5
      vertex -0.19 0.19 0
    endloop
  endfacet
  facet normal -0.999507 -0.0313994 0
    outer loop
      vertex -0.19 0.19 0.5
      vertex -0.189625 0.178069 0
      vertex -0.189625 0.178069 0.5
    endloop
  endfacet
  facet normal -0.975919 -0.218132 0
    outer loop
      vertex -0.184031 0.142749 0
      vertex -0.186634 0.154397 0.5
      vertex -0.186634 0.154397 0
    endloop
  endfacet
  facet normal -0.975919 -0.218132 0
    outer loop
      vertex -0.186634 0.154397 0.5
      vertex -0.184031 0.142749 0
      vertex -0.184031 0.142749 0.5
    endloop
  endfacet
  facet normal -0.91778 -0.397089 0
    outer loop
      vertex -0.171917 0.109101 0
      vertex -0.176657 0.120056 0.5
      vertex -0.176657 0.120056 0
    endloop
  endfacet
  facet normal -0.91778 -0.397089 0
    outer loop
      vertex -0.176657 0.120056 0.5
      vertex -0.171917 0.109101 0
      vertex -0.171917 0.109101 0.5
    endloop
  endfacet
  facet normal -0.338765 -0.940871 0
    outer loop
      vertex -0.0699434 0.0133419 0
      vertex -0.058713 0.00929832 0.5
      vertex -0.0699434 0.0133419 0.5
    endloop
  endfacet
  facet normal -0.338765 -0.940871 -0
    outer loop
      vertex -0.058713 0.00929832 0.5
      vertex -0.0699434 0.0133419 0
      vertex -0.058713 0.00929832 0
    endloop
  endfacet
  facet normal -0.509033 -0.860747 0
    outer loop
      vertex -0.101807 0.0295773 0
      vertex -0.0915327 0.0235014 0.5
      vertex -0.101807 0.0295773 0.5
    endloop
  endfacet
  facet normal -0.509033 -0.860747 -0
    outer loop
      vertex -0.0915327 0.0235014 0.5
      vertex -0.101807 0.0295773 0
      vertex -0.0915327 0.0235014 0
    endloop
  endfacet
  facet normal -0.278929 -0.960312 0
    outer loop
      vertex -0.058713 0.00929832 0
      vertex -0.0472507 0.00596905 0.5
      vertex -0.058713 0.00929832 0.5
    endloop
  endfacet
  facet normal -0.278929 -0.960312 -0
    outer loop
      vertex -0.0472507 0.00596905 0.5
      vertex -0.058713 0.00929832 0
      vertex -0.0472507 0.00596905 0
    endloop
  endfacet
  facet normal -0.218191 -0.975906 0
    outer loop
      vertex -0.0472507 0.00596905 0
      vertex -0.0356016 0.00336456 0.5
      vertex -0.0472507 0.00596905 0.5
    endloop
  endfacet
  facet normal -0.218191 -0.975906 -0
    outer loop
      vertex -0.0356016 0.00336456 0.5
      vertex -0.0472507 0.00596905 0
      vertex -0.0356016 0.00336456 0
    endloop
  endfacet
  facet normal -0.0314019 -0.999507 0
    outer loop
      vertex -0.0119295 0.000374794 0
      vertex 0 0 0.5
      vertex -0.0119295 0.000374794 0.5
    endloop
  endfacet
  facet normal -0.0314019 -0.999507 -0
    outer loop
      vertex 0 0 0.5
      vertex -0.0119295 0.000374794 0
      vertex 0 0 0
    endloop
  endfacet
  facet normal 0.397157 -0.917751 0
    outer loop
      vertex 0.729101 0.361917 0
      vertex 0.740056 0.366657 0.5
      vertex 0.729101 0.361917 0.5
    endloop
  endfacet
  facet normal 0.397157 -0.917751 0
    outer loop
      vertex 0.740056 0.366657 0.5
      vertex 0.729101 0.361917 0
      vertex 0.740056 0.366657 0
    endloop
  endfacet
  facet normal 0.940897 -0.338694 0
    outer loop
      vertex 0.629299 0.248713 0.5
      vertex 0.633342 0.259943 0
      vertex 0.633342 0.259943 0.5
    endloop
  endfacet
  facet normal 0.940897 -0.338694 0
    outer loop
      vertex 0.633342 0.259943 0
      vertex 0.629299 0.248713 0.5
      vertex 0.629299 0.248713 0
    endloop
  endfacet
  facet normal 0.995561 -0.0941228 0
    outer loop
      vertex 0.620375 0.20193 0.5
      vertex 0.621498 0.213813 0
      vertex 0.621498 0.213813 0.5
    endloop
  endfacet
  facet normal 0.995561 -0.0941228 0
    outer loop
      vertex 0.621498 0.213813 0
      vertex 0.620375 0.20193 0.5
      vertex 0.620375 0.20193 0
    endloop
  endfacet
  facet normal 0.790173 -0.612884 0
    outer loop
      vertex 0.656286 0.301679 0.5
      vertex 0.663602 0.31111 0
      vertex 0.663602 0.31111 0.5
    endloop
  endfacet
  facet normal 0.790173 -0.612884 0
    outer loop
      vertex 0.663602 0.31111 0
      vertex 0.656286 0.301679 0.5
      vertex 0.656286 0.301679 0
    endloop
  endfacet
  facet normal 0.218132 -0.975919 0
    outer loop
      vertex 0.762749 0.37403 0
      vertex 0.774397 0.376634 0.5
      vertex 0.762749 0.37403 0.5
    endloop
  endfacet
  facet normal 0.218132 -0.975919 0
    outer loop
      vertex 0.774397 0.376634 0.5
      vertex 0.762749 0.37403 0
      vertex 0.774397 0.376634 0
    endloop
  endfacet
  facet normal 0.612884 0.790173 -0
    outer loop
      vertex 0.69832 0.0362864 0
      vertex 0.688889 0.043602 0.5
      vertex 0.69832 0.0362864 0.5
    endloop
  endfacet
  facet normal 0.612884 0.790173 0
    outer loop
      vertex 0.688889 0.043602 0.5
      vertex 0.69832 0.0362864 0
      vertex 0.688889 0.043602 0
    endloop
  endfacet
  facet normal 0.891014 0.453976 0
    outer loop
      vertex 0.643501 0.0984659 0.5
      vertex 0.638083 0.109101 0
      vertex 0.638083 0.109101 0.5
    endloop
  endfacet
  facet normal 0.891014 0.453976 0
    outer loop
      vertex 0.638083 0.109101 0
      vertex 0.643501 0.0984659 0.5
      vertex 0.643501 0.0984659 0
    endloop
  endfacet
  facet normal 0.999507 0.0313994 0
    outer loop
      vertex 0.620375 0.178069 0.5
      vertex 0.62 0.19 0
      vertex 0.62 0.19 0.5
    endloop
  endfacet
  facet normal 0.999507 0.0313994 0
    outer loop
      vertex 0.62 0.19 0
      vertex 0.620375 0.178069 0.5
      vertex 0.620375 0.178069 0
    endloop
  endfacet
  facet normal 0.96029 -0.279003 0
    outer loop
      vertex 0.625969 0.23725 0.5
      vertex 0.629299 0.248713 0
      vertex 0.629299 0.248713 0.5
    endloop
  endfacet
  facet normal 0.96029 -0.279003 0
    outer loop
      vertex 0.629299 0.248713 0
      vertex 0.625969 0.23725 0.5
      vertex 0.625969 0.23725 0
    endloop
  endfacet
  facet normal 0.987688 -0.156438 0
    outer loop
      vertex 0.621498 0.213813 0.5
      vertex 0.623365 0.225602 0
      vertex 0.623365 0.225602 0.5
    endloop
  endfacet
  facet normal 0.987688 -0.156438 0
    outer loop
      vertex 0.623365 0.225602 0
      vertex 0.621498 0.213813 0.5
      vertex 0.621498 0.213813 0
    endloop
  endfacet
  facet normal 0.860747 -0.509033 0
    outer loop
      vertex 0.643501 0.281532 0.5
      vertex 0.649577 0.291806 0
      vertex 0.649577 0.291806 0.5
    endloop
  endfacet
  facet normal 0.860747 -0.509033 0
    outer loop
      vertex 0.649577 0.291806 0
      vertex 0.643501 0.281532 0.5
      vertex 0.643501 0.281532 0
    endloop
  endfacet
  facet normal 0.0941228 -0.995561 0
    outer loop
      vertex 0.786186 0.378501 0
      vertex 0.798069 0.379624 0.5
      vertex 0.786186 0.378501 0.5
    endloop
  endfacet
  facet normal 0.0941228 -0.995561 0
    outer loop
      vertex 0.798069 0.379624 0.5
      vertex 0.786186 0.378501 0
      vertex 0.798069 0.379624 0
    endloop
  endfacet
  facet normal 0.612884 -0.790173 0
    outer loop
      vertex 0.688889 0.336397 0
      vertex 0.69832 0.343713 0.5
      vertex 0.688889 0.336397 0.5
    endloop
  endfacet
  facet normal 0.612884 -0.790173 0
    outer loop
      vertex 0.69832 0.343713 0.5
      vertex 0.688889 0.336397 0
      vertex 0.69832 0.343713 0
    endloop
  endfacet
  facet normal 0.661328 -0.750097 0
    outer loop
      vertex 0.679935 0.328504 0
      vertex 0.688889 0.336397 0.5
      vertex 0.679935 0.328504 0.5
    endloop
  endfacet
  facet normal 0.661328 -0.750097 0
    outer loop
      vertex 0.688889 0.336397 0.5
      vertex 0.679935 0.328504 0
      vertex 0.688889 0.336397 0
    endloop
  endfacet
  facet normal 0.509033 -0.860747 0
    outer loop
      vertex 0.708193 0.350422 0
      vertex 0.718467 0.356498 0.5
      vertex 0.708193 0.350422 0.5
    endloop
  endfacet
  facet normal 0.509033 -0.860747 0
    outer loop
      vertex 0.718467 0.356498 0.5
      vertex 0.708193 0.350422 0
      vertex 0.718467 0.356498 0
    endloop
  endfacet
  facet normal 0.454008 0.890997 -0
    outer loop
      vertex 0.729101 0.0180826 0
      vertex 0.718467 0.0235014 0.5
      vertex 0.729101 0.0180826 0.5
    endloop
  endfacet
  facet normal 0.454008 0.890997 0
    outer loop
      vertex 0.718467 0.0235014 0.5
      vertex 0.729101 0.0180826 0
      vertex 0.718467 0.0235014 0
    endloop
  endfacet
  facet normal 0.995561 0.0941228 0
    outer loop
      vertex 0.621498 0.166186 0.5
      vertex 0.620375 0.178069 0
      vertex 0.620375 0.178069 0.5
    endloop
  endfacet
  facet normal 0.995561 0.0941228 0
    outer loop
      vertex 0.620375 0.178069 0
      vertex 0.621498 0.166186 0.5
      vertex 0.621498 0.166186 0
    endloop
  endfacet
  facet normal 0.987688 0.156438 0
    outer loop
      vertex 0.623365 0.154397 0.5
      vertex 0.621498 0.166186 0
      vertex 0.621498 0.166186 0.5
    endloop
  endfacet
  facet normal 0.987688 0.156438 0
    outer loop
      vertex 0.621498 0.166186 0
      vertex 0.623365 0.154397 0.5
      vertex 0.623365 0.154397 0
    endloop
  endfacet
  facet normal 0.750097 0.661328 0
    outer loop
      vertex 0.671495 0.0599356 0.5
      vertex 0.663602 0.0688887 0
      vertex 0.663602 0.0688887 0.5
    endloop
  endfacet
  facet normal 0.750097 0.661328 0
    outer loop
      vertex 0.663602 0.0688887 0
      vertex 0.671495 0.0599356 0.5
      vertex 0.671495 0.0599356 0
    endloop
  endfacet
  facet normal 0.790173 0.612884 0
    outer loop
      vertex 0.663602 0.0688887 0.5
      vertex 0.656286 0.0783205 0
      vertex 0.656286 0.0783205 0.5
    endloop
  endfacet
  facet normal 0.790173 0.612884 0
    outer loop
      vertex 0.656286 0.0783205 0
      vertex 0.663602 0.0688887 0.5
      vertex 0.663602 0.0688887 0
    endloop
  endfacet
  facet normal 0.860747 0.509033 0
    outer loop
      vertex 0.649577 0.088192 0.5
      vertex 0.643501 0.0984659 0
      vertex 0.643501 0.0984659 0.5
    endloop
  endfacet
  facet normal 0.860747 0.509033 0
    outer loop
      vertex 0.643501 0.0984659 0
      vertex 0.649577 0.088192 0.5
      vertex 0.649577 0.088192 0
    endloop
  endfacet
  facet normal 0.707107 0.707107 0
    outer loop
      vertex 0.679935 0.0514956 0.5
      vertex 0.671495 0.0599356 0
      vertex 0.671495 0.0599356 0.5
    endloop
  endfacet
  facet normal 0.707107 0.707107 0
    outer loop
      vertex 0.671495 0.0599356 0
      vertex 0.679935 0.0514956 0.5
      vertex 0.679935 0.0514956 0
    endloop
  endfacet
  facet normal 0.0313994 -0.999507 0
    outer loop
      vertex 0.798069 0.379624 0
      vertex 0.809999 0.379999 0.5
      vertex 0.798069 0.379624 0.5
    endloop
  endfacet
  facet normal 0.0313994 -0.999507 0
    outer loop
      vertex 0.809999 0.379999 0.5
      vertex 0.798069 0.379624 0
      vertex 0.809999 0.379999 0
    endloop
  endfacet
  facet normal 0.999507 -0.0313994 0
    outer loop
      vertex 0.62 0.19 0.5
      vertex 0.620375 0.20193 0
      vertex 0.620375 0.20193 0.5
    endloop
  endfacet
  facet normal 0.999507 -0.0313994 0
    outer loop
      vertex 0.620375 0.20193 0
      vertex 0.62 0.19 0.5
      vertex 0.62 0.19 0
    endloop
  endfacet
  facet normal 0.975919 -0.218132 0
    outer loop
      vertex 0.623365 0.225602 0.5
      vertex 0.625969 0.23725 0
      vertex 0.625969 0.23725 0.5
    endloop
  endfacet
  facet normal 0.975919 -0.218132 0
    outer loop
      vertex 0.625969 0.23725 0
      vertex 0.623365 0.225602 0.5
      vertex 0.623365 0.225602 0
    endloop
  endfacet
  facet normal 0.917751 -0.397157 0
    outer loop
      vertex 0.633342 0.259943 0.5
      vertex 0.638083 0.270898 0
      vertex 0.638083 0.270898 0.5
    endloop
  endfacet
  facet normal 0.917751 -0.397157 0
    outer loop
      vertex 0.638083 0.270898 0
      vertex 0.633342 0.259943 0.5
      vertex 0.633342 0.259943 0
    endloop
  endfacet
  facet normal 0.827088 -0.562072 0
    outer loop
      vertex 0.649577 0.291806 0.5
      vertex 0.656286 0.301679 0
      vertex 0.656286 0.301679 0.5
    endloop
  endfacet
  facet normal 0.827088 -0.562072 0
    outer loop
      vertex 0.656286 0.301679 0
      vertex 0.649577 0.291806 0.5
      vertex 0.649577 0.291806 0
    endloop
  endfacet
  facet normal 0.279003 -0.96029 0
    outer loop
      vertex 0.751287 0.3707 0
      vertex 0.762749 0.37403 0.5
      vertex 0.751287 0.3707 0.5
    endloop
  endfacet
  facet normal 0.279003 -0.96029 0
    outer loop
      vertex 0.762749 0.37403 0.5
      vertex 0.751287 0.3707 0
      vertex 0.762749 0.37403 0
    endloop
  endfacet
  facet normal 0.338694 -0.940897 0
    outer loop
      vertex 0.740056 0.366657 0
      vertex 0.751287 0.3707 0.5
      vertex 0.740056 0.366657 0.5
    endloop
  endfacet
  facet normal 0.338694 -0.940897 0
    outer loop
      vertex 0.751287 0.3707 0.5
      vertex 0.740056 0.366657 0
      vertex 0.751287 0.3707 0
    endloop
  endfacet
  facet normal 0.156438 -0.987688 0
    outer loop
      vertex 0.774397 0.376634 0
      vertex 0.786186 0.378501 0.5
      vertex 0.774397 0.376634 0.5
    endloop
  endfacet
  facet normal 0.156438 -0.987688 0
    outer loop
      vertex 0.786186 0.378501 0.5
      vertex 0.774397 0.376634 0
      vertex 0.786186 0.378501 0
    endloop
  endfacet
  facet normal 0.562072 -0.827088 0
    outer loop
      vertex 0.69832 0.343713 0
      vertex 0.708193 0.350422 0.5
      vertex 0.69832 0.343713 0.5
    endloop
  endfacet
  facet normal 0.562072 -0.827088 0
    outer loop
      vertex 0.708193 0.350422 0.5
      vertex 0.69832 0.343713 0
      vertex 0.708193 0.350422 0
    endloop
  endfacet
  facet normal 0.454008 -0.890997 0
    outer loop
      vertex 0.718467 0.356498 0
      vertex 0.729101 0.361917 0.5
      vertex 0.718467 0.356498 0.5
    endloop
  endfacet
  facet normal 0.454008 -0.890997 0
    outer loop
      vertex 0.729101 0.361917 0.5
      vertex 0.718467 0.356498 0
      vertex 0.729101 0.361917 0
    endloop
  endfacet
  facet normal 0.707107 -0.707107 0
    outer loop
      vertex 0.671495 0.320064 0.5
      vertex 0.679935 0.328504 0
      vertex 0.679935 0.328504 0.5
    endloop
  endfacet
  facet normal 0.707107 -0.707107 0
    outer loop
      vertex 0.679935 0.328504 0
      vertex 0.671495 0.320064 0.5
      vertex 0.671495 0.320064 0
    endloop
  endfacet
  facet normal 0.750097 -0.661328 0
    outer loop
      vertex 0.663602 0.31111 0.5
      vertex 0.671495 0.320064 0
      vertex 0.671495 0.320064 0.5
    endloop
  endfacet
  facet normal 0.750097 -0.661328 0
    outer loop
      vertex 0.671495 0.320064 0
      vertex 0.663602 0.31111 0.5
      vertex 0.663602 0.31111 0
    endloop
  endfacet
  facet normal 0.156438 0.987688 -0
    outer loop
      vertex 0.786186 0.00149727 0
      vertex 0.774397 0.00336456 0.5
      vertex 0.786186 0.00149727 0.5
    endloop
  endfacet
  facet normal 0.156438 0.987688 0
    outer loop
      vertex 0.774397 0.00336456 0.5
      vertex 0.786186 0.00149727 0
      vertex 0.774397 0.00336456 0
    endloop
  endfacet
  facet normal 0.278929 0.960312 -0
    outer loop
      vertex 0.762749 0.00596905 0
      vertex 0.751287 0.00929832 0.5
      vertex 0.762749 0.00596905 0.5
    endloop
  endfacet
  facet normal 0.278929 0.960312 0
    outer loop
      vertex 0.751287 0.00929832 0.5
      vertex 0.762749 0.00596905 0
      vertex 0.751287 0.00929832 0
    endloop
  endfacet
  facet normal 0.0940436 0.995568 -0
    outer loop
      vertex 0.798069 0.000374794 0
      vertex 0.786186 0.00149727 0.5
      vertex 0.798069 0.000374794 0.5
    endloop
  endfacet
  facet normal 0.0940436 0.995568 0
    outer loop
      vertex 0.786186 0.00149727 0.5
      vertex 0.798069 0.000374794 0
      vertex 0.786186 0.00149727 0
    endloop
  endfacet
  facet normal 0.0313994 0.999507 -0
    outer loop
      vertex 0.809999 0 0
      vertex 0.798069 0.000374794 0.5
      vertex 0.809999 0 0.5
    endloop
  endfacet
  facet normal 0.0313994 0.999507 0
    outer loop
      vertex 0.798069 0.000374794 0.5
      vertex 0.809999 0 0
      vertex 0.798069 0.000374794 0
    endloop
  endfacet
  facet normal 0.218208 0.975902 -0
    outer loop
      vertex 0.774397 0.00336456 0
      vertex 0.762749 0.00596905 0.5
      vertex 0.774397 0.00336456 0.5
    endloop
  endfacet
  facet normal 0.218208 0.975902 0
    outer loop
      vertex 0.762749 0.00596905 0.5
      vertex 0.774397 0.00336456 0
      vertex 0.762749 0.00596905 0
    endloop
  endfacet
  facet normal 0.397157 0.917751 -0
    outer loop
      vertex 0.740056 0.0133419 0
      vertex 0.729101 0.0180826 0.5
      vertex 0.740056 0.0133419 0.5
    endloop
  endfacet
  facet normal 0.397157 0.917751 0
    outer loop
      vertex 0.729101 0.0180826 0.5
      vertex 0.740056 0.0133419 0
      vertex 0.729101 0.0180826 0
    endloop
  endfacet
  facet normal 0.509033 0.860747 -0
    outer loop
      vertex 0.718467 0.0235014 0
      vertex 0.708193 0.0295773 0.5
      vertex 0.718467 0.0235014 0.5
    endloop
  endfacet
  facet normal 0.509033 0.860747 0
    outer loop
      vertex 0.708193 0.0295773 0.5
      vertex 0.718467 0.0235014 0
      vertex 0.708193 0.0295773 0
    endloop
  endfacet
  facet normal 0.562072 0.827088 -0
    outer loop
      vertex 0.708193 0.0295773 0
      vertex 0.69832 0.0362864 0.5
      vertex 0.708193 0.0295773 0.5
    endloop
  endfacet
  facet normal 0.562072 0.827088 0
    outer loop
      vertex 0.69832 0.0362864 0.5
      vertex 0.708193 0.0295773 0
      vertex 0.69832 0.0362864 0
    endloop
  endfacet
  facet normal 0.96029 0.279003 0
    outer loop
      vertex 0.629299 0.131287 0.5
      vertex 0.625969 0.142749 0
      vertex 0.625969 0.142749 0.5
    endloop
  endfacet
  facet normal 0.96029 0.279003 0
    outer loop
      vertex 0.625969 0.142749 0
      vertex 0.629299 0.131287 0.5
      vertex 0.629299 0.131287 0
    endloop
  endfacet
  facet normal 0.917751 0.397157 0
    outer loop
      vertex 0.638083 0.109101 0.5
      vertex 0.633342 0.120056 0
      vertex 0.633342 0.120056 0.5
    endloop
  endfacet
  facet normal 0.917751 0.397157 0
    outer loop
      vertex 0.633342 0.120056 0
      vertex 0.638083 0.109101 0.5
      vertex 0.638083 0.109101 0
    endloop
  endfacet
  facet normal 0.827063 0.562109 0
    outer loop
      vertex 0.656286 0.0783205 0.5
      vertex 0.649577 0.088192 0
      vertex 0.649577 0.088192 0.5
    endloop
  endfacet
  facet normal 0.827063 0.562109 0
    outer loop
      vertex 0.649577 0.088192 0
      vertex 0.656286 0.0783205 0.5
      vertex 0.656286 0.0783205 0
    endloop
  endfacet
  facet normal 0.890997 -0.454008 0
    outer loop
      vertex 0.638083 0.270898 0.5
      vertex 0.643501 0.281532 0
      vertex 0.643501 0.281532 0.5
    endloop
  endfacet
  facet normal 0.890997 -0.454008 0
    outer loop
      vertex 0.643501 0.281532 0
      vertex 0.638083 0.270898 0.5
      vertex 0.638083 0.270898 0
    endloop
  endfacet
  facet normal 0.338765 0.940871 -0
    outer loop
      vertex 0.751287 0.00929832 0
      vertex 0.740056 0.0133419 0.5
      vertex 0.751287 0.00929832 0.5
    endloop
  endfacet
  facet normal 0.338765 0.940871 0
    outer loop
      vertex 0.740056 0.0133419 0.5
      vertex 0.751287 0.00929832 0
      vertex 0.740056 0.0133419 0
    endloop
  endfacet
  facet normal 0.940897 0.338694 0
    outer loop
      vertex 0.633342 0.120056 0.5
      vertex 0.629299 0.131287 0
      vertex 0.629299 0.131287 0.5
    endloop
  endfacet
  facet normal 0.940897 0.338694 0
    outer loop
      vertex 0.629299 0.131287 0
      vertex 0.633342 0.120056 0.5
      vertex 0.633342 0.120056 0
    endloop
  endfacet
  facet normal 0.975919 0.218132 0
    outer loop
      vertex 0.625969 0.142749 0.5
      vertex 0.623365 0.154397 0
      vertex 0.623365 0.154397 0.5
    endloop
  endfacet
  facet normal 0.975919 0.218132 0
    outer loop
      vertex 0.623365 0.154397 0
      vertex 0.625969 0.142749 0.5
      vertex 0.625969 0.142749 0
    endloop
  endfacet
  facet normal 0.661328 0.750097 -0
    outer loop
      vertex 0.688889 0.043602 0
      vertex 0.679935 0.0514956 0.5
      vertex 0.688889 0.043602 0.5
    endloop
  endfacet
  facet normal 0.661328 0.750097 0
    outer loop
      vertex 0.679935 0.0514956 0.5
      vertex 0.688889 0.043602 0
      vertex 0.679935 0.0514956 0
    endloop
  endfacet
endsolid OpenSCAD_Model
